<?xml version="1.0" encoding="UTF-8"?> <svg xmlns="http://www.w3.org/2000/svg" width="503.42188" height="388.37424" viewBox="0 0 503.42188 388.37424"><defs><style>.cls-1{fill:#0a6dfe;}.cls-2,.cls-4,.cls-5,.cls-6{fill:none;stroke-miterlimit:10;}.cls-2,.cls-4,.cls-6{stroke:#7e8896;}.cls-2,.cls-4,.cls-5{stroke-linecap:round;}.cls-2,.cls-5{stroke-width:2px;}.cls-3{fill:#7e8896;}.cls-5{stroke:#0a6dfe;}</style></defs><g id="Vrstva_2" data-name="Vrstva 2"><g id="Layer_1" data-name="Layer 1"><path class="cls-1" d="M292.19873,2a3.47615,3.47615,0,0,1,3.47217,3.47224v45.0627a3.47615,3.47615,0,0,1-3.47217,3.47223H58.12256a3.47615,3.47615,0,0,1-3.47217-3.47223V5.47224A3.47615,3.47615,0,0,1,58.12256,2H292.19873m0-2H58.12256a5.47235,5.47235,0,0,0-5.47217,5.47224v45.0627a5.47237,5.47237,0,0,0,5.47217,5.47223H292.19873a5.47237,5.47237,0,0,0,5.47217-5.47223V5.47224A5.47235,5.47235,0,0,0,292.19873,0Z"></path><path class="cls-1" d="M112.63281,20.68283l-5.52734,12.604h-1.78223l-5.5459-12.604h1.94532l4.53711,10.35352L110.832,20.68283Z"></path><path class="cls-1" d="M125.918,33.28683l-.01856-9.18261-4.55566,7.65234h-.82813l-4.55468-7.59863v9.1289h-1.72852v-12.604H115.709l5.25684,8.85889,5.18555-8.85889h1.47656l.01855,12.604Z"></path><path class="cls-1" d="M145.60938,23.74387l-3.56446,9.543h-1.65625l-2.75488-7.23828-2.791,7.23828h-1.65625l-3.54785-9.543h1.63867l2.77344,7.59814,2.88086-7.59814h1.458l2.82715,7.63427,2.84472-7.63427Z"></path><path class="cls-1" d="M154.60742,27.52512v5.76171h-1.63867V32.02658a3.54243,3.54243,0,0,1-3.13281,1.36816c-2.16016,0-3.5293-1.15234-3.5293-2.80859,0-1.53076.99024-2.791,3.83594-2.791h2.73633v-.3418c0-1.4585-.84571-2.30469-2.55664-2.30469a4.828,4.828,0,0,0-3.02539,1.02588l-.71973-1.29639a6.35722,6.35722,0,0,1,3.94336-1.22412C153.13086,23.654,154.60742,24.91428,154.60742,27.52512Zm-1.72851,2.84472V29.03732h-2.66407c-1.71093,0-2.19726.66651-2.19726,1.47657,0,.95459.792,1.54882,2.10644,1.54882A2.76742,2.76742,0,0,0,152.87891,30.36984Z"></path><path class="cls-1" d="M162.94141,23.654v1.67432a3.05088,3.05088,0,0,0-.39649-.01807c-1.85449,0-3.00683,1.13428-3.00683,3.22315v4.75341h-1.72852v-9.543h1.65625v1.60254A3.64338,3.64338,0,0,1,162.94141,23.654Z"></path><path class="cls-1" d="M173.56152,29.09152h-7.74218a3.23227,3.23227,0,0,0,3.457,2.791,3.56433,3.56433,0,0,0,2.75488-1.15235l.9541,1.11622a5.20147,5.20147,0,0,1-8.89453-3.33106,4.6732,4.6732,0,0,1,4.78906-4.86133,4.60149,4.60149,0,0,1,4.71778,4.91553C173.59766,28.71359,173.58008,28.92941,173.56152,29.09152Zm-7.74218-1.24219h6.12207a3.08024,3.08024,0,0,0-6.12207,0Z"></path><path class="cls-1" d="M189.27539,23.74387l-4.17773,9.543H183.334l-4.17773-9.543H180.957l3.27735,7.65234,3.34863-7.65234Z"></path><path class="cls-1" d="M189.99219,26.98508a6.376,6.376,0,0,1,6.68066-6.4458,6.22752,6.22752,0,0,1,4.78906,1.9624L200.292,23.636a4.67185,4.67185,0,0,0-3.54785-1.49463,4.84468,4.84468,0,1,0,0,9.687,4.68979,4.68979,0,0,0,3.54785-1.51221l1.16992,1.13428a6.25361,6.25361,0,0,1-4.80761,1.98047A6.37108,6.37108,0,0,1,189.99219,26.98508Z"></path><path class="cls-1" d="M211.97363,29.09152h-7.74218a3.23227,3.23227,0,0,0,3.457,2.791,3.56433,3.56433,0,0,0,2.75488-1.15235l.9541,1.11622a5.20147,5.20147,0,0,1-8.89453-3.33106A4.6732,4.6732,0,0,1,207.292,23.654a4.60149,4.60149,0,0,1,4.71778,4.91553C212.00977,28.71359,211.99219,28.92941,211.97363,29.09152Zm-7.74218-1.24219h6.12207a3.08024,3.08024,0,0,0-6.12207,0Z"></path><path class="cls-1" d="M223.458,27.79514v5.49169h-1.72852V27.99338c0-1.87256-.93652-2.791-2.57519-2.791a2.83438,2.83438,0,0,0-3.02442,3.169v4.91552h-1.72851v-9.543h1.65625V25.1843a4.09064,4.09064,0,0,1,3.43847-1.53028C221.81934,23.654,223.458,24.98654,223.458,27.79514Z"></path><path class="cls-1" d="M232.02441,32.72873a3.26109,3.26109,0,0,1-2.08886.666,2.72308,2.72308,0,0,1-3.02442-2.98876V25.16623H225.291V23.74387h1.62011V21.65549h1.72852v2.08838h2.7373v1.42236h-2.7373v5.168a1.4059,1.4059,0,0,0,1.49414,1.60205,2.174,2.174,0,0,0,1.35059-.44971Z"></path><path class="cls-1" d="M242.375,29.09152h-7.74219a3.23291,3.23291,0,0,0,3.457,2.791,3.56641,3.56641,0,0,0,2.75586-1.15235l.95313,1.11622a5.20147,5.20147,0,0,1-8.89453-3.33106,4.674,4.674,0,0,1,4.79-4.86133,4.60149,4.60149,0,0,1,4.71777,4.91553C242.41211,28.71359,242.39355,28.92941,242.375,29.09152Zm-7.74219-1.24219h6.12207a3.08024,3.08024,0,0,0-6.12207,0Z"></path><path class="cls-1" d="M249.93457,23.654v1.67432a3.03623,3.03623,0,0,0-.39551-.01807c-1.85547,0-3.00781,1.13428-3.00781,3.22315v4.75341h-1.72852v-9.543H246.459v1.60254A3.64439,3.64439,0,0,1,249.93457,23.654Z"></path><rect class="cls-2" x="1.0177" y="223.11448" width="349" height="56.00718" rx="6.53099"></rect><path class="cls-3" d="M72.19336,243.79709,66.666,256.40158H64.88379l-5.5459-12.60449H61.2832l4.53711,10.35351,4.57227-10.35351Z"></path><path class="cls-3" d="M85.47852,256.40158,85.46,247.218l-4.55566,7.65234h-.82813l-4.55469-7.59766v9.12891H73.793V243.79709h1.47656l5.25684,8.8584,5.18554-8.8584h1.47657l.01855,12.60449Z"></path><path class="cls-3" d="M105.16992,246.85861l-3.56445,9.543H99.94922l-2.75488-7.23828-2.791,7.23828H92.74707l-3.54785-9.543h1.63867l2.77344,7.59766,2.88086-7.59766h1.458l2.82714,7.63379,2.84473-7.63379Z"></path><path class="cls-3" d="M114.168,250.63986v5.76172H112.5293v-1.26074a3.54246,3.54246,0,0,1-3.13282,1.36816c-2.16015,0-3.52929-1.15234-3.52929-2.80859,0-1.53125.99023-2.791,3.83593-2.791h2.73633v-.34179c0-1.459-.8457-2.30469-2.55664-2.30469a4.8335,4.8335,0,0,0-3.02539,1.02539l-.71972-1.2959a6.357,6.357,0,0,1,3.94335-1.22363C112.69141,246.76877,114.168,248.02853,114.168,250.63986Zm-1.72852,2.84375v-1.332h-2.66406c-1.71094,0-2.19727.666-2.19727,1.47656,0,.95508.792,1.54883,2.10645,1.54883A2.76646,2.76646,0,0,0,112.43945,253.48361Z"></path><path class="cls-3" d="M122.502,246.76877v1.67383a3.13509,3.13509,0,0,0-.39648-.01758c-1.85449,0-3.00684,1.13379-3.00684,3.22265v4.75391h-1.72851v-9.543h1.65625v1.60156A3.64463,3.64463,0,0,1,122.502,246.76877Z"></path><path class="cls-3" d="M133.12207,252.20627h-7.74219a3.23264,3.23264,0,0,0,3.457,2.791,3.566,3.566,0,0,0,2.75489-1.15234l.9541,1.11523a5.20113,5.20113,0,0,1-8.89453-3.33007,4.67292,4.67292,0,0,1,4.78906-4.86133,4.60135,4.60135,0,0,1,4.71777,4.915C133.1582,251.82736,133.14062,252.04416,133.12207,252.20627Zm-7.74219-1.24219H131.502a3.08018,3.08018,0,0,0-6.12207,0Z"></path><path class="cls-3" d="M149.44824,250.90939v5.49219h-1.72851v-5.29394c0-1.87207-.93653-2.791-2.5752-2.791a2.83438,2.83438,0,0,0-3.02441,3.16895v4.916H140.3916V243.04123h1.72852v5.167a4.13645,4.13645,0,0,1,3.36621-1.43945C147.80957,246.76877,149.44824,248.1008,149.44824,250.90939Z"></path><path class="cls-3" d="M160.91406,246.85861l-4.62695,10.4961c-.84668,2.01757-1.94531,2.64746-3.40332,2.64746a3.57945,3.57945,0,0,1-2.44824-.88184l.73828-1.29687a2.43728,2.43728,0,0,0,1.71.70214c.82812,0,1.35059-.37793,1.81836-1.47656l.30566-.666-4.21289-9.52442h1.80078l3.33106,7.63379,3.29492-7.63379Z"></path><path class="cls-3" d="M172.416,251.6301a4.63586,4.63586,0,0,1-4.8252,4.8789,4.0736,4.0736,0,0,1-3.33105-1.54883v4.9336h-1.72852V246.85861h1.65625v1.51172a4.06529,4.06529,0,0,1,3.40332-1.60156A4.63074,4.63074,0,0,1,172.416,251.6301Zm-1.7461,0a3.21736,3.21736,0,1,0-3.22265,3.36718A3.15473,3.15473,0,0,0,170.66992,251.6301Z"></path><path class="cls-3" d="M183.39648,252.20627H175.6543a3.232,3.232,0,0,0,3.457,2.791,3.56531,3.56531,0,0,0,2.7539-1.15234l.95508,1.11523a5.20112,5.20112,0,0,1-8.89453-3.33007,4.67292,4.67292,0,0,1,4.78906-4.86133,4.60113,4.60113,0,0,1,4.7168,4.915C183.43164,251.82736,183.41406,252.04416,183.39648,252.20627Zm-7.74218-1.24219h6.12109a3.07963,3.07963,0,0,0-6.12109,0Z"></path><path class="cls-3" d="M190.95508,246.76877v1.67383a3.13524,3.13524,0,0,0-.39649-.01758c-1.85449,0-3.00683,1.13379-3.00683,3.22265v4.75391h-1.72852v-9.543h1.65625v1.60156A3.64465,3.64465,0,0,1,190.95508,246.76877Z"></path><path class="cls-3" d="M201.918,246.85861l-4.17774,9.543h-1.76464l-4.17676-9.543h1.80078L196.876,254.511l3.34863-7.65235Z"></path><path class="cls-3" d="M203.22852,243.90549a1.138,1.138,0,0,1,1.17089-1.13477,1.12637,1.12637,0,1,1-1.17089,1.13477Zm.30664,2.95312h1.72851v9.543h-1.72851Z"></path><path class="cls-3" d="M207.35059,255.39279l.71972-1.36816a6.13562,6.13562,0,0,0,3.34961.99023c1.60254,0,2.26856-.48633,2.26856-1.29687,0-2.14258-6.03223-.28711-6.03223-4.08692,0-1.71,1.53125-2.8623,3.97949-2.8623a6.95481,6.95481,0,0,1,3.47559.86328l-.73828,1.36914a4.98249,4.98249,0,0,0-2.75586-.75586c-1.51172,0-2.25.55762-2.25,1.31348,0,2.251,6.0498.415,6.0498,4.124,0,1.72852-1.585,2.82617-4.123,2.82617A6.88859,6.88859,0,0,1,207.35059,255.39279Z"></path><path class="cls-3" d="M216.69238,251.6301a4.96113,4.96113,0,1,1,4.96973,4.8789A4.7479,4.7479,0,0,1,216.69238,251.6301Zm8.17481,0a3.21736,3.21736,0,1,0-3.20508,3.36718A3.13152,3.13152,0,0,0,224.86719,251.6301Z"></path><path class="cls-3" d="M234.13672,246.76877v1.67383a3.13524,3.13524,0,0,0-.39649-.01758c-1.85449,0-3.00683,1.13379-3.00683,3.22265v4.75391h-1.72852v-9.543h1.65625v1.60156A3.64465,3.64465,0,0,1,234.13672,246.76877Z"></path><path class="cls-3" d="M241.29883,251.468a15.83146,15.83146,0,0,1,2.14258-8.42676h1.63867a18.03227,18.03227,0,0,0,0,16.85254h-1.63867A15.91835,15.91835,0,0,1,241.29883,251.468Z"></path><path class="cls-3" d="M256.69141,254.83517v1.56641h-9.14649V243.79709h8.89453v1.56738h-7.09472v3.8711H255.665v1.52929h-6.32031v4.07031Z"></path><path class="cls-3" d="M258.45117,254.96017l.666-1.40429a6.48857,6.48857,0,0,0,4.16015,1.459c2.17774,0,3.11524-.84668,3.11524-1.94531,0-3.07813-7.63477-1.13379-7.63477-5.81543,0-1.94434,1.51172-3.60059,4.8252-3.60059a7.42233,7.42233,0,0,1,4.05176,1.11621l-.59473,1.44043a6.5108,6.5108,0,0,0-3.457-1.02636c-2.14258,0-3.06055.90039-3.06055,1.999,0,3.07813,7.63379,1.15234,7.63379,5.7793,0,1.92676-1.54883,3.583-4.87891,3.583A7.483,7.483,0,0,1,258.45117,254.96017Z"></path><path class="cls-3" d="M278.4707,256.40158l-3.78125-5.2041-3.72656,5.2041H268.8916l4.73535-6.46484-4.44726-6.13965h2.05273l3.5293,4.84375,3.49219-4.84375h1.96289l-4.44727,6.08594,4.77149,6.51855Z"></path><path class="cls-3" d="M281.92383,243.90549a1.13773,1.13773,0,0,1,1.16992-1.13477,1.12634,1.12634,0,1,1-1.16992,1.13477Zm.30664,2.95312H283.959v9.543h-1.72851Z"></path><path class="cls-3" d="M286.18945,259.89377a17.90671,17.90671,0,0,0,0-16.85254h1.63867a17.51452,17.51452,0,0,1,0,16.85254Z"></path><circle class="cls-2" cx="175.76828" cy="99.3001" r="4"></circle><circle class="cls-2" cx="175.76828" cy="65.3001" r="4"></circle><line class="cls-4" x1="175.76828" y1="94.3001" x2="175.76828" y2="69.3001"></line><circle class="cls-2" cx="104.76828" cy="99.3001" r="4"></circle><circle class="cls-2" cx="104.76828" cy="65.3001" r="4"></circle><line class="cls-4" x1="104.76828" y1="94.3001" x2="104.76828" y2="69.3001"></line><circle class="cls-2" cx="28.76828" cy="211.3001" r="4"></circle><circle class="cls-2" cx="28.76828" cy="177.3001" r="4"></circle><line class="cls-4" x1="28.76828" y1="206.3001" x2="28.76828" y2="181.3001"></line><circle class="cls-2" cx="101.76828" cy="211.3001" r="4"></circle><circle class="cls-2" cx="101.76828" cy="177.3001" r="4"></circle><line class="cls-4" x1="101.76828" y1="206.3001" x2="101.76828" y2="181.3001"></line><circle class="cls-2" cx="175.76828" cy="211.3001" r="4"></circle><circle class="cls-2" cx="175.76828" cy="177.3001" r="4"></circle><line class="cls-4" x1="175.76828" y1="206.3001" x2="175.76828" y2="181.3001"></line><circle class="cls-2" cx="247.76828" cy="211.3001" r="4"></circle><circle class="cls-2" cx="247.76828" cy="177.3001" r="4"></circle><line class="cls-4" x1="247.76828" y1="206.3001" x2="247.76828" y2="181.3001"></line><circle class="cls-2" cx="321.76828" cy="211.3001" r="4"></circle><circle class="cls-2" cx="321.76828" cy="177.3001" r="4"></circle><line class="cls-4" x1="321.76828" y1="206.3001" x2="321.76828" y2="181.3001"></line><circle class="cls-2" cx="321.42187" cy="98.3001" r="4"></circle><circle class="cls-2" cx="305.76828" cy="39.09951" r="4"></circle><path class="cls-4" d="M321.42187,93.3001l0-50.24165a3.75836,3.75836,0,0,0-3.75836-3.75835H310.902"></path><circle class="cls-2" cx="29.76828" cy="98.3001" r="4"></circle><circle class="cls-2" cx="45.42187" cy="39.09951" r="4"></circle><path class="cls-4" d="M29.76828,93.3001V43.05845a3.75835,3.75835,0,0,1,3.75835-3.75835h6.76149"></path><circle class="cls-2" cx="248.76828" cy="99.3001" r="4"></circle><circle class="cls-2" cx="248.76828" cy="65.3001" r="4"></circle><line class="cls-4" x1="248.76828" y1="94.3001" x2="248.76828" y2="69.3001"></line><rect class="cls-2" x="1" y="110.09329" width="56" height="56" rx="4.88854"></rect><path class="cls-3" d="M26.97852,130.77219l-5.52735,12.604H19.668l-5.54492-12.604h1.94433l4.53711,10.35351,4.57324-10.35351Z"></path><path class="cls-3" d="M40.2627,143.37619l-.01856-9.18262-4.55469,7.65235h-.82812l-4.55567-7.59864v9.12891H28.57715v-12.604h1.47656l5.25684,8.85888,5.18554-8.85888h1.47657l.01855,12.604Z"></path><rect class="cls-2" x="74.10547" y="110.09951" width="56" height="56" rx="4.88854"></rect><path class="cls-3" d="M100.084,130.77853l-5.52734,12.60352h-1.7832l-5.54492-12.60352h1.94433L93.71,141.13205l4.57324-10.35352Z"></path><path class="cls-3" d="M113.36816,143.38205l-.01855-9.18262-4.55469,7.65235h-.82812l-4.55567-7.59864v9.12891h-1.72851V130.77853h1.47656l5.25684,8.8584,5.18554-8.8584h1.47656l.01856,12.60352Z"></path><rect class="cls-2" x="147.21094" y="110.09951" width="56" height="56" rx="4.88854"></rect><path class="cls-3" d="M173.18945,130.77853l-5.52734,12.60352h-1.7832L160.334,130.77853h1.94434l4.53711,10.35352,4.57324-10.35352Z"></path><path class="cls-3" d="M186.47363,143.38205l-.01855-9.18262-4.55469,7.65235h-.82812l-4.55567-7.59864v9.12891h-1.72851V130.77853h1.47656l5.25683,8.8584,5.18555-8.8584h1.47656l.01856,12.60352Z"></path><rect class="cls-2" x="220.31641" y="110.09951" width="56" height="56" rx="4.88854"></rect><path class="cls-3" d="M246.29492,130.77853l-5.52734,12.60352h-1.7832l-5.54493-12.60352h1.94434l4.53711,10.35352,4.57324-10.35352Z"></path><path class="cls-3" d="M259.5791,143.38205l-.01855-9.18262-4.55469,7.65235h-.82813l-4.55566-7.59864v9.12891h-1.72852V130.77853h1.47657l5.25683,8.8584,5.18555-8.8584h1.47656l.01856,12.60352Z"></path><rect class="cls-2" x="293.42188" y="110.09951" width="56" height="56" rx="4.88854"></rect><path class="cls-3" d="M319.40039,130.77853l-5.52734,12.60352h-1.78321l-5.54492-12.60352h1.94434l4.53711,10.35352,4.57324-10.35352Z"></path><path class="cls-3" d="M332.68457,143.38205l-.01855-9.18262-4.55469,7.65235h-.82813l-4.55566-7.59864v9.12891H320.999V130.77853h1.47657l5.25683,8.8584,5.18555-8.8584h1.47656l.01856,12.60352Z"></path><rect class="cls-5" x="398.42188" y="1.09951" width="104" height="76" rx="7.76094"></rect><path class="cls-1" d="M426.0625,20.97824l-5.52734,12.604h-1.78223l-5.5459-12.604h1.94531l4.53711,10.35352,4.57227-10.35352Z"></path><path class="cls-1" d="M426.50977,27.28049a6.37462,6.37462,0,0,1,6.67968-6.4458,6.22756,6.22756,0,0,1,4.78907,1.9624l-1.16993,1.13428a4.67122,4.67122,0,0,0-3.54687-1.49463,4.8447,4.8447,0,1,0,0,9.687,4.68919,4.68919,0,0,0,3.54687-1.51221l1.16993,1.13428a6.253,6.253,0,0,1-4.80664,1.98047A6.37,6.37,0,0,1,426.50977,27.28049Z"></path><path class="cls-1" d="M440.29785,20.22238h1.72852V33.58224h-1.72852Z"></path><path class="cls-1" d="M444.4375,28.81076a4.96062,4.96062,0,1,1,4.96875,4.8794A4.74765,4.74765,0,0,1,444.4375,28.81076Zm8.17383,0a3.2166,3.2166,0,1,0-6.42774,0,3.21736,3.21736,0,1,0,6.42774,0Z"></path><path class="cls-1" d="M465.64453,24.03928v9.543h-1.63867V32.14182a3.88423,3.88423,0,0,1-3.24121,1.54834c-2.4668,0-4.10547-1.3501-4.10547-4.15918v-5.4917h1.72852v5.29345c0,1.873.93652,2.80909,2.57519,2.80909,1.80078,0,2.95313-1.11622,2.95313-3.169V24.03928Z"></path><path class="cls-1" d="M477.9375,20.22238V33.58224h-1.65625V32.07a4.03308,4.03308,0,0,1-3.40332,1.62012,4.64645,4.64645,0,0,1-4.8252-4.8794,4.63181,4.63181,0,0,1,4.8252-4.86133,4.05972,4.05972,0,0,1,3.33105,1.53028V20.22238Zm-1.71094,8.58838a3.2166,3.2166,0,1,0-6.42773,0,3.21736,3.21736,0,1,0,6.42773,0Z"></path><path class="cls-1" d="M415.11523,42.57883h5.3125c4.05079,0,6.80567,2.55664,6.80567,6.30175s-2.75488,6.30176-6.80567,6.30176h-5.3125Zm5.20411,11.03711c3.11425,0,5.11328-1.9087,5.11328-4.73536,0-2.82714-1.999-4.73535-5.11328-4.73535H416.916v9.47071Z"></path><path class="cls-1" d="M429.42578,42.68674a1.13764,1.13764,0,0,1,1.16992-1.13428,1.11971,1.11971,0,0,1,1.16992,1.09814,1.17062,1.17062,0,0,1-2.33984.03614Zm.30567,2.95263H431.46v9.543h-1.72851Z"></path><path class="cls-1" d="M439.88477,45.54953v1.67432a3.04356,3.04356,0,0,0-.39649-.01807c-1.85351,0-3.00586,1.13477-3.00586,3.22314v4.75342h-1.72851v-9.543h1.65625v1.60254A3.64175,3.64175,0,0,1,439.88477,45.54953Z"></path><path class="cls-1" d="M450.50586,50.987h-7.74219a3.23191,3.23191,0,0,0,3.457,2.791,3.56435,3.56435,0,0,0,2.75489-1.15235l.9541,1.11621a5.20145,5.20145,0,0,1-8.89453-3.331,4.67376,4.67376,0,0,1,4.78906-4.86133,4.60149,4.60149,0,0,1,4.71777,4.91553C450.542,50.6091,450.52344,50.82492,450.50586,50.987Zm-7.74219-1.24219h6.1211a3.0797,3.0797,0,0,0-6.1211,0Z"></path><path class="cls-1" d="M452.05078,50.41086a4.76753,4.76753,0,0,1,5.041-4.86133,4.25679,4.25679,0,0,1,3.88965,2.03467l-1.31446.84619a2.974,2.974,0,0,0-2.59277-1.36865,3.35915,3.35915,0,0,0,0,6.71631,2.974,2.974,0,0,0,2.59277-1.36866l1.31446.82862a4.271,4.271,0,0,1-3.88965,2.05224A4.78176,4.78176,0,0,1,452.05078,50.41086Z"></path><path class="cls-1" d="M468.70215,54.62424a3.26109,3.26109,0,0,1-2.08887.666,2.72308,2.72308,0,0,1-3.02441-2.98877V47.06174h-1.62012V45.63937h1.62012V43.551h1.72851v2.08838h2.73731v1.42237h-2.73731v5.16748a1.40607,1.40607,0,0,0,1.49414,1.60254,2.17436,2.17436,0,0,0,1.35059-.4502Z"></path><path class="cls-1" d="M469.582,50.41086a4.96162,4.96162,0,1,1,4.96973,4.87939A4.749,4.749,0,0,1,469.582,50.41086Zm8.17481,0a3.21736,3.21736,0,1,0-3.20508,3.36719A3.13086,3.13086,0,0,0,477.75684,50.41086Z"></path><path class="cls-1" d="M487.02637,45.54953v1.67432a3.03631,3.03631,0,0,0-.39551-.01807c-1.85547,0-3.00781,1.13477-3.00781,3.22314v4.75342h-1.72852v-9.543h1.65625v1.60254A3.64438,3.64438,0,0,1,487.02637,45.54953Z"></path><circle class="cls-2" cx="306.42188" cy="19.09951" r="4"></circle><circle class="cls-2" cx="387.42188" cy="19.09951" r="4"></circle><line class="cls-4" x1="310.42188" y1="19.09951" x2="383.42188" y2="19.09951"></line><path class="cls-3" d="M80.11523,303.56186v14.97888H3.59863V303.56186h76.5166m.17383-2H3.4248a1.826,1.826,0,0,0-1.82617,1.826v15.32672a1.826,1.826,0,0,0,1.82617,1.82611H80.28906a1.8263,1.8263,0,0,0,1.82617-1.82611V303.38791a1.82629,1.82629,0,0,0-1.82617-1.826Z"></path><path class="cls-3" d="M9.65039,309.75082a1.30048,1.30048,0,1,1-1.30078,1.30048,1.302,1.302,0,0,1,1.30078-1.30048m0-1a2.30048,2.30048,0,1,0,2.30029,2.30048,2.30075,2.30075,0,0,0-2.30029-2.30048Z"></path><line class="cls-6" x1="54.22191" y1="311.0513" x2="76.65153" y2="311.0513"></line><path class="cls-3" d="M80.11523,324.84122v14.97894H3.59863V324.84122h76.5166m.17383-2H3.4248a1.826,1.826,0,0,0-1.82617,1.82611v15.32672a1.826,1.826,0,0,0,1.82617,1.82611H80.28906a1.82634,1.82634,0,0,0,1.82617-1.82611V324.66733a1.8263,1.8263,0,0,0-1.82617-1.82611Z"></path><path class="cls-3" d="M9.65039,331.03018a1.30048,1.30048,0,1,1-1.30078,1.30048,1.302,1.302,0,0,1,1.30078-1.30048m0-1a2.30048,2.30048,0,1,0,2.30029,2.30048,2.30075,2.30075,0,0,0-2.30029-2.30048Z"></path><line class="cls-6" x1="54.22191" y1="332.33068" x2="76.65153" y2="332.33068"></line><path class="cls-3" d="M80.11523,346.12057v14.97895H3.59863V346.12057h76.5166m.17383-2H3.4248a1.826,1.826,0,0,0-1.82617,1.82612v15.32672a1.826,1.826,0,0,0,1.82617,1.82611H80.28906a1.82631,1.82631,0,0,0,1.82617-1.82611V345.94669a1.82635,1.82635,0,0,0-1.82617-1.82612Z"></path><path class="cls-3" d="M9.65039,352.3096a1.30048,1.30048,0,1,1-1.30078,1.30048,1.302,1.302,0,0,1,1.30078-1.30048m0-1a2.30048,2.30048,0,1,0,2.30029,2.30048,2.30075,2.30075,0,0,0-2.30029-2.30048Z"></path><line class="cls-6" x1="54.22191" y1="353.61006" x2="76.65153" y2="353.61006"></line><path class="cls-3" d="M214.11523,303.56186v14.97888h-76.5166V303.56186h76.5166m.17383-2H137.4248a1.826,1.826,0,0,0-1.82617,1.826v15.32672a1.826,1.826,0,0,0,1.82617,1.82611h76.86426a1.8263,1.8263,0,0,0,1.82617-1.82611V303.38791a1.82629,1.82629,0,0,0-1.82617-1.826Z"></path><path class="cls-3" d="M143.65039,309.75082a1.30048,1.30048,0,1,1-1.30078,1.30048,1.302,1.302,0,0,1,1.30078-1.30048m0-1a2.30048,2.30048,0,1,0,2.30029,2.30048,2.30075,2.30075,0,0,0-2.30029-2.30048Z"></path><line class="cls-6" x1="188.22191" y1="311.0513" x2="210.65153" y2="311.0513"></line><path class="cls-3" d="M214.11523,324.84122v14.97894h-76.5166V324.84122h76.5166m.17383-2H137.4248a1.826,1.826,0,0,0-1.82617,1.82611v15.32672a1.826,1.826,0,0,0,1.82617,1.82611h76.86426a1.82634,1.82634,0,0,0,1.82617-1.82611V324.66733a1.8263,1.8263,0,0,0-1.82617-1.82611Z"></path><path class="cls-3" d="M143.65039,331.03018a1.30048,1.30048,0,1,1-1.30078,1.30048,1.302,1.302,0,0,1,1.30078-1.30048m0-1a2.30048,2.30048,0,1,0,2.30029,2.30048,2.30075,2.30075,0,0,0-2.30029-2.30048Z"></path><line class="cls-6" x1="188.22191" y1="332.33068" x2="210.65153" y2="332.33068"></line><path class="cls-3" d="M214.11523,346.12057v14.97895h-76.5166V346.12057h76.5166m.17383-2H137.4248a1.826,1.826,0,0,0-1.82617,1.82612v15.32672a1.826,1.826,0,0,0,1.82617,1.82611h76.86426a1.82631,1.82631,0,0,0,1.82617-1.82611V345.94669a1.82635,1.82635,0,0,0-1.82617-1.82612Z"></path><path class="cls-3" d="M143.65039,352.3096a1.30048,1.30048,0,1,1-1.30078,1.30048,1.302,1.302,0,0,1,1.30078-1.30048m0-1a2.30048,2.30048,0,1,0,2.30029,2.30048,2.30075,2.30075,0,0,0-2.30029-2.30048Z"></path><line class="cls-6" x1="188.22191" y1="353.61006" x2="210.65153" y2="353.61006"></line><path class="cls-3" d="M348.11523,303.56186v14.97888h-76.5166V303.56186h76.5166m.17383-2H271.4248a1.826,1.826,0,0,0-1.82617,1.826v15.32672a1.826,1.826,0,0,0,1.82617,1.82611h76.86426a1.8263,1.8263,0,0,0,1.82617-1.82611V303.38791a1.82629,1.82629,0,0,0-1.82617-1.826Z"></path><path class="cls-3" d="M277.65039,309.75082a1.30048,1.30048,0,1,1-1.30078,1.30048,1.302,1.302,0,0,1,1.30078-1.30048m0-1a2.30048,2.30048,0,1,0,2.30029,2.30048,2.30075,2.30075,0,0,0-2.30029-2.30048Z"></path><line class="cls-6" x1="322.22191" y1="311.0513" x2="344.65153" y2="311.0513"></line><path class="cls-3" d="M348.11523,324.84122v14.97894h-76.5166V324.84122h76.5166m.17383-2H271.4248a1.826,1.826,0,0,0-1.82617,1.82611v15.32672a1.826,1.826,0,0,0,1.82617,1.82611h76.86426a1.82634,1.82634,0,0,0,1.82617-1.82611V324.66733a1.8263,1.8263,0,0,0-1.82617-1.82611Z"></path><path class="cls-3" d="M277.65039,331.03018a1.30048,1.30048,0,1,1-1.30078,1.30048,1.302,1.302,0,0,1,1.30078-1.30048m0-1a2.30048,2.30048,0,1,0,2.30029,2.30048,2.30075,2.30075,0,0,0-2.30029-2.30048Z"></path><line class="cls-6" x1="322.22191" y1="332.33068" x2="344.65153" y2="332.33068"></line><path class="cls-3" d="M348.11523,346.12057v14.97895h-76.5166V346.12057h76.5166m.17383-2H271.4248a1.826,1.826,0,0,0-1.82617,1.82612v15.32672a1.826,1.826,0,0,0,1.82617,1.82611h76.86426a1.82631,1.82631,0,0,0,1.82617-1.82611V345.94669a1.82635,1.82635,0,0,0-1.82617-1.82612Z"></path><path class="cls-3" d="M277.65039,352.3096a1.30048,1.30048,0,1,1-1.30078,1.30048,1.302,1.302,0,0,1,1.30078-1.30048m0-1a2.30048,2.30048,0,1,0,2.30029,2.30048,2.30075,2.30075,0,0,0-2.30029-2.30048Z"></path><line class="cls-6" x1="322.22191" y1="353.61006" x2="344.65153" y2="353.61006"></line><path class="cls-3" d="M13.11914,386.78928l.666-1.4043a6.48528,6.48528,0,0,0,4.15918,1.458c2.17871,0,3.11523-.84571,3.11523-1.94434,0-3.0791-7.63379-1.13379-7.63379-5.81543,0-1.94531,1.51172-3.60156,4.82422-3.60156a7.41206,7.41206,0,0,1,4.05176,1.11719L21.707,378.0383a6.51305,6.51305,0,0,0-3.457-1.02539c-2.14258,0-3.06055.90039-3.06055,1.99805,0,3.0791,7.63477,1.15234,7.63477,5.77929,0,1.92774-1.54883,3.584-4.87988,3.584A7.47815,7.47815,0,0,1,13.11914,386.78928Z"></path><path class="cls-3" d="M33.78516,384.03439H26.043a3.23328,3.23328,0,0,0,3.457,2.791,3.56812,3.56812,0,0,0,2.75586-1.15234l.95312,1.11621a4.78482,4.78482,0,0,1-3.76269,1.54785,4.7774,4.7774,0,0,1-5.13184-4.87891,4.674,4.674,0,0,1,4.78907-4.86133,4.60185,4.60185,0,0,1,4.71875,4.916C33.82227,383.65646,33.80371,383.87228,33.78516,384.03439ZM26.043,382.79221H32.165a3.0803,3.0803,0,0,0-6.12207,0Z"></path><path class="cls-3" d="M41.34473,378.59689v1.67383a3.12026,3.12026,0,0,0-.39551-.01758c-1.85547,0-3.00781,1.13477-3.00781,3.22266v4.75391H36.21289v-9.543h1.65625v1.60254A3.64439,3.64439,0,0,1,41.34473,378.59689Z"></path><path class="cls-3" d="M52.30762,378.68674l-4.17676,9.543H46.36523l-4.17675-9.543h1.80078l3.27636,7.65234,3.34961-7.65234Z"></path><path class="cls-3" d="M62.24316,384.03439H54.501a3.23264,3.23264,0,0,0,3.457,2.791,3.56744,3.56744,0,0,0,2.75488-1.15234l.9541,1.11621a4.78764,4.78764,0,0,1-3.76269,1.54785,4.77687,4.77687,0,0,1-5.13184-4.87891,4.67371,4.67371,0,0,1,4.79-4.86133,4.60141,4.60141,0,0,1,4.7168,4.916C62.2793,383.65646,62.26172,383.87228,62.24316,384.03439ZM54.501,382.79221h6.12207a3.0803,3.0803,0,0,0-6.12207,0Z"></path><path class="cls-3" d="M69.80273,378.59689v1.67383a3.13509,3.13509,0,0,0-.39648-.01758c-1.85449,0-3.00684,1.13477-3.00684,3.22266v4.75391H64.6709v-9.543h1.65625v1.60254A3.64339,3.64339,0,0,1,69.80273,378.59689Z"></path><path class="cls-3" d="M148.11914,386.78928l.666-1.4043a6.48528,6.48528,0,0,0,4.15918,1.458c2.17871,0,3.11523-.84571,3.11523-1.94434,0-3.0791-7.63379-1.13379-7.63379-5.81543,0-1.94531,1.51172-3.60156,4.82422-3.60156a7.41206,7.41206,0,0,1,4.05176,1.11719l-.59473,1.43945a6.51305,6.51305,0,0,0-3.457-1.02539c-2.14258,0-3.06055.90039-3.06055,1.99805,0,3.0791,7.63477,1.15234,7.63477,5.77929,0,1.92774-1.54883,3.584-4.87988,3.584A7.47815,7.47815,0,0,1,148.11914,386.78928Z"></path><path class="cls-3" d="M168.78516,384.03439H161.043a3.23328,3.23328,0,0,0,3.457,2.791,3.56812,3.56812,0,0,0,2.75586-1.15234l.95312,1.11621a5.20184,5.20184,0,0,1-8.89453-3.33106,4.674,4.674,0,0,1,4.78907-4.86133,4.60185,4.60185,0,0,1,4.71875,4.916C168.82227,383.65646,168.80371,383.87228,168.78516,384.03439Zm-7.74219-1.24218H167.165a3.0803,3.0803,0,0,0-6.12207,0Z"></path><path class="cls-3" d="M176.34473,378.59689v1.67383a3.12026,3.12026,0,0,0-.39551-.01758c-1.85547,0-3.00781,1.13477-3.00781,3.22266v4.75391h-1.72852v-9.543h1.65625v1.60254A3.64439,3.64439,0,0,1,176.34473,378.59689Z"></path><path class="cls-3" d="M187.30762,378.68674l-4.17676,9.543h-1.76563l-4.17675-9.543h1.80078l3.27636,7.65234,3.34961-7.65234Z"></path><path class="cls-3" d="M197.24316,384.03439H189.501a3.23264,3.23264,0,0,0,3.457,2.791,3.56744,3.56744,0,0,0,2.75488-1.15234l.9541,1.11621a5.20184,5.20184,0,0,1-8.89453-3.33106,4.67371,4.67371,0,0,1,4.79-4.86133,4.60141,4.60141,0,0,1,4.7168,4.916C197.2793,383.65646,197.26172,383.87228,197.24316,384.03439Zm-7.74218-1.24218h6.12207a3.0803,3.0803,0,0,0-6.12207,0Z"></path><path class="cls-3" d="M204.80273,378.59689v1.67383a3.13509,3.13509,0,0,0-.39648-.01758c-1.85449,0-3.00684,1.13477-3.00684,3.22266v4.75391H199.6709v-9.543h1.65625v1.60254A3.64339,3.64339,0,0,1,204.80273,378.59689Z"></path><path class="cls-3" d="M282.11914,386.78928l.666-1.4043a6.48528,6.48528,0,0,0,4.15918,1.458c2.17871,0,3.11523-.84571,3.11523-1.94434,0-3.0791-7.63379-1.13379-7.63379-5.81543,0-1.94531,1.51172-3.60156,4.82422-3.60156a7.41206,7.41206,0,0,1,4.05176,1.11719l-.59473,1.43945a6.51305,6.51305,0,0,0-3.457-1.02539c-2.14258,0-3.06055.90039-3.06055,1.99805,0,3.0791,7.63477,1.15234,7.63477,5.77929,0,1.92774-1.54883,3.584-4.87988,3.584A7.47815,7.47815,0,0,1,282.11914,386.78928Z"></path><path class="cls-3" d="M302.78516,384.03439H295.043a3.23328,3.23328,0,0,0,3.457,2.791,3.56812,3.56812,0,0,0,2.75586-1.15234l.95312,1.11621a5.20184,5.20184,0,0,1-8.89453-3.33106,4.674,4.674,0,0,1,4.78907-4.86133,4.60185,4.60185,0,0,1,4.71875,4.916C302.82227,383.65646,302.80371,383.87228,302.78516,384.03439Zm-7.74219-1.24218H301.165a3.0803,3.0803,0,0,0-6.12207,0Z"></path><path class="cls-3" d="M310.34473,378.59689v1.67383a3.12026,3.12026,0,0,0-.39551-.01758c-1.85547,0-3.00781,1.13477-3.00781,3.22266v4.75391h-1.72852v-9.543h1.65625v1.60254A3.64439,3.64439,0,0,1,310.34473,378.59689Z"></path><path class="cls-3" d="M321.30762,378.68674l-4.17676,9.543h-1.76563l-4.17675-9.543h1.80078l3.27636,7.65234,3.34961-7.65234Z"></path><path class="cls-3" d="M331.24316,384.03439H323.501a3.23264,3.23264,0,0,0,3.457,2.791,3.56744,3.56744,0,0,0,2.75488-1.15234l.9541,1.11621a5.20184,5.20184,0,0,1-8.89453-3.33106,4.67371,4.67371,0,0,1,4.79-4.86133,4.60141,4.60141,0,0,1,4.7168,4.916C331.2793,383.65646,331.26172,383.87228,331.24316,384.03439Zm-7.74218-1.24218h6.12207a3.0803,3.0803,0,0,0-6.12207,0Z"></path><path class="cls-3" d="M338.80273,378.59689v1.67383a3.13509,3.13509,0,0,0-.39648-.01758c-1.85449,0-3.00684,1.13477-3.00684,3.22266v4.75391H333.6709v-9.543h1.65625v1.60254A3.64339,3.64339,0,0,1,338.80273,378.59689Z"></path></g></g></svg> 