<svg width="728" height="549" xmlns="http://www.w3.org/2000/svg" xmlns:xlink="http://www.w3.org/1999/xlink" xml:space="preserve" overflow="hidden"><g transform="translate(-72 -77)"><g><g><g><g><path d="M0 0 724.1 0 724.1 544.888 0 544.888Z" stroke="#000000" stroke-width="1.32911" stroke-linecap="butt" stroke-linejoin="round" stroke-miterlimit="10" stroke-dasharray="5.31644 3.98734" stroke-opacity="1" fill="none" fill-rule="nonzero" transform="matrix(-1 0 0 1.00092 798.695 79.3061)"/><text fill="#221E20" fill-opacity="1" font-family="Metropolis,Metropolis_MSFontService,sans-serif" font-style="normal" font-variant="normal" font-weight="400" font-stretch="normal" font-size="41" text-anchor="start" direction="ltr" writing-mode="lr-tb" unicode-bidi="normal" text-decoration="none" transform="matrix(0.289988 0 0 0.290254 384.662 95)">Workload Domain</text><text fill="#000000" fill-opacity="1" font-family="Metropolis,Metropolis_MSFontService,sans-serif" font-style="normal" font-variant="normal" font-weight="400" font-stretch="normal" font-size="50" text-anchor="start" direction="ltr" writing-mode="lr-tb" unicode-bidi="normal" text-decoration="none" transform="matrix(0.289988 0 0 0.290254 336.704 279)">Supervisor</text><path d="M0 0 166.163 0 166.163 400.473 0 400.473Z" stroke="#007DA3" stroke-width="1.32911" stroke-linecap="butt" stroke-linejoin="round" stroke-miterlimit="10" stroke-opacity="1" fill="#FFFFFF" fill-rule="nonzero" fill-opacity="1" transform="matrix(-1 0 0 1.00092 250.908 149.838)"/><text fill="#221E20" fill-opacity="1" font-family="Metropolis,Metropolis_MSFontService,sans-serif" font-style="normal" font-variant="normal" font-weight="400" font-stretch="normal" font-size="41" text-anchor="start" direction="ltr" writing-mode="lr-tb" unicode-bidi="normal" text-decoration="none" transform="matrix(0.289988 0 0 0.290254 118.487 166)">vSphere Cluster 1</text><path d="M0 0 166.163 0 166.163 400.473 0 400.473Z" stroke="#007DA3" stroke-width="1.32911" stroke-linecap="butt" stroke-linejoin="round" stroke-miterlimit="10" stroke-opacity="1" fill="#FFFFFF" fill-rule="nonzero" fill-opacity="1" transform="matrix(-1 0 0 1.00092 426.64 149.838)"/><text fill="#221E20" fill-opacity="1" font-family="Metropolis,Metropolis_MSFontService,sans-serif" font-style="normal" font-variant="normal" font-weight="400" font-stretch="normal" font-size="41" text-anchor="start" direction="ltr" writing-mode="lr-tb" unicode-bidi="normal" text-decoration="none" transform="matrix(0.289988 0 0 0.290254 293.084 166)">vSphere Cluster 2</text><path d="M0 0 166.163 0 166.163 400.473 0 400.473Z" stroke="#007DA3" stroke-width="1.32911" stroke-linecap="butt" stroke-linejoin="round" stroke-miterlimit="10" stroke-opacity="1" fill="#FFFFFF" fill-rule="nonzero" fill-opacity="1" transform="matrix(-1 0 0 1.00092 602.663 149.838)"/><text fill="#221E20" fill-opacity="1" font-family="Metropolis,Metropolis_MSFontService,sans-serif" font-style="normal" font-variant="normal" font-weight="400" font-stretch="normal" font-size="41" text-anchor="start" direction="ltr" writing-mode="lr-tb" unicode-bidi="normal" text-decoration="none" transform="matrix(0.289988 0 0 0.290254 469.051 166)">vSphere Cluster 3</text><path d="M0 0 166.163 0 166.163 400.473 0 400.473Z" stroke="#007DA3" stroke-width="1.32911" stroke-linecap="butt" stroke-linejoin="round" stroke-miterlimit="10" stroke-opacity="1" fill="#FFFFFF" fill-rule="nonzero" fill-opacity="1" transform="matrix(-1 0 0 1.00092 779.846 149.838)"/><text fill="#221E20" fill-opacity="1" font-family="Metropolis,Metropolis_MSFontService,sans-serif" font-style="normal" font-variant="normal" font-weight="400" font-stretch="normal" font-size="41" text-anchor="start" direction="ltr" writing-mode="lr-tb" unicode-bidi="normal" text-decoration="none" transform="matrix(0.289988 0 0 0.290254 646.277 166)">vSphere Cluster 4</text><path d="M96.276 183.852 236.34 183.852 236.34 530.678 96.276 530.678Z" fill="#007DA3" fill-rule="nonzero" fill-opacity="1" transform="matrix(1 0 0 1.00092 1.37296 4.85593)"/><text fill="#FFFFFF" fill-opacity="1" font-family="Metropolis,Metropolis_MSFontService,sans-serif" font-style="normal" font-variant="normal" font-weight="400" font-stretch="normal" font-size="41" text-anchor="start" direction="ltr" writing-mode="lr-tb" unicode-bidi="normal" text-decoration="none" transform="matrix(0.289988 0 0 0.290254 124.136 205)">vSphere Zone 1</text><text fill="#FFFFFF" fill-opacity="1" font-family="Metropolis,Metropolis_MSFontService,sans-serif" font-style="normal" font-variant="normal" font-weight="400" font-stretch="normal" font-size="41" text-anchor="start" direction="ltr" writing-mode="lr-tb" unicode-bidi="normal" text-decoration="none" transform="matrix(0.289988 0 0 0.290254 126.295 219)">(</text><text fill="#FFFFFF" fill-opacity="1" font-family="Metropolis,Metropolis_MSFontService,sans-serif" font-style="normal" font-variant="normal" font-weight="400" font-stretch="normal" font-size="41" text-anchor="start" direction="ltr" writing-mode="lr-tb" unicode-bidi="normal" text-decoration="none" transform="matrix(0.289988 0 0 0.290254 130.283 219)">Management)</text><path d="M448.032 184.142 588.096 184.142 588.096 530.968 448.032 530.968Z" fill="#E2E3E4" fill-rule="nonzero" fill-opacity="1" transform="matrix(1 0 0 1.00092 1.37296 4.85593)"/><text fill="#221E20" fill-opacity="1" font-family="Metropolis,Metropolis_MSFontService,sans-serif" font-style="normal" font-variant="normal" font-weight="400" font-stretch="normal" font-size="41" text-anchor="start" direction="ltr" writing-mode="lr-tb" unicode-bidi="normal" text-decoration="none" transform="matrix(0.289988 0 0 0.290254 474.7 205)">vSphere Zone 3</text><text fill="#221E20" fill-opacity="1" font-family="Metropolis,Metropolis_MSFontService,sans-serif" font-style="normal" font-variant="normal" font-weight="400" font-stretch="normal" font-size="41" text-anchor="start" direction="ltr" writing-mode="lr-tb" unicode-bidi="normal" text-decoration="none" transform="matrix(0.289988 0 0 0.290254 487.413 220)">(Workload)</text><path d="M625.214 184.142 765.278 184.142 765.278 530.968 625.214 530.968Z" fill="#E2E3E4" fill-rule="nonzero" fill-opacity="1" transform="matrix(1 0 0 1.00092 1.37296 4.85593)"/><text fill="#221E20" fill-opacity="1" font-family="Metropolis,Metropolis_MSFontService,sans-serif" font-style="normal" font-variant="normal" font-weight="400" font-stretch="normal" font-size="41" text-anchor="start" direction="ltr" writing-mode="lr-tb" unicode-bidi="normal" text-decoration="none" transform="matrix(0.289988 0 0 0.290254 651.926 205)">vSphere Zone 4</text><text fill="#221E20" fill-opacity="1" font-family="Metropolis,Metropolis_MSFontService,sans-serif" font-style="normal" font-variant="normal" font-weight="400" font-stretch="normal" font-size="41" text-anchor="start" direction="ltr" writing-mode="lr-tb" unicode-bidi="normal" text-decoration="none" transform="matrix(0.289988 0 0 0.290254 664.639 220)">(Workload)</text><path d="M272.009 184.142 412.073 184.142 412.073 530.968 272.009 530.968Z" fill="#E2E3E4" fill-rule="nonzero" fill-opacity="1" transform="matrix(1 0 0 1.00092 1.37296 4.85593)"/><text fill="#221E20" fill-opacity="1" font-family="Metropolis,Metropolis_MSFontService,sans-serif" font-style="normal" font-variant="normal" font-weight="400" font-stretch="normal" font-size="41" text-anchor="start" direction="ltr" writing-mode="lr-tb" unicode-bidi="normal" text-decoration="none" transform="matrix(0.289988 0 0 0.290254 298.732 205)">vSphere Zone 2</text><text fill="#221E20" fill-opacity="1" font-family="Metropolis,Metropolis_MSFontService,sans-serif" font-style="normal" font-variant="normal" font-weight="400" font-stretch="normal" font-size="41" text-anchor="start" direction="ltr" writing-mode="lr-tb" unicode-bidi="normal" text-decoration="none" transform="matrix(0.289988 0 0 0.290254 311.359 220)">(Workload)</text><path d="M0 0 651.313 0 651.313 267.659 0 267.659Z" stroke="#E68C28" stroke-width="1.32911" stroke-linecap="butt" stroke-linejoin="round" stroke-miterlimit="10" stroke-opacity="1" fill="none" fill-rule="nonzero" transform="matrix(-1 0 0 1.00092 758.677 251.427)"/><text fill="#000000" fill-opacity="1" font-family="Metropolis,Metropolis_MSFontService,sans-serif" font-style="normal" font-variant="normal" font-weight="400" font-stretch="normal" font-size="41" text-anchor="start" direction="ltr" writing-mode="lr-tb" unicode-bidi="normal" text-decoration="none" transform="matrix(0.289988 0 0 0.290254 636.351 270)">vSphere Supervisor</text><path d="M288.393 278.244 742.514 278.244 742.514 373.65 288.393 373.65Z" stroke="#E68C28" stroke-width="1.32911" stroke-linecap="butt" stroke-linejoin="round" stroke-miterlimit="10" stroke-opacity="1" fill="#FFFFFF" fill-rule="nonzero" fill-opacity="1" transform="matrix(1 0 0 1.00092 1.37296 4.85593)"/><text fill="#000000" fill-opacity="1" font-family="Metropolis,Metropolis_MSFontService,sans-serif" font-style="normal" font-variant="normal" font-weight="400" font-stretch="normal" font-size="41" text-anchor="start" direction="ltr" writing-mode="lr-tb" unicode-bidi="normal" text-decoration="none" transform="matrix(0.289988 0 0 0.290254 451.846 299)">vSphere Namespace A</text><path d="M311.592 307.822 719.315 307.822 719.315 356.25 311.592 356.25Z" stroke="#000000" stroke-width="1.32911" stroke-linecap="butt" stroke-linejoin="round" stroke-miterlimit="10" stroke-opacity="1" fill="#FFFFFF" fill-rule="nonzero" fill-opacity="1" transform="matrix(1 0 0 1.00092 1.37296 4.85593)"/><text fill="#000000" fill-opacity="1" font-family="Metropolis,Metropolis_MSFontService,sans-serif" font-style="normal" font-variant="normal" font-weight="400" font-stretch="normal" font-size="41" text-anchor="start" direction="ltr" writing-mode="lr-tb" unicode-bidi="normal" text-decoration="none" transform="matrix(0.289988 0 0 0.290254 480.088 341)">VKS Clusters</text><path d="M455.281 336.696 455.571 336.966 455.354 336.676C455.354 336.676 455.354 336.676 455.281 336.676Z" fill="#000000" fill-rule="evenodd" fill-opacity="1" transform="matrix(1 0 0 1.00092 1.37296 4.85593)"/><path d="M451.523 327.353C451.523 327.353 451.697 327.428 451.769 327.379 451.845 327.353 451.894 327.278 451.894 327.179 451.943 326.35 451.993 325.497 452.042 324.671L452.091 323.917C450.856 324.169 449.815 324.694 448.901 325.471 449.296 325.749 449.693 326.048 450.088 326.326 450.557 326.677 451.053 327.002 451.523 327.353Z" fill="#000000" fill-rule="evenodd" fill-opacity="1" transform="matrix(1 0 0 1.00092 1.37296 4.85593)"/><path d="M455.989 332.373C455.989 332.373 455.89 332.468 455.89 332.564L455.571 332.802 455.916 332.66 456.212 333.35C456.531 334.063 456.827 334.803 457.149 335.516 458.135 334.803 458.848 333.921 459.341 332.851L456.186 332.326C456.186 332.326 456.038 332.349 455.989 332.373Z" fill="#000000" fill-rule="evenodd" fill-opacity="1" transform="matrix(1 0 0 1.00092 1.37296 4.85593)"/><path d="M450.433 332.326 449.647 332.471C448.907 332.59 448.191 332.735 447.452 332.854 447.913 333.933 448.609 334.82 449.508 335.516 449.763 334.893 449.995 334.292 450.227 333.692L450.572 332.805C450.572 332.805 450.618 332.663 450.641 332.613 450.641 332.567 450.641 332.494 450.595 332.445 450.549 332.399 450.502 332.376 450.433 332.349Z" fill="#000000" fill-rule="evenodd" fill-opacity="1" transform="matrix(1 0 0 1.00092 1.37296 4.85593)"/><path d="M454.324 335.447C454.055 334.948 453.782 334.423 453.486 333.927 453.437 333.826 453.338 333.802 453.263 333.776 453.19 333.776 453.092 333.826 453.043 333.927L452.399 335.096C452.103 335.647 451.807 336.169 451.511 336.717 452.103 336.868 452.671 336.94 453.263 336.966 453.831 336.966 454.423 336.891 454.991 336.743 454.916 336.592 454.843 336.467 454.768 336.343L454.301 335.47Z" fill="#000000" fill-rule="evenodd" fill-opacity="1" transform="matrix(1 0 0 1.00092 1.37296 4.85593)"/><path d="M459.341 332.616 459.631 332.906 459.341 332.616Z" fill="#000000" fill-rule="evenodd" fill-opacity="1" transform="matrix(1 0 0 1.00092 1.37296 4.85593)"/><path d="M449.728 329.624C449.728 329.624 449.728 329.461 449.597 329.325 448.919 328.681 448.237 328.04 447.559 327.396 447.167 328.2 446.947 329.026 446.88 329.899 446.88 330.105 446.86 330.357 446.88 330.586L447.341 330.45C448.063 330.218 448.809 330.012 449.531 329.783 449.728 329.714 449.748 329.647 449.771 329.6Z" fill="#000000" fill-rule="evenodd" fill-opacity="1" transform="matrix(1 0 0 1.00092 1.37296 4.85593)"/><path d="M454.713 327.098C454.713 327.098 454.864 327.144 455.041 327.028 455.893 326.471 456.749 325.915 457.601 325.355 456.621 324.613 455.565 324.125 454.411 323.917L454.588 326.819C454.588 327.028 454.664 327.051 454.713 327.075Z" fill="#000000" fill-rule="evenodd" fill-opacity="1" transform="matrix(1 0 0 1.00092 1.37296 4.85593)"/><path d="M463.468 332.445C463.209 332.422 462.951 332.399 462.714 332.352 462.386 332.303 462.009 332.257 461.774 331.903 461.632 331.88 461.536 331.81 461.49 331.741 461.348 331.575 461.374 331.387 461.397 331.291 461.443 330.821 461.467 330.375 461.443 329.925 461.374 328.49 460.924 327.15 460.17 325.923 460.124 325.854 460.031 325.688 460.078 325.477 460.101 325.361 460.17 325.265 460.266 325.195 460.289 324.984 460.408 324.795 460.597 324.63 460.901 324.372 461.255 324.134 461.725 323.876 461.913 323.783 462.079 323.688 462.197 323.545 462.363 323.406 462.363 323.287 462.34 323.218 462.34 323.099 462.244 323.029 462.197 323.006 462.102 322.957 461.963 322.983 461.844 323.052 461.678 323.145 461.536 323.311 461.397 323.453 461.113 323.783 460.808 324.088 460.478 324.346 460.385 324.418 460.147 324.63 459.796 324.584 459.701 324.676 459.582 324.723 459.466 324.7 459.254 324.7 459.112 324.557 459.042 324.488 458.123 323.572 457.039 322.91 455.815 322.487 455.273 322.299 454.71 322.183 454.049 322.087 453.979 322.087 453.814 322.087 453.695 321.945L453.602 321.829 453.602 321.617C453.437 321.429 453.367 321.263 453.367 321.075L453.367 320.979C453.367 320.767 453.367 320.579 453.391 320.367 453.437 320.086 453.46 319.828 453.507 319.544L453.507 319.262C453.507 319.262 453.533 319.051 453.533 319.051 453.533 318.862 453.391 318.72 453.248 318.697 453.083 318.697 452.944 318.816 452.918 319.004 452.918 319.143 452.918 319.309 452.944 319.544 453.014 319.993 453.083 320.463 453.083 320.956 453.083 321.075 453.083 321.333 452.871 321.545 452.871 321.71 452.825 321.829 452.755 321.922 452.683 322.017 452.567 322.064 452.402 322.087L452.236 322.087C450.378 322.345 448.728 323.122 447.408 324.465 447.338 324.534 447.196 324.723 446.961 324.676 446.869 324.676 446.75 324.63 446.657 324.584 446.35 324.607 446.138 324.442 446.042 324.395 445.715 324.134 445.407 323.853 445.077 323.476 444.914 323.287 444.772 323.145 444.607 323.029 444.441 322.934 444.253 322.957 444.16 323.076 444.064 323.195 444.088 323.383 444.23 323.522 444.372 323.664 444.537 323.757 444.726 323.853 445.103 324.065 445.454 324.276 445.761 324.534 445.903 324.653 446.138 324.842 446.184 325.172 446.28 325.242 446.326 325.335 446.35 325.43 446.396 325.642 446.303 325.831 446.231 325.923 445.219 327.573 444.818 329.363 445.053 331.245 445.103 331.691 444.818 331.833 444.676 331.857 444.514 332.118 444.253 332.187 444.064 332.234 443.618 332.329 443.148 332.376 442.699 332.399 442.487 332.399 442.322 332.445 442.159 332.492 441.994 332.564 441.921 332.729 441.948 332.845 441.971 332.987 442.133 333.13 442.298 333.08 442.487 333.08 442.675 333.011 442.887 332.918 443.337 332.729 443.737 332.587 444.114 332.492 444.302 332.445 444.537 332.376 444.772 332.518 444.842 332.564 444.865 332.564 444.865 332.564L445.007 332.518 445.219 332.587C445.384 332.68 445.43 332.822 445.454 332.892 446.115 334.753 447.269 336.212 448.939 337.247 449.247 337.436 449.247 337.72 449.128 337.932 449.247 338.236 449.128 338.497 449.058 338.59 448.87 338.967 448.658 339.344 448.327 339.791 448.185 339.979 448.116 340.121 448.069 340.26 447.997 340.449 448.069 340.637 448.208 340.71 448.35 340.779 448.539 340.71 448.635 340.521 448.704 340.402 448.774 340.237 448.823 340.049 448.962 339.579 449.104 339.156 449.293 338.779 449.339 338.66 449.481 338.378 449.812 338.259 449.882 338.097 450.093 337.859 450.517 338.001 452.306 338.636 454.121 338.636 455.957 338.025 456.099 337.978 456.287 337.909 456.499 338.025 456.592 338.071 456.664 338.143 456.711 338.259 456.923 338.332 457.065 338.471 457.181 338.709 457.416 339.179 457.558 339.675 457.677 340.075 457.746 340.31 457.816 340.475 457.935 340.591 458.054 340.71 458.193 340.733 458.312 340.661 458.43 340.591 458.477 340.426 458.43 340.286 458.381 340.098 458.265 339.933 458.146 339.767 457.888 339.39 457.653 339.037 457.465 338.686 457.392 338.544 457.227 338.259 457.346 337.909 457.253 337.697 457.276 337.436 457.581 337.247 458.404 336.754 459.135 336.096 459.747 335.319 460.312 334.588 460.759 333.788 461.043 332.918 461.162 332.541 461.467 332.468 461.702 332.541 461.797 332.422 462.032 332.376 462.267 332.422 462.551 332.492 462.833 332.564 463.091 332.657 463.279 332.729 463.398 332.776 463.517 332.822 463.729 332.918 463.917 332.987 464.129 333.011 464.34 333.057 464.433 332.964 464.506 332.869 464.575 332.776 464.575 332.703 464.529 332.61 464.456 332.468 464.364 332.399 464.198 332.376 463.963 332.352 463.729 332.329 463.491 332.303ZM453.883 323.334C454.049 323.195 454.26 323.218 454.498 323.264 455.815 323.499 457.039 324.111 458.077 325.053 458.146 325.123 458.312 325.265 458.288 325.477 458.288 325.688 458.1 325.831 458.03 325.877 457.157 326.489 456.311 327.101 455.438 327.713 455.226 327.855 455.014 327.924 454.803 327.924 454.661 327.924 454.545 327.901 454.403 327.831 454.072 327.689 453.883 327.385 453.86 326.962L453.695 323.972C453.695 323.688 453.695 323.476 453.86 323.334ZM454.026 328.774 454.991 329.998 454.661 331.529 453.248 332.21 451.836 331.529 451.482 329.998 452.448 328.774 454.026 328.774ZM448.281 325.1 448.539 325.361 448.304 325.1C449.316 324.157 450.517 323.572 451.859 323.311 451.955 323.311 452.025 323.287 452.071 323.264 452.26 323.241 452.425 323.218 452.59 323.357 452.755 323.499 452.732 323.688 452.732 323.853L452.683 324.723C452.637 325.5 452.59 326.3 452.544 327.078 452.544 327.431 452.329 327.713 452.025 327.855 451.906 327.924 451.767 327.95 451.624 327.95 451.436 327.95 451.247 327.878 451.082 327.785 450.636 327.454 450.163 327.15 449.716 326.819 449.27 326.489 448.797 326.184 448.35 325.854 448.208 325.761 448.139 325.642 448.116 325.5 448.116 325.288 448.234 325.172 448.304 325.123ZM446.068 331.129C445.973 330.656 445.996 330.209 446.019 329.832 446.092 328.725 446.419 327.689 446.961 326.75 447.008 326.677 447.104 326.489 447.315 326.466 447.527 326.442 447.669 326.561 447.739 326.608 448.539 327.336 449.339 328.043 450.14 328.751 450.47 329.032 450.589 329.363 450.494 329.74 450.378 330.279 449.905 330.398 449.74 330.444 448.962 330.656 448.185 330.891 447.385 331.129L446.138 331.48 446.068 331.103ZM449.928 336.047C449.928 336.047 449.812 336.331 449.6 336.401 449.551 336.401 449.505 336.401 449.481 336.401 449.316 336.401 449.2 336.308 449.128 336.259 447.95 335.435 447.057 334.33 446.515 332.987 446.468 332.892 446.396 332.703 446.515 332.541 446.584 332.422 446.703 332.329 446.892 332.303 447.715 332.164 448.562 332.022 449.386 331.88L450.305 331.741C450.589 331.714 450.847 331.857 451.036 332.068 451.224 332.28 451.294 332.564 451.247 332.845 451.247 332.845 451.178 333.057 451.152 333.176L450.801 334.046C450.517 334.707 450.259 335.365 449.974 336.047ZM455.699 336.966C455.603 337.178 455.391 337.247 455.322 337.271 454.614 337.459 453.933 337.578 453.225 337.578 452.494 337.578 451.79 337.459 451.082 337.247 451.013 337.247 450.824 337.178 450.728 336.966 450.659 336.778 450.728 336.589 450.778 336.52 451.105 335.931 451.413 335.365 451.74 334.777L452.355 333.669C452.544 333.341 452.848 333.153 453.179 333.153 453.507 333.153 453.814 333.341 454.002 333.669 454.284 334.142 454.545 334.635 454.803 335.107L455.249 335.931C455.345 336.119 455.461 336.308 455.557 336.496 455.603 336.566 455.722 336.754 455.626 336.966ZM459.959 332.964C459.419 334.353 458.5 335.481 457.3 336.331 457.253 336.354 457.134 336.447 456.992 336.447 456.946 336.447 456.923 336.447 456.876 336.447 456.664 336.377 456.592 336.189 456.569 336.143 456.238 335.342 455.911 334.542 455.58 333.741L455.299 333.057C455.299 333.057 455.203 332.799 455.226 332.634 455.226 332.399 455.345 332.141 455.557 331.952 455.768 331.787 456.026 331.714 456.311 331.764L459.582 332.329C459.582 332.329 459.843 332.376 459.959 332.564 460.031 332.68 460.031 332.822 459.959 332.987ZM460.408 330.963C460.408 331.129 460.336 331.245 460.22 331.314 460.147 331.364 460.054 331.387 459.982 331.387 459.912 331.387 459.843 331.387 459.82 331.364L458.781 331.056C458.054 330.844 457.346 330.633 456.615 330.421 456.264 330.328 456.003 330.067 455.934 329.74 455.861 329.409 455.98 329.055 456.264 328.82L458.712 326.631C458.712 326.631 458.923 326.442 459.135 326.489 459.347 326.512 459.443 326.701 459.489 326.773 460.031 327.713 460.359 328.725 460.431 329.786 460.431 330.044 460.478 330.233 460.455 330.421 460.455 330.633 460.455 330.798 460.431 330.987Z" fill="#000000" fill-rule="evenodd" fill-opacity="1" transform="matrix(1 0 0 1.00092 1.37296 4.85593)"/><path d="M466.486 320.144 453.24 313.767 439.993 320.144 436.722 334.472 445.897 345.956 460.605 345.956 469.781 334.472 466.51 320.144ZM465.028 333.509C464.77 333.814 464.416 333.956 463.992 333.91 463.711 333.86 463.45 333.768 463.215 333.672 463.099 333.625 463.004 333.579 462.888 333.533 462.58 333.437 462.345 333.344 462.087 333.298 461.899 333.391 461.757 333.414 461.664 333.414 461.333 334.31 460.887 335.157 460.298 335.908 459.663 336.731 458.909 337.416 458.062 337.932 458.085 338.074 458.062 338.19 458.039 338.262 458.039 338.309 458.016 338.355 458.112 338.52 458.274 338.851 458.486 339.179 458.72 339.533 458.863 339.744 459.028 339.979 459.097 340.286 459.216 340.756 459.028 341.226 458.628 341.461 458.228 341.696 457.734 341.603 457.381 341.249 457.146 340.991 457.05 340.71 456.957 340.426 456.838 340.049 456.699 339.579 456.488 339.156 456.438 339.063 456.415 339.063 456.392 339.063 456.227 339.013 456.134 338.944 456.087 338.874 454.156 339.509 452.228 339.509 450.322 338.874 450.227 339.013 450.088 339.063 450.015 339.086 449.992 339.086 449.969 339.086 449.899 339.251 449.734 339.602 449.592 340.002 449.476 340.426 449.403 340.661 449.31 340.872 449.215 341.061 449.003 341.415 448.652 341.603 448.298 341.603 448.156 341.603 448.017 341.58 447.875 341.507 447.405 341.272 447.193 340.71 447.382 340.191 447.475 339.933 447.617 339.721 447.733 339.556 448.017 339.156 448.229 338.802 448.391 338.474 448.44 338.378 448.44 338.355 448.417 338.332 448.345 338.19 448.345 338.051 448.391 337.932 446.698 336.827 445.497 335.319 444.792 333.437 444.627 333.437 444.488 333.367 444.369 333.298 444.369 333.298 444.299 333.298 444.25 333.321 443.853 333.414 443.499 333.533 443.076 333.721 442.818 333.837 442.533 333.933 442.206 333.933 441.687 333.933 441.263 333.602 441.17 333.132 441.075 332.663 441.356 332.167 441.805 331.978 442.04 331.885 442.275 331.839 442.58 331.813 443.003 331.813 443.427 331.743 443.827 331.651 443.969 331.627 443.992 331.601 443.992 331.578 444.038 331.485 444.111 331.39 444.25 331.32 444.038 329.319 444.462 327.437 445.523 325.697 445.451 325.602 445.404 325.485 445.404 325.367 445.404 325.32 445.404 325.297 445.239 325.178 444.958 324.966 444.627 324.755 444.276 324.566 444.064 324.45 443.827 324.308 443.615 324.096 443.241 323.719 443.168 323.131 443.499 322.731 443.803 322.307 444.392 322.214 444.862 322.496 445.123 322.638 445.311 322.849 445.497 323.061 445.804 323.415 446.086 323.673 446.37 323.885 446.37 323.885 446.439 323.954 446.463 323.931 446.605 323.885 446.721 323.931 446.84 323.978 448.322 322.545 450.038 321.721 452.039 321.484 452.039 321.484 452.039 321.484 452.039 321.484 452.062 321.368 452.158 321.226 452.251 321.133 452.251 321.133 452.251 321.133 452.251 321.06 452.251 320.614 452.181 320.167 452.109 319.767 452.062 319.486 452.062 319.251 452.086 319.039 452.158 318.474 452.581 318.073 453.144 318.097 453.617 318.097 454.017 318.497 454.086 318.967L454.205 318.967 454.063 319.697C454.04 319.979 453.994 320.26 453.944 320.544 453.944 320.709 453.944 320.872 453.944 321.037L453.944 321.156C453.944 321.156 454.11 321.321 454.156 321.51 454.84 321.603 455.403 321.721 455.922 321.907 457.215 322.357 458.37 323.061 459.358 324.004 459.474 323.931 459.593 323.908 459.733 323.931 459.733 323.931 459.782 323.931 459.898 323.838 460.182 323.603 460.463 323.319 460.745 323.015 460.91 322.826 461.098 322.615 461.356 322.473 461.664 322.284 462.041 322.261 462.368 322.403 462.653 322.545 462.864 322.803 462.934 323.131 462.98 323.392 462.934 323.743 462.58 324.12 462.392 324.308 462.157 324.45 461.945 324.543 461.522 324.778 461.191 324.99 460.933 325.227 460.863 325.297 460.863 325.32 460.863 325.343 460.863 325.485 460.817 325.602 460.721 325.697 461.522 327.014 461.968 328.426 462.064 329.931 462.087 330.38 462.064 330.827 462.015 331.297 462.157 331.343 462.203 331.462 462.253 331.509 462.299 331.601 462.368 331.627 462.627 331.651 462.957 331.697 463.192 331.72 463.45 331.743 463.688 331.767 463.923 331.79 464.181 331.839 464.581 331.885 464.886 332.12 465.051 332.474 465.216 332.825 465.17 333.179 464.935 333.486Z" fill="#000000" fill-rule="evenodd" fill-opacity="1" transform="matrix(1 0 0 1.00092 1.37296 4.85593)"/><path d="M459.631 330.876 460.211 331.166 459.631 330.876Z" fill="#000000" fill-rule="evenodd" fill-opacity="1" transform="matrix(1 0 0 1.00092 1.37296 4.85593)"/><path d="M453.251 331.166 453.724 330.865 453.831 330.236 453.509 329.716 452.993 329.716 452.671 330.236 452.779 330.865 453.251 331.166Z" fill="#000000" fill-rule="evenodd" fill-opacity="1" transform="matrix(1 0 0 1.00092 1.37296 4.85593)"/><path d="M459.631 330.424C459.631 330.238 459.631 330.079 459.608 329.916 459.544 329.015 459.3 328.182 458.923 327.396L456.824 329.363C456.824 329.363 456.711 329.522 456.734 329.592 456.734 329.661 456.824 329.731 456.911 329.754 457.575 329.963 458.259 330.172 458.923 330.378L459.631 330.586C459.631 330.586 459.631 330.47 459.631 330.401Z" fill="#000000" fill-rule="evenodd" fill-opacity="1" transform="matrix(1 0 0 1.00092 1.37296 4.85593)"/><path d="M288.393 387.859 400.039 387.859 400.039 501.244 288.393 501.244Z" stroke="#E68C28" stroke-width="1.32911" stroke-linecap="butt" stroke-linejoin="round" stroke-miterlimit="10" stroke-opacity="1" fill="#FFFFFF" fill-rule="nonzero" fill-opacity="1" transform="matrix(1 0 0 1.00092 1.37296 4.85593)"/><text fill="#000000" fill-opacity="1" font-family="Metropolis,Metropolis_MSFontService,sans-serif" font-style="normal" font-variant="normal" font-weight="400" font-stretch="normal" font-size="41" text-anchor="start" direction="ltr" writing-mode="lr-tb" unicode-bidi="normal" text-decoration="none" transform="matrix(0.289988 0 0 0.290254 321.853 409)">vSphere </text><text fill="#000000" fill-opacity="1" font-family="Metropolis,Metropolis_MSFontService,sans-serif" font-style="normal" font-variant="normal" font-weight="400" font-stretch="normal" font-size="41" text-anchor="start" direction="ltr" writing-mode="lr-tb" unicode-bidi="normal" text-decoration="none" transform="matrix(0.289988 0 0 0.290254 305.982 423)">Namespace B</text><path d="M318.697 470.108 318.987 470.651 318.769 470.071C318.769 470.071 318.769 470.071 318.697 470.071Z" fill="#000000" fill-rule="evenodd" fill-opacity="1" transform="matrix(1 0 0 1.00092 1.37296 4.85593)"/><path d="M314.991 460.753C314.991 460.753 315.147 460.82 315.214 460.776 315.281 460.753 315.327 460.684 315.327 460.591 315.371 459.831 315.417 459.051 315.461 458.291L315.507 457.601C314.382 457.83 313.439 458.314 312.607 459.028 312.967 459.28 313.326 459.556 313.686 459.808 314.112 460.13 314.562 460.431 314.991 460.753Z" fill="#000000" fill-rule="evenodd" fill-opacity="1" transform="matrix(1 0 0 1.00092 1.37296 4.85593)"/><path d="M319.404 466.057C319.404 466.057 319.306 466.153 319.306 466.249L318.987 466.486 319.332 466.344 319.628 467.034C319.947 467.748 320.242 468.487 320.564 469.201 321.55 468.487 322.264 467.606 322.757 466.536L319.602 466.011C319.602 466.011 319.454 466.034 319.404 466.057Z" fill="#000000" fill-rule="evenodd" fill-opacity="1" transform="matrix(1 0 0 1.00092 1.37296 4.85593)"/><path d="M313.848 466.011 313.062 466.156C312.323 466.275 311.607 466.42 310.867 466.539 311.328 467.617 312.024 468.505 312.923 469.201 313.178 468.577 313.41 467.977 313.642 467.377L313.987 466.489C313.987 466.489 314.034 466.347 314.057 466.298 314.057 466.251 314.057 466.179 314.011 466.13 313.964 466.083 313.918 466.06 313.848 466.034Z" fill="#000000" fill-rule="evenodd" fill-opacity="1" transform="matrix(1 0 0 1.00092 1.37296 4.85593)"/><path d="M317.795 469.131C317.549 468.632 317.299 468.107 317.027 467.612 316.98 467.51 316.89 467.487 316.824 467.461 316.754 467.461 316.664 467.51 316.621 467.612L316.032 468.78C315.759 469.331 315.49 469.853 315.217 470.401 315.759 470.552 316.281 470.625 316.824 470.651 317.343 470.651 317.888 470.575 318.407 470.427 318.34 470.276 318.271 470.152 318.204 470.027L317.775 469.154Z" fill="#000000" fill-rule="evenodd" fill-opacity="1" transform="matrix(1 0 0 1.00092 1.37296 4.85593)"/><path d="M322.757 466.301 323.047 466.591 322.757 466.301Z" fill="#000000" fill-rule="evenodd" fill-opacity="1" transform="matrix(1 0 0 1.00092 1.37296 4.85593)"/><path d="M313.428 463.308C313.428 463.308 313.428 463.146 313.286 463.009 312.538 462.366 311.792 461.725 311.044 461.081 310.612 461.884 310.371 462.711 310.299 463.584 310.299 463.789 310.273 464.042 310.299 464.271L310.803 464.135C311.598 463.903 312.419 463.697 313.213 463.468 313.428 463.398 313.454 463.331 313.477 463.285Z" fill="#000000" fill-rule="evenodd" fill-opacity="1" transform="matrix(1 0 0 1.00092 1.37296 4.85593)"/><path d="M318.389 460.782C318.389 460.782 318.529 460.829 318.688 460.713 319.465 460.156 320.24 459.599 321.017 459.039 320.127 458.297 319.167 457.81 318.117 457.601L318.276 460.504C318.276 460.713 318.346 460.736 318.389 460.759Z" fill="#000000" fill-rule="evenodd" fill-opacity="1" transform="matrix(1 0 0 1.00092 1.37296 4.85593)"/><path d="M326.898 466.13C326.643 466.106 326.387 466.083 326.155 466.037 325.828 465.988 325.456 465.941 325.224 465.587 325.085 465.564 324.992 465.495 324.946 465.425 324.807 465.26 324.83 465.071 324.853 464.976 324.9 464.506 324.923 464.059 324.9 463.61 324.83 462.174 324.386 460.835 323.644 459.608 323.598 459.538 323.505 459.373 323.551 459.161 323.574 459.045 323.644 458.95 323.737 458.88 323.76 458.668 323.876 458.48 324.062 458.314 324.363 458.056 324.714 457.819 325.178 457.561 325.364 457.468 325.526 457.372 325.642 457.23 325.804 457.091 325.804 456.972 325.781 456.902 325.781 456.783 325.688 456.714 325.642 456.691 325.549 456.641 325.41 456.667 325.294 456.737 325.132 456.83 324.992 456.995 324.853 457.137 324.575 457.468 324.27 457.772 323.946 458.03 323.853 458.103 323.621 458.314 323.273 458.268 323.18 458.361 323.061 458.407 322.945 458.384 322.736 458.384 322.597 458.242 322.528 458.172 321.62 457.253 320.553 456.595 319.344 456.171 318.81 455.983 318.25 455.867 317.601 455.771 317.531 455.771 317.369 455.771 317.25 455.629L317.157 455.513 317.157 455.302C316.995 455.113 316.925 454.948 316.925 454.759L316.925 454.664C316.925 454.452 316.925 454.263 316.948 454.052 316.995 453.77 317.018 453.512 317.064 453.228L317.064 452.947C317.064 452.947 317.087 452.735 317.087 452.735 317.087 452.547 316.948 452.405 316.809 452.381 316.647 452.381 316.507 452.5 316.484 452.689 316.484 452.828 316.484 452.993 316.507 453.228 316.577 453.675 316.647 454.147 316.647 454.64 316.647 454.759 316.647 455.017 316.438 455.229 316.438 455.394 316.391 455.513 316.322 455.606 316.252 455.702 316.136 455.748 315.974 455.771L315.809 455.771C313.973 456.029 312.346 456.807 311.044 458.149 310.974 458.219 310.835 458.407 310.603 458.361 310.51 458.361 310.395 458.314 310.302 458.268 309.997 458.291 309.788 458.126 309.696 458.08 309.371 457.819 309.069 457.537 308.744 457.16 308.582 456.972 308.44 456.83 308.278 456.714 308.115 456.618 307.93 456.641 307.837 456.76 307.744 456.879 307.767 457.068 307.906 457.207 308.046 457.349 308.208 457.442 308.394 457.537 308.768 457.749 309.116 457.961 309.417 458.219 309.556 458.338 309.788 458.526 309.835 458.857 309.928 458.926 309.974 459.019 309.997 459.115 310.047 459.327 309.951 459.515 309.881 459.608 308.884 461.258 308.486 463.047 308.721 464.929 308.768 465.376 308.486 465.518 308.347 465.541 308.185 465.799 307.93 465.872 307.744 465.918 307.303 466.014 306.836 466.06 306.396 466.083 306.187 466.083 306.024 466.13 305.862 466.176 305.7 466.249 305.627 466.414 305.65 466.53 305.676 466.672 305.839 466.814 306.001 466.765 306.187 466.765 306.372 466.695 306.581 466.602 307.022 466.414 307.419 466.272 307.79 466.176 307.976 466.13 308.208 466.06 308.44 466.202 308.51 466.249 308.533 466.249 308.533 466.249L308.675 466.202 308.884 466.272C309.046 466.365 309.092 466.507 309.116 466.576 309.765 468.438 310.905 469.897 312.555 470.932 312.857 471.12 312.857 471.405 312.74 471.616 312.857 471.921 312.74 472.182 312.671 472.275 312.485 472.652 312.277 473.028 311.952 473.475 311.813 473.664 311.743 473.806 311.697 473.945 311.627 474.133 311.697 474.322 311.836 474.394 311.975 474.464 312.161 474.394 312.253 474.206 312.323 474.087 312.393 473.922 312.439 473.733 312.578 473.263 312.717 472.84 312.903 472.463 312.952 472.344 313.091 472.063 313.416 471.944 313.486 471.782 313.695 471.544 314.112 471.686 315.881 472.321 317.67 472.321 319.483 471.709 319.622 471.663 319.807 471.593 320.016 471.709 320.109 471.755 320.179 471.828 320.228 471.944 320.437 472.016 320.576 472.156 320.692 472.393 320.924 472.863 321.063 473.359 321.179 473.759 321.249 473.994 321.318 474.159 321.434 474.275 321.55 474.394 321.692 474.418 321.808 474.345 321.924 474.275 321.971 474.11 321.924 473.971 321.878 473.782 321.762 473.617 321.643 473.452 321.388 473.075 321.156 472.721 320.97 472.37 320.901 472.228 320.738 471.944 320.854 471.593 320.762 471.381 320.785 471.12 321.086 470.932 321.901 470.439 322.62 469.781 323.226 469.003 323.783 468.273 324.224 467.472 324.502 466.602 324.621 466.225 324.923 466.153 325.155 466.225 325.248 466.106 325.48 466.06 325.712 466.106 325.99 466.176 326.271 466.249 326.527 466.341 326.712 466.414 326.828 466.46 326.944 466.507 327.153 466.602 327.339 466.672 327.55 466.695 327.759 466.742 327.852 466.649 327.921 466.553 327.991 466.46 327.991 466.388 327.945 466.295 327.875 466.153 327.782 466.083 327.62 466.06 327.385 466.037 327.153 466.014 326.921 465.988ZM317.438 457.018C317.601 456.879 317.809 456.902 318.041 456.949 319.344 457.184 320.553 457.795 321.574 458.738 321.643 458.807 321.808 458.95 321.785 459.161 321.785 459.373 321.597 459.515 321.527 459.561 320.669 460.173 319.831 460.785 318.972 461.397 318.761 461.539 318.552 461.609 318.343 461.609 318.204 461.609 318.088 461.586 317.949 461.516 317.624 461.374 317.438 461.069 317.415 460.646L317.25 457.656C317.25 457.372 317.25 457.16 317.415 457.018ZM317.578 462.458 318.529 463.682 318.204 465.213 316.809 465.895 315.414 465.213 315.066 463.682 316.02 462.458 317.578 462.458ZM311.905 458.784 312.161 459.045 311.929 458.784C312.926 457.842 314.112 457.253 315.437 456.995 315.53 456.995 315.6 456.972 315.646 456.949 315.832 456.925 315.997 456.902 316.159 457.041 316.322 457.184 316.299 457.372 316.299 457.537L316.252 458.407C316.206 459.184 316.159 459.985 316.113 460.762 316.113 461.116 315.904 461.397 315.6 461.539 315.484 461.609 315.345 461.635 315.205 461.635 315.02 461.635 314.834 461.562 314.672 461.47 314.228 461.139 313.764 460.835 313.323 460.504 312.88 460.173 312.416 459.869 311.975 459.538 311.836 459.445 311.766 459.327 311.743 459.184 311.743 458.973 311.859 458.857 311.929 458.807ZM309.719 464.813C309.626 464.34 309.649 463.894 309.672 463.517 309.742 462.409 310.07 461.374 310.603 460.431 310.65 460.362 310.742 460.173 310.951 460.15 311.16 460.127 311.299 460.246 311.369 460.292 312.161 461.02 312.952 461.728 313.741 462.435 314.066 462.717 314.182 463.047 314.089 463.424 313.973 463.963 313.509 464.082 313.347 464.129 312.578 464.34 311.813 464.575 311.021 464.813L309.788 465.164 309.719 464.787ZM313.532 469.731C313.532 469.731 313.416 470.016 313.207 470.085 313.161 470.085 313.115 470.085 313.091 470.085 312.926 470.085 312.81 469.992 312.74 469.943 311.581 469.119 310.696 468.015 310.163 466.672 310.116 466.576 310.047 466.388 310.163 466.225 310.232 466.106 310.348 466.014 310.534 465.988 311.346 465.848 312.184 465.706 312.999 465.564L313.903 465.425C314.182 465.399 314.44 465.541 314.625 465.753 314.811 465.964 314.881 466.249 314.834 466.53 314.834 466.53 314.765 466.742 314.741 466.86L314.393 467.73C314.112 468.392 313.857 469.05 313.579 469.731ZM319.228 470.651C319.135 470.862 318.926 470.932 318.856 470.955 318.157 471.144 317.485 471.262 316.786 471.262 316.067 471.262 315.368 471.144 314.672 470.932 314.602 470.932 314.417 470.862 314.321 470.651 314.251 470.462 314.321 470.274 314.367 470.204 314.695 469.615 314.997 469.05 315.321 468.461L315.927 467.353C316.113 467.026 316.415 466.837 316.739 466.837 317.064 466.837 317.369 467.026 317.554 467.353 317.833 467.826 318.088 468.319 318.343 468.792L318.787 469.615C318.88 469.804 318.996 469.992 319.088 470.181 319.135 470.25 319.251 470.439 319.158 470.651ZM323.435 466.649C322.899 468.038 321.994 469.166 320.808 470.016 320.762 470.039 320.646 470.132 320.506 470.132 320.46 470.132 320.437 470.132 320.39 470.132 320.179 470.062 320.109 469.873 320.086 469.827 319.761 469.027 319.436 468.226 319.112 467.426L318.833 466.742C318.833 466.742 318.74 466.483 318.761 466.318 318.761 466.083 318.88 465.825 319.088 465.637 319.297 465.471 319.552 465.399 319.831 465.448L323.061 466.014C323.061 466.014 323.319 466.06 323.435 466.249 323.505 466.365 323.505 466.507 323.435 466.672ZM323.876 464.648C323.876 464.813 323.806 464.929 323.69 464.999 323.621 465.048 323.528 465.071 323.458 465.071 323.389 465.071 323.319 465.071 323.296 465.048L322.272 464.741C321.55 464.529 320.854 464.317 320.132 464.106 319.784 464.01 319.529 463.752 319.46 463.424 319.39 463.093 319.506 462.74 319.784 462.505L322.203 460.315C322.203 460.315 322.412 460.127 322.62 460.173 322.829 460.197 322.922 460.385 322.968 460.457 323.505 461.397 323.83 462.409 323.899 463.47 323.899 463.729 323.946 463.917 323.922 464.106 323.922 464.317 323.922 464.483 323.899 464.671Z" fill="#000000" fill-rule="evenodd" fill-opacity="1" transform="matrix(1 0 0 1.00092 1.37296 4.85593)"/><path d="M329.931 453.828 316.8 447.452 303.67 453.828 300.428 468.157 309.525 479.64 324.099 479.64 333.196 468.157 329.954 453.828ZM328.484 467.194C328.229 467.498 327.878 467.641 327.46 467.594 327.179 467.545 326.924 467.452 326.689 467.356 326.573 467.31 326.48 467.264 326.364 467.217 326.06 467.121 325.828 467.029 325.57 466.982 325.384 467.075 325.242 467.098 325.149 467.098 324.824 467.994 324.381 468.841 323.798 469.592 323.168 470.416 322.42 471.1 321.582 471.616 321.605 471.758 321.582 471.874 321.559 471.947 321.559 471.993 321.536 472.04 321.629 472.205 321.791 472.536 322.003 472.863 322.235 473.217 322.374 473.429 322.539 473.664 322.609 473.971 322.725 474.441 322.539 474.91 322.142 475.145 321.745 475.38 321.255 475.288 320.907 474.934 320.672 474.676 320.579 474.394 320.486 474.11 320.37 473.733 320.228 473.263 320.019 472.84 319.973 472.747 319.95 472.747 319.926 472.747 319.761 472.698 319.668 472.628 319.622 472.559 317.711 473.194 315.797 473.194 313.909 472.559 313.816 472.698 313.674 472.747 313.605 472.77 313.581 472.77 313.558 472.77 313.489 472.936 313.326 473.287 313.184 473.687 313.068 474.11 312.999 474.345 312.906 474.557 312.813 474.745 312.601 475.099 312.253 475.288 311.902 475.288 311.763 475.288 311.624 475.264 311.482 475.192 311.015 474.957 310.806 474.394 310.992 473.875 311.088 473.617 311.227 473.405 311.343 473.24 311.624 472.84 311.833 472.486 311.995 472.159 312.042 472.063 312.042 472.04 312.018 472.016 311.949 471.874 311.949 471.735 311.995 471.616 310.316 470.511 309.127 469.003 308.428 467.121 308.263 467.121 308.124 467.052 308.008 466.982 308.008 466.982 307.938 466.982 307.892 467.005 307.495 467.098 307.144 467.217 306.726 467.406 306.468 467.522 306.19 467.617 305.862 467.617 305.349 467.617 304.928 467.287 304.835 466.817 304.743 466.347 305.021 465.851 305.465 465.663 305.7 465.57 305.932 465.524 306.236 465.497 306.654 465.497 307.074 465.428 307.471 465.335 307.611 465.312 307.634 465.286 307.634 465.263 307.68 465.17 307.75 465.074 307.892 465.005 307.68 463.004 308.101 461.122 309.15 459.382 309.081 459.286 309.034 459.17 309.034 459.051 309.034 459.005 309.034 458.981 308.869 458.863 308.591 458.651 308.263 458.439 307.915 458.251 307.703 458.135 307.471 457.993 307.263 457.781 306.889 457.404 306.819 456.815 307.144 456.415 307.448 455.992 308.031 455.899 308.498 456.18 308.753 456.322 308.942 456.534 309.127 456.746 309.429 457.099 309.71 457.358 309.991 457.569 309.991 457.569 310.061 457.639 310.084 457.616 310.223 457.569 310.339 457.616 310.455 457.662 311.926 456.229 313.628 455.406 315.611 455.168 315.611 455.168 315.611 455.168 315.611 455.168 315.635 455.052 315.727 454.91 315.82 454.817 315.82 454.817 315.82 454.817 315.82 454.745 315.82 454.298 315.751 453.852 315.681 453.451 315.635 453.17 315.635 452.935 315.658 452.724 315.727 452.158 316.148 451.758 316.708 451.781 317.174 451.781 317.569 452.181 317.641 452.651L317.757 452.651 317.615 453.382C317.592 453.663 317.546 453.944 317.499 454.229 317.499 454.394 317.499 454.556 317.499 454.722L317.499 454.84C317.499 454.84 317.664 455.006 317.711 455.194 318.387 455.287 318.946 455.406 319.46 455.591 320.741 456.041 321.884 456.746 322.864 457.688 322.98 457.616 323.099 457.592 323.238 457.616 323.238 457.616 323.284 457.616 323.4 457.523 323.682 457.288 323.96 457.004 324.241 456.699 324.404 456.511 324.589 456.299 324.848 456.157 325.149 455.969 325.523 455.945 325.851 456.087 326.129 456.229 326.338 456.488 326.411 456.815 326.457 457.076 326.411 457.427 326.06 457.804 325.874 457.993 325.639 458.135 325.43 458.228 325.01 458.462 324.682 458.674 324.427 458.912 324.357 458.981 324.357 459.005 324.357 459.028 324.357 459.17 324.311 459.286 324.218 459.382 325.01 460.698 325.454 462.11 325.546 463.615 325.57 464.065 325.546 464.512 325.5 464.981 325.639 465.028 325.686 465.147 325.732 465.193 325.778 465.286 325.851 465.312 326.106 465.335 326.434 465.382 326.666 465.405 326.924 465.428 327.156 465.451 327.388 465.474 327.646 465.524 328.043 465.57 328.345 465.805 328.507 466.159 328.672 466.51 328.626 466.863 328.391 467.171Z" fill="#000000" fill-rule="evenodd" fill-opacity="1" transform="matrix(1 0 0 1.00092 1.37296 4.85593)"/><path d="M323.337 464.561 323.627 464.851 323.337 464.561Z" fill="#000000" fill-rule="evenodd" fill-opacity="1" transform="matrix(1 0 0 1.00092 1.37296 4.85593)"/><path d="M316.812 464.851 317.404 464.549 317.537 463.92 317.134 463.401 316.49 463.401 316.087 463.92 316.22 464.549 316.812 464.851Z" fill="#000000" fill-rule="evenodd" fill-opacity="1" transform="matrix(1 0 0 1.00092 1.37296 4.85593)"/><path d="M323.337 464.108C323.337 463.923 323.337 463.763 323.313 463.601 323.238 462.699 322.971 461.867 322.559 461.081L320.248 463.047C320.248 463.047 320.127 463.207 320.15 463.276 320.15 463.346 320.248 463.415 320.344 463.439 321.075 463.647 321.829 463.856 322.559 464.062L323.337 464.271C323.337 464.271 323.337 464.155 323.337 464.085Z" fill="#000000" fill-rule="evenodd" fill-opacity="1" transform="matrix(1 0 0 1.00092 1.37296 4.85593)"/><path d="M296.223 436.577 390.469 436.577 390.469 489.645 296.223 489.645Z" stroke="#000000" stroke-width="1.32911" stroke-linecap="butt" stroke-linejoin="round" stroke-miterlimit="10" stroke-opacity="1" fill="none" fill-rule="nonzero" transform="matrix(1 0 0 1.00092 1.37296 4.85593)"/><path d="M147.455 312.607 118.895 312.607 118.895 278.678 152.824 278.678 152.824 311.557 150.438 311.557 150.438 281.063 121.281 281.063 121.281 310.223 147.455 310.223 147.455 312.607Z" fill="#FFFFFF" fill-rule="evenodd" fill-opacity="1" transform="matrix(1 0 0 1.00092 1.37296 4.85593)"/><path d="M129.045 293.758 130.184 293.758 131.522 296.907 132.835 293.758 133.974 293.758 132.042 298.108 131.026 298.108 129.045 293.758Z" fill="#FFFFFF" fill-rule="evenodd" fill-opacity="1" transform="matrix(1 0 0 1.00092 1.37296 4.85593)"/><path d="M140.987 293.688C141.235 293.836 141.433 294.057 141.581 294.303 141.73 294.573 141.804 294.869 141.804 295.211L141.804 298.108 140.739 298.108 140.739 295.408C140.739 295.112 140.665 294.869 140.491 294.671 140.318 294.474 140.12 294.376 139.848 294.376 139.575 294.376 139.303 294.474 139.129 294.645 138.931 294.819 138.857 295.063 138.857 295.333L138.857 298.108 137.817 298.108 137.817 295.408C137.817 295.112 137.742 294.869 137.569 294.671 137.395 294.474 137.197 294.376 136.925 294.376 136.653 294.376 136.405 294.474 136.207 294.645 136.008 294.819 135.934 295.063 135.934 295.333L135.934 298.108 134.844 298.108 134.844 293.566 135.934 293.566 135.934 294.181C136.058 293.958 136.231 293.787 136.454 293.665 136.677 293.54 136.925 293.468 137.222 293.468 137.519 293.468 137.891 293.566 138.188 293.764 138.461 293.958 138.659 294.228 138.782 294.547 138.857 294.228 139.005 293.958 139.253 293.764 139.501 293.566 139.798 293.468 140.169 293.468 140.541 293.468 140.764 293.54 141.012 293.688Z" fill="#FFFFFF" fill-rule="evenodd" fill-opacity="1" transform="matrix(1 0 0 1.00092 1.37296 4.85593)"/><path d="M185.688 312.607 156.884 312.607 156.884 278.678 191.102 278.678 191.102 311.557 188.696 311.557 188.696 281.063 159.29 281.063 159.29 310.223 185.688 310.223 185.688 312.607Z" fill="#FFFFFF" fill-rule="evenodd" fill-opacity="1" transform="matrix(1 0 0 1.00092 1.37296 4.85593)"/><path d="M167.323 293.758 168.396 293.758 169.655 296.907 170.891 293.758 171.963 293.758 170.144 298.108 169.188 298.108 167.323 293.758Z" fill="#FFFFFF" fill-rule="evenodd" fill-opacity="1" transform="matrix(1 0 0 1.00092 1.37296 4.85593)"/><path d="M179.009 293.688C179.247 293.836 179.436 294.057 179.579 294.303 179.722 294.573 179.793 294.869 179.793 295.211L179.793 298.108 178.772 298.108 178.772 295.408C178.772 295.112 178.701 294.869 178.535 294.671 178.368 294.474 178.179 294.376 177.918 294.376 177.657 294.376 177.395 294.474 177.229 294.645 177.039 294.819 176.968 295.063 176.968 295.333L176.968 298.108 175.971 298.108 175.971 295.408C175.971 295.112 175.9 294.869 175.734 294.671 175.568 294.474 175.378 294.376 175.117 294.376 174.856 294.376 174.618 294.474 174.428 294.645 174.238 294.819 174.167 295.063 174.167 295.333L174.167 298.108 173.123 298.108 173.123 293.566 174.167 293.566 174.167 294.181C174.286 293.958 174.452 293.787 174.666 293.665 174.879 293.54 175.117 293.468 175.402 293.468 175.686 293.468 176.042 293.566 176.327 293.764 176.588 293.958 176.778 294.228 176.897 294.547 176.968 294.228 177.11 293.958 177.348 293.764 177.585 293.566 177.87 293.468 178.226 293.468 178.582 293.468 178.796 293.54 179.033 293.688Z" fill="#FFFFFF" fill-rule="evenodd" fill-opacity="1" transform="matrix(1 0 0 1.00092 1.37296 4.85593)"/><path d="M223.722 312.607 195.162 312.607 195.162 278.678 229.091 278.678 229.091 311.557 226.705 311.557 226.705 281.063 197.548 281.063 197.548 310.223 223.722 310.223 223.722 312.607Z" fill="#FFFFFF" fill-rule="evenodd" fill-opacity="1" transform="matrix(1 0 0 1.00092 1.37296 4.85593)"/><path d="M205.312 293.758 206.384 293.758 207.643 296.907 208.879 293.758 209.951 293.758 208.133 298.108 207.177 298.108 205.312 293.758Z" fill="#FFFFFF" fill-rule="evenodd" fill-opacity="1" transform="matrix(1 0 0 1.00092 1.37296 4.85593)"/><path d="M217.254 293.688C217.501 293.836 217.7 294.057 217.848 294.303 217.997 294.573 218.071 294.869 218.071 295.211L218.071 298.108 217.006 298.108 217.006 295.408C217.006 295.112 216.932 294.869 216.758 294.671 216.585 294.474 216.387 294.376 216.114 294.376 215.842 294.376 215.57 294.474 215.396 294.645 215.198 294.819 215.124 295.063 215.124 295.333L215.124 298.108 214.083 298.108 214.083 295.408C214.083 295.112 214.009 294.869 213.836 294.671 213.662 294.474 213.464 294.376 213.192 294.376 212.919 294.376 212.672 294.474 212.474 294.645 212.275 294.819 212.201 295.063 212.201 295.333L212.201 298.108 211.111 298.108 211.111 293.566 212.201 293.566 212.201 294.181C212.325 293.958 212.498 293.787 212.721 293.665 212.944 293.54 213.192 293.468 213.489 293.468 213.786 293.468 214.158 293.566 214.455 293.764 214.727 293.958 214.926 294.228 215.049 294.547 215.124 294.228 215.272 293.958 215.52 293.764 215.768 293.566 216.065 293.468 216.436 293.468 216.808 293.468 217.031 293.54 217.278 293.688Z" fill="#FFFFFF" fill-rule="evenodd" fill-opacity="1" transform="matrix(1 0 0 1.00092 1.37296 4.85593)"/><text fill="#FFFFFF" fill-opacity="1" font-family="Metropolis,Metropolis_MSFontService,sans-serif" font-style="normal" font-variant="normal" font-weight="400" font-stretch="normal" font-size="41" text-anchor="start" direction="ltr" writing-mode="lr-tb" unicode-bidi="normal" text-decoration="none" transform="matrix(0.289988 0 0 0.290254 122.243 336)">Control Plane VMs</text><path d="M259.104 98.7409 425.267 98.7409 425.267 132.96 259.104 132.96Z" stroke="#007DA3" stroke-width="1.32911" stroke-linecap="butt" stroke-linejoin="round" stroke-miterlimit="10" stroke-opacity="1" fill="#FFFFFF" fill-rule="nonzero" fill-opacity="1" transform="matrix(1 0 0 1.00092 1.37296 4.85593)"/><text fill="#000000" fill-opacity="1" font-family="Metropolis,Metropolis_MSFontService,sans-serif" font-style="normal" font-variant="normal" font-weight="400" font-stretch="normal" font-size="41" text-anchor="start" direction="ltr" writing-mode="lr-tb" unicode-bidi="normal" text-decoration="none" transform="matrix(0.289988 0 0 0.290254 321.079 125)">vCenter</text><path d="M435.417 98.7409 601.29 98.7409 601.29 132.96 435.417 132.96Z" stroke="#007DA3" stroke-width="1.32911" stroke-linecap="butt" stroke-linejoin="round" stroke-miterlimit="10" stroke-opacity="1" fill="#FFFFFF" fill-rule="nonzero" fill-opacity="1" transform="matrix(1 0 0 1.00092 1.37296 4.85593)"/><text fill="#000000" fill-opacity="1" font-family="Metropolis,Metropolis_MSFontService,sans-serif" font-style="normal" font-variant="normal" font-weight="400" font-stretch="normal" font-size="41" text-anchor="start" direction="ltr" writing-mode="lr-tb" unicode-bidi="normal" text-decoration="none" transform="matrix(0.289988 0 0 0.290254 507.054 125)">NSX</text><path d="M460.356 388.149 742.514 388.149 742.514 500.954 460.356 500.954Z" stroke="#E68C28" stroke-width="1.32911" stroke-linecap="butt" stroke-linejoin="round" stroke-miterlimit="10" stroke-opacity="1" fill="#FFFFFF" fill-rule="nonzero" fill-opacity="1" transform="matrix(1 0 0 1.00092 1.37296 4.85593)"/><text fill="#000000" fill-opacity="1" font-family="Metropolis,Metropolis_MSFontService,sans-serif" font-style="normal" font-variant="normal" font-weight="400" font-stretch="normal" font-size="41" text-anchor="start" direction="ltr" writing-mode="lr-tb" unicode-bidi="normal" text-decoration="none" transform="matrix(0.289988 0 0 0.290254 538.077 409)">vSphere Namespace C</text><path d="M480.945 437.447 721.925 437.447 721.925 489.355 480.945 489.355Z" stroke="#000000" stroke-width="1.32911" stroke-linecap="butt" stroke-linejoin="round" stroke-miterlimit="10" stroke-opacity="1" fill="#FFFFFF" fill-rule="nonzero" fill-opacity="1" transform="matrix(1 0 0 1.00092 1.37296 4.85593)"/><text fill="#000000" fill-opacity="1" font-family="Metropolis,Metropolis_MSFontService,sans-serif" font-style="normal" font-variant="normal" font-weight="400" font-stretch="normal" font-size="41" text-anchor="start" direction="ltr" writing-mode="lr-tb" unicode-bidi="normal" text-decoration="none" transform="matrix(0.289988 0 0 0.290254 555.604 472)">Virtual Machines</text><path d="M541.213 481.67 512.409 481.67 512.409 447.452 546.627 447.452 546.627 480.612 544.221 480.612 544.221 449.856 514.816 449.856 514.816 479.266 541.213 479.266 541.213 481.67Z" fill="#000000" fill-rule="evenodd" fill-opacity="1" transform="matrix(1 0 0 1.00092 1.37296 4.85593)"/><path d="M522.558 462.531 523.698 462.531 525.035 465.892 526.349 462.531 527.488 462.531 525.557 467.171 524.539 467.171 522.558 462.531Z" fill="#000000" fill-rule="evenodd" fill-opacity="1" transform="matrix(1 0 0 1.00092 1.37296 4.85593)"/><path d="M534.535 462.751C534.773 462.899 534.961 463.12 535.103 463.366 535.245 463.636 535.318 463.932 535.318 464.274L535.318 467.171 534.297 467.171 534.297 464.471C534.297 464.175 534.225 463.932 534.059 463.734 533.894 463.537 533.703 463.439 533.442 463.439 533.181 463.439 532.92 463.537 532.754 463.708 532.566 463.882 532.493 464.126 532.493 464.396L532.493 467.171 531.496 467.171 531.496 464.471C531.496 464.175 531.426 463.932 531.258 463.734 531.093 463.537 530.904 463.439 530.643 463.439 530.379 463.439 530.145 463.537 529.953 463.708 529.765 463.882 529.692 464.126 529.692 464.396L529.692 467.171 528.648 467.171 528.648 462.63 529.692 462.63 529.692 463.244C529.811 463.021 529.976 462.85 530.191 462.728 530.406 462.603 530.643 462.531 530.927 462.531 531.212 462.531 531.568 462.63 531.853 462.827 532.114 463.021 532.302 463.291 532.421 463.61 532.493 463.291 532.636 463.021 532.873 462.827 533.111 462.63 533.395 462.531 533.752 462.531 534.109 462.531 534.32 462.603 534.558 462.751Z" fill="#000000" fill-rule="evenodd" fill-opacity="1" transform="matrix(1 0 0 1.00092 1.37296 4.85593)"/><text fill="#000000" fill-opacity="1" font-family="Metropolis,Metropolis_MSFontService,sans-serif" font-style="normal" font-variant="normal" font-weight="400" font-stretch="normal" font-size="41" text-anchor="start" direction="ltr" writing-mode="lr-tb" unicode-bidi="normal" text-decoration="none" transform="matrix(0.289988 0 0 0.290254 348.115 467)">VKS </text><text fill="#000000" fill-opacity="1" font-family="Metropolis,Metropolis_MSFontService,sans-serif" font-style="normal" font-variant="normal" font-weight="400" font-stretch="normal" font-size="41" text-anchor="start" direction="ltr" writing-mode="lr-tb" unicode-bidi="normal" text-decoration="none" transform="matrix(0.289988 0 0 0.290254 337.402 482)">Clusters</text><path d="M105.121 569.682 227.206 569.682 227.206 604.19 105.121 604.19Z" stroke="#007DA3" stroke-width="1.32911" stroke-linecap="butt" stroke-linejoin="round" stroke-miterlimit="10" stroke-opacity="1" fill="#FFFFFF" fill-rule="nonzero" fill-opacity="1" transform="matrix(1 0 0 1.00092 1.37296 4.85593)"/><text fill="#000000" fill-opacity="1" font-family="Metropolis,Metropolis_MSFontService,sans-serif" font-style="normal" font-variant="normal" font-weight="400" font-stretch="normal" font-size="41" text-anchor="start" direction="ltr" writing-mode="lr-tb" unicode-bidi="normal" text-decoration="none" transform="matrix(0.289988 0 0 0.290254 135.793 596)">Datastore 1</text><path d="M0 0 0.221868 24.5833" stroke="#007A86" stroke-width="1.32911" stroke-linecap="butt" stroke-linejoin="round" stroke-miterlimit="10" stroke-opacity="1" fill="none" fill-rule="evenodd" transform="matrix(-1 0 0 1.00092 167.613 550.679)"/><path d="M281.723 569.682 403.808 569.682 403.808 603.9 281.723 603.9Z" stroke="#007DA3" stroke-width="1.32911" stroke-linecap="butt" stroke-linejoin="round" stroke-miterlimit="10" stroke-opacity="1" fill="#FFFFFF" fill-rule="nonzero" fill-opacity="1" transform="matrix(1 0 0 1.00092 1.37296 4.85593)"/><text fill="#000000" fill-opacity="1" font-family="Metropolis,Metropolis_MSFontService,sans-serif" font-style="normal" font-variant="normal" font-weight="400" font-stretch="normal" font-size="41" text-anchor="start" direction="ltr" writing-mode="lr-tb" unicode-bidi="normal" text-decoration="none" transform="matrix(0.289988 0 0 0.290254 311.08 596)">Datastore 2</text><path d="M342.331 545.323 342.801 569.713" stroke="#007A86" stroke-width="1.32911" stroke-linecap="butt" stroke-linejoin="round" stroke-miterlimit="10" stroke-opacity="1" fill="none" fill-rule="evenodd" transform="matrix(1 0 0 1.00092 1.37296 4.85593)"/><path d="M518.354 545.323 518.687 570.406" stroke="#007A86" stroke-width="1.32911" stroke-linecap="butt" stroke-linejoin="round" stroke-miterlimit="10" stroke-opacity="1" fill="none" fill-rule="evenodd" transform="matrix(1 0 0 1.00092 1.37296 4.85593)"/><path d="M457.456 570.261 579.541 570.261 579.541 604.48 457.456 604.48Z" stroke="#007DA3" stroke-width="1.32911" stroke-linecap="butt" stroke-linejoin="round" stroke-miterlimit="10" stroke-opacity="1" fill="#FFFFFF" fill-rule="nonzero" fill-opacity="1" transform="matrix(1 0 0 1.00092 1.37296 4.85593)"/><text fill="#000000" fill-opacity="1" font-family="Metropolis,Metropolis_MSFontService,sans-serif" font-style="normal" font-variant="normal" font-weight="400" font-stretch="normal" font-size="41" text-anchor="start" direction="ltr" writing-mode="lr-tb" unicode-bidi="normal" text-decoration="none" transform="matrix(0.289988 0 0 0.290254 486.914 597)">Datastore 3</text><path d="M634.059 570.261 756.144 570.261 756.144 604.48 634.059 604.48Z" stroke="#007DA3" stroke-width="1.32911" stroke-linecap="butt" stroke-linejoin="round" stroke-miterlimit="10" stroke-opacity="1" fill="#FFFFFF" fill-rule="nonzero" fill-opacity="1" transform="matrix(1 0 0 1.00092 1.37296 4.85593)"/><text fill="#000000" fill-opacity="1" font-family="Metropolis,Metropolis_MSFontService,sans-serif" font-style="normal" font-variant="normal" font-weight="400" font-stretch="normal" font-size="41" text-anchor="start" direction="ltr" writing-mode="lr-tb" unicode-bidi="normal" text-decoration="none" transform="matrix(0.289988 0 0 0.290254 663.448 597)">Datastore 4</text><path d="M0 0 0.357709 25.0825" stroke="#007A86" stroke-width="1.32911" stroke-linecap="butt" stroke-linejoin="round" stroke-miterlimit="10" stroke-opacity="1" fill="none" fill-rule="evenodd" transform="matrix(-1 0 0 1.00092 696.976 550.679)"/></g></g></g></g></g></svg>