<svg width="364" height="535" xmlns="http://www.w3.org/2000/svg" xmlns:xlink="http://www.w3.org/1999/xlink" xml:space="preserve" overflow="hidden"><g transform="translate(-496 -82)"><g><g><g><g><path d="M0 0 361.312 0 361.312 530.523 0 530.523Z" stroke="#000000" stroke-width="1.328" stroke-linecap="butt" stroke-linejoin="round" stroke-miterlimit="10" stroke-dasharray="5.31198 3.98399" stroke-opacity="1" fill="none" fill-rule="nonzero" transform="matrix(-1.00022 0 0 1 858.406 84.5936)"/><text fill="#221E20" fill-opacity="1" font-family="Metropolis,Metropolis_MSFontService,sans-serif" font-style="normal" font-variant="normal" font-weight="400" font-stretch="normal" font-size="41" text-anchor="start" direction="ltr" writing-mode="lr-tb" unicode-bidi="normal" text-decoration="none" transform="matrix(0.289809 0 0 0.289745 625.744 100)">Workload Domain</text><path d="M0 0 237.591 0 237.591 399.848 0 399.848Z" stroke="#007DA3" stroke-width="1.328" stroke-linecap="butt" stroke-linejoin="round" stroke-miterlimit="10" stroke-opacity="1" fill="#FFFFFF" fill-rule="nonzero" fill-opacity="1" transform="matrix(-1.00022 0 0 1 796.387 157.609)"/><text fill="#221E20" fill-opacity="1" font-family="Metropolis,Metropolis_MSFontService,sans-serif" font-style="normal" font-variant="normal" font-weight="400" font-stretch="normal" font-size="41" text-anchor="start" direction="ltr" writing-mode="lr-tb" unicode-bidi="normal" text-decoration="none" transform="matrix(0.289809 0 0 0.289745 628.401 173)">vSphere Cluster 1</text><path d="M128.357 181.96 345.666 181.96 345.666 543.562 128.357 543.562Z" fill="#007DA3" fill-rule="nonzero" fill-opacity="1" transform="matrix(1.00022 0 0 1 440.357 2.16115)"/><text fill="#FFFFFF" fill-opacity="1" font-family="Metropolis,Metropolis_MSFontService,sans-serif" font-style="normal" font-variant="normal" font-weight="400" font-stretch="normal" font-size="41" text-anchor="start" direction="ltr" writing-mode="lr-tb" unicode-bidi="normal" text-decoration="none" transform="matrix(0.289809 0 0 0.289745 634.046 200)">vSphere Zone 1</text><text fill="#FFFFFF" fill-opacity="1" font-family="Metropolis,Metropolis_MSFontService,sans-serif" font-style="normal" font-variant="normal" font-weight="400" font-stretch="normal" font-size="41" text-anchor="start" direction="ltr" writing-mode="lr-tb" unicode-bidi="normal" text-decoration="none" transform="matrix(0.289809 0 0 0.289745 638.197 215)">(Management </text><text fill="#FFFFFF" fill-opacity="1" font-family="Metropolis,Metropolis_MSFontService,sans-serif" font-style="normal" font-variant="normal" font-weight="400" font-stretch="normal" font-size="41" text-anchor="start" direction="ltr" writing-mode="lr-tb" unicode-bidi="normal" text-decoration="none" transform="matrix(0.289809 0 0 0.289745 635.042 229)">and Workload)</text><path d="M0 0 201.663 0 201.663 294.671 0 294.671Z" stroke="#E68C28" stroke-width="1.328" stroke-linecap="butt" stroke-linejoin="round" stroke-miterlimit="10" stroke-opacity="1" fill="none" fill-rule="nonzero" transform="matrix(-1.00022 0 0 1 779.288 243.664)"/><text fill="#FFFFFF" fill-opacity="1" font-family="Metropolis,Metropolis_MSFontService,sans-serif" font-style="normal" font-variant="normal" font-weight="400" font-stretch="normal" font-size="41" text-anchor="start" direction="ltr" writing-mode="lr-tb" unicode-bidi="normal" text-decoration="none" transform="matrix(0.289809 0 0 0.289745 622.54 260)">vSphere Supervisor</text><path d="M145.017 334.8 330.164 334.8 330.164 418.247 145.017 418.247Z" stroke="#E68C28" stroke-width="1.328" stroke-linecap="butt" stroke-linejoin="round" stroke-miterlimit="10" stroke-opacity="1" fill="#FFFFFF" fill-rule="nonzero" fill-opacity="1" transform="matrix(1.00022 0 0 1 440.357 2.16115)"/><text fill="#000000" fill-opacity="1" font-family="Metropolis,Metropolis_MSFontService,sans-serif" font-style="normal" font-variant="normal" font-weight="400" font-stretch="normal" font-size="41" text-anchor="start" direction="ltr" writing-mode="lr-tb" unicode-bidi="normal" text-decoration="none" transform="matrix(0.289809 0 0 0.289745 613.076 353)">vSphere Namespace A</text><path d="M158.635 359.429 317.705 359.429 317.705 408.975 158.635 408.975Z" stroke="#000000" stroke-width="1.328" stroke-linecap="butt" stroke-linejoin="round" stroke-miterlimit="10" stroke-opacity="1" fill="#FFFFFF" fill-rule="nonzero" fill-opacity="1" transform="matrix(1.00022 0 0 1 440.357 2.16115)"/><path d="M198.475 390.886 198.765 391.156 198.548 390.866C198.548 390.866 198.548 390.866 198.475 390.866Z" fill="#000000" fill-rule="evenodd" fill-opacity="1" transform="matrix(1.00022 0 0 1 440.357 2.16115)"/><path d="M194.771 381.551C194.771 381.551 194.929 381.626 194.996 381.577 195.064 381.551 195.108 381.475 195.108 381.377 195.153 380.548 195.198 379.696 195.243 378.871L195.288 378.117C194.165 378.369 193.222 378.894 192.391 379.67 192.75 379.948 193.11 380.247 193.469 380.525 193.896 380.876 194.345 381.2 194.771 381.551Z" fill="#000000" fill-rule="evenodd" fill-opacity="1" transform="matrix(1.00022 0 0 1 440.357 2.16115)"/><path d="M199.184 386.853C199.184 386.853 199.085 386.94 199.085 387.027L198.765 387.241 199.11 387.111 199.405 387.74C199.725 388.389 200.021 389.058 200.341 389.707 201.326 389.058 202.039 388.258 202.532 387.285L199.38 386.81C199.38 386.81 199.233 386.83 199.184 386.853Z" fill="#000000" fill-rule="evenodd" fill-opacity="1" transform="matrix(1.00022 0 0 1 440.357 2.16115)"/><path d="M193.632 386.81 192.846 386.94C192.107 387.05 191.391 387.18 190.652 387.288 191.114 388.27 191.807 389.075 192.708 389.707 192.962 389.142 193.193 388.597 193.424 388.053L193.77 387.244C193.77 387.244 193.816 387.114 193.839 387.07 193.839 387.027 193.839 386.963 193.793 386.92 193.747 386.876 193.701 386.853 193.632 386.833Z" fill="#000000" fill-rule="evenodd" fill-opacity="1" transform="matrix(1.00022 0 0 1 440.357 2.16115)"/><path d="M197.52 389.637C197.249 389.139 196.977 388.615 196.682 388.119 196.632 388.018 196.533 387.995 196.46 387.969 196.385 387.969 196.287 388.018 196.238 388.119L195.596 389.287C195.301 389.837 195.004 390.359 194.709 390.907 195.301 391.057 195.868 391.13 196.46 391.156 197.027 391.156 197.619 391.08 198.186 390.933 198.112 390.782 198.038 390.657 197.964 390.533L197.495 389.661Z" fill="#000000" fill-rule="evenodd" fill-opacity="1" transform="matrix(1.00022 0 0 1 440.357 2.16115)"/><path d="M202.532 386.81 202.821 387.099 202.532 386.81Z" fill="#000000" fill-rule="evenodd" fill-opacity="1" transform="matrix(1.00022 0 0 1 440.357 2.16115)"/><path d="M193.212 383.819C193.212 383.819 193.212 383.657 193.068 383.521 192.321 382.878 191.575 382.237 190.83 381.594 190.396 382.397 190.156 383.223 190.083 384.095 190.083 384.3 190.059 384.552 190.083 384.781L190.589 384.645C191.383 384.413 192.201 384.208 192.995 383.979 193.212 383.909 193.236 383.843 193.26 383.796Z" fill="#000000" fill-rule="evenodd" fill-opacity="1" transform="matrix(1.00022 0 0 1 440.357 2.16115)"/><path d="M197.907 381.585C197.907 381.585 198.058 381.635 198.233 381.507 199.087 380.902 199.94 380.293 200.793 379.688 199.815 378.876 198.76 378.346 197.606 378.117L197.782 381.281C197.782 381.507 197.857 381.533 197.907 381.559Z" fill="#000000" fill-rule="evenodd" fill-opacity="1" transform="matrix(1.00022 0 0 1 440.357 2.16115)"/><path d="M206.656 386.639C206.397 386.615 206.138 386.592 205.903 386.546 205.573 386.497 205.197 386.45 204.962 386.097 204.82 386.074 204.726 386.004 204.679 385.935 204.538 385.769 204.562 385.581 204.585 385.485 204.632 385.016 204.656 384.57 204.632 384.121 204.562 382.686 204.115 381.348 203.362 380.122 203.315 380.053 203.221 379.888 203.268 379.676 203.291 379.56 203.362 379.465 203.456 379.395 203.479 379.183 203.597 378.995 203.785 378.83 204.091 378.572 204.444 378.335 204.915 378.077 205.103 377.984 205.268 377.888 205.385 377.746 205.55 377.607 205.55 377.488 205.526 377.419 205.526 377.3 205.432 377.231 205.385 377.207 205.291 377.158 205.15 377.184 205.032 377.254 204.868 377.346 204.726 377.512 204.585 377.654 204.303 377.984 203.997 378.288 203.668 378.546 203.574 378.618 203.338 378.83 202.985 378.784 202.891 378.876 202.774 378.923 202.656 378.899 202.444 378.899 202.303 378.758 202.232 378.688 201.315 377.772 200.233 377.112 199.009 376.689 198.468 376.5 197.903 376.385 197.245 376.289 197.174 376.289 197.009 376.289 196.892 376.147L196.798 376.031 196.798 375.819C196.633 375.631 196.562 375.466 196.562 375.278L196.562 375.182C196.562 374.971 196.562 374.782 196.586 374.571 196.633 374.29 196.657 374.032 196.704 373.748L196.704 373.467C196.704 373.467 196.727 373.255 196.727 373.255 196.727 373.067 196.586 372.925 196.445 372.902 196.28 372.902 196.139 373.021 196.115 373.209 196.115 373.348 196.115 373.513 196.139 373.748 196.21 374.197 196.28 374.666 196.28 375.159 196.28 375.278 196.28 375.536 196.068 375.747 196.068 375.912 196.021 376.031 195.95 376.124 195.88 376.219 195.762 376.266 195.598 376.289L195.433 376.289C193.574 376.547 191.927 377.323 190.61 378.665 190.539 378.734 190.398 378.923 190.163 378.876 190.069 378.876 189.951 378.83 189.857 378.784 189.551 378.807 189.339 378.642 189.245 378.595 188.916 378.335 188.61 378.053 188.281 377.677 188.116 377.488 187.975 377.346 187.81 377.231 187.646 377.135 187.457 377.158 187.363 377.277 187.269 377.396 187.293 377.584 187.434 377.723 187.575 377.865 187.739 377.958 187.928 378.053 188.304 378.265 188.657 378.476 188.963 378.734 189.104 378.853 189.339 379.041 189.386 379.372 189.48 379.441 189.528 379.534 189.551 379.63 189.598 379.841 189.504 380.03 189.434 380.122 188.422 381.771 188.022 383.559 188.257 385.439 188.304 385.885 188.022 386.027 187.881 386.05 187.716 386.311 187.457 386.381 187.269 386.427 186.822 386.523 186.352 386.569 185.904 386.592 185.693 386.592 185.528 386.639 185.363 386.685 185.199 386.757 185.128 386.923 185.151 387.038 185.175 387.18 185.34 387.322 185.504 387.273 185.693 387.273 185.881 387.204 186.092 387.111 186.54 386.923 186.94 386.781 187.316 386.685 187.504 386.639 187.739 386.569 187.975 386.711 188.045 386.757 188.069 386.757 188.069 386.757L188.21 386.711 188.422 386.781C188.587 386.873 188.634 387.015 188.657 387.085 189.316 388.945 190.469 390.402 192.139 391.437 192.445 391.625 192.445 391.909 192.327 392.121 192.445 392.425 192.327 392.686 192.257 392.778 192.068 393.155 191.857 393.532 191.528 393.978 191.386 394.166 191.316 394.308 191.269 394.447 191.198 394.636 191.269 394.824 191.41 394.896 191.551 394.966 191.739 394.896 191.833 394.708 191.904 394.589 191.975 394.424 192.022 394.236 192.163 393.766 192.304 393.343 192.492 392.967 192.539 392.848 192.68 392.567 193.01 392.448 193.08 392.286 193.292 392.048 193.715 392.19 195.504 392.825 197.315 392.825 199.15 392.213 199.292 392.167 199.48 392.097 199.692 392.213 199.786 392.26 199.856 392.332 199.903 392.448 200.115 392.52 200.256 392.659 200.374 392.897 200.609 393.366 200.75 393.862 200.868 394.262 200.938 394.496 201.009 394.662 201.127 394.778 201.244 394.896 201.386 394.919 201.503 394.847 201.621 394.778 201.668 394.612 201.621 394.473 201.574 394.285 201.456 394.12 201.338 393.955 201.08 393.578 200.844 393.224 200.656 392.874 200.586 392.732 200.421 392.448 200.539 392.097 200.444 391.886 200.468 391.625 200.774 391.437 201.597 390.944 202.327 390.286 202.938 389.51 203.503 388.78 203.95 387.98 204.232 387.111 204.35 386.734 204.656 386.662 204.891 386.734 204.985 386.615 205.221 386.569 205.456 386.615 205.738 386.685 206.021 386.757 206.279 386.85 206.467 386.923 206.585 386.969 206.703 387.015 206.914 387.111 207.103 387.18 207.315 387.204 207.526 387.25 207.62 387.157 207.691 387.062 207.761 386.969 207.761 386.896 207.714 386.804 207.644 386.662 207.55 386.592 207.385 386.569 207.15 386.546 206.914 386.523 206.679 386.497ZM197.08 377.535C197.245 377.396 197.456 377.419 197.692 377.465 199.009 377.7 200.233 378.311 201.268 379.253 201.338 379.323 201.503 379.465 201.48 379.676 201.48 379.888 201.291 380.03 201.221 380.076 200.35 380.687 199.503 381.299 198.633 381.91 198.421 382.052 198.209 382.121 197.998 382.121 197.856 382.121 197.739 382.098 197.598 382.029 197.268 381.887 197.08 381.583 197.056 381.16L196.892 378.172C196.892 377.888 196.892 377.677 197.056 377.535ZM197.221 382.97 198.186 384.193 197.856 385.723 196.445 386.404 195.033 385.723 194.68 384.193 195.645 382.97 197.221 382.97ZM191.48 379.299 191.739 379.56 191.504 379.299C192.516 378.358 193.715 377.772 195.057 377.512 195.151 377.512 195.221 377.488 195.268 377.465 195.456 377.442 195.621 377.419 195.786 377.558 195.95 377.7 195.927 377.888 195.927 378.053L195.88 378.923C195.833 379.699 195.786 380.499 195.739 381.275 195.739 381.629 195.527 381.91 195.221 382.052 195.104 382.121 194.962 382.148 194.821 382.148 194.633 382.148 194.445 382.075 194.28 381.982 193.833 381.652 193.362 381.348 192.916 381.018 192.469 380.687 191.998 380.383 191.551 380.053 191.41 379.96 191.339 379.841 191.316 379.699 191.316 379.488 191.433 379.372 191.504 379.323ZM189.269 385.323C189.175 384.851 189.198 384.405 189.222 384.028 189.292 382.921 189.622 381.887 190.163 380.948 190.21 380.876 190.304 380.687 190.516 380.664 190.728 380.641 190.869 380.76 190.939 380.806 191.739 381.533 192.539 382.24 193.339 382.947 193.668 383.228 193.786 383.559 193.692 383.935 193.574 384.474 193.104 384.593 192.939 384.639 192.163 384.851 191.386 385.086 190.586 385.323L189.339 385.674 189.269 385.297ZM193.127 390.237C193.127 390.237 193.01 390.521 192.798 390.591 192.751 390.591 192.704 390.591 192.68 390.591 192.516 390.591 192.398 390.498 192.327 390.449 191.151 389.626 190.257 388.522 189.716 387.18 189.669 387.085 189.598 386.896 189.716 386.734 189.786 386.615 189.904 386.523 190.092 386.497 190.916 386.358 191.763 386.216 192.586 386.074L193.504 385.935C193.786 385.908 194.045 386.05 194.233 386.262 194.421 386.473 194.492 386.757 194.445 387.038 194.445 387.038 194.374 387.25 194.351 387.369L193.998 388.238C193.715 388.899 193.457 389.556 193.174 390.237ZM198.892 391.156C198.798 391.367 198.586 391.437 198.515 391.46 197.809 391.648 197.127 391.767 196.421 391.767 195.692 391.767 194.986 391.648 194.28 391.437 194.21 391.437 194.021 391.367 193.927 391.156 193.857 390.967 193.927 390.779 193.974 390.71 194.304 390.121 194.61 389.556 194.939 388.968L195.551 387.861C195.739 387.534 196.045 387.346 196.374 387.346 196.704 387.346 197.009 387.534 197.198 387.861 197.48 388.334 197.739 388.826 197.998 389.298L198.445 390.121C198.539 390.31 198.656 390.498 198.75 390.686 198.798 390.756 198.915 390.944 198.821 391.156ZM203.15 387.157C202.609 388.545 201.691 389.672 200.491 390.521 200.444 390.544 200.327 390.637 200.186 390.637 200.138 390.637 200.115 390.637 200.068 390.637 199.856 390.568 199.786 390.379 199.762 390.333 199.433 389.533 199.103 388.733 198.774 387.934L198.492 387.25C198.492 387.25 198.398 386.992 198.421 386.827 198.421 386.592 198.539 386.334 198.75 386.146 198.962 385.981 199.221 385.908 199.503 385.958L202.774 386.523C202.774 386.523 203.032 386.569 203.15 386.757 203.221 386.873 203.221 387.015 203.15 387.18ZM203.597 385.158C203.597 385.323 203.526 385.439 203.409 385.509 203.338 385.558 203.244 385.581 203.174 385.581 203.103 385.581 203.032 385.581 203.009 385.558L201.974 385.251C201.244 385.039 200.539 384.828 199.809 384.616 199.456 384.523 199.197 384.263 199.127 383.935 199.056 383.605 199.174 383.251 199.456 383.017L201.903 380.829C201.903 380.829 202.115 380.641 202.327 380.687 202.538 380.71 202.633 380.899 202.68 380.971 203.221 381.91 203.55 382.921 203.621 383.982 203.621 384.24 203.668 384.428 203.644 384.616 203.644 384.828 203.644 384.993 203.621 385.181Z" fill="#000000" fill-rule="evenodd" fill-opacity="1" transform="matrix(1.00022 0 0 1 440.357 2.16115)"/><path d="M209.671 374.348 196.436 367.976 183.199 374.348 179.932 388.664 189.1 400.138 203.794 400.138 212.963 388.664 209.695 374.348ZM208.214 387.702C207.955 388.006 207.602 388.148 207.179 388.102 206.897 388.053 206.639 387.96 206.403 387.864 206.286 387.818 206.192 387.771 206.074 387.725 205.769 387.63 205.533 387.537 205.275 387.49 205.087 387.583 204.946 387.606 204.852 387.606 204.523 388.502 204.076 389.348 203.488 390.098 202.853 390.921 202.101 391.605 201.255 392.121 201.278 392.263 201.255 392.378 201.231 392.451 201.231 392.497 201.208 392.544 201.302 392.709 201.466 393.039 201.678 393.366 201.913 393.72 202.054 393.931 202.219 394.166 202.289 394.473 202.407 394.943 202.219 395.412 201.819 395.647 201.419 395.881 200.926 395.789 200.573 395.435 200.338 395.177 200.244 394.896 200.15 394.612 200.032 394.236 199.891 393.766 199.68 393.343 199.633 393.251 199.609 393.251 199.586 393.251 199.421 393.201 199.327 393.132 199.28 393.062 197.352 393.697 195.425 393.697 193.52 393.062 193.426 393.201 193.285 393.251 193.215 393.274 193.191 393.274 193.167 393.274 193.097 393.439 192.932 393.789 192.791 394.189 192.674 394.612 192.603 394.847 192.509 395.059 192.415 395.247 192.204 395.6 191.851 395.789 191.498 395.789 191.357 395.789 191.216 395.766 191.075 395.693 190.605 395.458 190.393 394.896 190.581 394.378 190.676 394.12 190.816 393.908 190.934 393.743 191.216 393.343 191.428 392.99 191.592 392.662 191.639 392.567 191.639 392.544 191.616 392.52 191.545 392.378 191.545 392.239 191.592 392.121 189.9 391.017 188.701 389.51 187.996 387.63 187.831 387.63 187.69 387.56 187.572 387.49 187.572 387.49 187.502 387.49 187.455 387.514 187.055 387.606 186.702 387.725 186.279 387.913 186.021 388.029 185.738 388.125 185.409 388.125 184.892 388.125 184.469 387.795 184.375 387.325 184.281 386.856 184.563 386.36 185.01 386.172 185.245 386.079 185.48 386.033 185.786 386.007 186.209 386.007 186.632 385.937 187.032 385.845 187.173 385.822 187.196 385.795 187.196 385.772 187.243 385.68 187.314 385.584 187.455 385.514 187.243 383.515 187.666 381.635 188.724 379.896 188.654 379.801 188.607 379.685 188.607 379.566 188.607 379.52 188.607 379.496 188.442 379.378 188.16 379.166 187.831 378.955 187.478 378.766 187.267 378.65 187.032 378.508 186.82 378.297 186.444 377.92 186.373 377.332 186.702 376.932 187.008 376.509 187.596 376.416 188.066 376.697 188.325 376.839 188.513 377.051 188.701 377.262 189.006 377.616 189.288 377.874 189.571 378.085 189.571 378.085 189.641 378.155 189.665 378.132 189.806 378.085 189.923 378.132 190.041 378.178 191.522 376.747 193.238 375.924 195.236 375.686 195.236 375.686 195.236 375.686 195.236 375.686 195.26 375.57 195.354 375.428 195.448 375.336 195.448 375.336 195.448 375.336 195.448 375.263 195.448 374.817 195.377 374.371 195.307 373.971 195.26 373.69 195.26 373.455 195.283 373.244 195.354 372.679 195.777 372.279 196.341 372.302 196.812 372.302 197.211 372.702 197.282 373.171L197.399 373.171 197.258 373.901C197.235 374.182 197.188 374.464 197.141 374.747 197.141 374.913 197.141 375.075 197.141 375.24L197.141 375.359C197.141 375.359 197.305 375.524 197.352 375.712 198.034 375.805 198.598 375.924 199.115 376.109 200.408 376.558 201.561 377.262 202.548 378.204 202.665 378.132 202.783 378.108 202.924 378.132 202.924 378.132 202.971 378.132 203.089 378.039 203.371 377.804 203.653 377.52 203.935 377.216 204.1 377.028 204.288 376.816 204.546 376.674 204.852 376.486 205.228 376.463 205.557 376.605 205.839 376.747 206.051 377.005 206.121 377.332 206.168 377.593 206.121 377.943 205.769 378.32 205.581 378.508 205.345 378.65 205.134 378.743 204.711 378.978 204.381 379.189 204.123 379.427 204.052 379.496 204.052 379.52 204.052 379.543 204.052 379.685 204.005 379.801 203.912 379.896 204.711 381.212 205.157 382.623 205.252 384.126 205.275 384.576 205.252 385.022 205.204 385.491 205.345 385.538 205.392 385.656 205.44 385.703 205.487 385.795 205.557 385.822 205.816 385.845 206.145 385.891 206.38 385.914 206.639 385.937 206.874 385.961 207.109 385.984 207.367 386.033 207.767 386.079 208.073 386.314 208.237 386.668 208.402 387.018 208.355 387.372 208.119 387.679Z" fill="#000000" fill-rule="evenodd" fill-opacity="1" transform="matrix(1.00022 0 0 1 440.357 2.16115)"/><path d="M202.821 385.071 203.401 385.361 202.821 385.071Z" fill="#000000" fill-rule="evenodd" fill-opacity="1" transform="matrix(1.00022 0 0 1 440.357 2.16115)"/><path d="M196.447 385.361 196.919 385.059 197.027 384.431 196.705 383.912 196.19 383.912 195.868 384.431 195.975 385.059 196.447 385.361Z" fill="#000000" fill-rule="evenodd" fill-opacity="1" transform="matrix(1.00022 0 0 1 440.357 2.16115)"/><path d="M203.111 384.619C203.111 384.434 203.111 384.274 203.087 384.112 203.014 383.211 202.747 382.379 202.334 381.594L200.025 383.559C200.025 383.559 199.903 383.718 199.927 383.787 199.927 383.857 200.025 383.927 200.122 383.95 200.851 384.158 201.604 384.367 202.334 384.573L203.111 384.781C203.111 384.781 203.111 384.665 203.111 384.596Z" fill="#000000" fill-rule="evenodd" fill-opacity="1" transform="matrix(1.00022 0 0 1 440.357 2.16115)"/><text fill="#000000" fill-opacity="1" font-family="Metropolis,Metropolis_MSFontService,sans-serif" font-style="normal" font-variant="normal" font-weight="400" font-stretch="normal" font-size="41" text-anchor="start" direction="ltr" writing-mode="lr-tb" unicode-bidi="normal" text-decoration="none" transform="matrix(0.289809 0 0 0.289745 662.847 389)">VKS Cluster</text><path d="M66.2067 112.566 232.231 112.566 232.231 146.756 66.2067 146.756Z" stroke="#007DA3" stroke-width="1.328" stroke-linecap="butt" stroke-linejoin="round" stroke-miterlimit="10" stroke-opacity="1" fill="#FFFFFF" fill-rule="nonzero" fill-opacity="1" transform="matrix(1.00022 0 0 1 440.357 2.16115)"/><text fill="#000000" fill-opacity="1" font-family="Metropolis,Metropolis_MSFontService,sans-serif" font-style="normal" font-variant="normal" font-weight="400" font-stretch="normal" font-size="41" text-anchor="start" direction="ltr" writing-mode="lr-tb" unicode-bidi="normal" text-decoration="none" transform="matrix(0.289809 0 0 0.289745 567.009 136)">vCenter</text><path d="M242.082 112.566 408.106 112.566 408.106 146.756 242.082 146.756Z" stroke="#007DA3" stroke-width="1.328" stroke-linecap="butt" stroke-linejoin="round" stroke-miterlimit="10" stroke-opacity="1" fill="#FFFFFF" fill-rule="nonzero" fill-opacity="1" transform="matrix(1.00022 0 0 1 440.357 2.16115)"/><text fill="#000000" fill-opacity="1" font-family="Metropolis,Metropolis_MSFontService,sans-serif" font-style="normal" font-variant="normal" font-weight="400" font-stretch="normal" font-size="41" text-anchor="start" direction="ltr" writing-mode="lr-tb" unicode-bidi="normal" text-decoration="none" transform="matrix(0.289809 0 0 0.289745 752.872 136)">NSX</text><text fill="#FFFFFF" fill-opacity="1" font-family="Metropolis,Metropolis_MSFontService,sans-serif" font-style="normal" font-variant="normal" font-weight="400" font-stretch="normal" font-size="41" text-anchor="start" direction="ltr" writing-mode="lr-tb" unicode-bidi="normal" text-decoration="none" transform="matrix(0.289809 0 0 0.289745 625.446 327)">Control Plane VMs</text><path d="M248.697 310.027 219.916 310.027 219.916 276.127 254.106 276.127 254.106 308.978 251.702 308.978 251.702 278.509 222.321 278.509 222.321 307.645 248.697 307.645 248.697 310.027Z" fill="#FFFFFF" fill-rule="evenodd" fill-opacity="1" transform="matrix(1.00022 0 0 1 440.357 2.16115)"/><path d="M230.058 291.194 231.196 291.194 232.533 294.34 233.844 291.194 234.983 291.194 233.053 295.54 232.038 295.54 230.058 291.194Z" fill="#FFFFFF" fill-rule="evenodd" fill-opacity="1" transform="matrix(1.00022 0 0 1 440.357 2.16115)"/><path d="M242.024 291.399C242.261 291.538 242.45 291.744 242.593 291.976 242.735 292.228 242.806 292.503 242.806 292.828L242.806 295.54 241.786 295.54 241.786 293.01C241.786 292.735 241.715 292.503 241.549 292.321 241.383 292.135 241.194 292.046 240.933 292.046 240.672 292.046 240.411 292.135 240.245 292.298 240.055 292.46 239.984 292.689 239.984 292.941L239.984 295.54 238.988 295.54 238.988 293.01C238.988 292.735 238.917 292.503 238.751 292.321 238.585 292.135 238.395 292.046 238.134 292.046 237.873 292.046 237.636 292.135 237.447 292.298 237.257 292.46 237.186 292.689 237.186 292.941L237.186 295.54 236.142 295.54 236.142 291.286 237.186 291.286 237.186 291.86C237.304 291.654 237.47 291.492 237.684 291.376 237.897 291.263 238.134 291.194 238.419 291.194 238.704 291.194 239.059 291.286 239.344 291.469 239.605 291.654 239.794 291.906 239.913 292.205 239.984 291.906 240.126 291.654 240.364 291.469 240.601 291.286 240.885 291.194 241.241 291.194 241.597 291.194 241.81 291.263 242.047 291.399Z" fill="#FFFFFF" fill-rule="evenodd" fill-opacity="1" transform="matrix(1.00022 0 0 1 440.357 2.16115)"/><path d="M286.699 310.027 258.163 310.027 258.163 276.127 292.063 276.127 292.063 308.978 289.679 308.978 289.679 278.509 260.547 278.509 260.547 307.645 286.699 307.645 286.699 310.027Z" fill="#FFFFFF" fill-rule="evenodd" fill-opacity="1" transform="matrix(1.00022 0 0 1 440.357 2.16115)"/><path d="M268.304 291.194 269.375 291.194 270.633 294.34 271.868 291.194 272.94 291.194 271.123 295.54 270.167 295.54 268.304 291.194Z" fill="#FFFFFF" fill-rule="evenodd" fill-opacity="1" transform="matrix(1.00022 0 0 1 440.357 2.16115)"/><path d="M279.98 291.399C280.217 291.538 280.407 291.744 280.549 291.976 280.692 292.228 280.763 292.503 280.763 292.828L280.763 295.54 279.743 295.54 279.743 293.01C279.743 292.735 279.672 292.503 279.506 292.321 279.34 292.135 279.15 292.046 278.889 292.046 278.629 292.046 278.368 292.135 278.202 292.298 278.012 292.46 277.941 292.689 277.941 292.941L277.941 295.54 276.945 295.54 276.945 293.01C276.945 292.735 276.873 292.503 276.708 292.321 276.542 292.135 276.352 292.046 276.091 292.046 275.83 292.046 275.593 292.135 275.403 292.298 275.213 292.46 275.142 292.689 275.142 292.941L275.142 295.54 274.099 295.54 274.099 291.286 275.142 291.286 275.142 291.86C275.261 291.654 275.427 291.492 275.64 291.376 275.854 291.263 276.091 291.194 276.376 291.194 276.66 291.194 277.016 291.286 277.3 291.469 277.561 291.654 277.751 291.906 277.869 292.205 277.941 291.906 278.083 291.654 278.32 291.469 278.557 291.286 278.842 291.194 279.198 291.194 279.553 291.194 279.767 291.263 280.004 291.399Z" fill="#FFFFFF" fill-rule="evenodd" fill-opacity="1" transform="matrix(1.00022 0 0 1 440.357 2.16115)"/><path d="M210.496 310.027 181.96 310.027 181.96 276.127 215.86 276.127 215.86 308.978 213.476 308.978 213.476 278.509 184.344 278.509 184.344 307.645 210.496 307.645 210.496 310.027Z" fill="#FFFFFF" fill-rule="evenodd" fill-opacity="1" transform="matrix(1.00022 0 0 1 440.357 2.16115)"/><path d="M192.101 291.194 193.173 291.194 194.43 294.34 195.665 291.194 196.737 291.194 194.92 295.54 193.965 295.54 192.101 291.194Z" fill="#FFFFFF" fill-rule="evenodd" fill-opacity="1" transform="matrix(1.00022 0 0 1 440.357 2.16115)"/><path d="M203.777 291.399C204.014 291.538 204.204 291.744 204.346 291.976 204.489 292.228 204.56 292.503 204.56 292.828L204.56 295.54 203.54 295.54 203.54 293.01C203.54 292.735 203.469 292.503 203.303 292.321 203.137 292.135 202.947 292.046 202.686 292.046 202.426 292.046 202.165 292.135 201.999 292.298 201.809 292.46 201.738 292.689 201.738 292.941L201.738 295.54 200.742 295.54 200.742 293.01C200.742 292.735 200.671 292.503 200.505 292.321 200.339 292.135 200.149 292.046 199.888 292.046 199.627 292.046 199.39 292.135 199.2 292.298 199.01 292.46 198.939 292.689 198.939 292.941L198.939 295.54 197.896 295.54 197.896 291.286 198.939 291.286 198.939 291.86C199.058 291.654 199.224 291.492 199.437 291.376 199.651 291.263 199.888 291.194 200.173 291.194 200.457 291.194 200.813 291.286 201.097 291.469 201.358 291.654 201.548 291.906 201.667 292.205 201.738 291.906 201.88 291.654 202.117 291.469 202.354 291.286 202.639 291.194 202.995 291.194 203.351 291.194 203.564 291.263 203.801 291.399Z" fill="#FFFFFF" fill-rule="evenodd" fill-opacity="1" transform="matrix(1.00022 0 0 1 440.357 2.16115)"/><path d="M145.017 434.473 330.164 434.473 330.164 517.919 145.017 517.919Z" stroke="#E68C28" stroke-width="1.328" stroke-linecap="butt" stroke-linejoin="round" stroke-miterlimit="10" stroke-opacity="1" fill="#FFFFFF" fill-rule="nonzero" fill-opacity="1" transform="matrix(1.00022 0 0 1 440.357 2.16115)"/><text fill="#000000" fill-opacity="1" font-family="Metropolis,Metropolis_MSFontService,sans-serif" font-style="normal" font-variant="normal" font-weight="400" font-stretch="normal" font-size="41" text-anchor="start" direction="ltr" writing-mode="lr-tb" unicode-bidi="normal" text-decoration="none" transform="matrix(0.289809 0 0 0.289745 613.242 452)">vSphere Namespace B</text><path d="M158.635 459.68 317.705 459.68 317.705 506.04 158.635 506.04Z" stroke="#000000" stroke-width="1.328" stroke-linecap="butt" stroke-linejoin="round" stroke-miterlimit="10" stroke-opacity="1" fill="#FFFFFF" fill-rule="nonzero" fill-opacity="1" transform="matrix(1.00022 0 0 1 440.357 2.16115)"/><text fill="#000000" fill-opacity="1" font-family="Metropolis,Metropolis_MSFontService,sans-serif" font-style="normal" font-variant="normal" font-weight="400" font-stretch="normal" font-size="41" text-anchor="start" direction="ltr" writing-mode="lr-tb" unicode-bidi="normal" text-decoration="none" transform="matrix(0.289809 0 0 0.289745 647.071 489)">Virtual Machines</text><path d="M194.806 497.492 170.66 497.492 170.66 468.807 199.345 468.807 199.345 496.605 197.327 496.605 197.327 470.824 172.677 470.824 172.677 495.475 194.806 495.475 194.806 497.492Z" fill="#000000" fill-rule="evenodd" fill-opacity="1" transform="matrix(1.00022 0 0 1 440.357 2.16115)"/><path d="M179.062 481.556 180 481.556 181.101 484.286 182.181 481.556 183.119 481.556 181.529 485.323 180.693 485.323 179.062 481.556Z" fill="#000000" fill-rule="evenodd" fill-opacity="1" transform="matrix(1.00022 0 0 1 440.357 2.16115)"/><path d="M189.102 481.446C189.309 481.565 189.474 481.744 189.597 481.944 189.721 482.165 189.783 482.402 189.783 482.68L189.783 485.033 188.896 485.033 188.896 482.84C188.896 482.602 188.834 482.402 188.69 482.243 188.545 482.083 188.381 482.002 188.154 482.002 187.927 482.002 187.7 482.083 187.556 482.223 187.391 482.362 187.329 482.562 187.329 482.782L187.329 485.033 186.463 485.033 186.463 482.84C186.463 482.602 186.401 482.402 186.256 482.243 186.112 482.083 185.947 482.002 185.72 482.002 185.494 482.002 185.287 482.083 185.122 482.223 184.957 482.362 184.896 482.562 184.896 482.782L184.896 485.033 183.988 485.033 183.988 481.348 184.896 481.348 184.896 481.843C184.998 481.666 185.143 481.524 185.328 481.426 185.514 481.327 185.72 481.266 185.968 481.266 186.215 481.266 186.524 481.348 186.772 481.507 186.999 481.666 187.164 481.884 187.267 482.144 187.329 481.884 187.453 481.666 187.659 481.507 187.865 481.348 188.113 481.266 188.422 481.266 188.731 481.266 188.917 481.327 189.123 481.446Z" fill="#000000" fill-rule="evenodd" fill-opacity="1" transform="matrix(1.00022 0 0 1 440.357 2.16115)"/><path d="M154.289 568.914 320.313 568.914 320.313 603.104 154.289 603.104Z" stroke="#007DA3" stroke-width="1.328" stroke-linecap="butt" stroke-linejoin="round" stroke-miterlimit="10" stroke-opacity="1" fill="#FFFFFF" fill-rule="nonzero" fill-opacity="1" transform="matrix(1.00022 0 0 1 440.357 2.16115)"/><text fill="#000000" fill-opacity="1" font-family="Metropolis,Metropolis_MSFontService,sans-serif" font-style="normal" font-variant="normal" font-weight="400" font-stretch="normal" font-size="41" text-anchor="start" direction="ltr" writing-mode="lr-tb" unicode-bidi="normal" text-decoration="none" transform="matrix(0.289809 0 0 0.289745 645.995 592)">Datastore 1</text><path d="M237.156 555.296 237.234 568.888" stroke="#007A86" stroke-width="1.328" stroke-linecap="butt" stroke-linejoin="round" stroke-miterlimit="10" stroke-opacity="1" fill="none" fill-rule="evenodd" transform="matrix(1.00022 0 0 1 440.357 2.16115)"/></g></g></g></g></g></svg>