<svg width="703" height="178" xmlns="http://www.w3.org/2000/svg" xmlns:xlink="http://www.w3.org/1999/xlink" xml:space="preserve" overflow="hidden"><g transform="matrix(1 0 0 1 0 -198)"><path d="M381.036 446.737 379.01 446.737 379.01 446.737" stroke="#444546" stroke-width="1.32656" stroke-miterlimit="8" fill="none" fill-rule="evenodd" transform="matrix(1.00161 0 0 1 -283.809 -82.748)"/><path d="M879.41 457.778 881.436 457.778 881.436 455.752" stroke="#444546" stroke-width="1.32656" stroke-miterlimit="8" fill="none" fill-rule="evenodd" transform="matrix(1.00161 0 0 1 -283.809 -82.748)"/><path d="M882.02 451.712 882.02 287.605" stroke="#444546" stroke-width="2.65312" stroke-miterlimit="8" stroke-dasharray="2.65312 2.65312" fill="none" fill-rule="evenodd" transform="matrix(1.00161 0 0 1 -283.809 -82.748)"/><path d="M881.453 285.014 881.453 282.698 879.427 282.698" stroke="#444546" stroke-width="1.32656" stroke-miterlimit="8" fill="none" fill-rule="evenodd" transform="matrix(1.00161 0 0 1 -283.809 -82.748)"/><path d="M875.98 282.089 384.526 282.089" stroke="#444546" stroke-width="2.65312" stroke-miterlimit="8" stroke-dasharray="2.65312 2.65312" fill="none" fill-rule="evenodd" transform="matrix(1.00161 0 0 1 -283.809 -82.748)"/><path d="M381.942 282.637 380.205 282.637 380.205 284.953" stroke="#444546" stroke-width="1.32656" stroke-miterlimit="8" fill="none" fill-rule="evenodd" transform="matrix(1.00161 0 0 1 -283.809 -82.748)"/><path d="M380.489 289.862 380.489 453.969" stroke="#444546" stroke-width="2.65312" stroke-miterlimit="8" stroke-dasharray="2.65312 2.65312" fill="none" fill-rule="evenodd" transform="matrix(1.00161 0 0 1 -283.809 -82.748)"/><path d="M380.191 455.7 380.191 457.726 381.927 457.726" stroke="#444546" stroke-width="1.32656" stroke-miterlimit="8" fill="none" fill-rule="evenodd" transform="matrix(1.00161 0 0 1 -283.809 -82.748)"/><path d="M386.535 457.176 877.989 457.176" stroke="#444546" stroke-width="2.65312" stroke-miterlimit="8" stroke-dasharray="2.65312 2.65312" fill="none" fill-rule="evenodd" transform="matrix(1.00161 0 0 1 -283.809 -82.748)"/><path d="M403.322 359.907 730.089 359.907 730.089 395.507 403.322 395.507Z" stroke="#F3BA16" stroke-width="2.65312" stroke-miterlimit="8" fill="none" fill-rule="evenodd" transform="matrix(1.00161 0 0 1 -283.809 -82.748)"/><path d="M403.322 314.756 730.089 314.756 730.089 350.356 403.322 350.356Z" stroke="#005C8A" stroke-width="2.65312" stroke-miterlimit="8" fill="none" fill-rule="evenodd" transform="matrix(1.00161 0 0 1 -283.809 -82.748)"/><path d="M515.911 405.927 616.633 405.927 616.633 440.08 515.911 440.08Z" stroke="#0098C7" stroke-width="2.65312" stroke-miterlimit="8" fill="#FFFFFF" fill-rule="evenodd" transform="matrix(1.00161 0 0 1 -283.809 -82.748)"/><path d="M629.367 405.927 730.089 405.927 730.089 440.08 629.367 440.08Z" stroke="#0098C7" stroke-width="2.65312" stroke-miterlimit="8" fill="#FFFFFF" fill-rule="evenodd" transform="matrix(1.00161 0 0 1 -283.809 -82.748)"/><path d="M403.322 406.216 504.044 406.216 504.044 440.369 403.322 440.369Z" stroke="#0098C7" stroke-width="2.65312" stroke-miterlimit="8" fill="#FFFFFF" fill-rule="evenodd" transform="matrix(1.00161 0 0 1 -283.809 -82.748)"/><path d="M740.219 332.411 770.32 332.411" stroke="#000000" stroke-width="1.32656" stroke-miterlimit="8" fill="none" fill-rule="evenodd" transform="matrix(1.00161 0 0 1 -283.809 -82.748)"/><path d="M740.219 332.411 770.32 332.411" stroke="#000000" stroke-width="2.65312" stroke-miterlimit="8" fill="none" fill-rule="evenodd" transform="matrix(1.00161 0 0 1 -283.809 -82.748)"/><path d="M732.694 332.411 743.403 336.753 740.862 332.411 743.403 328.07Z" stroke="#000000" stroke-width="0.994919" stroke-miterlimit="8" fill-rule="evenodd" transform="matrix(1.00161 0 0 1 -283.809 -82.748)"/><path d="M740.219 376.694 770.32 376.694" stroke="#000000" stroke-width="1.32656" stroke-miterlimit="8" fill="none" fill-rule="evenodd" transform="matrix(1.00161 0 0 1 -283.809 -82.748)"/><path d="M740.219 376.694 770.32 376.694" stroke="#000000" stroke-width="2.65312" stroke-miterlimit="8" fill="none" fill-rule="evenodd" transform="matrix(1.00161 0 0 1 -283.809 -82.748)"/><path d="M732.694 376.839 743.403 381.036 740.862 376.839 743.403 372.642Z" stroke="#000000" stroke-width="0.994919" stroke-miterlimit="8" fill-rule="evenodd" transform="matrix(1.00161 0 0 1 -283.809 -82.748)"/><path d="M341.384 376.694 393.771 376.694" stroke="#000000" stroke-width="1.32656" stroke-miterlimit="8" fill="none" fill-rule="evenodd" transform="matrix(1.00161 0 0 1 -283.809 -82.748)"/><path d="M341.384 376.694 393.771 376.694" stroke="#000000" stroke-width="2.65312" stroke-miterlimit="8" fill="none" fill-rule="evenodd" transform="matrix(1.00161 0 0 1 -283.809 -82.748)"/><path d="M401.007 376.839 390.587 381.036 393.059 376.839 390.587 372.642Z" stroke="#000000" stroke-width="0.994919" stroke-miterlimit="8" fill-rule="evenodd" transform="matrix(1.00161 0 0 1 -283.809 -82.748)"/><path d="M740.219 422.424 770.32 422.424" stroke="#000000" stroke-width="1.32656" stroke-miterlimit="8" fill="none" fill-rule="evenodd" transform="matrix(1.00161 0 0 1 -283.809 -82.748)"/><path d="M740.219 422.424 770.32 422.424" stroke="#000000" stroke-width="2.65312" stroke-miterlimit="8" fill="none" fill-rule="evenodd" transform="matrix(1.00161 0 0 1 -283.809 -82.748)"/><path d="M732.694 422.28 743.403 426.476 740.862 422.28 743.403 418.083Z" stroke="#000000" stroke-width="0.994919" stroke-miterlimit="8" fill-rule="evenodd" transform="matrix(1.00161 0 0 1 -283.809 -82.748)"/><path d="M393.771 332.411C371.415 332.411 326.333 332.411 326.333 332.411L326.333 350.935" stroke="#000000" stroke-width="1.32656" stroke-miterlimit="8" fill="none" fill-rule="evenodd" transform="matrix(1.00161 0 0 1 -283.809 -82.748)"/><path d="M393.771 332.411C371.415 332.411 326.333 332.411 326.333 332.411L326.333 350.935" stroke="#000000" stroke-width="1.32656" stroke-miterlimit="8" fill="none" fill-rule="evenodd" transform="matrix(1.00161 0 0 1 -283.809 -82.748)"/><path d="M401.007 332.411 390.587 328.07 393.059 332.411 390.587 336.753Z" stroke="#000000" stroke-width="0.994919" stroke-miterlimit="8" fill="#444545" fill-rule="evenodd" transform="matrix(1.00161 0 0 1 -283.809 -82.748)"/><path d="M393.771 332.411C371.415 332.411 326.333 332.411 326.333 332.411L326.333 350.935" stroke="#000000" stroke-width="2.65312" stroke-miterlimit="8" fill="none" fill-rule="evenodd" transform="matrix(1.00161 0 0 1 -283.809 -82.748)"/><path d="M401.007 332.411 390.587 328.07 393.059 332.411 390.587 336.753Z" stroke="#000000" stroke-width="0.994919" stroke-miterlimit="8" fill-rule="evenodd" transform="matrix(1.00161 0 0 1 -283.809 -82.748)"/><path d="M866.99 376.694 926.902 376.694" stroke="#444546" stroke-width="1.32656" stroke-miterlimit="8" fill="none" fill-rule="evenodd" transform="matrix(1.00161 0 0 1 -283.809 -82.748)"/><path d="M866.99 376.694 926.902 376.694" stroke="#000000" stroke-width="2.65312" stroke-miterlimit="8" fill="none" fill-rule="evenodd" transform="matrix(1.00161 0 0 1 -283.809 -82.748)"/><path d="M859.32 376.694 869.74 380.891 867.268 376.694 869.74 372.498Z" fill-rule="evenodd" transform="matrix(1.00161 0 0 1 -283.809 -82.748)"/><path d="M770.32 314.756 860.044 314.756 860.044 440.369 770.32 440.369Z" stroke="#61A60E" stroke-width="2.65312" stroke-miterlimit="8" fill="none" fill-rule="evenodd" transform="matrix(1.00161 0 0 1 -283.809 -82.748)"/><text font-family="Arial,Arial_MSFontService,sans-serif" font-weight="400" font-size="46" transform="matrix(0.289897 0 0 0.289431 224.934 300)">vSphere </text><text font-family="Arial,Arial_MSFontService,sans-serif" font-weight="400" font-size="46" transform="matrix(0.289897 0 0 0.289431 277.75 300)">Supervisor</text><text font-family="Arial,Arial_MSFontService,sans-serif" font-weight="400" font-size="46" transform="matrix(0.289897 0 0 0.289431 143.65 345)">Compute</text><text font-family="Arial,Arial_MSFontService,sans-serif" font-weight="400" font-size="46" transform="matrix(0.289897 0 0 0.289431 509.413 298)">vCenter</text><text fill="#010101" font-family="Arial,Arial_MSFontService,sans-serif" font-weight="400" font-size="46" transform="matrix(0.289897 0 0 0.289431 9.66516 322)">DevOps</text><text fill="#010101" font-family="Arial,Arial_MSFontService,sans-serif" font-weight="400" font-size="46" transform="matrix(0.289897 0 0 0.289431 639.779 324)">vSphere </text><text fill="#010101" font-family="Arial,Arial_MSFontService,sans-serif" font-weight="400" font-size="46" transform="matrix(0.289897 0 0 0.289431 645.145 340)">Admin</text><text font-family="Arial,Arial_MSFontService,sans-serif" font-weight="400" font-size="46" transform="matrix(0.289897 0 0 0.289431 250.138 345)">Networking</text><text font-family="Arial,Arial_MSFontService,sans-serif" font-weight="400" font-size="46" transform="matrix(0.289897 0 0 0.289431 373.726 345)">Storage</text><text font-family="Arial,Arial_MSFontService,sans-serif" font-weight="400" font-size="46" transform="matrix(0.289897 0 0 0.289431 199.603 255)">vSphere Kubernetes Service</text><path d="M312.007 352.527 312.007 356.564 314.215 356.564 314.215 354.721 337.005 354.721 337.005 383.328 326.958 383.328 326.958 385.522 339.213 385.522 339.213 352.527 312.007 352.527Z" fill-rule="evenodd" transform="matrix(1.00161 0 0 1 -283.809 -82.748)"/><path d="M323.838 384.138C316.348 375.89 305.399 375.528 297.48 383.334 297.214 383.594 296.956 383.863 296.707 384.138 296.308 384.584 296.085 385.172 296.088 385.78L296.088 389.782C296.088 391.105 297.118 392.179 298.389 392.179L322.151 392.179C323.422 392.179 324.452 391.105 324.452 389.782L324.452 385.78C324.455 385.172 324.238 384.584 323.841 384.138Z" fill-rule="evenodd" transform="matrix(1.00161 0 0 1 -283.809 -82.748)"/><path d="M318.085 368.735C318.085 373.21 314.522 376.839 310.125 376.839 305.729 376.839 302.166 373.21 302.166 368.735 302.166 364.26 305.729 360.631 310.125 360.631 314.522 360.631 318.085 364.26 318.085 368.735Z" fill-rule="evenodd" transform="matrix(1.00161 0 0 1 -283.809 -82.748)"/><path d="M323.838 384.138C316.348 375.89 305.399 375.528 297.48 383.334 297.214 383.594 296.956 383.863 296.707 384.138 296.308 384.584 296.085 385.172 296.088 385.78L296.088 389.782C296.088 391.105 297.118 392.179 298.389 392.179L322.151 392.179C323.422 392.179 324.452 391.105 324.452 389.782L324.452 385.78C324.455 385.172 324.238 384.584 323.841 384.138Z" fill-rule="evenodd" transform="matrix(1.00161 0 0 1 -283.809 -82.748)"/><path d="M318.085 368.735C318.085 373.21 314.522 376.839 310.125 376.839 305.729 376.839 302.166 373.21 302.166 368.735 302.166 364.26 305.729 360.631 310.125 360.631 314.522 360.631 318.085 364.26 318.085 368.735Z" fill-rule="evenodd" transform="matrix(1.00161 0 0 1 -283.809 -82.748)"/><path d="M320.4 369.733 320.4 368.599 324.741 366.13 324.741 367.325 321.358 369.163 324.741 371.004 324.741 372.208 320.4 369.739Z" fill-rule="evenodd" transform="matrix(1.00161 0 0 1 -283.809 -82.748)"/><path d="M328.339 364.393 329.372 364.393 326.643 373.945 325.61 373.945 328.339 364.393Z" fill-rule="evenodd" transform="matrix(1.00161 0 0 1 -283.809 -82.748)"/><path d="M330.241 371.007 333.624 369.166 330.241 367.325 330.241 366.13 334.582 368.602 334.582 369.736 330.241 372.208 330.241 371.004Z" fill-rule="evenodd" transform="matrix(1.00161 0 0 1 -283.809 -82.748)"/><path d="M320.4 369.733 320.4 368.599 324.741 366.13 324.741 367.325 321.358 369.163 324.741 371.004 324.741 372.208 320.4 369.739Z" fill-rule="evenodd" transform="matrix(1.00161 0 0 1 -283.809 -82.748)"/><path d="M328.339 364.393 329.372 364.393 326.643 373.945 325.61 373.945 328.339 364.393Z" fill-rule="evenodd" transform="matrix(1.00161 0 0 1 -283.809 -82.748)"/><path d="M330.241 371.007 333.624 369.166 330.241 367.325 330.241 366.13 334.582 368.602 334.582 369.736 330.241 372.208 330.241 371.004Z" fill-rule="evenodd" transform="matrix(1.00161 0 0 1 -283.809 -82.748)"/><path d="M942.387 355.421 942.387 359.282 944.477 359.282 944.477 357.52 966.057 357.52 966.057 384.871 956.543 384.871 956.543 386.969 968.146 386.969 968.146 355.421 942.387 355.421Z" fill-rule="evenodd" transform="matrix(1.00161 0 0 1 -283.809 -82.748)"/><path d="M954.199 384.972C946.398 376.393 935.006 376.02 926.761 384.136 926.486 384.408 926.219 384.685 925.956 384.972 925.539 385.435 925.308 386.049 925.311 386.68L925.311 390.845C925.311 392.219 926.384 393.337 927.704 393.337L952.439 393.337C953.762 393.337 954.833 392.219 954.833 390.845L954.833 386.68C954.835 386.049 954.61 385.438 954.199 384.972Z" fill-rule="evenodd" transform="matrix(1.00161 0 0 1 -283.809 -82.748)"/><path d="M948.465 369.024C948.465 373.661 944.708 377.418 940.072 377.418 935.435 377.418 931.678 373.661 931.678 369.024 931.678 364.388 935.435 360.631 940.072 360.631 944.708 360.631 948.465 364.388 948.465 369.024Z" fill-rule="evenodd" transform="matrix(1.00161 0 0 1 -283.809 -82.748)"/><path d="M957.437 370.761C958.714 370.761 959.753 369.722 959.753 368.446 959.753 367.169 958.714 366.13 957.437 366.13 956.161 366.13 955.122 367.169 955.122 368.446 955.122 369.722 956.161 370.761 957.437 370.761ZM957.437 367.285C958.077 367.285 958.598 367.806 958.598 368.446 958.598 369.085 958.077 369.606 957.437 369.606 956.798 369.606 956.277 369.085 956.277 368.446 956.277 367.806 956.798 367.285 957.437 367.285Z" fill-rule="evenodd" transform="matrix(1.00161 0 0 1 -283.809 -82.748)"/><path d="M951.394 370.324 952.19 370.48C952.236 370.608 952.288 370.735 952.349 370.859L951.898 371.534C951.6 371.979 951.657 372.573 952.037 372.952L952.931 373.846C953.31 374.225 953.903 374.283 954.349 373.985L955.023 373.534C955.148 373.592 955.275 373.647 955.403 373.693L955.559 374.489C955.663 375.01 956.126 375.392 956.659 375.392L957.927 375.392C958.459 375.392 958.922 375.01 959.026 374.489L959.183 373.693C959.31 373.647 959.437 373.595 959.562 373.534L960.236 373.985C960.682 374.283 961.275 374.225 961.654 373.846L962.549 372.952C962.928 372.573 962.986 371.979 962.688 371.534L962.236 370.859C962.294 370.735 962.349 370.608 962.395 370.48L963.188 370.324C963.712 370.22 964.094 369.757 964.094 369.224L964.094 367.956C964.094 367.424 963.712 366.961 963.188 366.857L962.395 366.7C962.349 366.573 962.297 366.446 962.236 366.321L962.688 365.647C962.986 365.201 962.928 364.608 962.549 364.229L961.654 363.334C961.275 362.955 960.682 362.897 960.236 363.195L959.562 363.647C959.437 363.589 959.31 363.534 959.183 363.488L959.026 362.692C958.922 362.171 958.459 361.789 957.927 361.789L956.659 361.789C956.126 361.789 955.663 362.171 955.559 362.692L955.403 363.488C955.275 363.534 955.148 363.586 955.023 363.647L954.349 363.195C953.903 362.897 953.31 362.955 952.931 363.334L952.037 364.229C951.657 364.608 951.6 365.201 951.898 365.647L952.349 366.321C952.291 366.446 952.236 366.573 952.19 366.7L951.394 366.857C950.873 366.961 950.491 367.424 950.491 367.956L950.491 369.224C950.491 369.757 950.873 370.22 951.394 370.324ZM951.628 367.971 953.073 367.684 953.171 367.354C953.255 367.074 953.368 366.802 953.507 366.541L953.669 366.24 952.853 365.019 953.727 364.145 954.948 364.961 955.252 364.799C955.51 364.663 955.779 364.547 956.063 364.463L956.393 364.365 956.679 362.92 957.915 362.92 958.201 364.365 958.531 364.463C958.812 364.547 959.084 364.657 959.345 364.799L959.646 364.961 960.867 364.145 961.741 365.019 960.925 366.24 961.087 366.541C961.223 366.799 961.339 367.071 961.423 367.354L961.521 367.684 962.966 367.971 962.966 369.207 961.521 369.493 961.423 369.823C961.339 370.104 961.223 370.376 961.087 370.637L960.925 370.938 961.741 372.159 960.867 373.033 959.646 372.217 959.345 372.379C959.087 372.515 958.815 372.631 958.531 372.715L958.201 372.813 957.915 374.257 956.679 374.257 956.393 372.813 956.063 372.715C955.782 372.631 955.51 372.515 955.252 372.379L954.948 372.217 953.727 373.033 952.853 372.159 953.669 370.938 953.507 370.637C953.371 370.379 953.255 370.107 953.171 369.823L953.073 369.493 951.628 369.207 951.628 367.971Z" fill-rule="evenodd" transform="matrix(1.00161 0 0 1 -283.809 -82.748)"/><text font-family="Arial,Arial_MSFontService,sans-serif" font-weight="400" font-size="46" transform="matrix(0.289897 0 0 0.289431 317.823 217)">vSphere</text></g></svg>