<svg width="768" height="544" xmlns="http://www.w3.org/2000/svg" xmlns:xlink="http://www.w3.org/1999/xlink" xml:space="preserve" overflow="hidden"><g transform="translate(-131 0)"><path d="M19.3425 125.801 785.843 125.801 785.843 667.689 19.3424 667.689Z" stroke="#99999B" stroke-width="1.37446" stroke-linecap="round" stroke-miterlimit="8" fill="#FFFFFF" transform="matrix(1 0 0 1.00113 112.407 -125.192)"/><text fill="#404040" font-family="Metropolis,Metropolis_MSFontService,sans-serif" font-weight="400" font-size="46" transform="matrix(0.299883 0 0 0.300221 482.121 19)">VCF Fleet</text><path d="M291.936 270.045 504.253 270.045 504.253 635.002 291.936 635.002Z" stroke="#61A60E" stroke-width="1.37446" stroke-linecap="round" stroke-miterlimit="8" stroke-dasharray="2.74893 2.74893" fill="#FFFFFF" transform="matrix(1 0 0 1.00113 112.407 -125.192)"/><text fill="#1B1D36" font-family="Metropolis,Metropolis_MSFontService,sans-serif" font-weight="400" font-size="46" transform="matrix(0.299883 0 0 0.300221 466.863 163)">VCF Instance</text><path d="M301.232 315.327 491.358 315.327 491.358 552.534 301.232 552.534Z" stroke="#E68C28" stroke-width="1.37446" stroke-linecap="round" stroke-miterlimit="8" fill="#FFFFFF" transform="matrix(1 0 0 1.00113 112.407 -125.192)"/><text fill="#1B1D36" font-family="Metropolis,Metropolis_MSFontService,sans-serif" font-weight="400" font-size="46" transform="matrix(0.299883 0 0 0.300221 438.101 209)">Management Domain</text><path d="M322.824 350.413 469.467 350.413 469.467 379.202 322.824 379.202Z" stroke="#0098C7" stroke-width="1.37446" stroke-linejoin="round" stroke-miterlimit="10" fill="none" transform="matrix(1 0 0 1.00113 112.407 -125.192)"/><text font-family="Metropolis,Metropolis_MSFontService,sans-serif" font-weight="400" font-size="46" transform="matrix(0.299883 0 0 0.300221 457.944 245)">SDDC Manager</text><path d="M322.824 390.298 469.467 390.298 469.467 419.086 322.824 419.086Z" stroke="#0098C7" stroke-width="1.37446" stroke-linejoin="round" stroke-miterlimit="10" fill="none" transform="matrix(1 0 0 1.00113 112.407 -125.192)"/><text font-family="Metropolis,Metropolis_MSFontService,sans-serif" font-weight="400" font-size="46" transform="matrix(0.299883 0 0 0.300221 494.11 285)">NSX</text><path d="M322.824 430.482 469.467 430.482 469.467 459.57 322.824 459.57Z" stroke="#0098C7" stroke-width="1.37446" stroke-linejoin="round" stroke-miterlimit="10" fill="none" transform="matrix(1 0 0 1.00113 112.407 -125.192)"/><text font-family="Metropolis,Metropolis_MSFontService,sans-serif" font-weight="400" font-size="46" transform="matrix(0.299883 0 0 0.300221 482.772 325)">vCenter</text><path d="M54.1289 270.045 275.143 270.045 275.143 634.702 54.1289 634.702Z" stroke="#61A60E" stroke-width="1.37446" stroke-linecap="round" stroke-miterlimit="8" stroke-dasharray="2.74893 2.74893" fill="#FFFFFF" transform="matrix(1 0 0 1.00113 112.407 -125.192)"/><text fill="#1B1D36" font-family="Metropolis,Metropolis_MSFontService,sans-serif" font-weight="400" font-size="46" transform="matrix(0.299883 0 0 0.300221 233.336 163)">VCF Instance</text><path d="M53.829 218.465 742.06 218.465 742.06 247.853 53.829 247.853Z" stroke="#007B8C" stroke-width="1.37446" stroke-linecap="round" stroke-miterlimit="8" fill="#FFFFFF" transform="matrix(1 0 0 1.00113 112.407 -125.192)"/><text fill="#1B1D36" font-family="Metropolis,Metropolis_MSFontService,sans-serif" font-weight="400" font-size="46" transform="matrix(0.299883 0 0 0.300221 457.83 112)">VCF Operations</text><path d="M80.8184 315.327 263.747 315.327 263.747 553.134 80.8184 553.134Z" stroke="#E68C28" stroke-width="1.37446" stroke-linecap="round" stroke-miterlimit="8" fill="#FFFFFF" transform="matrix(1 0 0 1.00113 112.407 -125.192)"/><text fill="#1B1D36" font-family="Metropolis,Metropolis_MSFontService,sans-serif" font-weight="400" font-size="46" transform="matrix(0.299883 0 0 0.300221 214.079 209)">Management Domain</text><path d="M98.5115 351.313 245.154 351.313 245.154 378.902 98.5115 378.902Z" stroke="#0098C7" stroke-width="1.37446" stroke-linejoin="round" stroke-miterlimit="10" fill="none" transform="matrix(1 0 0 1.00113 112.407 -125.192)"/><text font-family="Metropolis,Metropolis_MSFontService,sans-serif" font-weight="400" font-size="46" transform="matrix(0.299883 0 0 0.300221 233.662 245)">SDDC Manager</text><path d="M98.5115 391.197 245.154 391.197 245.154 419.086 98.5115 419.086Z" stroke="#0098C7" stroke-width="1.37446" stroke-linejoin="round" stroke-miterlimit="10" fill="none" transform="matrix(1 0 0 1.00113 112.407 -125.192)"/><text font-family="Metropolis,Metropolis_MSFontService,sans-serif" font-weight="400" font-size="46" transform="matrix(0.299883 0 0 0.300221 269.828 285)">NSX</text><path d="M98.5115 431.082 245.154 431.082 245.154 458.071 98.5115 458.071Z" stroke="#0098C7" stroke-width="1.37446" stroke-linejoin="round" stroke-miterlimit="10" fill="none" transform="matrix(1 0 0 1.00113 112.407 -125.192)"/><text font-family="Metropolis,Metropolis_MSFontService,sans-serif" font-weight="400" font-size="46" transform="matrix(0.299883 0 0 0.300221 258.489 325)">vCenter</text><path d="M55.6283 168.384 504.253 168.384 504.253 197.173 55.6283 197.173Z" stroke="#007B8C" stroke-width="1.37446" stroke-linecap="round" stroke-miterlimit="8" fill="#FFFFFF" transform="matrix(1 0 0 1.00113 112.407 -125.192)"/><text fill="#1B1D36" font-family="Metropolis,Metropolis_MSFontService,sans-serif" font-weight="400" font-size="46" transform="matrix(0.299883 0 0 0.300221 337.933 62)">VCF Automation</text><path d="M538.14 270.045 742.06 270.045 742.06 417.587 538.14 417.587Z" stroke="#E68C28" stroke-width="1.37446" stroke-linecap="round" stroke-miterlimit="8" fill="#FFFFFF" transform="matrix(1 0 0 1.00113 112.407 -125.192)"/><path d="M529.743 281.44 730.065 281.44 730.065 431.981 529.743 431.981Z" stroke="#E68C28" stroke-width="1.37446" stroke-linecap="round" stroke-miterlimit="8" fill="#FFFFFF" transform="matrix(1 0 0 1.00113 112.407 -125.192)"/><path d="M521.046 293.735 715.97 293.735 715.97 445.476 521.046 445.476Z" stroke="#E68C28" stroke-width="1.37446" stroke-linecap="round" stroke-miterlimit="8" fill="#FFFFFF" transform="matrix(1 0 0 1.00113 112.407 -125.192)"/><path d="M316.526 565.429 484.761 565.429 484.761 591.819 316.526 591.819Z" stroke="#E68C28" stroke-width="1.37446" stroke-linecap="round" stroke-miterlimit="8" fill="#FFFFFF" transform="matrix(1 0 0 1.00113 112.407 -125.192)"/><path d="M309.329 578.024 477.563 578.024 477.563 604.114 309.329 604.114Z" stroke="#E68C28" stroke-width="1.37446" stroke-linecap="round" stroke-miterlimit="8" fill="#FFFFFF" transform="matrix(1 0 0 1.00113 112.407 -125.192)"/><path d="M301.232 590.319 469.467 590.319 469.467 616.709 301.232 616.709Z" stroke="#E68C28" stroke-width="1.37446" stroke-linecap="round" stroke-miterlimit="8" fill="#FFFFFF" transform="matrix(1 0 0 1.00113 112.407 -125.192)"/><text fill="#1B1D36" font-family="Metropolis,Metropolis_MSFontService,sans-serif" font-weight="400" font-size="46" transform="matrix(0.299883 0 0 0.300221 438.014 484)">Workload Domain</text><path d="M87.7157 565.429 256.25 565.429 256.25 591.819 87.7157 591.819Z" stroke="#E68C28" stroke-width="1.37446" stroke-linecap="round" stroke-miterlimit="8" fill="#FFFFFF" transform="matrix(1 0 0 1.00113 112.407 -125.192)"/><path d="M80.8184 578.024 249.053 578.024 249.053 604.114 80.8184 604.114Z" stroke="#E68C28" stroke-width="1.37446" stroke-linecap="round" stroke-miterlimit="8" fill="#FFFFFF" transform="matrix(1 0 0 1.00113 112.407 -125.192)"/><path d="M72.4217 590.319 240.956 590.319 240.956 616.709 72.4217 616.709Z" stroke="#E68C28" stroke-width="1.37446" stroke-linecap="round" stroke-miterlimit="8" fill="#FFFFFF" transform="matrix(1 0 0 1.00113 112.407 -125.192)"/><text fill="#1B1D36" font-family="Metropolis,Metropolis_MSFontService,sans-serif" font-weight="400" font-size="46" transform="matrix(0.299883 0 0 0.300221 209.431 484)">Workload Domain</text><path d="M328.222 471.566 474.565 471.566 474.565 511.45 328.222 511.45Z" stroke="#97999B" stroke-width="1.37446" stroke-linejoin="round" stroke-miterlimit="10" fill="none" transform="matrix(1 0 0 1.00113 112.407 -125.192)"/><path d="M318.925 482.961 465.568 482.961 465.568 522.546 318.925 522.546Z" stroke="#97999B" stroke-width="1.37446" stroke-linejoin="round" stroke-miterlimit="10" fill="#FFFFFF" transform="matrix(1 0 0 1.00113 112.407 -125.192)"/><path d="M309.929 496.456 456.272 496.456 456.272 536.041 309.929 536.041Z" stroke="#97999B" stroke-width="1.37446" stroke-linejoin="round" stroke-miterlimit="10" fill="#FFFFFF" transform="matrix(1 0 0 1.00113 112.407 -125.192)"/><text font-family="Metropolis,Metropolis_MSFontService,sans-serif" font-weight="400" font-size="46" transform="matrix(0.299883 0 0 0.300221 448.795 388)">Cluster of ESX </text><text font-family="Metropolis,Metropolis_MSFontService,sans-serif" font-weight="400" font-size="46" transform="matrix(0.299883 0 0 0.300221 476.891 405)">Hosts</text><path d="M111.406 471.866 257.749 471.866 257.749 511.45 111.406 511.45Z" stroke="#97999B" stroke-width="1.37446" stroke-linejoin="round" stroke-miterlimit="10" fill="none" transform="matrix(1 0 0 1.00113 112.407 -125.192)"/><path d="M102.11 482.961 248.753 482.961 248.753 522.846 102.11 522.846Z" stroke="#97999B" stroke-width="1.37446" stroke-linejoin="round" stroke-miterlimit="10" fill="#FFFFFF" transform="matrix(1 0 0 1.00113 112.407 -125.192)"/><path d="M93.1136 496.456 239.756 496.456 239.756 536.341 93.1136 536.341Z" stroke="#97999B" stroke-width="1.37446" stroke-linejoin="round" stroke-miterlimit="10" fill="#FFFFFF" transform="matrix(1 0 0 1.00113 112.407 -125.192)"/><text font-family="Metropolis,Metropolis_MSFontService,sans-serif" font-weight="400" font-size="46" transform="matrix(0.299883 0 0 0.300221 232.037 388)">Cluster of ESX </text><text font-family="Metropolis,Metropolis_MSFontService,sans-serif" font-weight="400" font-size="46" transform="matrix(0.299883 0 0 0.300221 260.131 405)">Hosts</text><path d="M553.134 364.208 699.777 364.208 699.777 403.792 553.134 403.792Z" stroke="#97999B" stroke-width="1.37446" stroke-linejoin="round" stroke-miterlimit="10" fill="none" transform="matrix(1 0 0 1.00113 112.407 -125.192)"/><path d="M544.137 375.303 690.48 375.303 690.48 415.188 544.137 415.188Z" stroke="#97999B" stroke-width="1.37446" stroke-linejoin="round" stroke-miterlimit="10" fill="#FFFFFF" transform="matrix(1 0 0 1.00113 112.407 -125.192)"/><path d="M534.841 388.798 681.484 388.798 681.484 428.683 534.841 428.683Z" stroke="#97999B" stroke-width="1.37446" stroke-linejoin="round" stroke-miterlimit="10" fill="#FFFFFF" transform="matrix(1 0 0 1.00113 112.407 -125.192)"/><text font-family="Metropolis,Metropolis_MSFontService,sans-serif" font-weight="400" font-size="46" transform="matrix(0.299883 0 0 0.300221 673.902 280)">Cluster of ESX </text><text font-family="Metropolis,Metropolis_MSFontService,sans-serif" font-weight="400" font-size="46" transform="matrix(0.299883 0 0 0.300221 701.995 297)">Hosts</text><path d="M540.539 318.925 687.182 318.925 687.182 348.314 540.539 348.314Z" stroke="#0098C7" stroke-width="1.37446" stroke-linejoin="round" stroke-miterlimit="10" fill="none" transform="matrix(1 0 0 1.00113 112.407 -125.192)"/><text font-family="Metropolis,Metropolis_MSFontService,sans-serif" font-weight="400" font-size="46" transform="matrix(0.299883 0 0 0.300221 700.382 214)">vCenter</text></g></svg>