<svg width="3800" height="1874" xmlns="http://www.w3.org/2000/svg" xmlns:xlink="http://www.w3.org/1999/xlink" xml:space="preserve" overflow="hidden"><g transform="translate(-270 -330)"><g><rect x="277.5" y="335.5" width="1842" height="1863" stroke="#000000" stroke-width="4.58333" stroke-linecap="butt" stroke-linejoin="round" stroke-miterlimit="10" stroke-dasharray="18.3333 13.75" stroke-opacity="1" fill="#FFFFFF" fill-opacity="1"/><text fill="#000000" fill-opacity="1" font-family="Metropolis,Metropolis_MSFontService,sans-serif" font-style="normal" font-variant="normal" font-weight="700" font-stretch="normal" font-size="46" text-anchor="start" direction="ltr" writing-mode="lr-tb" unicode-bidi="normal" text-decoration="none" transform="matrix(1 0 0 1 843.706 396)">Embedded VCF Identity Broker</text><rect x="336.5" y="490.5" width="1257" height="1366" fill="#FFFFFF" fill-opacity="1"/><path d="M334.208 1851.92 334.208 1838.17C334.208 1836.9 335.234 1835.88 336.5 1835.88 337.766 1835.88 338.792 1836.9 338.792 1838.17L338.792 1851.92C338.792 1853.18 337.766 1854.21 336.5 1854.21 335.234 1854.21 334.208 1853.18 334.208 1851.92ZM334.208 1819.83 334.208 1806.08C334.208 1804.82 335.234 1803.79 336.5 1803.79 337.766 1803.79 338.792 1804.82 338.792 1806.08L338.792 1819.83C338.792 1821.1 337.766 1822.13 336.5 1822.13 335.234 1822.13 334.208 1821.1 334.208 1819.83ZM334.208 1787.75 334.208 1774C334.208 1772.73 335.234 1771.71 336.5 1771.71 337.766 1771.71 338.792 1772.73 338.792 1774L338.792 1787.75C338.792 1789.02 337.766 1790.04 336.5 1790.04 335.234 1790.04 334.208 1789.02 334.208 1787.75ZM334.208 1755.67 334.208 1741.92C334.208 1740.65 335.234 1739.63 336.5 1739.63 337.766 1739.63 338.792 1740.65 338.792 1741.92L338.792 1755.67C338.792 1756.93 337.766 1757.96 336.5 1757.96 335.234 1757.96 334.208 1756.93 334.208 1755.67ZM334.208 1723.58 334.208 1709.83C334.208 1708.57 335.234 1707.54 336.5 1707.54 337.766 1707.54 338.792 1708.57 338.792 1709.83L338.792 1723.58C338.792 1724.85 337.766 1725.88 336.5 1725.88 335.234 1725.88 334.208 1724.85 334.208 1723.58ZM334.208 1691.5 334.208 1677.75C334.208 1676.48 335.234 1675.46 336.5 1675.46 337.766 1675.46 338.792 1676.48 338.792 1677.75L338.792 1691.5C338.792 1692.77 337.766 1693.79 336.5 1693.79 335.234 1693.79 334.208 1692.77 334.208 1691.5ZM334.208 1659.42 334.208 1645.67C334.208 1644.4 335.234 1643.38 336.5 1643.38 337.766 1643.38 338.792 1644.4 338.792 1645.67L338.792 1659.42C338.792 1660.68 337.766 1661.71 336.5 1661.71 335.234 1661.71 334.208 1660.68 334.208 1659.42ZM334.208 1627.33 334.208 1613.58C334.208 1612.32 335.234 1611.29 336.5 1611.29 337.766 1611.29 338.792 1612.32 338.792 1613.58L338.792 1627.33C338.792 1628.6 337.766 1629.63 336.5 1629.63 335.234 1629.63 334.208 1628.6 334.208 1627.33ZM334.208 1595.25 334.208 1581.5C334.208 1580.23 335.234 1579.21 336.5 1579.21 337.766 1579.21 338.792 1580.23 338.792 1581.5L338.792 1595.25C338.792 1596.52 337.766 1597.54 336.5 1597.54 335.234 1597.54 334.208 1596.52 334.208 1595.25ZM334.208 1563.17 334.208 1549.42C334.208 1548.15 335.234 1547.13 336.5 1547.13 337.766 1547.13 338.792 1548.15 338.792 1549.42L338.792 1563.17C338.792 1564.43 337.766 1565.46 336.5 1565.46 335.234 1565.46 334.208 1564.43 334.208 1563.17ZM334.208 1531.08 334.208 1517.33C334.208 1516.07 335.234 1515.04 336.5 1515.04 337.766 1515.04 338.792 1516.07 338.792 1517.33L338.792 1531.08C338.792 1532.35 337.766 1533.38 336.5 1533.38 335.234 1533.38 334.208 1532.35 334.208 1531.08ZM334.208 1499 334.208 1485.25C334.208 1483.98 335.234 1482.96 336.5 1482.96 337.766 1482.96 338.792 1483.98 338.792 1485.25L338.792 1499C338.792 1500.27 337.766 1501.29 336.5 1501.29 335.234 1501.29 334.208 1500.27 334.208 1499ZM334.208 1466.92 334.208 1453.17C334.208 1451.9 335.234 1450.88 336.5 1450.88 337.766 1450.88 338.792 1451.9 338.792 1453.17L338.792 1466.92C338.792 1468.18 337.766 1469.21 336.5 1469.21 335.234 1469.21 334.208 1468.18 334.208 1466.92ZM334.208 1434.83 334.208 1421.08C334.208 1419.82 335.234 1418.79 336.5 1418.79 337.766 1418.79 338.792 1419.82 338.792 1421.08L338.792 1434.83C338.792 1436.1 337.766 1437.13 336.5 1437.13 335.234 1437.13 334.208 1436.1 334.208 1434.83ZM334.208 1402.75 334.208 1389C334.208 1387.73 335.234 1386.71 336.5 1386.71 337.766 1386.71 338.792 1387.73 338.792 1389L338.792 1402.75C338.792 1404.02 337.766 1405.04 336.5 1405.04 335.234 1405.04 334.208 1404.02 334.208 1402.75ZM334.208 1370.67 334.208 1356.92C334.208 1355.65 335.234 1354.63 336.5 1354.63 337.766 1354.63 338.792 1355.65 338.792 1356.92L338.792 1370.67C338.792 1371.93 337.766 1372.96 336.5 1372.96 335.234 1372.96 334.208 1371.93 334.208 1370.67ZM334.208 1338.58 334.208 1324.83C334.208 1323.57 335.234 1322.54 336.5 1322.54 337.766 1322.54 338.792 1323.57 338.792 1324.83L338.792 1338.58C338.792 1339.85 337.766 1340.88 336.5 1340.88 335.234 1340.88 334.208 1339.85 334.208 1338.58ZM334.208 1306.5 334.208 1292.75C334.208 1291.48 335.234 1290.46 336.5 1290.46 337.766 1290.46 338.792 1291.48 338.792 1292.75L338.792 1306.5C338.792 1307.77 337.766 1308.79 336.5 1308.79 335.234 1308.79 334.208 1307.77 334.208 1306.5ZM334.208 1274.42 334.208 1260.67C334.208 1259.4 335.234 1258.38 336.5 1258.38 337.766 1258.38 338.792 1259.4 338.792 1260.67L338.792 1274.42C338.792 1275.68 337.766 1276.71 336.5 1276.71 335.234 1276.71 334.208 1275.68 334.208 1274.42ZM334.208 1242.33 334.208 1228.58C334.208 1227.32 335.234 1226.29 336.5 1226.29 337.766 1226.29 338.792 1227.32 338.792 1228.58L338.792 1242.33C338.792 1243.6 337.766 1244.63 336.5 1244.63 335.234 1244.63 334.208 1243.6 334.208 1242.33ZM334.208 1210.25 334.208 1196.5C334.208 1195.23 335.234 1194.21 336.5 1194.21 337.766 1194.21 338.792 1195.23 338.792 1196.5L338.792 1210.25C338.792 1211.52 337.766 1212.54 336.5 1212.54 335.234 1212.54 334.208 1211.52 334.208 1210.25ZM334.208 1178.17 334.208 1164.42C334.208 1163.15 335.234 1162.13 336.5 1162.13 337.766 1162.13 338.792 1163.15 338.792 1164.42L338.792 1178.17C338.792 1179.43 337.766 1180.46 336.5 1180.46 335.234 1180.46 334.208 1179.43 334.208 1178.17ZM334.208 1146.08 334.208 1132.33C334.208 1131.07 335.234 1130.04 336.5 1130.04 337.766 1130.04 338.792 1131.07 338.792 1132.33L338.792 1146.08C338.792 1147.35 337.766 1148.38 336.5 1148.38 335.234 1148.38 334.208 1147.35 334.208 1146.08ZM334.208 1114 334.208 1100.25C334.208 1098.98 335.234 1097.96 336.5 1097.96 337.766 1097.96 338.792 1098.98 338.792 1100.25L338.792 1114C338.792 1115.27 337.766 1116.29 336.5 1116.29 335.234 1116.29 334.208 1115.27 334.208 1114ZM334.208 1081.92 334.208 1068.17C334.208 1066.9 335.234 1065.88 336.5 1065.88 337.766 1065.88 338.792 1066.9 338.792 1068.17L338.792 1081.92C338.792 1083.18 337.766 1084.21 336.5 1084.21 335.234 1084.21 334.208 1083.18 334.208 1081.92ZM334.208 1049.83 334.208 1036.08C334.208 1034.82 335.234 1033.79 336.5 1033.79 337.766 1033.79 338.792 1034.82 338.792 1036.08L338.792 1049.83C338.792 1051.1 337.766 1052.13 336.5 1052.13 335.234 1052.13 334.208 1051.1 334.208 1049.83ZM334.208 1017.75 334.208 1004C334.208 1002.73 335.234 1001.71 336.5 1001.71 337.766 1001.71 338.792 1002.73 338.792 1004L338.792 1017.75C338.792 1019.02 337.766 1020.04 336.5 1020.04 335.234 1020.04 334.208 1019.02 334.208 1017.75ZM334.208 985.667 334.208 971.917C334.208 970.651 335.234 969.625 336.5 969.625 337.766 969.625 338.792 970.651 338.792 971.917L338.792 985.667C338.792 986.932 337.766 987.958 336.5 987.958 335.234 987.958 334.208 986.932 334.208 985.667ZM334.208 953.583 334.208 939.833C334.208 938.568 335.234 937.542 336.5 937.542 337.766 937.542 338.792 938.568 338.792 939.833L338.792 953.583C338.792 954.849 337.766 955.875 336.5 955.875 335.234 955.875 334.208 954.849 334.208 953.583ZM334.208 921.5 334.208 907.75C334.208 906.484 335.234 905.458 336.5 905.458 337.766 905.458 338.792 906.484 338.792 907.75L338.792 921.5C338.792 922.766 337.766 923.792 336.5 923.792 335.234 923.792 334.208 922.766 334.208 921.5ZM334.208 889.417 334.208 875.667C334.208 874.401 335.234 873.375 336.5 873.375 337.766 873.375 338.792 874.401 338.792 875.667L338.792 889.417C338.792 890.682 337.766 891.708 336.5 891.708 335.234 891.708 334.208 890.682 334.208 889.417ZM334.208 857.333 334.208 843.583C334.208 842.318 335.234 841.292 336.5 841.292 337.766 841.292 338.792 842.318 338.792 843.583L338.792 857.333C338.792 858.599 337.766 859.625 336.5 859.625 335.234 859.625 334.208 858.599 334.208 857.333ZM334.208 825.25 334.208 811.5C334.208 810.234 335.234 809.208 336.5 809.208 337.766 809.208 338.792 810.234 338.792 811.5L338.792 825.25C338.792 826.516 337.766 827.542 336.5 827.542 335.234 827.542 334.208 826.516 334.208 825.25ZM334.208 793.167 334.208 779.417C334.208 778.151 335.234 777.125 336.5 777.125 337.766 777.125 338.792 778.151 338.792 779.417L338.792 793.167C338.792 794.432 337.766 795.458 336.5 795.458 335.234 795.458 334.208 794.432 334.208 793.167ZM334.208 761.083 334.208 747.333C334.208 746.068 335.234 745.042 336.5 745.042 337.766 745.042 338.792 746.068 338.792 747.333L338.792 761.083C338.792 762.349 337.766 763.375 336.5 763.375 335.234 763.375 334.208 762.349 334.208 761.083ZM334.208 729 334.208 715.25C334.208 713.984 335.234 712.958 336.5 712.958 337.766 712.958 338.792 713.984 338.792 715.25L338.792 729C338.792 730.266 337.766 731.292 336.5 731.292 335.234 731.292 334.208 730.266 334.208 729ZM334.208 696.917 334.208 683.167C334.208 681.901 335.234 680.875 336.5 680.875 337.766 680.875 338.792 681.901 338.792 683.167L338.792 696.917C338.792 698.182 337.766 699.208 336.5 699.208 335.234 699.208 334.208 698.182 334.208 696.917ZM334.208 664.833 334.208 651.083C334.208 649.818 335.234 648.792 336.5 648.792 337.766 648.792 338.792 649.818 338.792 651.083L338.792 664.833C338.792 666.099 337.766 667.125 336.5 667.125 335.234 667.125 334.208 666.099 334.208 664.833ZM334.208 632.75 334.208 619C334.208 617.734 335.234 616.708 336.5 616.708 337.766 616.708 338.792 617.734 338.792 619L338.792 632.75C338.792 634.016 337.766 635.042 336.5 635.042 335.234 635.042 334.208 634.016 334.208 632.75ZM334.208 600.667 334.208 586.917C334.208 585.651 335.234 584.625 336.5 584.625 337.766 584.625 338.792 585.651 338.792 586.917L338.792 600.667C338.792 601.932 337.766 602.958 336.5 602.958 335.234 602.958 334.208 601.932 334.208 600.667ZM334.208 568.583 334.208 554.833C334.208 553.568 335.234 552.542 336.5 552.542 337.766 552.542 338.792 553.568 338.792 554.833L338.792 568.583C338.792 569.849 337.766 570.875 336.5 570.875 335.234 570.875 334.208 569.849 334.208 568.583ZM334.208 536.5 334.208 522.75C334.208 521.484 335.234 520.458 336.5 520.458 337.766 520.458 338.792 521.484 338.792 522.75L338.792 536.5C338.792 537.766 337.766 538.792 336.5 538.792 335.234 538.792 334.208 537.766 334.208 536.5ZM334.208 504.417 334.208 490.667C334.208 489.401 335.234 488.375 336.5 488.375 337.766 488.375 338.792 489.401 338.792 490.667L338.792 504.417C338.792 505.682 337.766 506.708 336.5 506.708 335.234 506.708 334.208 505.682 334.208 504.417ZM354.667 488.208 368.417 488.208C369.682 488.208 370.708 489.234 370.708 490.5 370.708 491.766 369.682 492.792 368.417 492.792L354.667 492.792C353.401 492.792 352.375 491.766 352.375 490.5 352.375 489.234 353.401 488.208 354.667 488.208ZM386.75 488.208 400.5 488.208C401.766 488.208 402.792 489.234 402.792 490.5 402.792 491.766 401.766 492.792 400.5 492.792L386.75 492.792C385.484 492.792 384.458 491.766 384.458 490.5 384.458 489.234 385.484 488.208 386.75 488.208ZM418.833 488.208 432.583 488.208C433.849 488.208 434.875 489.234 434.875 490.5 434.875 491.766 433.849 492.792 432.583 492.792L418.833 492.792C417.568 492.792 416.542 491.766 416.542 490.5 416.542 489.234 417.568 488.208 418.833 488.208ZM450.917 488.208 464.667 488.208C465.932 488.208 466.958 489.234 466.958 490.5 466.958 491.766 465.932 492.792 464.667 492.792L450.917 492.792C449.651 492.792 448.625 491.766 448.625 490.5 448.625 489.234 449.651 488.208 450.917 488.208ZM483 488.208 496.75 488.208C498.016 488.208 499.042 489.234 499.042 490.5 499.042 491.766 498.016 492.792 496.75 492.792L483 492.792C481.734 492.792 480.708 491.766 480.708 490.5 480.708 489.234 481.734 488.208 483 488.208ZM515.083 488.208 528.833 488.208C530.099 488.208 531.125 489.234 531.125 490.5 531.125 491.766 530.099 492.792 528.833 492.792L515.083 492.792C513.818 492.792 512.792 491.766 512.792 490.5 512.792 489.234 513.818 488.208 515.083 488.208ZM547.167 488.208 560.917 488.208C562.182 488.208 563.208 489.234 563.208 490.5 563.208 491.766 562.182 492.792 560.917 492.792L547.167 492.792C545.901 492.792 544.875 491.766 544.875 490.5 544.875 489.234 545.901 488.208 547.167 488.208ZM579.25 488.208 593 488.208C594.266 488.208 595.292 489.234 595.292 490.5 595.292 491.766 594.266 492.792 593 492.792L579.25 492.792C577.984 492.792 576.958 491.766 576.958 490.5 576.958 489.234 577.984 488.208 579.25 488.208ZM611.333 488.208 625.083 488.208C626.349 488.208 627.375 489.234 627.375 490.5 627.375 491.766 626.349 492.792 625.083 492.792L611.333 492.792C610.068 492.792 609.042 491.766 609.042 490.5 609.042 489.234 610.068 488.208 611.333 488.208ZM643.417 488.208 657.167 488.208C658.432 488.208 659.458 489.234 659.458 490.5 659.458 491.766 658.432 492.792 657.167 492.792L643.417 492.792C642.151 492.792 641.125 491.766 641.125 490.5 641.125 489.234 642.151 488.208 643.417 488.208ZM675.5 488.208 689.25 488.208C690.516 488.208 691.542 489.234 691.542 490.5 691.542 491.766 690.516 492.792 689.25 492.792L675.5 492.792C674.234 492.792 673.208 491.766 673.208 490.5 673.208 489.234 674.234 488.208 675.5 488.208ZM707.583 488.208 721.333 488.208C722.599 488.208 723.625 489.234 723.625 490.5 723.625 491.766 722.599 492.792 721.333 492.792L707.583 492.792C706.318 492.792 705.292 491.766 705.292 490.5 705.292 489.234 706.318 488.208 707.583 488.208ZM739.667 488.208 753.417 488.208C754.682 488.208 755.708 489.234 755.708 490.5 755.708 491.766 754.682 492.792 753.417 492.792L739.667 492.792C738.401 492.792 737.375 491.766 737.375 490.5 737.375 489.234 738.401 488.208 739.667 488.208ZM771.75 488.208 785.5 488.208C786.766 488.208 787.792 489.234 787.792 490.5 787.792 491.766 786.766 492.792 785.5 492.792L771.75 492.792C770.484 492.792 769.458 491.766 769.458 490.5 769.458 489.234 770.484 488.208 771.75 488.208ZM803.833 488.208 817.583 488.208C818.849 488.208 819.875 489.234 819.875 490.5 819.875 491.766 818.849 492.792 817.583 492.792L803.833 492.792C802.568 492.792 801.542 491.766 801.542 490.5 801.542 489.234 802.568 488.208 803.833 488.208ZM835.917 488.208 849.667 488.208C850.932 488.208 851.958 489.234 851.958 490.5 851.958 491.766 850.932 492.792 849.667 492.792L835.917 492.792C834.651 492.792 833.625 491.766 833.625 490.5 833.625 489.234 834.651 488.208 835.917 488.208ZM868 488.208 881.75 488.208C883.016 488.208 884.042 489.234 884.042 490.5 884.042 491.766 883.016 492.792 881.75 492.792L868 492.792C866.734 492.792 865.708 491.766 865.708 490.5 865.708 489.234 866.734 488.208 868 488.208ZM900.083 488.208 913.833 488.208C915.099 488.208 916.125 489.234 916.125 490.5 916.125 491.766 915.099 492.792 913.833 492.792L900.083 492.792C898.818 492.792 897.792 491.766 897.792 490.5 897.792 489.234 898.818 488.208 900.083 488.208ZM932.167 488.208 945.917 488.208C947.182 488.208 948.208 489.234 948.208 490.5 948.208 491.766 947.182 492.792 945.917 492.792L932.167 492.792C930.901 492.792 929.875 491.766 929.875 490.5 929.875 489.234 930.901 488.208 932.167 488.208ZM964.25 488.208 978 488.208C979.266 488.208 980.292 489.234 980.292 490.5 980.292 491.766 979.266 492.792 978 492.792L964.25 492.792C962.984 492.792 961.958 491.766 961.958 490.5 961.958 489.234 962.984 488.208 964.25 488.208ZM996.333 488.208 1010.08 488.208C1011.35 488.208 1012.37 489.234 1012.37 490.5 1012.37 491.766 1011.35 492.792 1010.08 492.792L996.333 492.792C995.068 492.792 994.042 491.766 994.042 490.5 994.042 489.234 995.068 488.208 996.333 488.208ZM1028.42 488.208 1042.17 488.208C1043.43 488.208 1044.46 489.234 1044.46 490.5 1044.46 491.766 1043.43 492.792 1042.17 492.792L1028.42 492.792C1027.15 492.792 1026.12 491.766 1026.12 490.5 1026.12 489.234 1027.15 488.208 1028.42 488.208ZM1060.5 488.208 1074.25 488.208C1075.52 488.208 1076.54 489.234 1076.54 490.5 1076.54 491.766 1075.52 492.792 1074.25 492.792L1060.5 492.792C1059.23 492.792 1058.21 491.766 1058.21 490.5 1058.21 489.234 1059.23 488.208 1060.5 488.208ZM1092.58 488.208 1106.33 488.208C1107.6 488.208 1108.62 489.234 1108.62 490.5 1108.62 491.766 1107.6 492.792 1106.33 492.792L1092.58 492.792C1091.32 492.792 1090.29 491.766 1090.29 490.5 1090.29 489.234 1091.32 488.208 1092.58 488.208ZM1124.67 488.208 1138.42 488.208C1139.68 488.208 1140.71 489.234 1140.71 490.5 1140.71 491.766 1139.68 492.792 1138.42 492.792L1124.67 492.792C1123.4 492.792 1122.38 491.766 1122.38 490.5 1122.38 489.234 1123.4 488.208 1124.67 488.208ZM1156.75 488.208 1170.5 488.208C1171.77 488.208 1172.79 489.234 1172.79 490.5 1172.79 491.766 1171.77 492.792 1170.5 492.792L1156.75 492.792C1155.48 492.792 1154.46 491.766 1154.46 490.5 1154.46 489.234 1155.48 488.208 1156.75 488.208ZM1188.83 488.208 1202.58 488.208C1203.85 488.208 1204.88 489.234 1204.88 490.5 1204.88 491.766 1203.85 492.792 1202.58 492.792L1188.83 492.792C1187.57 492.792 1186.54 491.766 1186.54 490.5 1186.54 489.234 1187.57 488.208 1188.83 488.208ZM1220.92 488.208 1234.67 488.208C1235.93 488.208 1236.96 489.234 1236.96 490.5 1236.96 491.766 1235.93 492.792 1234.67 492.792L1220.92 492.792C1219.65 492.792 1218.62 491.766 1218.62 490.5 1218.62 489.234 1219.65 488.208 1220.92 488.208ZM1253 488.208 1266.75 488.208C1268.02 488.208 1269.04 489.234 1269.04 490.5 1269.04 491.766 1268.02 492.792 1266.75 492.792L1253 492.792C1251.73 492.792 1250.71 491.766 1250.71 490.5 1250.71 489.234 1251.73 488.208 1253 488.208ZM1285.08 488.208 1298.83 488.208C1300.1 488.208 1301.12 489.234 1301.12 490.5 1301.12 491.766 1300.1 492.792 1298.83 492.792L1285.08 492.792C1283.82 492.792 1282.79 491.766 1282.79 490.5 1282.79 489.234 1283.82 488.208 1285.08 488.208ZM1317.17 488.208 1330.92 488.208C1332.18 488.208 1333.21 489.234 1333.21 490.5 1333.21 491.766 1332.18 492.792 1330.92 492.792L1317.17 492.792C1315.9 492.792 1314.88 491.766 1314.88 490.5 1314.88 489.234 1315.9 488.208 1317.17 488.208ZM1349.25 488.208 1363 488.208C1364.27 488.208 1365.29 489.234 1365.29 490.5 1365.29 491.766 1364.27 492.792 1363 492.792L1349.25 492.792C1347.98 492.792 1346.96 491.766 1346.96 490.5 1346.96 489.234 1347.98 488.208 1349.25 488.208ZM1381.33 488.208 1395.08 488.208C1396.35 488.208 1397.38 489.234 1397.38 490.5 1397.38 491.766 1396.35 492.792 1395.08 492.792L1381.33 492.792C1380.07 492.792 1379.04 491.766 1379.04 490.5 1379.04 489.234 1380.07 488.208 1381.33 488.208ZM1413.42 488.208 1427.17 488.208C1428.43 488.208 1429.46 489.234 1429.46 490.5 1429.46 491.766 1428.43 492.792 1427.17 492.792L1413.42 492.792C1412.15 492.792 1411.12 491.766 1411.12 490.5 1411.12 489.234 1412.15 488.208 1413.42 488.208ZM1445.5 488.208 1459.25 488.208C1460.52 488.208 1461.54 489.234 1461.54 490.5 1461.54 491.766 1460.52 492.792 1459.25 492.792L1445.5 492.792C1444.23 492.792 1443.21 491.766 1443.21 490.5 1443.21 489.234 1444.23 488.208 1445.5 488.208ZM1477.58 488.208 1491.33 488.208C1492.6 488.208 1493.62 489.234 1493.62 490.5 1493.62 491.766 1492.6 492.792 1491.33 492.792L1477.58 492.792C1476.32 492.792 1475.29 491.766 1475.29 490.5 1475.29 489.234 1476.32 488.208 1477.58 488.208ZM1509.67 488.208 1523.42 488.208C1524.68 488.208 1525.71 489.234 1525.71 490.5 1525.71 491.766 1524.68 492.792 1523.42 492.792L1509.67 492.792C1508.4 492.792 1507.38 491.766 1507.38 490.5 1507.38 489.234 1508.4 488.208 1509.67 488.208ZM1541.75 488.208 1555.5 488.208C1556.77 488.208 1557.79 489.234 1557.79 490.5 1557.79 491.766 1556.77 492.792 1555.5 492.792L1541.75 492.792C1540.48 492.792 1539.46 491.766 1539.46 490.5 1539.46 489.234 1540.48 488.208 1541.75 488.208ZM1573.83 488.208 1587.58 488.208C1588.85 488.208 1589.88 489.234 1589.88 490.5 1589.88 491.766 1588.85 492.792 1587.58 492.792L1573.83 492.792C1572.57 492.792 1571.54 491.766 1571.54 490.5 1571.54 489.234 1572.57 488.208 1573.83 488.208ZM1595.79 502.917 1595.79 516.667C1595.79 517.932 1594.77 518.958 1593.5 518.958 1592.23 518.958 1591.21 517.932 1591.21 516.667L1591.21 502.917C1591.21 501.651 1592.23 500.625 1593.5 500.625 1594.77 500.625 1595.79 501.651 1595.79 502.917ZM1595.79 535 1595.79 548.75C1595.79 550.016 1594.77 551.042 1593.5 551.042 1592.23 551.042 1591.21 550.016 1591.21 548.75L1591.21 535C1591.21 533.734 1592.23 532.708 1593.5 532.708 1594.77 532.708 1595.79 533.734 1595.79 535ZM1595.79 567.083 1595.79 580.833C1595.79 582.099 1594.77 583.125 1593.5 583.125 1592.23 583.125 1591.21 582.099 1591.21 580.833L1591.21 567.083C1591.21 565.818 1592.23 564.792 1593.5 564.792 1594.77 564.792 1595.79 565.818 1595.79 567.083ZM1595.79 599.167 1595.79 612.917C1595.79 614.182 1594.77 615.208 1593.5 615.208 1592.23 615.208 1591.21 614.182 1591.21 612.917L1591.21 599.167C1591.21 597.901 1592.23 596.875 1593.5 596.875 1594.77 596.875 1595.79 597.901 1595.79 599.167ZM1595.79 631.25 1595.79 645C1595.79 646.266 1594.77 647.292 1593.5 647.292 1592.23 647.292 1591.21 646.266 1591.21 645L1591.21 631.25C1591.21 629.984 1592.23 628.958 1593.5 628.958 1594.77 628.958 1595.79 629.984 1595.79 631.25ZM1595.79 663.333 1595.79 677.083C1595.79 678.349 1594.77 679.375 1593.5 679.375 1592.23 679.375 1591.21 678.349 1591.21 677.083L1591.21 663.333C1591.21 662.068 1592.23 661.042 1593.5 661.042 1594.77 661.042 1595.79 662.068 1595.79 663.333ZM1595.79 695.417 1595.79 709.167C1595.79 710.432 1594.77 711.458 1593.5 711.458 1592.23 711.458 1591.21 710.432 1591.21 709.167L1591.21 695.417C1591.21 694.151 1592.23 693.125 1593.5 693.125 1594.77 693.125 1595.79 694.151 1595.79 695.417ZM1595.79 727.5 1595.79 741.25C1595.79 742.516 1594.77 743.542 1593.5 743.542 1592.23 743.542 1591.21 742.516 1591.21 741.25L1591.21 727.5C1591.21 726.234 1592.23 725.208 1593.5 725.208 1594.77 725.208 1595.79 726.234 1595.79 727.5ZM1595.79 759.583 1595.79 773.333C1595.79 774.599 1594.77 775.625 1593.5 775.625 1592.23 775.625 1591.21 774.599 1591.21 773.333L1591.21 759.583C1591.21 758.318 1592.23 757.292 1593.5 757.292 1594.77 757.292 1595.79 758.318 1595.79 759.583ZM1595.79 791.667 1595.79 805.417C1595.79 806.682 1594.77 807.708 1593.5 807.708 1592.23 807.708 1591.21 806.682 1591.21 805.417L1591.21 791.667C1591.21 790.401 1592.23 789.375 1593.5 789.375 1594.77 789.375 1595.79 790.401 1595.79 791.667ZM1595.79 823.75 1595.79 837.5C1595.79 838.766 1594.77 839.792 1593.5 839.792 1592.23 839.792 1591.21 838.766 1591.21 837.5L1591.21 823.75C1591.21 822.484 1592.23 821.458 1593.5 821.458 1594.77 821.458 1595.79 822.484 1595.79 823.75ZM1595.79 855.833 1595.79 869.583C1595.79 870.849 1594.77 871.875 1593.5 871.875 1592.23 871.875 1591.21 870.849 1591.21 869.583L1591.21 855.833C1591.21 854.568 1592.23 853.542 1593.5 853.542 1594.77 853.542 1595.79 854.568 1595.79 855.833ZM1595.79 887.917 1595.79 901.667C1595.79 902.932 1594.77 903.958 1593.5 903.958 1592.23 903.958 1591.21 902.932 1591.21 901.667L1591.21 887.917C1591.21 886.651 1592.23 885.625 1593.5 885.625 1594.77 885.625 1595.79 886.651 1595.79 887.917ZM1595.79 920 1595.79 933.75C1595.79 935.016 1594.77 936.042 1593.5 936.042 1592.23 936.042 1591.21 935.016 1591.21 933.75L1591.21 920C1591.21 918.734 1592.23 917.708 1593.5 917.708 1594.77 917.708 1595.79 918.734 1595.79 920ZM1595.79 952.083 1595.79 965.833C1595.79 967.099 1594.77 968.125 1593.5 968.125 1592.23 968.125 1591.21 967.099 1591.21 965.833L1591.21 952.083C1591.21 950.818 1592.23 949.792 1593.5 949.792 1594.77 949.792 1595.79 950.818 1595.79 952.083ZM1595.79 984.167 1595.79 997.917C1595.79 999.182 1594.77 1000.21 1593.5 1000.21 1592.23 1000.21 1591.21 999.182 1591.21 997.917L1591.21 984.167C1591.21 982.901 1592.23 981.875 1593.5 981.875 1594.77 981.875 1595.79 982.901 1595.79 984.167ZM1595.79 1016.25 1595.79 1030C1595.79 1031.27 1594.77 1032.29 1593.5 1032.29 1592.23 1032.29 1591.21 1031.27 1591.21 1030L1591.21 1016.25C1591.21 1014.98 1592.23 1013.96 1593.5 1013.96 1594.77 1013.96 1595.79 1014.98 1595.79 1016.25ZM1595.79 1048.33 1595.79 1062.08C1595.79 1063.35 1594.77 1064.37 1593.5 1064.37 1592.23 1064.37 1591.21 1063.35 1591.21 1062.08L1591.21 1048.33C1591.21 1047.07 1592.23 1046.04 1593.5 1046.04 1594.77 1046.04 1595.79 1047.07 1595.79 1048.33ZM1595.79 1080.42 1595.79 1094.17C1595.79 1095.43 1594.77 1096.46 1593.5 1096.46 1592.23 1096.46 1591.21 1095.43 1591.21 1094.17L1591.21 1080.42C1591.21 1079.15 1592.23 1078.12 1593.5 1078.12 1594.77 1078.12 1595.79 1079.15 1595.79 1080.42ZM1595.79 1112.5 1595.79 1126.25C1595.79 1127.52 1594.77 1128.54 1593.5 1128.54 1592.23 1128.54 1591.21 1127.52 1591.21 1126.25L1591.21 1112.5C1591.21 1111.23 1592.23 1110.21 1593.5 1110.21 1594.77 1110.21 1595.79 1111.23 1595.79 1112.5ZM1595.79 1144.58 1595.79 1158.33C1595.79 1159.6 1594.77 1160.62 1593.5 1160.62 1592.23 1160.62 1591.21 1159.6 1591.21 1158.33L1591.21 1144.58C1591.21 1143.32 1592.23 1142.29 1593.5 1142.29 1594.77 1142.29 1595.79 1143.32 1595.79 1144.58ZM1595.79 1176.67 1595.79 1190.42C1595.79 1191.68 1594.77 1192.71 1593.5 1192.71 1592.23 1192.71 1591.21 1191.68 1591.21 1190.42L1591.21 1176.67C1591.21 1175.4 1592.23 1174.37 1593.5 1174.37 1594.77 1174.37 1595.79 1175.4 1595.79 1176.67ZM1595.79 1208.75 1595.79 1222.5C1595.79 1223.77 1594.77 1224.79 1593.5 1224.79 1592.23 1224.79 1591.21 1223.77 1591.21 1222.5L1591.21 1208.75C1591.21 1207.48 1592.23 1206.46 1593.5 1206.46 1594.77 1206.46 1595.79 1207.48 1595.79 1208.75ZM1595.79 1240.83 1595.79 1254.58C1595.79 1255.85 1594.77 1256.87 1593.5 1256.87 1592.23 1256.87 1591.21 1255.85 1591.21 1254.58L1591.21 1240.83C1591.21 1239.57 1592.23 1238.54 1593.5 1238.54 1594.77 1238.54 1595.79 1239.57 1595.79 1240.83ZM1595.79 1272.92 1595.79 1286.67C1595.79 1287.93 1594.77 1288.96 1593.5 1288.96 1592.23 1288.96 1591.21 1287.93 1591.21 1286.67L1591.21 1272.92C1591.21 1271.65 1592.23 1270.62 1593.5 1270.62 1594.77 1270.62 1595.79 1271.65 1595.79 1272.92ZM1595.79 1305 1595.79 1318.75C1595.79 1320.02 1594.77 1321.04 1593.5 1321.04 1592.23 1321.04 1591.21 1320.02 1591.21 1318.75L1591.21 1305C1591.21 1303.73 1592.23 1302.71 1593.5 1302.71 1594.77 1302.71 1595.79 1303.73 1595.79 1305ZM1595.79 1337.08 1595.79 1350.83C1595.79 1352.1 1594.77 1353.12 1593.5 1353.12 1592.23 1353.12 1591.21 1352.1 1591.21 1350.83L1591.21 1337.08C1591.21 1335.82 1592.23 1334.79 1593.5 1334.79 1594.77 1334.79 1595.79 1335.82 1595.79 1337.08ZM1595.79 1369.17 1595.79 1382.92C1595.79 1384.18 1594.77 1385.21 1593.5 1385.21 1592.23 1385.21 1591.21 1384.18 1591.21 1382.92L1591.21 1369.17C1591.21 1367.9 1592.23 1366.87 1593.5 1366.87 1594.77 1366.87 1595.79 1367.9 1595.79 1369.17ZM1595.79 1401.25 1595.79 1415C1595.79 1416.27 1594.77 1417.29 1593.5 1417.29 1592.23 1417.29 1591.21 1416.27 1591.21 1415L1591.21 1401.25C1591.21 1399.98 1592.23 1398.96 1593.5 1398.96 1594.77 1398.96 1595.79 1399.98 1595.79 1401.25ZM1595.79 1433.33 1595.79 1447.08C1595.79 1448.35 1594.77 1449.37 1593.5 1449.37 1592.23 1449.37 1591.21 1448.35 1591.21 1447.08L1591.21 1433.33C1591.21 1432.07 1592.23 1431.04 1593.5 1431.04 1594.77 1431.04 1595.79 1432.07 1595.79 1433.33ZM1595.79 1465.42 1595.79 1479.17C1595.79 1480.43 1594.77 1481.46 1593.5 1481.46 1592.23 1481.46 1591.21 1480.43 1591.21 1479.17L1591.21 1465.42C1591.21 1464.15 1592.23 1463.12 1593.5 1463.12 1594.77 1463.12 1595.79 1464.15 1595.79 1465.42ZM1595.79 1497.5 1595.79 1511.25C1595.79 1512.52 1594.77 1513.54 1593.5 1513.54 1592.23 1513.54 1591.21 1512.52 1591.21 1511.25L1591.21 1497.5C1591.21 1496.23 1592.23 1495.21 1593.5 1495.21 1594.77 1495.21 1595.79 1496.23 1595.79 1497.5ZM1595.79 1529.58 1595.79 1543.33C1595.79 1544.6 1594.77 1545.62 1593.5 1545.62 1592.23 1545.62 1591.21 1544.6 1591.21 1543.33L1591.21 1529.58C1591.21 1528.32 1592.23 1527.29 1593.5 1527.29 1594.77 1527.29 1595.79 1528.32 1595.79 1529.58ZM1595.79 1561.67 1595.79 1575.42C1595.79 1576.68 1594.77 1577.71 1593.5 1577.71 1592.23 1577.71 1591.21 1576.68 1591.21 1575.42L1591.21 1561.67C1591.21 1560.4 1592.23 1559.37 1593.5 1559.37 1594.77 1559.37 1595.79 1560.4 1595.79 1561.67ZM1595.79 1593.75 1595.79 1607.5C1595.79 1608.77 1594.77 1609.79 1593.5 1609.79 1592.23 1609.79 1591.21 1608.77 1591.21 1607.5L1591.21 1593.75C1591.21 1592.48 1592.23 1591.46 1593.5 1591.46 1594.77 1591.46 1595.79 1592.48 1595.79 1593.75ZM1595.79 1625.83 1595.79 1639.58C1595.79 1640.85 1594.77 1641.87 1593.5 1641.87 1592.23 1641.87 1591.21 1640.85 1591.21 1639.58L1591.21 1625.83C1591.21 1624.57 1592.23 1623.54 1593.5 1623.54 1594.77 1623.54 1595.79 1624.57 1595.79 1625.83ZM1595.79 1657.92 1595.79 1671.67C1595.79 1672.93 1594.77 1673.96 1593.5 1673.96 1592.23 1673.96 1591.21 1672.93 1591.21 1671.67L1591.21 1657.92C1591.21 1656.65 1592.23 1655.62 1593.5 1655.62 1594.77 1655.62 1595.79 1656.65 1595.79 1657.92ZM1595.79 1690 1595.79 1703.75C1595.79 1705.02 1594.77 1706.04 1593.5 1706.04 1592.23 1706.04 1591.21 1705.02 1591.21 1703.75L1591.21 1690C1591.21 1688.73 1592.23 1687.71 1593.5 1687.71 1594.77 1687.71 1595.79 1688.73 1595.79 1690ZM1595.79 1722.08 1595.79 1735.83C1595.79 1737.1 1594.77 1738.12 1593.5 1738.12 1592.23 1738.12 1591.21 1737.1 1591.21 1735.83L1591.21 1722.08C1591.21 1720.82 1592.23 1719.79 1593.5 1719.79 1594.77 1719.79 1595.79 1720.82 1595.79 1722.08ZM1595.79 1754.17 1595.79 1767.92C1595.79 1769.18 1594.77 1770.21 1593.5 1770.21 1592.23 1770.21 1591.21 1769.18 1591.21 1767.92L1591.21 1754.17C1591.21 1752.9 1592.23 1751.87 1593.5 1751.87 1594.77 1751.87 1595.79 1752.9 1595.79 1754.17ZM1595.79 1786.25 1595.79 1800C1595.79 1801.27 1594.77 1802.29 1593.5 1802.29 1592.23 1802.29 1591.21 1801.27 1591.21 1800L1591.21 1786.25C1591.21 1784.98 1592.23 1783.96 1593.5 1783.96 1594.77 1783.96 1595.79 1784.98 1595.79 1786.25ZM1595.79 1818.33 1595.79 1832.08C1595.79 1833.35 1594.77 1834.37 1593.5 1834.37 1592.23 1834.37 1591.21 1833.35 1591.21 1832.08L1591.21 1818.33C1591.21 1817.07 1592.23 1816.04 1593.5 1816.04 1594.77 1816.04 1595.79 1817.07 1595.79 1818.33ZM1595.79 1850.42 1595.79 1858.79 1585.83 1858.79C1584.57 1858.79 1583.54 1857.77 1583.54 1856.5 1583.54 1855.23 1584.57 1854.21 1585.83 1854.21L1593.5 1854.21 1591.21 1856.5 1591.21 1850.42C1591.21 1849.15 1592.23 1848.12 1593.5 1848.12 1594.77 1848.12 1595.79 1849.15 1595.79 1850.42ZM1567.5 1858.79 1553.75 1858.79C1552.48 1858.79 1551.46 1857.77 1551.46 1856.5 1551.46 1855.23 1552.48 1854.21 1553.75 1854.21L1567.5 1854.21C1568.77 1854.21 1569.79 1855.23 1569.79 1856.5 1569.79 1857.77 1568.77 1858.79 1567.5 1858.79ZM1535.42 1858.79 1521.67 1858.79C1520.4 1858.79 1519.38 1857.77 1519.38 1856.5 1519.38 1855.23 1520.4 1854.21 1521.67 1854.21L1535.42 1854.21C1536.68 1854.21 1537.71 1855.23 1537.71 1856.5 1537.71 1857.77 1536.68 1858.79 1535.42 1858.79ZM1503.33 1858.79 1489.58 1858.79C1488.32 1858.79 1487.29 1857.77 1487.29 1856.5 1487.29 1855.23 1488.32 1854.21 1489.58 1854.21L1503.33 1854.21C1504.6 1854.21 1505.63 1855.23 1505.63 1856.5 1505.63 1857.77 1504.6 1858.79 1503.33 1858.79ZM1471.25 1858.79 1457.5 1858.79C1456.23 1858.79 1455.21 1857.77 1455.21 1856.5 1455.21 1855.23 1456.23 1854.21 1457.5 1854.21L1471.25 1854.21C1472.52 1854.21 1473.54 1855.23 1473.54 1856.5 1473.54 1857.77 1472.52 1858.79 1471.25 1858.79ZM1439.17 1858.79 1425.42 1858.79C1424.15 1858.79 1423.13 1857.77 1423.13 1856.5 1423.13 1855.23 1424.15 1854.21 1425.42 1854.21L1439.17 1854.21C1440.43 1854.21 1441.46 1855.23 1441.46 1856.5 1441.46 1857.77 1440.43 1858.79 1439.17 1858.79ZM1407.08 1858.79 1393.33 1858.79C1392.07 1858.79 1391.04 1857.77 1391.04 1856.5 1391.04 1855.23 1392.07 1854.21 1393.33 1854.21L1407.08 1854.21C1408.35 1854.21 1409.38 1855.23 1409.38 1856.5 1409.38 1857.77 1408.35 1858.79 1407.08 1858.79ZM1375 1858.79 1361.25 1858.79C1359.98 1858.79 1358.96 1857.77 1358.96 1856.5 1358.96 1855.23 1359.98 1854.21 1361.25 1854.21L1375 1854.21C1376.27 1854.21 1377.29 1855.23 1377.29 1856.5 1377.29 1857.77 1376.27 1858.79 1375 1858.79ZM1342.92 1858.79 1329.17 1858.79C1327.9 1858.79 1326.88 1857.77 1326.88 1856.5 1326.88 1855.23 1327.9 1854.21 1329.17 1854.21L1342.92 1854.21C1344.18 1854.21 1345.21 1855.23 1345.21 1856.5 1345.21 1857.77 1344.18 1858.79 1342.92 1858.79ZM1310.83 1858.79 1297.08 1858.79C1295.82 1858.79 1294.79 1857.77 1294.79 1856.5 1294.79 1855.23 1295.82 1854.21 1297.08 1854.21L1310.83 1854.21C1312.1 1854.21 1313.13 1855.23 1313.13 1856.5 1313.13 1857.77 1312.1 1858.79 1310.83 1858.79ZM1278.75 1858.79 1265 1858.79C1263.73 1858.79 1262.71 1857.77 1262.71 1856.5 1262.71 1855.23 1263.73 1854.21 1265 1854.21L1278.75 1854.21C1280.02 1854.21 1281.04 1855.23 1281.04 1856.5 1281.04 1857.77 1280.02 1858.79 1278.75 1858.79ZM1246.67 1858.79 1232.92 1858.79C1231.65 1858.79 1230.63 1857.77 1230.63 1856.5 1230.63 1855.23 1231.65 1854.21 1232.92 1854.21L1246.67 1854.21C1247.93 1854.21 1248.96 1855.23 1248.96 1856.5 1248.96 1857.77 1247.93 1858.79 1246.67 1858.79ZM1214.58 1858.79 1200.83 1858.79C1199.57 1858.79 1198.54 1857.77 1198.54 1856.5 1198.54 1855.23 1199.57 1854.21 1200.83 1854.21L1214.58 1854.21C1215.85 1854.21 1216.88 1855.23 1216.88 1856.5 1216.88 1857.77 1215.85 1858.79 1214.58 1858.79ZM1182.5 1858.79 1168.75 1858.79C1167.48 1858.79 1166.46 1857.77 1166.46 1856.5 1166.46 1855.23 1167.48 1854.21 1168.75 1854.21L1182.5 1854.21C1183.77 1854.21 1184.79 1855.23 1184.79 1856.5 1184.79 1857.77 1183.77 1858.79 1182.5 1858.79ZM1150.42 1858.79 1136.67 1858.79C1135.4 1858.79 1134.38 1857.77 1134.38 1856.5 1134.38 1855.23 1135.4 1854.21 1136.67 1854.21L1150.42 1854.21C1151.68 1854.21 1152.71 1855.23 1152.71 1856.5 1152.71 1857.77 1151.68 1858.79 1150.42 1858.79ZM1118.33 1858.79 1104.58 1858.79C1103.32 1858.79 1102.29 1857.77 1102.29 1856.5 1102.29 1855.23 1103.32 1854.21 1104.58 1854.21L1118.33 1854.21C1119.6 1854.21 1120.63 1855.23 1120.63 1856.5 1120.63 1857.77 1119.6 1858.79 1118.33 1858.79ZM1086.25 1858.79 1072.5 1858.79C1071.23 1858.79 1070.21 1857.77 1070.21 1856.5 1070.21 1855.23 1071.23 1854.21 1072.5 1854.21L1086.25 1854.21C1087.52 1854.21 1088.54 1855.23 1088.54 1856.5 1088.54 1857.77 1087.52 1858.79 1086.25 1858.79ZM1054.17 1858.79 1040.42 1858.79C1039.15 1858.79 1038.13 1857.77 1038.13 1856.5 1038.13 1855.23 1039.15 1854.21 1040.42 1854.21L1054.17 1854.21C1055.43 1854.21 1056.46 1855.23 1056.46 1856.5 1056.46 1857.77 1055.43 1858.79 1054.17 1858.79ZM1022.08 1858.79 1008.33 1858.79C1007.07 1858.79 1006.04 1857.77 1006.04 1856.5 1006.04 1855.23 1007.07 1854.21 1008.33 1854.21L1022.08 1854.21C1023.35 1854.21 1024.38 1855.23 1024.38 1856.5 1024.38 1857.77 1023.35 1858.79 1022.08 1858.79ZM990 1858.79 976.25 1858.79C974.985 1858.79 973.959 1857.77 973.959 1856.5 973.959 1855.23 974.985 1854.21 976.25 1854.21L990 1854.21C991.266 1854.21 992.292 1855.23 992.292 1856.5 992.292 1857.77 991.266 1858.79 990 1858.79ZM957.917 1858.79 944.167 1858.79C942.901 1858.79 941.875 1857.77 941.875 1856.5 941.875 1855.23 942.901 1854.21 944.167 1854.21L957.917 1854.21C959.183 1854.21 960.209 1855.23 960.209 1856.5 960.209 1857.77 959.183 1858.79 957.917 1858.79ZM925.834 1858.79 912.084 1858.79C910.818 1858.79 909.792 1857.77 909.792 1856.5 909.792 1855.23 910.818 1854.21 912.084 1854.21L925.834 1854.21C927.099 1854.21 928.125 1855.23 928.125 1856.5 928.125 1857.77 927.099 1858.79 925.834 1858.79ZM893.75 1858.79 880 1858.79C878.735 1858.79 877.709 1857.77 877.709 1856.5 877.709 1855.23 878.735 1854.21 880 1854.21L893.75 1854.21C895.016 1854.21 896.042 1855.23 896.042 1856.5 896.042 1857.77 895.016 1858.79 893.75 1858.79ZM861.667 1858.79 847.917 1858.79C846.651 1858.79 845.625 1857.77 845.625 1856.5 845.625 1855.23 846.651 1854.21 847.917 1854.21L861.667 1854.21C862.933 1854.21 863.959 1855.23 863.959 1856.5 863.959 1857.77 862.933 1858.79 861.667 1858.79ZM829.584 1858.79 815.834 1858.79C814.568 1858.79 813.542 1857.77 813.542 1856.5 813.542 1855.23 814.568 1854.21 815.834 1854.21L829.584 1854.21C830.849 1854.21 831.875 1855.23 831.875 1856.5 831.875 1857.77 830.849 1858.79 829.584 1858.79ZM797.5 1858.79 783.75 1858.79C782.485 1858.79 781.459 1857.77 781.459 1856.5 781.459 1855.23 782.485 1854.21 783.75 1854.21L797.5 1854.21C798.766 1854.21 799.792 1855.23 799.792 1856.5 799.792 1857.77 798.766 1858.79 797.5 1858.79ZM765.417 1858.79 751.667 1858.79C750.401 1858.79 749.375 1857.77 749.375 1856.5 749.375 1855.23 750.401 1854.21 751.667 1854.21L765.417 1854.21C766.683 1854.21 767.709 1855.23 767.709 1856.5 767.709 1857.77 766.683 1858.79 765.417 1858.79ZM733.334 1858.79 719.584 1858.79C718.318 1858.79 717.292 1857.77 717.292 1856.5 717.292 1855.23 718.318 1854.21 719.584 1854.21L733.334 1854.21C734.599 1854.21 735.625 1855.23 735.625 1856.5 735.625 1857.77 734.599 1858.79 733.334 1858.79ZM701.25 1858.79 687.5 1858.79C686.235 1858.79 685.209 1857.77 685.209 1856.5 685.209 1855.23 686.235 1854.21 687.5 1854.21L701.25 1854.21C702.516 1854.21 703.542 1855.23 703.542 1856.5 703.542 1857.77 702.516 1858.79 701.25 1858.79ZM669.167 1858.79 655.417 1858.79C654.151 1858.79 653.125 1857.77 653.125 1856.5 653.125 1855.23 654.151 1854.21 655.417 1854.21L669.167 1854.21C670.433 1854.21 671.459 1855.23 671.459 1856.5 671.459 1857.77 670.433 1858.79 669.167 1858.79ZM637.084 1858.79 623.334 1858.79C622.068 1858.79 621.042 1857.77 621.042 1856.5 621.042 1855.23 622.068 1854.21 623.334 1854.21L637.084 1854.21C638.349 1854.21 639.375 1855.23 639.375 1856.5 639.375 1857.77 638.349 1858.79 637.084 1858.79ZM605 1858.79 591.25 1858.79C589.985 1858.79 588.959 1857.77 588.959 1856.5 588.959 1855.23 589.985 1854.21 591.25 1854.21L605 1854.21C606.266 1854.21 607.292 1855.23 607.292 1856.5 607.292 1857.77 606.266 1858.79 605 1858.79ZM572.917 1858.79 559.167 1858.79C557.901 1858.79 556.875 1857.77 556.875 1856.5 556.875 1855.23 557.901 1854.21 559.167 1854.21L572.917 1854.21C574.183 1854.21 575.209 1855.23 575.209 1856.5 575.209 1857.77 574.183 1858.79 572.917 1858.79ZM540.834 1858.79 527.084 1858.79C525.818 1858.79 524.792 1857.77 524.792 1856.5 524.792 1855.23 525.818 1854.21 527.084 1854.21L540.834 1854.21C542.099 1854.21 543.125 1855.23 543.125 1856.5 543.125 1857.77 542.099 1858.79 540.834 1858.79ZM508.75 1858.79 495 1858.79C493.735 1858.79 492.709 1857.77 492.709 1856.5 492.709 1855.23 493.735 1854.21 495 1854.21L508.75 1854.21C510.016 1854.21 511.042 1855.23 511.042 1856.5 511.042 1857.77 510.016 1858.79 508.75 1858.79ZM476.667 1858.79 462.917 1858.79C461.651 1858.79 460.625 1857.77 460.625 1856.5 460.625 1855.23 461.651 1854.21 462.917 1854.21L476.667 1854.21C477.933 1854.21 478.959 1855.23 478.959 1856.5 478.959 1857.77 477.933 1858.79 476.667 1858.79ZM444.584 1858.79 430.834 1858.79C429.568 1858.79 428.542 1857.77 428.542 1856.5 428.542 1855.23 429.568 1854.21 430.834 1854.21L444.584 1854.21C445.849 1854.21 446.875 1855.23 446.875 1856.5 446.875 1857.77 445.849 1858.79 444.584 1858.79ZM412.5 1858.79 398.75 1858.79C397.485 1858.79 396.459 1857.77 396.459 1856.5 396.459 1855.23 397.485 1854.21 398.75 1854.21L412.5 1854.21C413.766 1854.21 414.792 1855.23 414.792 1856.5 414.792 1857.77 413.766 1858.79 412.5 1858.79ZM380.417 1858.79 366.667 1858.79C365.401 1858.79 364.375 1857.77 364.375 1856.5 364.375 1855.23 365.401 1854.21 366.667 1854.21L380.417 1854.21C381.683 1854.21 382.709 1855.23 382.709 1856.5 382.709 1857.77 381.683 1858.79 380.417 1858.79ZM348.334 1858.79 336.5 1858.79C335.234 1858.79 334.208 1857.77 334.208 1856.5 334.208 1855.23 335.234 1854.21 336.5 1854.21L348.334 1854.21C349.599 1854.21 350.625 1855.23 350.625 1856.5 350.625 1857.77 349.599 1858.79 348.334 1858.79Z" fill="#005C8A" fill-rule="nonzero" fill-opacity="1"/><text fill="#221E20" fill-opacity="1" font-family="Metropolis,Metropolis_MSFontService,sans-serif" font-style="normal" font-variant="normal" font-weight="400" font-stretch="normal" font-size="48" text-anchor="start" direction="ltr" writing-mode="lr-tb" unicode-bidi="normal" text-decoration="none" transform="matrix(1 0 0 1 369.329 579)">VCF Fleet</text><rect x="393.5" y="636.5" width="1156" height="1124" stroke="#005C8A" stroke-width="4.58333" stroke-linecap="round" stroke-linejoin="miter" stroke-miterlimit="8" stroke-opacity="1" fill="#FFFFFF" fill-opacity="1"/><text fill="#221E20" fill-opacity="1" font-family="Metropolis,Metropolis_MSFontService,sans-serif" font-style="normal" font-variant="normal" font-weight="400" font-stretch="normal" font-size="48" text-anchor="start" direction="ltr" writing-mode="lr-tb" unicode-bidi="normal" text-decoration="none" transform="matrix(1 0 0 1 425.957 725)">VCF Instance</text><path d="M393.5 1917.5 1095.8 1918.02 1401.18 1918.02 1549.5 1917.5 1548.89 2032.21 1549.5 2146.5 393.5 2146.5 393.5 1917.5Z" stroke="#6C4B94" stroke-width="4.58333" stroke-linecap="butt" stroke-linejoin="round" stroke-miterlimit="10" stroke-opacity="1" fill="none" fill-rule="evenodd"/><text fill="#221E20" fill-opacity="1" font-family="Metropolis,Metropolis_MSFontService,sans-serif" font-style="normal" font-variant="normal" font-weight="400" font-stretch="normal" font-size="41" text-anchor="start" direction="ltr" writing-mode="lr-tb" unicode-bidi="normal" text-decoration="none" transform="matrix(1 0 0 1 705.562 2046)">Customer Identity Provider</text><rect x="1052.5" y="890.5" width="425" height="168" stroke="#005C8A" stroke-width="4.58333" stroke-linecap="butt" stroke-linejoin="round" stroke-miterlimit="10" stroke-opacity="1" fill="#FFFFFF" fill-opacity="1"/><text fill="#000000" fill-opacity="1" font-family="Metropolis,Metropolis_MSFontService,sans-serif" font-style="normal" font-variant="normal" font-weight="400" font-stretch="normal" font-size="41" text-anchor="start" direction="ltr" writing-mode="lr-tb" unicode-bidi="normal" text-decoration="none" transform="matrix(1 0 0 1 1128.51 988)">NSX Manager</text><rect x="430.5" y="797.5" width="458" height="260" stroke="#005C8A" stroke-width="4.58333" stroke-linecap="butt" stroke-linejoin="round" stroke-miterlimit="10" stroke-opacity="1" fill="#FFFFFF" fill-opacity="1"/><text fill="#000000" fill-opacity="1" font-family="Metropolis,Metropolis_MSFontService,sans-serif" font-style="normal" font-variant="normal" font-weight="400" font-stretch="normal" font-size="41" text-anchor="start" direction="ltr" writing-mode="lr-tb" unicode-bidi="normal" text-decoration="none" transform="matrix(1 0 0 1 582.134 852)">vCenter</text><rect x="1058.5" y="1539.5" width="426" height="168" stroke="#005C8A" stroke-width="4.58333" stroke-linecap="butt" stroke-linejoin="round" stroke-miterlimit="10" stroke-opacity="1" fill="none"/><text fill="#000000" fill-opacity="1" font-family="Metropolis,Metropolis_MSFontService,sans-serif" font-style="normal" font-variant="normal" font-weight="400" font-stretch="normal" font-size="41" text-anchor="start" direction="ltr" writing-mode="lr-tb" unicode-bidi="normal" text-decoration="none" transform="matrix(1 0 0 1 1226.86 1637)">HCX</text><rect x="461.5" y="909.5" width="384" height="130" stroke="#005C8A" stroke-width="4.58333" stroke-linecap="butt" stroke-linejoin="round" stroke-miterlimit="10" stroke-opacity="1" fill="#FFFFFF" fill-opacity="1"/><text fill="#000000" fill-opacity="1" font-family="Metropolis,Metropolis_MSFontService,sans-serif" font-style="normal" font-variant="normal" font-weight="400" font-stretch="normal" font-size="41" text-anchor="start" direction="ltr" writing-mode="lr-tb" unicode-bidi="normal" text-decoration="none" transform="matrix(1 0 0 1 530.413 964)">VCF Identity </text><text fill="#000000" fill-opacity="1" font-family="Metropolis,Metropolis_MSFontService,sans-serif" font-style="normal" font-variant="normal" font-weight="400" font-stretch="normal" font-size="41" text-anchor="start" direction="ltr" writing-mode="lr-tb" unicode-bidi="normal" text-decoration="none" transform="matrix(1 0 0 1 585.711 1014)">Broker</text><rect x="1058.5" y="1321.5" width="426" height="168" stroke="#F3BA16" stroke-width="4.58333" stroke-linecap="butt" stroke-linejoin="round" stroke-miterlimit="10" stroke-opacity="1" fill="#FFFFFF" fill-opacity="1"/><text fill="#000000" fill-opacity="1" font-family="Metropolis,Metropolis_MSFontService,sans-serif" font-style="normal" font-variant="normal" font-weight="400" font-stretch="normal" font-size="41" text-anchor="start" direction="ltr" writing-mode="lr-tb" unicode-bidi="normal" text-decoration="none" transform="matrix(1 0 0 1 1108.26 1419)">VCF Automation</text><rect x="1055.5" y="1104.5" width="426" height="168" stroke="#61A60E" stroke-width="4.58333" stroke-linecap="butt" stroke-linejoin="round" stroke-miterlimit="10" stroke-opacity="1" fill="#FFFFFF" fill-opacity="1"/><text fill="#000000" fill-opacity="1" font-family="Metropolis,Metropolis_MSFontService,sans-serif" font-style="normal" font-variant="normal" font-weight="400" font-stretch="normal" font-size="41" text-anchor="start" direction="ltr" writing-mode="lr-tb" unicode-bidi="normal" text-decoration="none" transform="matrix(1 0 0 1 1110.51 1203)">VCF Operations</text><path d="M655.792 1039.5 655.792 1893.95 651.209 1893.95 651.208 1039.5ZM667.25 1889.37 653.5 1916.87 639.75 1889.37Z" fill="#000000" fill-rule="nonzero" fill-opacity="1"/><rect x="1649.5" y="1321.5" width="426" height="168" stroke="#6C4B94" stroke-width="4.58333" stroke-linecap="butt" stroke-linejoin="round" stroke-miterlimit="10" stroke-opacity="1" fill="#FFFFFF" fill-opacity="1"/><text fill="#000000" fill-opacity="1" font-family="Metropolis,Metropolis_MSFontService,sans-serif" font-style="normal" font-variant="normal" font-weight="400" font-stretch="normal" font-size="37" text-anchor="start" direction="ltr" writing-mode="lr-tb" unicode-bidi="normal" text-decoration="none" transform="matrix(1 0 0 1 1731.45 1396)">Tenant </text><text fill="#221E20" fill-opacity="1" font-family="Metropolis,Metropolis_MSFontService,sans-serif" font-style="normal" font-variant="normal" font-weight="400" font-stretch="normal" font-size="37" text-anchor="start" direction="ltr" writing-mode="lr-tb" unicode-bidi="normal" text-decoration="none" transform="matrix(1 0 0 1 1861.51 1396)">Identity </text><text fill="#221E20" fill-opacity="1" font-family="Metropolis,Metropolis_MSFontService,sans-serif" font-style="normal" font-variant="normal" font-weight="400" font-stretch="normal" font-size="37" text-anchor="start" direction="ltr" writing-mode="lr-tb" unicode-bidi="normal" text-decoration="none" transform="matrix(1 0 0 1 1787.32 1440)">Provider</text><path d="M1484.5 1403.21 1626.86 1403.21 1626.86 1407.79 1484.5 1407.79ZM1622.28 1391.75 1649.78 1405.5 1622.28 1419.25Z" fill="#1B1D36" fill-rule="nonzero" fill-opacity="1"/><path d="M1058.78 1625.29 952.142 1625.29C950.876 1625.29 949.85 1624.26 949.85 1623L949.85 974.5 952.142 976.792 868.417 976.792 868.417 972.208 952.142 972.208C953.408 972.208 954.434 973.234 954.434 974.5L954.434 1623 952.142 1620.71 1058.78 1620.71ZM873 988.25 845.5 974.5 873 960.75Z" fill="#000000" fill-rule="nonzero" fill-opacity="1"/><path d="M1058.78 1407.7 952.142 1407.7C950.877 1407.7 949.851 1406.67 949.851 1405.4L949.851 974.5 952.142 976.792 868.417 976.792 868.417 972.208 952.142 972.208C953.408 972.208 954.434 973.234 954.434 974.5L954.434 1405.4 952.142 1403.11 1058.78 1403.11ZM873 988.25 845.5 974.5 873 960.75Z" fill="#000000" fill-rule="nonzero" fill-opacity="1"/><path d="M1058.79 1140.08 952.143 1140.08C950.877 1140.08 949.851 1139.05 949.851 1137.79L949.851 974.5 952.143 976.792 868.417 976.792 868.417 972.208 952.143 972.208C953.408 972.208 954.434 973.234 954.434 974.5L954.434 1137.79 952.143 1135.5 1058.79 1135.5ZM873 988.25 845.5 974.5 873 960.75Z" fill="#000000" fill-rule="nonzero" fill-opacity="1"/><path d="M0-2.29167 103.161-2.29167C104.426-2.29167 105.452-1.26565 105.452 0L105.452 0.499836 103.161-1.79183 183.405-1.79183 183.405 2.7915 103.161 2.7915C101.895 2.7915 100.869 1.76549 100.869 0.499836L100.869 0 103.161 2.29167 0 2.29167ZM178.821-13.2502 206.321 0.499836 178.821 14.2498Z" fill="#000000" fill-rule="nonzero" fill-opacity="1" transform="matrix(-1 1.22465e-16 1.22465e-16 1 1051.82 974.5)"/><rect x="2221.5" y="335.5" width="1842" height="1863" stroke="#000000" stroke-width="4.58333" stroke-linecap="butt" stroke-linejoin="round" stroke-miterlimit="10" stroke-dasharray="18.3333 13.75" stroke-opacity="1" fill="#FFFFFF" fill-opacity="1"/><text fill="#000000" fill-opacity="1" font-family="Metropolis,Metropolis_MSFontService,sans-serif" font-style="normal" font-variant="normal" font-weight="700" font-stretch="normal" font-size="46" text-anchor="start" direction="ltr" writing-mode="lr-tb" unicode-bidi="normal" text-decoration="none" transform="matrix(1 0 0 1 2797.57 396)">Appliance VCF Identity Broker</text><rect x="2280.5" y="490.5" width="1256" height="1366" fill="#FFFFFF" fill-opacity="1"/><path d="M2278.21 1851.92 2278.21 1838.17C2278.21 1836.9 2279.23 1835.88 2280.5 1835.88 2281.77 1835.88 2282.79 1836.9 2282.79 1838.17L2282.79 1851.92C2282.79 1853.18 2281.77 1854.21 2280.5 1854.21 2279.23 1854.21 2278.21 1853.18 2278.21 1851.92ZM2278.21 1819.83 2278.21 1806.08C2278.21 1804.82 2279.23 1803.79 2280.5 1803.79 2281.77 1803.79 2282.79 1804.82 2282.79 1806.08L2282.79 1819.83C2282.79 1821.1 2281.77 1822.13 2280.5 1822.13 2279.23 1822.13 2278.21 1821.1 2278.21 1819.83ZM2278.21 1787.75 2278.21 1774C2278.21 1772.73 2279.23 1771.71 2280.5 1771.71 2281.77 1771.71 2282.79 1772.73 2282.79 1774L2282.79 1787.75C2282.79 1789.02 2281.77 1790.04 2280.5 1790.04 2279.23 1790.04 2278.21 1789.02 2278.21 1787.75ZM2278.21 1755.67 2278.21 1741.92C2278.21 1740.65 2279.23 1739.63 2280.5 1739.63 2281.77 1739.63 2282.79 1740.65 2282.79 1741.92L2282.79 1755.67C2282.79 1756.93 2281.77 1757.96 2280.5 1757.96 2279.23 1757.96 2278.21 1756.93 2278.21 1755.67ZM2278.21 1723.58 2278.21 1709.83C2278.21 1708.57 2279.23 1707.54 2280.5 1707.54 2281.77 1707.54 2282.79 1708.57 2282.79 1709.83L2282.79 1723.58C2282.79 1724.85 2281.77 1725.88 2280.5 1725.88 2279.23 1725.88 2278.21 1724.85 2278.21 1723.58ZM2278.21 1691.5 2278.21 1677.75C2278.21 1676.48 2279.23 1675.46 2280.5 1675.46 2281.77 1675.46 2282.79 1676.48 2282.79 1677.75L2282.79 1691.5C2282.79 1692.77 2281.77 1693.79 2280.5 1693.79 2279.23 1693.79 2278.21 1692.77 2278.21 1691.5ZM2278.21 1659.42 2278.21 1645.67C2278.21 1644.4 2279.23 1643.38 2280.5 1643.38 2281.77 1643.38 2282.79 1644.4 2282.79 1645.67L2282.79 1659.42C2282.79 1660.68 2281.77 1661.71 2280.5 1661.71 2279.23 1661.71 2278.21 1660.68 2278.21 1659.42ZM2278.21 1627.33 2278.21 1613.58C2278.21 1612.32 2279.23 1611.29 2280.5 1611.29 2281.77 1611.29 2282.79 1612.32 2282.79 1613.58L2282.79 1627.33C2282.79 1628.6 2281.77 1629.63 2280.5 1629.63 2279.23 1629.63 2278.21 1628.6 2278.21 1627.33ZM2278.21 1595.25 2278.21 1581.5C2278.21 1580.23 2279.23 1579.21 2280.5 1579.21 2281.77 1579.21 2282.79 1580.23 2282.79 1581.5L2282.79 1595.25C2282.79 1596.52 2281.77 1597.54 2280.5 1597.54 2279.23 1597.54 2278.21 1596.52 2278.21 1595.25ZM2278.21 1563.17 2278.21 1549.42C2278.21 1548.15 2279.23 1547.13 2280.5 1547.13 2281.77 1547.13 2282.79 1548.15 2282.79 1549.42L2282.79 1563.17C2282.79 1564.43 2281.77 1565.46 2280.5 1565.46 2279.23 1565.46 2278.21 1564.43 2278.21 1563.17ZM2278.21 1531.08 2278.21 1517.33C2278.21 1516.07 2279.23 1515.04 2280.5 1515.04 2281.77 1515.04 2282.79 1516.07 2282.79 1517.33L2282.79 1531.08C2282.79 1532.35 2281.77 1533.38 2280.5 1533.38 2279.23 1533.38 2278.21 1532.35 2278.21 1531.08ZM2278.21 1499 2278.21 1485.25C2278.21 1483.98 2279.23 1482.96 2280.5 1482.96 2281.77 1482.96 2282.79 1483.98 2282.79 1485.25L2282.79 1499C2282.79 1500.27 2281.77 1501.29 2280.5 1501.29 2279.23 1501.29 2278.21 1500.27 2278.21 1499ZM2278.21 1466.92 2278.21 1453.17C2278.21 1451.9 2279.23 1450.88 2280.5 1450.88 2281.77 1450.88 2282.79 1451.9 2282.79 1453.17L2282.79 1466.92C2282.79 1468.18 2281.77 1469.21 2280.5 1469.21 2279.23 1469.21 2278.21 1468.18 2278.21 1466.92ZM2278.21 1434.83 2278.21 1421.08C2278.21 1419.82 2279.23 1418.79 2280.5 1418.79 2281.77 1418.79 2282.79 1419.82 2282.79 1421.08L2282.79 1434.83C2282.79 1436.1 2281.77 1437.13 2280.5 1437.13 2279.23 1437.13 2278.21 1436.1 2278.21 1434.83ZM2278.21 1402.75 2278.21 1389C2278.21 1387.73 2279.23 1386.71 2280.5 1386.71 2281.77 1386.71 2282.79 1387.73 2282.79 1389L2282.79 1402.75C2282.79 1404.02 2281.77 1405.04 2280.5 1405.04 2279.23 1405.04 2278.21 1404.02 2278.21 1402.75ZM2278.21 1370.67 2278.21 1356.92C2278.21 1355.65 2279.23 1354.63 2280.5 1354.63 2281.77 1354.63 2282.79 1355.65 2282.79 1356.92L2282.79 1370.67C2282.79 1371.93 2281.77 1372.96 2280.5 1372.96 2279.23 1372.96 2278.21 1371.93 2278.21 1370.67ZM2278.21 1338.58 2278.21 1324.83C2278.21 1323.57 2279.23 1322.54 2280.5 1322.54 2281.77 1322.54 2282.79 1323.57 2282.79 1324.83L2282.79 1338.58C2282.79 1339.85 2281.77 1340.88 2280.5 1340.88 2279.23 1340.88 2278.21 1339.85 2278.21 1338.58ZM2278.21 1306.5 2278.21 1292.75C2278.21 1291.48 2279.23 1290.46 2280.5 1290.46 2281.77 1290.46 2282.79 1291.48 2282.79 1292.75L2282.79 1306.5C2282.79 1307.77 2281.77 1308.79 2280.5 1308.79 2279.23 1308.79 2278.21 1307.77 2278.21 1306.5ZM2278.21 1274.42 2278.21 1260.67C2278.21 1259.4 2279.23 1258.38 2280.5 1258.38 2281.77 1258.38 2282.79 1259.4 2282.79 1260.67L2282.79 1274.42C2282.79 1275.68 2281.77 1276.71 2280.5 1276.71 2279.23 1276.71 2278.21 1275.68 2278.21 1274.42ZM2278.21 1242.33 2278.21 1228.58C2278.21 1227.32 2279.23 1226.29 2280.5 1226.29 2281.77 1226.29 2282.79 1227.32 2282.79 1228.58L2282.79 1242.33C2282.79 1243.6 2281.77 1244.63 2280.5 1244.63 2279.23 1244.63 2278.21 1243.6 2278.21 1242.33ZM2278.21 1210.25 2278.21 1196.5C2278.21 1195.23 2279.23 1194.21 2280.5 1194.21 2281.77 1194.21 2282.79 1195.23 2282.79 1196.5L2282.79 1210.25C2282.79 1211.52 2281.77 1212.54 2280.5 1212.54 2279.23 1212.54 2278.21 1211.52 2278.21 1210.25ZM2278.21 1178.17 2278.21 1164.42C2278.21 1163.15 2279.23 1162.13 2280.5 1162.13 2281.77 1162.13 2282.79 1163.15 2282.79 1164.42L2282.79 1178.17C2282.79 1179.43 2281.77 1180.46 2280.5 1180.46 2279.23 1180.46 2278.21 1179.43 2278.21 1178.17ZM2278.21 1146.08 2278.21 1132.33C2278.21 1131.07 2279.23 1130.04 2280.5 1130.04 2281.77 1130.04 2282.79 1131.07 2282.79 1132.33L2282.79 1146.08C2282.79 1147.35 2281.77 1148.38 2280.5 1148.38 2279.23 1148.38 2278.21 1147.35 2278.21 1146.08ZM2278.21 1114 2278.21 1100.25C2278.21 1098.98 2279.23 1097.96 2280.5 1097.96 2281.77 1097.96 2282.79 1098.98 2282.79 1100.25L2282.79 1114C2282.79 1115.27 2281.77 1116.29 2280.5 1116.29 2279.23 1116.29 2278.21 1115.27 2278.21 1114ZM2278.21 1081.92 2278.21 1068.17C2278.21 1066.9 2279.23 1065.88 2280.5 1065.88 2281.77 1065.88 2282.79 1066.9 2282.79 1068.17L2282.79 1081.92C2282.79 1083.18 2281.77 1084.21 2280.5 1084.21 2279.23 1084.21 2278.21 1083.18 2278.21 1081.92ZM2278.21 1049.83 2278.21 1036.08C2278.21 1034.82 2279.23 1033.79 2280.5 1033.79 2281.77 1033.79 2282.79 1034.82 2282.79 1036.08L2282.79 1049.83C2282.79 1051.1 2281.77 1052.13 2280.5 1052.13 2279.23 1052.13 2278.21 1051.1 2278.21 1049.83ZM2278.21 1017.75 2278.21 1004C2278.21 1002.73 2279.23 1001.71 2280.5 1001.71 2281.77 1001.71 2282.79 1002.73 2282.79 1004L2282.79 1017.75C2282.79 1019.02 2281.77 1020.04 2280.5 1020.04 2279.23 1020.04 2278.21 1019.02 2278.21 1017.75ZM2278.21 985.667 2278.21 971.917C2278.21 970.651 2279.23 969.625 2280.5 969.625 2281.77 969.625 2282.79 970.651 2282.79 971.917L2282.79 985.667C2282.79 986.932 2281.77 987.958 2280.5 987.958 2279.23 987.958 2278.21 986.932 2278.21 985.667ZM2278.21 953.583 2278.21 939.833C2278.21 938.568 2279.23 937.542 2280.5 937.542 2281.77 937.542 2282.79 938.568 2282.79 939.833L2282.79 953.583C2282.79 954.849 2281.77 955.875 2280.5 955.875 2279.23 955.875 2278.21 954.849 2278.21 953.583ZM2278.21 921.5 2278.21 907.75C2278.21 906.484 2279.23 905.458 2280.5 905.458 2281.77 905.458 2282.79 906.484 2282.79 907.75L2282.79 921.5C2282.79 922.766 2281.77 923.792 2280.5 923.792 2279.23 923.792 2278.21 922.766 2278.21 921.5ZM2278.21 889.417 2278.21 875.667C2278.21 874.401 2279.23 873.375 2280.5 873.375 2281.77 873.375 2282.79 874.401 2282.79 875.667L2282.79 889.417C2282.79 890.682 2281.77 891.708 2280.5 891.708 2279.23 891.708 2278.21 890.682 2278.21 889.417ZM2278.21 857.333 2278.21 843.583C2278.21 842.318 2279.23 841.292 2280.5 841.292 2281.77 841.292 2282.79 842.318 2282.79 843.583L2282.79 857.333C2282.79 858.599 2281.77 859.625 2280.5 859.625 2279.23 859.625 2278.21 858.599 2278.21 857.333ZM2278.21 825.25 2278.21 811.5C2278.21 810.234 2279.23 809.208 2280.5 809.208 2281.77 809.208 2282.79 810.234 2282.79 811.5L2282.79 825.25C2282.79 826.516 2281.77 827.542 2280.5 827.542 2279.23 827.542 2278.21 826.516 2278.21 825.25ZM2278.21 793.167 2278.21 779.417C2278.21 778.151 2279.23 777.125 2280.5 777.125 2281.77 777.125 2282.79 778.151 2282.79 779.417L2282.79 793.167C2282.79 794.432 2281.77 795.458 2280.5 795.458 2279.23 795.458 2278.21 794.432 2278.21 793.167ZM2278.21 761.083 2278.21 747.333C2278.21 746.068 2279.23 745.042 2280.5 745.042 2281.77 745.042 2282.79 746.068 2282.79 747.333L2282.79 761.083C2282.79 762.349 2281.77 763.375 2280.5 763.375 2279.23 763.375 2278.21 762.349 2278.21 761.083ZM2278.21 729 2278.21 715.25C2278.21 713.984 2279.23 712.958 2280.5 712.958 2281.77 712.958 2282.79 713.984 2282.79 715.25L2282.79 729C2282.79 730.266 2281.77 731.292 2280.5 731.292 2279.23 731.292 2278.21 730.266 2278.21 729ZM2278.21 696.917 2278.21 683.167C2278.21 681.901 2279.23 680.875 2280.5 680.875 2281.77 680.875 2282.79 681.901 2282.79 683.167L2282.79 696.917C2282.79 698.182 2281.77 699.208 2280.5 699.208 2279.23 699.208 2278.21 698.182 2278.21 696.917ZM2278.21 664.833 2278.21 651.083C2278.21 649.818 2279.23 648.792 2280.5 648.792 2281.77 648.792 2282.79 649.818 2282.79 651.083L2282.79 664.833C2282.79 666.099 2281.77 667.125 2280.5 667.125 2279.23 667.125 2278.21 666.099 2278.21 664.833ZM2278.21 632.75 2278.21 619C2278.21 617.734 2279.23 616.708 2280.5 616.708 2281.77 616.708 2282.79 617.734 2282.79 619L2282.79 632.75C2282.79 634.016 2281.77 635.042 2280.5 635.042 2279.23 635.042 2278.21 634.016 2278.21 632.75ZM2278.21 600.667 2278.21 586.917C2278.21 585.651 2279.23 584.625 2280.5 584.625 2281.77 584.625 2282.79 585.651 2282.79 586.917L2282.79 600.667C2282.79 601.932 2281.77 602.958 2280.5 602.958 2279.23 602.958 2278.21 601.932 2278.21 600.667ZM2278.21 568.583 2278.21 554.833C2278.21 553.568 2279.23 552.542 2280.5 552.542 2281.77 552.542 2282.79 553.568 2282.79 554.833L2282.79 568.583C2282.79 569.849 2281.77 570.875 2280.5 570.875 2279.23 570.875 2278.21 569.849 2278.21 568.583ZM2278.21 536.5 2278.21 522.75C2278.21 521.484 2279.23 520.458 2280.5 520.458 2281.77 520.458 2282.79 521.484 2282.79 522.75L2282.79 536.5C2282.79 537.766 2281.77 538.792 2280.5 538.792 2279.23 538.792 2278.21 537.766 2278.21 536.5ZM2278.21 504.417 2278.21 490.667C2278.21 489.401 2279.23 488.375 2280.5 488.375 2281.77 488.375 2282.79 489.401 2282.79 490.667L2282.79 504.417C2282.79 505.682 2281.77 506.708 2280.5 506.708 2279.23 506.708 2278.21 505.682 2278.21 504.417ZM2298.67 488.208 2312.42 488.208C2313.68 488.208 2314.71 489.234 2314.71 490.5 2314.71 491.766 2313.68 492.792 2312.42 492.792L2298.67 492.792C2297.4 492.792 2296.38 491.766 2296.38 490.5 2296.38 489.234 2297.4 488.208 2298.67 488.208ZM2330.75 488.208 2344.5 488.208C2345.77 488.208 2346.79 489.234 2346.79 490.5 2346.79 491.766 2345.77 492.792 2344.5 492.792L2330.75 492.792C2329.48 492.792 2328.46 491.766 2328.46 490.5 2328.46 489.234 2329.48 488.208 2330.75 488.208ZM2362.83 488.208 2376.58 488.208C2377.85 488.208 2378.88 489.234 2378.88 490.5 2378.88 491.766 2377.85 492.792 2376.58 492.792L2362.83 492.792C2361.57 492.792 2360.54 491.766 2360.54 490.5 2360.54 489.234 2361.57 488.208 2362.83 488.208ZM2394.92 488.208 2408.67 488.208C2409.93 488.208 2410.96 489.234 2410.96 490.5 2410.96 491.766 2409.93 492.792 2408.67 492.792L2394.92 492.792C2393.65 492.792 2392.62 491.766 2392.62 490.5 2392.62 489.234 2393.65 488.208 2394.92 488.208ZM2427 488.208 2440.75 488.208C2442.02 488.208 2443.04 489.234 2443.04 490.5 2443.04 491.766 2442.02 492.792 2440.75 492.792L2427 492.792C2425.73 492.792 2424.71 491.766 2424.71 490.5 2424.71 489.234 2425.73 488.208 2427 488.208ZM2459.08 488.208 2472.83 488.208C2474.1 488.208 2475.12 489.234 2475.12 490.5 2475.12 491.766 2474.1 492.792 2472.83 492.792L2459.08 492.792C2457.82 492.792 2456.79 491.766 2456.79 490.5 2456.79 489.234 2457.82 488.208 2459.08 488.208ZM2491.17 488.208 2504.92 488.208C2506.18 488.208 2507.21 489.234 2507.21 490.5 2507.21 491.766 2506.18 492.792 2504.92 492.792L2491.17 492.792C2489.9 492.792 2488.88 491.766 2488.88 490.5 2488.88 489.234 2489.9 488.208 2491.17 488.208ZM2523.25 488.208 2537 488.208C2538.27 488.208 2539.29 489.234 2539.29 490.5 2539.29 491.766 2538.27 492.792 2537 492.792L2523.25 492.792C2521.98 492.792 2520.96 491.766 2520.96 490.5 2520.96 489.234 2521.98 488.208 2523.25 488.208ZM2555.33 488.208 2569.08 488.208C2570.35 488.208 2571.38 489.234 2571.38 490.5 2571.38 491.766 2570.35 492.792 2569.08 492.792L2555.33 492.792C2554.07 492.792 2553.04 491.766 2553.04 490.5 2553.04 489.234 2554.07 488.208 2555.33 488.208ZM2587.42 488.208 2601.17 488.208C2602.43 488.208 2603.46 489.234 2603.46 490.5 2603.46 491.766 2602.43 492.792 2601.17 492.792L2587.42 492.792C2586.15 492.792 2585.12 491.766 2585.12 490.5 2585.12 489.234 2586.15 488.208 2587.42 488.208ZM2619.5 488.208 2633.25 488.208C2634.52 488.208 2635.54 489.234 2635.54 490.5 2635.54 491.766 2634.52 492.792 2633.25 492.792L2619.5 492.792C2618.23 492.792 2617.21 491.766 2617.21 490.5 2617.21 489.234 2618.23 488.208 2619.5 488.208ZM2651.58 488.208 2665.33 488.208C2666.6 488.208 2667.62 489.234 2667.62 490.5 2667.62 491.766 2666.6 492.792 2665.33 492.792L2651.58 492.792C2650.32 492.792 2649.29 491.766 2649.29 490.5 2649.29 489.234 2650.32 488.208 2651.58 488.208ZM2683.67 488.208 2697.42 488.208C2698.68 488.208 2699.71 489.234 2699.71 490.5 2699.71 491.766 2698.68 492.792 2697.42 492.792L2683.67 492.792C2682.4 492.792 2681.38 491.766 2681.38 490.5 2681.38 489.234 2682.4 488.208 2683.67 488.208ZM2715.75 488.208 2729.5 488.208C2730.77 488.208 2731.79 489.234 2731.79 490.5 2731.79 491.766 2730.77 492.792 2729.5 492.792L2715.75 492.792C2714.48 492.792 2713.46 491.766 2713.46 490.5 2713.46 489.234 2714.48 488.208 2715.75 488.208ZM2747.83 488.208 2761.58 488.208C2762.85 488.208 2763.88 489.234 2763.88 490.5 2763.88 491.766 2762.85 492.792 2761.58 492.792L2747.83 492.792C2746.57 492.792 2745.54 491.766 2745.54 490.5 2745.54 489.234 2746.57 488.208 2747.83 488.208ZM2779.92 488.208 2793.67 488.208C2794.93 488.208 2795.96 489.234 2795.96 490.5 2795.96 491.766 2794.93 492.792 2793.67 492.792L2779.92 492.792C2778.65 492.792 2777.62 491.766 2777.62 490.5 2777.62 489.234 2778.65 488.208 2779.92 488.208ZM2812 488.208 2825.75 488.208C2827.02 488.208 2828.04 489.234 2828.04 490.5 2828.04 491.766 2827.02 492.792 2825.75 492.792L2812 492.792C2810.73 492.792 2809.71 491.766 2809.71 490.5 2809.71 489.234 2810.73 488.208 2812 488.208ZM2844.08 488.208 2857.83 488.208C2859.1 488.208 2860.12 489.234 2860.12 490.5 2860.12 491.766 2859.1 492.792 2857.83 492.792L2844.08 492.792C2842.82 492.792 2841.79 491.766 2841.79 490.5 2841.79 489.234 2842.82 488.208 2844.08 488.208ZM2876.17 488.208 2889.92 488.208C2891.18 488.208 2892.21 489.234 2892.21 490.5 2892.21 491.766 2891.18 492.792 2889.92 492.792L2876.17 492.792C2874.9 492.792 2873.88 491.766 2873.88 490.5 2873.88 489.234 2874.9 488.208 2876.17 488.208ZM2908.25 488.208 2922 488.208C2923.27 488.208 2924.29 489.234 2924.29 490.5 2924.29 491.766 2923.27 492.792 2922 492.792L2908.25 492.792C2906.98 492.792 2905.96 491.766 2905.96 490.5 2905.96 489.234 2906.98 488.208 2908.25 488.208ZM2940.33 488.208 2954.08 488.208C2955.35 488.208 2956.38 489.234 2956.38 490.5 2956.38 491.766 2955.35 492.792 2954.08 492.792L2940.33 492.792C2939.07 492.792 2938.04 491.766 2938.04 490.5 2938.04 489.234 2939.07 488.208 2940.33 488.208ZM2972.42 488.208 2986.17 488.208C2987.43 488.208 2988.46 489.234 2988.46 490.5 2988.46 491.766 2987.43 492.792 2986.17 492.792L2972.42 492.792C2971.15 492.792 2970.12 491.766 2970.12 490.5 2970.12 489.234 2971.15 488.208 2972.42 488.208ZM3004.5 488.208 3018.25 488.208C3019.52 488.208 3020.54 489.234 3020.54 490.5 3020.54 491.766 3019.52 492.792 3018.25 492.792L3004.5 492.792C3003.23 492.792 3002.21 491.766 3002.21 490.5 3002.21 489.234 3003.23 488.208 3004.5 488.208ZM3036.58 488.208 3050.33 488.208C3051.6 488.208 3052.62 489.234 3052.62 490.5 3052.62 491.766 3051.6 492.792 3050.33 492.792L3036.58 492.792C3035.32 492.792 3034.29 491.766 3034.29 490.5 3034.29 489.234 3035.32 488.208 3036.58 488.208ZM3068.67 488.208 3082.42 488.208C3083.68 488.208 3084.71 489.234 3084.71 490.5 3084.71 491.766 3083.68 492.792 3082.42 492.792L3068.67 492.792C3067.4 492.792 3066.38 491.766 3066.38 490.5 3066.38 489.234 3067.4 488.208 3068.67 488.208ZM3100.75 488.208 3114.5 488.208C3115.77 488.208 3116.79 489.234 3116.79 490.5 3116.79 491.766 3115.77 492.792 3114.5 492.792L3100.75 492.792C3099.48 492.792 3098.46 491.766 3098.46 490.5 3098.46 489.234 3099.48 488.208 3100.75 488.208ZM3132.83 488.208 3146.58 488.208C3147.85 488.208 3148.88 489.234 3148.88 490.5 3148.88 491.766 3147.85 492.792 3146.58 492.792L3132.83 492.792C3131.57 492.792 3130.54 491.766 3130.54 490.5 3130.54 489.234 3131.57 488.208 3132.83 488.208ZM3164.92 488.208 3178.67 488.208C3179.93 488.208 3180.96 489.234 3180.96 490.5 3180.96 491.766 3179.93 492.792 3178.67 492.792L3164.92 492.792C3163.65 492.792 3162.62 491.766 3162.62 490.5 3162.62 489.234 3163.65 488.208 3164.92 488.208ZM3197 488.208 3210.75 488.208C3212.02 488.208 3213.04 489.234 3213.04 490.5 3213.04 491.766 3212.02 492.792 3210.75 492.792L3197 492.792C3195.73 492.792 3194.71 491.766 3194.71 490.5 3194.71 489.234 3195.73 488.208 3197 488.208ZM3229.08 488.208 3242.83 488.208C3244.1 488.208 3245.12 489.234 3245.12 490.5 3245.12 491.766 3244.1 492.792 3242.83 492.792L3229.08 492.792C3227.82 492.792 3226.79 491.766 3226.79 490.5 3226.79 489.234 3227.82 488.208 3229.08 488.208ZM3261.17 488.208 3274.92 488.208C3276.18 488.208 3277.21 489.234 3277.21 490.5 3277.21 491.766 3276.18 492.792 3274.92 492.792L3261.17 492.792C3259.9 492.792 3258.88 491.766 3258.88 490.5 3258.88 489.234 3259.9 488.208 3261.17 488.208ZM3293.25 488.208 3307 488.208C3308.27 488.208 3309.29 489.234 3309.29 490.5 3309.29 491.766 3308.27 492.792 3307 492.792L3293.25 492.792C3291.98 492.792 3290.96 491.766 3290.96 490.5 3290.96 489.234 3291.98 488.208 3293.25 488.208ZM3325.33 488.208 3339.08 488.208C3340.35 488.208 3341.38 489.234 3341.38 490.5 3341.38 491.766 3340.35 492.792 3339.08 492.792L3325.33 492.792C3324.07 492.792 3323.04 491.766 3323.04 490.5 3323.04 489.234 3324.07 488.208 3325.33 488.208ZM3357.42 488.208 3371.17 488.208C3372.43 488.208 3373.46 489.234 3373.46 490.5 3373.46 491.766 3372.43 492.792 3371.17 492.792L3357.42 492.792C3356.15 492.792 3355.12 491.766 3355.12 490.5 3355.12 489.234 3356.15 488.208 3357.42 488.208ZM3389.5 488.208 3403.25 488.208C3404.52 488.208 3405.54 489.234 3405.54 490.5 3405.54 491.766 3404.52 492.792 3403.25 492.792L3389.5 492.792C3388.23 492.792 3387.21 491.766 3387.21 490.5 3387.21 489.234 3388.23 488.208 3389.5 488.208ZM3421.58 488.208 3435.33 488.208C3436.6 488.208 3437.62 489.234 3437.62 490.5 3437.62 491.766 3436.6 492.792 3435.33 492.792L3421.58 492.792C3420.32 492.792 3419.29 491.766 3419.29 490.5 3419.29 489.234 3420.32 488.208 3421.58 488.208ZM3453.67 488.208 3467.42 488.208C3468.68 488.208 3469.71 489.234 3469.71 490.5 3469.71 491.766 3468.68 492.792 3467.42 492.792L3453.67 492.792C3452.4 492.792 3451.38 491.766 3451.38 490.5 3451.38 489.234 3452.4 488.208 3453.67 488.208ZM3485.75 488.208 3499.5 488.208C3500.77 488.208 3501.79 489.234 3501.79 490.5 3501.79 491.766 3500.77 492.792 3499.5 492.792L3485.75 492.792C3484.48 492.792 3483.46 491.766 3483.46 490.5 3483.46 489.234 3484.48 488.208 3485.75 488.208ZM3517.83 488.208 3531.58 488.208C3532.85 488.208 3533.88 489.234 3533.88 490.5 3533.88 491.766 3532.85 492.792 3531.58 492.792L3517.83 492.792C3516.57 492.792 3515.54 491.766 3515.54 490.5 3515.54 489.234 3516.57 488.208 3517.83 488.208ZM3538.79 503.917 3538.79 517.667C3538.79 518.932 3537.77 519.958 3536.5 519.958 3535.23 519.958 3534.21 518.932 3534.21 517.667L3534.21 503.917C3534.21 502.651 3535.23 501.625 3536.5 501.625 3537.77 501.625 3538.79 502.651 3538.79 503.917ZM3538.79 536 3538.79 549.75C3538.79 551.016 3537.77 552.042 3536.5 552.042 3535.23 552.042 3534.21 551.016 3534.21 549.75L3534.21 536C3534.21 534.734 3535.23 533.708 3536.5 533.708 3537.77 533.708 3538.79 534.734 3538.79 536ZM3538.79 568.083 3538.79 581.833C3538.79 583.099 3537.77 584.125 3536.5 584.125 3535.23 584.125 3534.21 583.099 3534.21 581.833L3534.21 568.083C3534.21 566.818 3535.23 565.792 3536.5 565.792 3537.77 565.792 3538.79 566.818 3538.79 568.083ZM3538.79 600.167 3538.79 613.917C3538.79 615.182 3537.77 616.208 3536.5 616.208 3535.23 616.208 3534.21 615.182 3534.21 613.917L3534.21 600.167C3534.21 598.901 3535.23 597.875 3536.5 597.875 3537.77 597.875 3538.79 598.901 3538.79 600.167ZM3538.79 632.25 3538.79 646C3538.79 647.266 3537.77 648.292 3536.5 648.292 3535.23 648.292 3534.21 647.266 3534.21 646L3534.21 632.25C3534.21 630.984 3535.23 629.958 3536.5 629.958 3537.77 629.958 3538.79 630.984 3538.79 632.25ZM3538.79 664.333 3538.79 678.083C3538.79 679.349 3537.77 680.375 3536.5 680.375 3535.23 680.375 3534.21 679.349 3534.21 678.083L3534.21 664.333C3534.21 663.068 3535.23 662.042 3536.5 662.042 3537.77 662.042 3538.79 663.068 3538.79 664.333ZM3538.79 696.417 3538.79 710.167C3538.79 711.432 3537.77 712.458 3536.5 712.458 3535.23 712.458 3534.21 711.432 3534.21 710.167L3534.21 696.417C3534.21 695.151 3535.23 694.125 3536.5 694.125 3537.77 694.125 3538.79 695.151 3538.79 696.417ZM3538.79 728.5 3538.79 742.25C3538.79 743.516 3537.77 744.542 3536.5 744.542 3535.23 744.542 3534.21 743.516 3534.21 742.25L3534.21 728.5C3534.21 727.234 3535.23 726.208 3536.5 726.208 3537.77 726.208 3538.79 727.234 3538.79 728.5ZM3538.79 760.583 3538.79 774.333C3538.79 775.599 3537.77 776.625 3536.5 776.625 3535.23 776.625 3534.21 775.599 3534.21 774.333L3534.21 760.583C3534.21 759.318 3535.23 758.292 3536.5 758.292 3537.77 758.292 3538.79 759.318 3538.79 760.583ZM3538.79 792.667 3538.79 806.417C3538.79 807.682 3537.77 808.708 3536.5 808.708 3535.23 808.708 3534.21 807.682 3534.21 806.417L3534.21 792.667C3534.21 791.401 3535.23 790.375 3536.5 790.375 3537.77 790.375 3538.79 791.401 3538.79 792.667ZM3538.79 824.75 3538.79 838.5C3538.79 839.766 3537.77 840.792 3536.5 840.792 3535.23 840.792 3534.21 839.766 3534.21 838.5L3534.21 824.75C3534.21 823.484 3535.23 822.458 3536.5 822.458 3537.77 822.458 3538.79 823.484 3538.79 824.75ZM3538.79 856.833 3538.79 870.583C3538.79 871.849 3537.77 872.875 3536.5 872.875 3535.23 872.875 3534.21 871.849 3534.21 870.583L3534.21 856.833C3534.21 855.568 3535.23 854.542 3536.5 854.542 3537.77 854.542 3538.79 855.568 3538.79 856.833ZM3538.79 888.917 3538.79 902.667C3538.79 903.932 3537.77 904.958 3536.5 904.958 3535.23 904.958 3534.21 903.932 3534.21 902.667L3534.21 888.917C3534.21 887.651 3535.23 886.625 3536.5 886.625 3537.77 886.625 3538.79 887.651 3538.79 888.917ZM3538.79 921 3538.79 934.75C3538.79 936.016 3537.77 937.042 3536.5 937.042 3535.23 937.042 3534.21 936.016 3534.21 934.75L3534.21 921C3534.21 919.734 3535.23 918.708 3536.5 918.708 3537.77 918.708 3538.79 919.734 3538.79 921ZM3538.79 953.083 3538.79 966.833C3538.79 968.099 3537.77 969.125 3536.5 969.125 3535.23 969.125 3534.21 968.099 3534.21 966.833L3534.21 953.083C3534.21 951.818 3535.23 950.792 3536.5 950.792 3537.77 950.792 3538.79 951.818 3538.79 953.083ZM3538.79 985.167 3538.79 998.917C3538.79 1000.18 3537.77 1001.21 3536.5 1001.21 3535.23 1001.21 3534.21 1000.18 3534.21 998.917L3534.21 985.167C3534.21 983.901 3535.23 982.875 3536.5 982.875 3537.77 982.875 3538.79 983.901 3538.79 985.167ZM3538.79 1017.25 3538.79 1031C3538.79 1032.27 3537.77 1033.29 3536.5 1033.29 3535.23 1033.29 3534.21 1032.27 3534.21 1031L3534.21 1017.25C3534.21 1015.98 3535.23 1014.96 3536.5 1014.96 3537.77 1014.96 3538.79 1015.98 3538.79 1017.25ZM3538.79 1049.33 3538.79 1063.08C3538.79 1064.35 3537.77 1065.37 3536.5 1065.37 3535.23 1065.37 3534.21 1064.35 3534.21 1063.08L3534.21 1049.33C3534.21 1048.07 3535.23 1047.04 3536.5 1047.04 3537.77 1047.04 3538.79 1048.07 3538.79 1049.33ZM3538.79 1081.42 3538.79 1095.17C3538.79 1096.43 3537.77 1097.46 3536.5 1097.46 3535.23 1097.46 3534.21 1096.43 3534.21 1095.17L3534.21 1081.42C3534.21 1080.15 3535.23 1079.12 3536.5 1079.12 3537.77 1079.12 3538.79 1080.15 3538.79 1081.42ZM3538.79 1113.5 3538.79 1127.25C3538.79 1128.52 3537.77 1129.54 3536.5 1129.54 3535.23 1129.54 3534.21 1128.52 3534.21 1127.25L3534.21 1113.5C3534.21 1112.23 3535.23 1111.21 3536.5 1111.21 3537.77 1111.21 3538.79 1112.23 3538.79 1113.5ZM3538.79 1145.58 3538.79 1159.33C3538.79 1160.6 3537.77 1161.62 3536.5 1161.62 3535.23 1161.62 3534.21 1160.6 3534.21 1159.33L3534.21 1145.58C3534.21 1144.32 3535.23 1143.29 3536.5 1143.29 3537.77 1143.29 3538.79 1144.32 3538.79 1145.58ZM3538.79 1177.67 3538.79 1191.42C3538.79 1192.68 3537.77 1193.71 3536.5 1193.71 3535.23 1193.71 3534.21 1192.68 3534.21 1191.42L3534.21 1177.67C3534.21 1176.4 3535.23 1175.37 3536.5 1175.37 3537.77 1175.37 3538.79 1176.4 3538.79 1177.67ZM3538.79 1209.75 3538.79 1223.5C3538.79 1224.77 3537.77 1225.79 3536.5 1225.79 3535.23 1225.79 3534.21 1224.77 3534.21 1223.5L3534.21 1209.75C3534.21 1208.48 3535.23 1207.46 3536.5 1207.46 3537.77 1207.46 3538.79 1208.48 3538.79 1209.75ZM3538.79 1241.83 3538.79 1255.58C3538.79 1256.85 3537.77 1257.87 3536.5 1257.87 3535.23 1257.87 3534.21 1256.85 3534.21 1255.58L3534.21 1241.83C3534.21 1240.57 3535.23 1239.54 3536.5 1239.54 3537.77 1239.54 3538.79 1240.57 3538.79 1241.83ZM3538.79 1273.92 3538.79 1287.67C3538.79 1288.93 3537.77 1289.96 3536.5 1289.96 3535.23 1289.96 3534.21 1288.93 3534.21 1287.67L3534.21 1273.92C3534.21 1272.65 3535.23 1271.62 3536.5 1271.62 3537.77 1271.62 3538.79 1272.65 3538.79 1273.92ZM3538.79 1306 3538.79 1319.75C3538.79 1321.02 3537.77 1322.04 3536.5 1322.04 3535.23 1322.04 3534.21 1321.02 3534.21 1319.75L3534.21 1306C3534.21 1304.73 3535.23 1303.71 3536.5 1303.71 3537.77 1303.71 3538.79 1304.73 3538.79 1306ZM3538.79 1338.08 3538.79 1351.83C3538.79 1353.1 3537.77 1354.12 3536.5 1354.12 3535.23 1354.12 3534.21 1353.1 3534.21 1351.83L3534.21 1338.08C3534.21 1336.82 3535.23 1335.79 3536.5 1335.79 3537.77 1335.79 3538.79 1336.82 3538.79 1338.08ZM3538.79 1370.17 3538.79 1383.92C3538.79 1385.18 3537.77 1386.21 3536.5 1386.21 3535.23 1386.21 3534.21 1385.18 3534.21 1383.92L3534.21 1370.17C3534.21 1368.9 3535.23 1367.87 3536.5 1367.87 3537.77 1367.87 3538.79 1368.9 3538.79 1370.17ZM3538.79 1402.25 3538.79 1416C3538.79 1417.27 3537.77 1418.29 3536.5 1418.29 3535.23 1418.29 3534.21 1417.27 3534.21 1416L3534.21 1402.25C3534.21 1400.98 3535.23 1399.96 3536.5 1399.96 3537.77 1399.96 3538.79 1400.98 3538.79 1402.25ZM3538.79 1434.33 3538.79 1448.08C3538.79 1449.35 3537.77 1450.37 3536.5 1450.37 3535.23 1450.37 3534.21 1449.35 3534.21 1448.08L3534.21 1434.33C3534.21 1433.07 3535.23 1432.04 3536.5 1432.04 3537.77 1432.04 3538.79 1433.07 3538.79 1434.33ZM3538.79 1466.42 3538.79 1480.17C3538.79 1481.43 3537.77 1482.46 3536.5 1482.46 3535.23 1482.46 3534.21 1481.43 3534.21 1480.17L3534.21 1466.42C3534.21 1465.15 3535.23 1464.12 3536.5 1464.12 3537.77 1464.12 3538.79 1465.15 3538.79 1466.42ZM3538.79 1498.5 3538.79 1512.25C3538.79 1513.52 3537.77 1514.54 3536.5 1514.54 3535.23 1514.54 3534.21 1513.52 3534.21 1512.25L3534.21 1498.5C3534.21 1497.23 3535.23 1496.21 3536.5 1496.21 3537.77 1496.21 3538.79 1497.23 3538.79 1498.5ZM3538.79 1530.58 3538.79 1544.33C3538.79 1545.6 3537.77 1546.62 3536.5 1546.62 3535.23 1546.62 3534.21 1545.6 3534.21 1544.33L3534.21 1530.58C3534.21 1529.32 3535.23 1528.29 3536.5 1528.29 3537.77 1528.29 3538.79 1529.32 3538.79 1530.58ZM3538.79 1562.67 3538.79 1576.42C3538.79 1577.68 3537.77 1578.71 3536.5 1578.71 3535.23 1578.71 3534.21 1577.68 3534.21 1576.42L3534.21 1562.67C3534.21 1561.4 3535.23 1560.37 3536.5 1560.37 3537.77 1560.37 3538.79 1561.4 3538.79 1562.67ZM3538.79 1594.75 3538.79 1608.5C3538.79 1609.77 3537.77 1610.79 3536.5 1610.79 3535.23 1610.79 3534.21 1609.77 3534.21 1608.5L3534.21 1594.75C3534.21 1593.48 3535.23 1592.46 3536.5 1592.46 3537.77 1592.46 3538.79 1593.48 3538.79 1594.75ZM3538.79 1626.83 3538.79 1640.58C3538.79 1641.85 3537.77 1642.87 3536.5 1642.87 3535.23 1642.87 3534.21 1641.85 3534.21 1640.58L3534.21 1626.83C3534.21 1625.57 3535.23 1624.54 3536.5 1624.54 3537.77 1624.54 3538.79 1625.57 3538.79 1626.83ZM3538.79 1658.92 3538.79 1672.67C3538.79 1673.93 3537.77 1674.96 3536.5 1674.96 3535.23 1674.96 3534.21 1673.93 3534.21 1672.67L3534.21 1658.92C3534.21 1657.65 3535.23 1656.62 3536.5 1656.62 3537.77 1656.62 3538.79 1657.65 3538.79 1658.92ZM3538.79 1691 3538.79 1704.75C3538.79 1706.02 3537.77 1707.04 3536.5 1707.04 3535.23 1707.04 3534.21 1706.02 3534.21 1704.75L3534.21 1691C3534.21 1689.73 3535.23 1688.71 3536.5 1688.71 3537.77 1688.71 3538.79 1689.73 3538.79 1691ZM3538.79 1723.08 3538.79 1736.83C3538.79 1738.1 3537.77 1739.12 3536.5 1739.12 3535.23 1739.12 3534.21 1738.1 3534.21 1736.83L3534.21 1723.08C3534.21 1721.82 3535.23 1720.79 3536.5 1720.79 3537.77 1720.79 3538.79 1721.82 3538.79 1723.08ZM3538.79 1755.17 3538.79 1768.92C3538.79 1770.18 3537.77 1771.21 3536.5 1771.21 3535.23 1771.21 3534.21 1770.18 3534.21 1768.92L3534.21 1755.17C3534.21 1753.9 3535.23 1752.87 3536.5 1752.87 3537.77 1752.87 3538.79 1753.9 3538.79 1755.17ZM3538.79 1787.25 3538.79 1801C3538.79 1802.27 3537.77 1803.29 3536.5 1803.29 3535.23 1803.29 3534.21 1802.27 3534.21 1801L3534.21 1787.25C3534.21 1785.98 3535.23 1784.96 3536.5 1784.96 3537.77 1784.96 3538.79 1785.98 3538.79 1787.25ZM3538.79 1819.33 3538.79 1833.08C3538.79 1834.35 3537.77 1835.37 3536.5 1835.37 3535.23 1835.37 3534.21 1834.35 3534.21 1833.08L3534.21 1819.33C3534.21 1818.07 3535.23 1817.04 3536.5 1817.04 3537.77 1817.04 3538.79 1818.07 3538.79 1819.33ZM3538.79 1851.42 3538.79 1858.79 3527.83 1858.79C3526.57 1858.79 3525.54 1857.77 3525.54 1856.5 3525.54 1855.23 3526.57 1854.21 3527.83 1854.21L3536.5 1854.21 3534.21 1856.5 3534.21 1851.42C3534.21 1850.15 3535.23 1849.12 3536.5 1849.12 3537.77 1849.12 3538.79 1850.15 3538.79 1851.42ZM3509.5 1858.79 3495.75 1858.79C3494.48 1858.79 3493.46 1857.77 3493.46 1856.5 3493.46 1855.23 3494.48 1854.21 3495.75 1854.21L3509.5 1854.21C3510.77 1854.21 3511.79 1855.23 3511.79 1856.5 3511.79 1857.77 3510.77 1858.79 3509.5 1858.79ZM3477.42 1858.79 3463.67 1858.79C3462.4 1858.79 3461.38 1857.77 3461.38 1856.5 3461.38 1855.23 3462.4 1854.21 3463.67 1854.21L3477.42 1854.21C3478.68 1854.21 3479.71 1855.23 3479.71 1856.5 3479.71 1857.77 3478.68 1858.79 3477.42 1858.79ZM3445.33 1858.79 3431.58 1858.79C3430.32 1858.79 3429.29 1857.77 3429.29 1856.5 3429.29 1855.23 3430.32 1854.21 3431.58 1854.21L3445.33 1854.21C3446.6 1854.21 3447.63 1855.23 3447.63 1856.5 3447.63 1857.77 3446.6 1858.79 3445.33 1858.79ZM3413.25 1858.79 3399.5 1858.79C3398.23 1858.79 3397.21 1857.77 3397.21 1856.5 3397.21 1855.23 3398.23 1854.21 3399.5 1854.21L3413.25 1854.21C3414.52 1854.21 3415.54 1855.23 3415.54 1856.5 3415.54 1857.77 3414.52 1858.79 3413.25 1858.79ZM3381.17 1858.79 3367.42 1858.79C3366.15 1858.79 3365.13 1857.77 3365.13 1856.5 3365.13 1855.23 3366.15 1854.21 3367.42 1854.21L3381.17 1854.21C3382.43 1854.21 3383.46 1855.23 3383.46 1856.5 3383.46 1857.77 3382.43 1858.79 3381.17 1858.79ZM3349.08 1858.79 3335.33 1858.79C3334.07 1858.79 3333.04 1857.77 3333.04 1856.5 3333.04 1855.23 3334.07 1854.21 3335.33 1854.21L3349.08 1854.21C3350.35 1854.21 3351.38 1855.23 3351.38 1856.5 3351.38 1857.77 3350.35 1858.79 3349.08 1858.79ZM3317 1858.79 3303.25 1858.79C3301.98 1858.79 3300.96 1857.77 3300.96 1856.5 3300.96 1855.23 3301.98 1854.21 3303.25 1854.21L3317 1854.21C3318.27 1854.21 3319.29 1855.23 3319.29 1856.5 3319.29 1857.77 3318.27 1858.79 3317 1858.79ZM3284.92 1858.79 3271.17 1858.79C3269.9 1858.79 3268.88 1857.77 3268.88 1856.5 3268.88 1855.23 3269.9 1854.21 3271.17 1854.21L3284.92 1854.21C3286.18 1854.21 3287.21 1855.23 3287.21 1856.5 3287.21 1857.77 3286.18 1858.79 3284.92 1858.79ZM3252.83 1858.79 3239.08 1858.79C3237.82 1858.79 3236.79 1857.77 3236.79 1856.5 3236.79 1855.23 3237.82 1854.21 3239.08 1854.21L3252.83 1854.21C3254.1 1854.21 3255.13 1855.23 3255.13 1856.5 3255.13 1857.77 3254.1 1858.79 3252.83 1858.79ZM3220.75 1858.79 3207 1858.79C3205.73 1858.79 3204.71 1857.77 3204.71 1856.5 3204.71 1855.23 3205.73 1854.21 3207 1854.21L3220.75 1854.21C3222.02 1854.21 3223.04 1855.23 3223.04 1856.5 3223.04 1857.77 3222.02 1858.79 3220.75 1858.79ZM3188.67 1858.79 3174.92 1858.79C3173.65 1858.79 3172.63 1857.77 3172.63 1856.5 3172.63 1855.23 3173.65 1854.21 3174.92 1854.21L3188.67 1854.21C3189.93 1854.21 3190.96 1855.23 3190.96 1856.5 3190.96 1857.77 3189.93 1858.79 3188.67 1858.79ZM3156.58 1858.79 3142.83 1858.79C3141.57 1858.79 3140.54 1857.77 3140.54 1856.5 3140.54 1855.23 3141.57 1854.21 3142.83 1854.21L3156.58 1854.21C3157.85 1854.21 3158.88 1855.23 3158.88 1856.5 3158.88 1857.77 3157.85 1858.79 3156.58 1858.79ZM3124.5 1858.79 3110.75 1858.79C3109.48 1858.79 3108.46 1857.77 3108.46 1856.5 3108.46 1855.23 3109.48 1854.21 3110.75 1854.21L3124.5 1854.21C3125.77 1854.21 3126.79 1855.23 3126.79 1856.5 3126.79 1857.77 3125.77 1858.79 3124.5 1858.79ZM3092.42 1858.79 3078.67 1858.79C3077.4 1858.79 3076.38 1857.77 3076.38 1856.5 3076.38 1855.23 3077.4 1854.21 3078.67 1854.21L3092.42 1854.21C3093.68 1854.21 3094.71 1855.23 3094.71 1856.5 3094.71 1857.77 3093.68 1858.79 3092.42 1858.79ZM3060.33 1858.79 3046.58 1858.79C3045.32 1858.79 3044.29 1857.77 3044.29 1856.5 3044.29 1855.23 3045.32 1854.21 3046.58 1854.21L3060.33 1854.21C3061.6 1854.21 3062.63 1855.23 3062.63 1856.5 3062.63 1857.77 3061.6 1858.79 3060.33 1858.79ZM3028.25 1858.79 3014.5 1858.79C3013.23 1858.79 3012.21 1857.77 3012.21 1856.5 3012.21 1855.23 3013.23 1854.21 3014.5 1854.21L3028.25 1854.21C3029.52 1854.21 3030.54 1855.23 3030.54 1856.5 3030.54 1857.77 3029.52 1858.79 3028.25 1858.79ZM2996.17 1858.79 2982.42 1858.79C2981.15 1858.79 2980.13 1857.77 2980.13 1856.5 2980.13 1855.23 2981.15 1854.21 2982.42 1854.21L2996.17 1854.21C2997.43 1854.21 2998.46 1855.23 2998.46 1856.5 2998.46 1857.77 2997.43 1858.79 2996.17 1858.79ZM2964.08 1858.79 2950.33 1858.79C2949.07 1858.79 2948.04 1857.77 2948.04 1856.5 2948.04 1855.23 2949.07 1854.21 2950.33 1854.21L2964.08 1854.21C2965.35 1854.21 2966.38 1855.23 2966.38 1856.5 2966.38 1857.77 2965.35 1858.79 2964.08 1858.79ZM2932 1858.79 2918.25 1858.79C2916.98 1858.79 2915.96 1857.77 2915.96 1856.5 2915.96 1855.23 2916.98 1854.21 2918.25 1854.21L2932 1854.21C2933.27 1854.21 2934.29 1855.23 2934.29 1856.5 2934.29 1857.77 2933.27 1858.79 2932 1858.79ZM2899.92 1858.79 2886.17 1858.79C2884.9 1858.79 2883.88 1857.77 2883.88 1856.5 2883.88 1855.23 2884.9 1854.21 2886.17 1854.21L2899.92 1854.21C2901.18 1854.21 2902.21 1855.23 2902.21 1856.5 2902.21 1857.77 2901.18 1858.79 2899.92 1858.79ZM2867.83 1858.79 2854.08 1858.79C2852.82 1858.79 2851.79 1857.77 2851.79 1856.5 2851.79 1855.23 2852.82 1854.21 2854.08 1854.21L2867.83 1854.21C2869.1 1854.21 2870.13 1855.23 2870.13 1856.5 2870.13 1857.77 2869.1 1858.79 2867.83 1858.79ZM2835.75 1858.79 2822 1858.79C2820.73 1858.79 2819.71 1857.77 2819.71 1856.5 2819.71 1855.23 2820.73 1854.21 2822 1854.21L2835.75 1854.21C2837.02 1854.21 2838.04 1855.23 2838.04 1856.5 2838.04 1857.77 2837.02 1858.79 2835.75 1858.79ZM2803.67 1858.79 2789.92 1858.79C2788.65 1858.79 2787.63 1857.77 2787.63 1856.5 2787.63 1855.23 2788.65 1854.21 2789.92 1854.21L2803.67 1854.21C2804.93 1854.21 2805.96 1855.23 2805.96 1856.5 2805.96 1857.77 2804.93 1858.79 2803.67 1858.79ZM2771.58 1858.79 2757.83 1858.79C2756.57 1858.79 2755.54 1857.77 2755.54 1856.5 2755.54 1855.23 2756.57 1854.21 2757.83 1854.21L2771.58 1854.21C2772.85 1854.21 2773.88 1855.23 2773.88 1856.5 2773.88 1857.77 2772.85 1858.79 2771.58 1858.79ZM2739.5 1858.79 2725.75 1858.79C2724.48 1858.79 2723.46 1857.77 2723.46 1856.5 2723.46 1855.23 2724.48 1854.21 2725.75 1854.21L2739.5 1854.21C2740.77 1854.21 2741.79 1855.23 2741.79 1856.5 2741.79 1857.77 2740.77 1858.79 2739.5 1858.79ZM2707.42 1858.79 2693.67 1858.79C2692.4 1858.79 2691.38 1857.77 2691.38 1856.5 2691.38 1855.23 2692.4 1854.21 2693.67 1854.21L2707.42 1854.21C2708.68 1854.21 2709.71 1855.23 2709.71 1856.5 2709.71 1857.77 2708.68 1858.79 2707.42 1858.79ZM2675.33 1858.79 2661.58 1858.79C2660.32 1858.79 2659.29 1857.77 2659.29 1856.5 2659.29 1855.23 2660.32 1854.21 2661.58 1854.21L2675.33 1854.21C2676.6 1854.21 2677.63 1855.23 2677.63 1856.5 2677.63 1857.77 2676.6 1858.79 2675.33 1858.79ZM2643.25 1858.79 2629.5 1858.79C2628.23 1858.79 2627.21 1857.77 2627.21 1856.5 2627.21 1855.23 2628.23 1854.21 2629.5 1854.21L2643.25 1854.21C2644.52 1854.21 2645.54 1855.23 2645.54 1856.5 2645.54 1857.77 2644.52 1858.79 2643.25 1858.79ZM2611.17 1858.79 2597.42 1858.79C2596.15 1858.79 2595.13 1857.77 2595.13 1856.5 2595.13 1855.23 2596.15 1854.21 2597.42 1854.21L2611.17 1854.21C2612.43 1854.21 2613.46 1855.23 2613.46 1856.5 2613.46 1857.77 2612.43 1858.79 2611.17 1858.79ZM2579.08 1858.79 2565.33 1858.79C2564.07 1858.79 2563.04 1857.77 2563.04 1856.5 2563.04 1855.23 2564.07 1854.21 2565.33 1854.21L2579.08 1854.21C2580.35 1854.21 2581.38 1855.23 2581.38 1856.5 2581.38 1857.77 2580.35 1858.79 2579.08 1858.79ZM2547 1858.79 2533.25 1858.79C2531.98 1858.79 2530.96 1857.77 2530.96 1856.5 2530.96 1855.23 2531.98 1854.21 2533.25 1854.21L2547 1854.21C2548.27 1854.21 2549.29 1855.23 2549.29 1856.5 2549.29 1857.77 2548.27 1858.79 2547 1858.79ZM2514.92 1858.79 2501.17 1858.79C2499.9 1858.79 2498.88 1857.77 2498.88 1856.5 2498.88 1855.23 2499.9 1854.21 2501.17 1854.21L2514.92 1854.21C2516.18 1854.21 2517.21 1855.23 2517.21 1856.5 2517.21 1857.77 2516.18 1858.79 2514.92 1858.79ZM2482.83 1858.79 2469.08 1858.79C2467.82 1858.79 2466.79 1857.77 2466.79 1856.5 2466.79 1855.23 2467.82 1854.21 2469.08 1854.21L2482.83 1854.21C2484.1 1854.21 2485.13 1855.23 2485.13 1856.5 2485.13 1857.77 2484.1 1858.79 2482.83 1858.79ZM2450.75 1858.79 2437 1858.79C2435.73 1858.79 2434.71 1857.77 2434.71 1856.5 2434.71 1855.23 2435.73 1854.21 2437 1854.21L2450.75 1854.21C2452.02 1854.21 2453.04 1855.23 2453.04 1856.5 2453.04 1857.77 2452.02 1858.79 2450.75 1858.79ZM2418.67 1858.79 2404.92 1858.79C2403.65 1858.79 2402.63 1857.77 2402.63 1856.5 2402.63 1855.23 2403.65 1854.21 2404.92 1854.21L2418.67 1854.21C2419.93 1854.21 2420.96 1855.23 2420.96 1856.5 2420.96 1857.77 2419.93 1858.79 2418.67 1858.79ZM2386.58 1858.79 2372.83 1858.79C2371.57 1858.79 2370.54 1857.77 2370.54 1856.5 2370.54 1855.23 2371.57 1854.21 2372.83 1854.21L2386.58 1854.21C2387.85 1854.21 2388.88 1855.23 2388.88 1856.5 2388.88 1857.77 2387.85 1858.79 2386.58 1858.79ZM2354.5 1858.79 2340.75 1858.79C2339.48 1858.79 2338.46 1857.77 2338.46 1856.5 2338.46 1855.23 2339.48 1854.21 2340.75 1854.21L2354.5 1854.21C2355.77 1854.21 2356.79 1855.23 2356.79 1856.5 2356.79 1857.77 2355.77 1858.79 2354.5 1858.79ZM2322.42 1858.79 2308.67 1858.79C2307.4 1858.79 2306.38 1857.77 2306.38 1856.5 2306.38 1855.23 2307.4 1854.21 2308.67 1854.21L2322.42 1854.21C2323.68 1854.21 2324.71 1855.23 2324.71 1856.5 2324.71 1857.77 2323.68 1858.79 2322.42 1858.79ZM2290.33 1858.79 2280.5 1858.79C2279.23 1858.79 2278.21 1857.77 2278.21 1856.5 2278.21 1855.23 2279.23 1854.21 2280.5 1854.21L2290.33 1854.21C2291.6 1854.21 2292.63 1855.23 2292.63 1856.5 2292.63 1857.77 2291.6 1858.79 2290.33 1858.79Z" fill="#005C8A" fill-rule="nonzero" fill-opacity="1"/><text fill="#221E20" fill-opacity="1" font-family="Metropolis,Metropolis_MSFontService,sans-serif" font-style="normal" font-variant="normal" font-weight="400" font-stretch="normal" font-size="48" text-anchor="start" direction="ltr" writing-mode="lr-tb" unicode-bidi="normal" text-decoration="none" transform="matrix(1 0 0 1 2312.88 579)">VCF Fleet</text><rect x="2337.5" y="636.5" width="1155" height="1124" stroke="#005C8A" stroke-width="4.58333" stroke-linecap="round" stroke-linejoin="miter" stroke-miterlimit="8" stroke-opacity="1" fill="#FFFFFF" fill-opacity="1"/><text fill="#221E20" fill-opacity="1" font-family="Metropolis,Metropolis_MSFontService,sans-serif" font-style="normal" font-variant="normal" font-weight="400" font-stretch="normal" font-size="48" text-anchor="start" direction="ltr" writing-mode="lr-tb" unicode-bidi="normal" text-decoration="none" transform="matrix(1 0 0 1 2369.51 725)">VCF Instance</text><path d="M2337.5 1917.5 3039.19 1918.02 3344.31 1918.02 3492.5 1917.5 3491.89 2032.21 3492.5 2146.5 2337.5 2146.5 2337.5 1917.5Z" stroke="#6C4B94" stroke-width="4.58333" stroke-linecap="butt" stroke-linejoin="round" stroke-miterlimit="10" stroke-opacity="1" fill="none" fill-rule="evenodd"/><text fill="#221E20" fill-opacity="1" font-family="Metropolis,Metropolis_MSFontService,sans-serif" font-style="normal" font-variant="normal" font-weight="400" font-stretch="normal" font-size="41" text-anchor="start" direction="ltr" writing-mode="lr-tb" unicode-bidi="normal" text-decoration="none" transform="matrix(1 0 0 1 2649.11 2046)">Customer Identity Provider</text><rect x="2995.5" y="890.5" width="426" height="168" stroke="#005C8A" stroke-width="4.58333" stroke-linecap="butt" stroke-linejoin="round" stroke-miterlimit="10" stroke-opacity="1" fill="#FFFFFF" fill-opacity="1"/><text fill="#000000" fill-opacity="1" font-family="Metropolis,Metropolis_MSFontService,sans-serif" font-style="normal" font-variant="normal" font-weight="400" font-stretch="normal" font-size="41" text-anchor="start" direction="ltr" writing-mode="lr-tb" unicode-bidi="normal" text-decoration="none" transform="matrix(1 0 0 1 3072.06 988)">NSX Manager</text><rect x="3002.5" y="1539.5" width="426" height="168" stroke="#005C8A" stroke-width="4.58333" stroke-linecap="butt" stroke-linejoin="round" stroke-miterlimit="10" stroke-opacity="1" fill="none"/><text fill="#000000" fill-opacity="1" font-family="Metropolis,Metropolis_MSFontService,sans-serif" font-style="normal" font-variant="normal" font-weight="400" font-stretch="normal" font-size="41" text-anchor="start" direction="ltr" writing-mode="lr-tb" unicode-bidi="normal" text-decoration="none" transform="matrix(1 0 0 1 3170.41 1637)">HCX</text><rect x="3002.5" y="1321.5" width="426" height="168" stroke="#F3BA16" stroke-width="4.58333" stroke-linecap="butt" stroke-linejoin="round" stroke-miterlimit="10" stroke-opacity="1" fill="#FFFFFF" fill-opacity="1"/><text fill="#000000" fill-opacity="1" font-family="Metropolis,Metropolis_MSFontService,sans-serif" font-style="normal" font-variant="normal" font-weight="400" font-stretch="normal" font-size="41" text-anchor="start" direction="ltr" writing-mode="lr-tb" unicode-bidi="normal" text-decoration="none" transform="matrix(1 0 0 1 3051.81 1419)">VCF Automation</text><rect x="2999.5" y="1104.5" width="425" height="168" stroke="#61A60E" stroke-width="4.58333" stroke-linecap="butt" stroke-linejoin="round" stroke-miterlimit="10" stroke-opacity="1" fill="#FFFFFF" fill-opacity="1"/><text fill="#000000" fill-opacity="1" font-family="Metropolis,Metropolis_MSFontService,sans-serif" font-style="normal" font-variant="normal" font-weight="400" font-stretch="normal" font-size="41" text-anchor="start" direction="ltr" writing-mode="lr-tb" unicode-bidi="normal" text-decoration="none" transform="matrix(1 0 0 1 3054.06 1203)">VCF Operations</text><path d="M2599.79 1039.5 2599.79 1893.95 2595.21 1893.95 2595.21 1039.5ZM2611.25 1889.37 2597.5 1916.87 2583.75 1889.37Z" fill="#000000" fill-rule="nonzero" fill-opacity="1"/><rect x="3593.5" y="1321.5" width="425" height="168" stroke="#6C4B94" stroke-width="4.58333" stroke-linecap="butt" stroke-linejoin="round" stroke-miterlimit="10" stroke-opacity="1" fill="#FFFFFF" fill-opacity="1"/><text fill="#000000" fill-opacity="1" font-family="Metropolis,Metropolis_MSFontService,sans-serif" font-style="normal" font-variant="normal" font-weight="400" font-stretch="normal" font-size="41" text-anchor="start" direction="ltr" writing-mode="lr-tb" unicode-bidi="normal" text-decoration="none" transform="matrix(1 0 0 1 3658.39 1395)">Tenant </text><text fill="#221E20" fill-opacity="1" font-family="Metropolis,Metropolis_MSFontService,sans-serif" font-style="normal" font-variant="normal" font-weight="400" font-stretch="normal" font-size="41" text-anchor="start" direction="ltr" writing-mode="lr-tb" unicode-bidi="normal" text-decoration="none" transform="matrix(1 0 0 1 3804.48 1395)">Identity </text><text fill="#221E20" fill-opacity="1" font-family="Metropolis,Metropolis_MSFontService,sans-serif" font-style="normal" font-variant="normal" font-weight="400" font-stretch="normal" font-size="41" text-anchor="start" direction="ltr" writing-mode="lr-tb" unicode-bidi="normal" text-decoration="none" transform="matrix(1 0 0 1 3721.13 1445)">Provider</text><path d="M3428.5 1403.21 3570.86 1403.21 3570.86 1407.79 3428.5 1407.79ZM3566.28 1391.75 3593.78 1405.5 3566.28 1419.25Z" fill="#1B1D36" fill-rule="nonzero" fill-opacity="1"/><path d="M3002.82 1625.92 2899.66 1625.92C2898.39 1625.92 2897.37 1624.9 2897.37 1623.63L2897.37 973.5 2899.66 975.792 2819.42 975.792 2819.42 971.208 2899.66 971.208C2900.93 971.208 2901.95 972.234 2901.95 973.5L2901.95 1623.63 2899.66 1621.34 3002.82 1621.34ZM2824 987.25 2796.5 973.5 2824 959.75Z" fill="#000000" fill-rule="nonzero" fill-opacity="1"/><path d="M3002.82 1408.33 2899.66 1408.33C2898.39 1408.33 2897.37 1407.3 2897.37 1406.04L2897.37 973.5 2899.66 975.792 2819.42 975.792 2819.42 971.208 2899.66 971.208C2900.93 971.208 2901.95 972.234 2901.95 973.5L2901.95 1406.04 2899.66 1403.75 3002.82 1403.75ZM2824 987.25 2796.5 973.5 2824 959.75Z" fill="#000000" fill-rule="nonzero" fill-opacity="1"/><path d="M3002.82 1157.9 2899.66 1157.9C2898.4 1157.9 2897.37 1156.88 2897.37 1155.61L2897.37 973.5 2899.66 975.792 2819.42 975.792 2819.42 971.208 2899.66 971.208C2900.93 971.208 2901.95 972.234 2901.95 973.5L2901.95 1155.61 2899.66 1153.32 3002.82 1153.32ZM2824 987.25 2796.5 973.5 2824 959.75Z" fill="#000000" fill-rule="nonzero" fill-opacity="1"/><path d="M2995.86 975.926 2896.18 975.926C2894.91 975.926 2893.89 974.9 2893.89 973.634L2893.89 972.5 2896.18 974.792 2819.42 974.792 2819.42 970.208 2896.18 970.208C2897.44 970.208 2898.47 971.234 2898.47 972.5L2898.47 973.634 2896.18 971.342 2995.86 971.342ZM2824 986.25 2796.5 972.5 2824 958.75Z" fill="#000000" fill-rule="nonzero" fill-opacity="1"/><rect x="2995.5" y="673.5" width="426" height="168" stroke="#005C8A" stroke-width="4.58333" stroke-linecap="butt" stroke-linejoin="round" stroke-miterlimit="10" stroke-opacity="1" fill="#FFFFFF" fill-opacity="1"/><text fill="#000000" fill-opacity="1" font-family="Metropolis,Metropolis_MSFontService,sans-serif" font-style="normal" font-variant="normal" font-weight="400" font-stretch="normal" font-size="41" text-anchor="start" direction="ltr" writing-mode="lr-tb" unicode-bidi="normal" text-decoration="none" transform="matrix(1 0 0 1 3130.79 772)">vCenter</text><rect x="2370.5" y="889.5" width="426" height="168" stroke="#005C8A" stroke-width="4.58333" stroke-linecap="butt" stroke-linejoin="round" stroke-miterlimit="10" stroke-opacity="1" fill="#FFFFFF" fill-opacity="1"/><text fill="#000000" fill-opacity="1" font-family="Metropolis,Metropolis_MSFontService,sans-serif" font-style="normal" font-variant="normal" font-weight="400" font-stretch="normal" font-size="41" text-anchor="start" direction="ltr" writing-mode="lr-tb" unicode-bidi="normal" text-decoration="none" transform="matrix(1 0 0 1 2460.34 962)">VCF Identity </text><text fill="#000000" fill-opacity="1" font-family="Metropolis,Metropolis_MSFontService,sans-serif" font-style="normal" font-variant="normal" font-weight="400" font-stretch="normal" font-size="41" text-anchor="start" direction="ltr" writing-mode="lr-tb" unicode-bidi="normal" text-decoration="none" transform="matrix(1 0 0 1 2515.64 1012)">Broker</text><path d="M0-2.29167 96.4591-2.29167C97.7248-2.29167 98.7508-1.26565 98.7508 0L98.7508 215.251 96.4591 212.959 176.441 212.959 176.441 217.542 96.4591 217.542C95.1935 217.542 94.1675 216.516 94.1675 215.251L94.1675 0 96.4591 2.29167 0 2.29167ZM171.858 201.501 199.358 215.251 171.858 229.001Z" fill="#000000" fill-rule="nonzero" fill-opacity="1" transform="matrix(-1 1.22465e-16 1.22465e-16 1 2995.86 757.5)"/></g></g></svg>