<svg width="3954" height="1661" xmlns="http://www.w3.org/2000/svg" xmlns:xlink="http://www.w3.org/1999/xlink" xml:space="preserve" overflow="hidden"><g transform="translate(-231 -162)"><rect x="322.5" y="388.5" width="2461" height="1339" stroke="#005C8A" stroke-width="9.16667" stroke-linejoin="round" stroke-miterlimit="10" fill="#FFFFFF"/><text fill="#221E20" font-family="Arial,Arial_MSFontService,sans-serif" font-weight="400" font-size="46" transform="matrix(1 0 0 1 1462.55 450)">Project 1</text><rect x="235.5" y="166.5" width="3945" height="1652" stroke="#005C8A" stroke-width="9.16667" stroke-linecap="round" stroke-miterlimit="8" stroke-dasharray="0 36.6667" fill="none"/><text fill="#1B1D36" font-family="Arial,Arial_MSFontService,sans-serif" font-weight="400" font-size="46" transform="matrix(1 0 0 1 1905.11 228)">VCF Automation Organization</text><rect x="363.5" y="502.5" width="1392" height="1125" stroke="#FFFFFF" stroke-width="3.4375" stroke-linejoin="round" stroke-miterlimit="10" fill="#005C8A"/><rect x="478.5" y="749.5" width="380" height="651" stroke="#FFFFFF" stroke-width="9.16667" stroke-linejoin="round" stroke-miterlimit="10" fill="#FFFFFF"/><rect x="406.5" y="609.5" width="523" height="864" stroke="#FFFFFF" stroke-width="4.58333" stroke-linejoin="round" stroke-miterlimit="10" fill="none"/><text fill="#FFFFFF" font-family="Metropolis Light,Metropolis Light_MSFontService,sans-serif" font-weight="300" font-size="46" transform="matrix(1 0 0 1 525.463 669)">VKS Cluster 1</text><rect x="3154.5" y="382.5" width="974" height="1348" stroke="#005C8A" stroke-width="9.16667" stroke-linejoin="round" stroke-miterlimit="10" fill="#FFFFFF"/><text fill="#221E20" font-family="Arial,Arial_MSFontService,sans-serif" font-weight="400" font-size="46" transform="matrix(1 0 0 1 3550.69 443)">Project 2 </text><rect x="1846.5" y="499.5" width="886" height="1130" stroke="#FFFFFF" stroke-width="3.4375" stroke-linejoin="round" stroke-miterlimit="10" fill="#005C8A"/><text font-family="Metropolis Light,Metropolis Light_MSFontService,sans-serif" font-weight="300" font-size="46" transform="matrix(1 0 0 1 545.206 809)">VKS Cluster </text><text font-family="Metropolis Light,Metropolis Light_MSFontService,sans-serif" font-weight="300" font-size="46" transform="matrix(1 0 0 1 545.206 864)">Namespace</text><text fill="#FFFFFF" font-family="Metropolis Light,Metropolis Light_MSFontService,sans-serif" font-weight="300" font-size="46" transform="matrix(1 0 0 1 877.275 1580)">vSphere Namespace</text><rect x="1294.5" y="1066.5" width="161" height="102" stroke="#005C8A" stroke-width="9.16667" stroke-linejoin="round" stroke-miterlimit="10" fill="none"/><text fill="#FFFFFF" font-family="Metropolis Light,Metropolis Light_MSFontService,sans-serif" font-weight="300" font-size="46" transform="matrix(1 0 0 1 2060.6 1586)">vSphere</text><text fill="#FFFFFF" font-family="Metropolis Light,Metropolis Light_MSFontService,sans-serif" font-weight="300" font-size="46" transform="matrix(1 0 0 1 2259.97 1586)">Namespace</text><rect x="3212.5" y="499.5" width="870" height="1130" stroke="#FFFFFF" stroke-width="3.4375" stroke-linejoin="round" stroke-miterlimit="10" fill="#005C8A"/><rect x="3274.5" y="606.5" width="746" height="869" stroke="#FFFFFF" stroke-width="4.58333" stroke-linejoin="round" stroke-miterlimit="10" fill="none"/><text fill="#FFFFFF" font-family="Metropolis Light,Metropolis Light_MSFontService,sans-serif" font-weight="300" font-size="46" transform="matrix(1 0 0 1 3498.51 667)">VKS Cluster 4</text><rect x="3337.5" y="739.5" width="589" height="654" stroke="#FFFFFF" stroke-width="9.16667" stroke-linejoin="round" stroke-miterlimit="10" fill="#FFFFFF"/><text font-family="Metropolis Light,Metropolis Light_MSFontService,sans-serif" font-weight="300" font-size="46" transform="matrix(1 0 0 1 3498.74 811)">VKS Cluster </text><text font-family="Metropolis Light,Metropolis Light_MSFontService,sans-serif" font-weight="300" font-size="46" transform="matrix(1 0 0 1 3498.74 866)">Namespace</text><text fill="#FFFFFF" font-family="Metropolis Light,Metropolis Light_MSFontService,sans-serif" font-weight="300" font-size="46" transform="matrix(1 0 0 1 3434.4 1581)">vSphere Namespace</text><rect x="3432.5" y="1059.5" width="162" height="102" stroke="#005C8A" stroke-width="9.16667" stroke-linejoin="round" stroke-miterlimit="10" fill="none"/><text font-family="Arial,Arial_MSFontService,sans-serif" font-weight="400" font-size="46" transform="matrix(1 0 0 1 3472.58 1128)">Pod</text><rect x="3432.5" y="1206.5" width="162" height="102" stroke="#005C8A" stroke-width="9.16667" stroke-linejoin="round" stroke-miterlimit="10" fill="none"/><text font-family="Arial,Arial_MSFontService,sans-serif" font-weight="400" font-size="46" transform="matrix(1 0 0 1 3472.58 1274)">Pod</text><rect x="3432.5" y="913.5" width="162" height="102" stroke="#005C8A" stroke-width="9.16667" stroke-linejoin="round" stroke-miterlimit="10" fill="none"/><text font-family="Arial,Arial_MSFontService,sans-serif" font-weight="400" font-size="46" transform="matrix(1 0 0 1 3472.58 982)">Pod</text><rect x="3678.5" y="913.5" width="162" height="102" stroke="#005C8A" stroke-width="9.16667" stroke-linejoin="round" stroke-miterlimit="10" fill="none"/><text font-family="Arial,Arial_MSFontService,sans-serif" font-weight="400" font-size="46" transform="matrix(1 0 0 1 3718.61 982)">Pod</text><rect x="3678.5" y="1058.5" width="162" height="102" stroke="#005C8A" stroke-width="9.16667" stroke-linejoin="round" stroke-miterlimit="10" fill="none"/><text font-family="Arial,Arial_MSFontService,sans-serif" font-weight="400" font-size="46" transform="matrix(1 0 0 1 3718.61 1127)">Pod</text><rect x="3678.5" y="1204.5" width="162" height="102" stroke="#005C8A" stroke-width="9.16667" stroke-linejoin="round" stroke-miterlimit="10" fill="none"/><text font-family="Arial,Arial_MSFontService,sans-serif" font-weight="400" font-size="46" transform="matrix(1 0 0 1 3718.61 1272)">Pod</text><rect x="550.5" y="1070.5" width="223" height="114" stroke="#005C8A" stroke-width="9.16667" stroke-linejoin="round" stroke-miterlimit="10" fill="none"/><text font-family="Arial,Arial_MSFontService,sans-serif" font-weight="400" font-size="46" transform="matrix(1 0 0 1 620.903 1145)">Pod</text><rect x="550.5" y="1234.5" width="223" height="113" stroke="#005C8A" stroke-width="9.16667" stroke-linejoin="round" stroke-miterlimit="10" fill="none"/><text font-family="Arial,Arial_MSFontService,sans-serif" font-weight="400" font-size="46" transform="matrix(1 0 0 1 620.903 1308)">Pod</text><rect x="550.5" y="907.5" width="223" height="114" stroke="#005C8A" stroke-width="9.16667" stroke-linejoin="round" stroke-miterlimit="10" fill="none"/><text font-family="Arial,Arial_MSFontService,sans-serif" font-weight="400" font-size="46" transform="matrix(1 0 0 1 620.903 982)">Pod</text><rect x="1919.5" y="603.5" width="746" height="872" stroke="#FFFFFF" stroke-width="4.58333" stroke-linejoin="round" stroke-miterlimit="10" fill="none"/><text fill="#FFFFFF" font-family="Metropolis Light,Metropolis Light_MSFontService,sans-serif" font-weight="300" font-size="46" transform="matrix(1 0 0 1 2144.14 664)">VKS Cluster 3</text><rect x="1981.5" y="736.5" width="590" height="654" stroke="#FFFFFF" stroke-width="9.16667" stroke-linejoin="round" stroke-miterlimit="10" fill="#FFFFFF"/><text font-family="Metropolis Light,Metropolis Light_MSFontService,sans-serif" font-weight="300" font-size="46" transform="matrix(1 0 0 1 2143.5 807)">VKS Cluster </text><text font-family="Metropolis Light,Metropolis Light_MSFontService,sans-serif" font-weight="300" font-size="46" transform="matrix(1 0 0 1 2143.5 862)">Namespace</text><rect x="2077.5" y="1056.5" width="161" height="102" stroke="#005C8A" stroke-width="9.16667" stroke-linejoin="round" stroke-miterlimit="10" fill="none"/><text font-family="Arial,Arial_MSFontService,sans-serif" font-weight="400" font-size="46" transform="matrix(1 0 0 1 2117.35 1125)">Pod</text><rect x="2077.5" y="1203.5" width="161" height="101" stroke="#005C8A" stroke-width="9.16667" stroke-linejoin="round" stroke-miterlimit="10" fill="none"/><text font-family="Arial,Arial_MSFontService,sans-serif" font-weight="400" font-size="46" transform="matrix(1 0 0 1 2117.35 1271)">Pod</text><rect x="2077.5" y="910.5" width="161" height="102" stroke="#005C8A" stroke-width="9.16667" stroke-linejoin="round" stroke-miterlimit="10" fill="none"/><text font-family="Arial,Arial_MSFontService,sans-serif" font-weight="400" font-size="46" transform="matrix(1 0 0 1 2117.35 978)">Pod</text><rect x="2323.5" y="910.5" width="161" height="102" stroke="#005C8A" stroke-width="9.16667" stroke-linejoin="round" stroke-miterlimit="10" fill="none"/><text font-family="Arial,Arial_MSFontService,sans-serif" font-weight="400" font-size="46" transform="matrix(1 0 0 1 2363.37 978)">Pod</text><rect x="2323.5" y="1055.5" width="161" height="102" stroke="#005C8A" stroke-width="9.16667" stroke-linejoin="round" stroke-miterlimit="10" fill="none"/><text font-family="Arial,Arial_MSFontService,sans-serif" font-weight="400" font-size="46" transform="matrix(1 0 0 1 2363.37 1124)">Pod</text><rect x="2323.5" y="1201.5" width="161" height="102" stroke="#005C8A" stroke-width="9.16667" stroke-linejoin="round" stroke-miterlimit="10" fill="none"/><text font-family="Arial,Arial_MSFontService,sans-serif" font-weight="400" font-size="46" transform="matrix(1 0 0 1 2363.37 1269)">Pod</text><rect x="956.5" y="605.5" width="746" height="868" stroke="#FFFFFF" stroke-width="4.58333" stroke-linejoin="round" stroke-miterlimit="10" fill="none"/><text fill="#FFFFFF" font-family="Metropolis Light,Metropolis Light_MSFontService,sans-serif" font-weight="300" font-size="46" transform="matrix(1 0 0 1 1181.39 665)">VKS Cluster 2</text><rect x="1019.5" y="738.5" width="589" height="654" stroke="#FFFFFF" stroke-width="9.16667" stroke-linejoin="round" stroke-miterlimit="10" fill="#FFFFFF"/><text font-family="Metropolis Light,Metropolis Light_MSFontService,sans-serif" font-weight="300" font-size="46" transform="matrix(1 0 0 1 1181.04 809)">VKS Cluster </text><text font-family="Metropolis Light,Metropolis Light_MSFontService,sans-serif" font-weight="300" font-size="46" transform="matrix(1 0 0 1 1181.04 864)">Namespace</text><rect x="1115.5" y="1058.5" width="161" height="102" stroke="#005C8A" stroke-width="9.16667" stroke-linejoin="round" stroke-miterlimit="10" fill="none"/><text font-family="Arial,Arial_MSFontService,sans-serif" font-weight="400" font-size="46" transform="matrix(1 0 0 1 1154.89 1126)">Pod</text><rect x="1115.5" y="1204.5" width="161" height="102" stroke="#005C8A" stroke-width="9.16667" stroke-linejoin="round" stroke-miterlimit="10" fill="none"/><text font-family="Arial,Arial_MSFontService,sans-serif" font-weight="400" font-size="46" transform="matrix(1 0 0 1 1154.89 1273)">Pod</text><rect x="1115.5" y="912.5" width="161" height="102" stroke="#005C8A" stroke-width="9.16667" stroke-linejoin="round" stroke-miterlimit="10" fill="none"/><text font-family="Arial,Arial_MSFontService,sans-serif" font-weight="400" font-size="46" transform="matrix(1 0 0 1 1154.89 980)">Pod</text><rect x="1361.5" y="912.5" width="161" height="102" stroke="#005C8A" stroke-width="9.16667" stroke-linejoin="round" stroke-miterlimit="10" fill="none"/><text font-family="Arial,Arial_MSFontService,sans-serif" font-weight="400" font-size="46" transform="matrix(1 0 0 1 1400.91 980)">Pod</text><rect x="1361.5" y="1057.5" width="161" height="102" stroke="#005C8A" stroke-width="9.16667" stroke-linejoin="round" stroke-miterlimit="10" fill="none"/><text font-family="Arial,Arial_MSFontService,sans-serif" font-weight="400" font-size="46" transform="matrix(1 0 0 1 1400.91 1125)">Pod</text><rect x="1361.5" y="1202.5" width="161" height="102" stroke="#005C8A" stroke-width="9.16667" stroke-linejoin="round" stroke-miterlimit="10" fill="none"/><text font-family="Arial,Arial_MSFontService,sans-serif" font-weight="400" font-size="46" transform="matrix(1 0 0 1 1400.91 1271)">Pod</text></g></svg>