<svg width="649" height="340" xmlns="http://www.w3.org/2000/svg" xmlns:xlink="http://www.w3.org/1999/xlink" xml:space="preserve" overflow="hidden"><g transform="translate(-257 -77)"><path d="M440.909 76.4935 637.273 76.4935 637.273 413.377 440.909 413.377Z" stroke="#61A60E" stroke-width="2.38095" stroke-miterlimit="8" stroke-dasharray="2.38095 2.38095" fill="none" transform="matrix(1.00026 0 0 1 239.593 2.45455)"/><text font-family="Metropolis,Metropolis_MSFontService,sans-serif" font-weight="400" font-size="50" transform="matrix(0.259808 0 0 0.25974 698.494 96)">vSphere</text><text font-family="Metropolis,Metropolis_MSFontService,sans-serif" font-weight="400" font-size="50" transform="matrix(0.259808 0 0 0.25974 753.716 96)">Zone </text><text font-family="Metropolis,Metropolis_MSFontService,sans-serif" font-weight="400" font-size="50" transform="matrix(0.259808 0 0 0.25974 788.647 96)">(</text><text font-family="Metropolis,Metropolis_MSFontService,sans-serif" font-weight="400" font-size="50" transform="matrix(0.259808 0 0 0.25974 792.908 96)">Workload</text><text font-family="Metropolis,Metropolis_MSFontService,sans-serif" font-weight="400" font-size="50" transform="matrix(0.259808 0 0 0.25974 853.794 96)">)</text><path d="M234.416 75.7143 430.779 75.7143 430.779 412.597 234.416 412.597Z" stroke="#61A60E" stroke-width="2.38095" stroke-miterlimit="8" stroke-dasharray="2.38095 2.38095" fill="none" transform="matrix(1.00026 0 0 1 239.593 2.45455)"/><text font-family="Metropolis,Metropolis_MSFontService,sans-serif" font-weight="400" font-size="50" transform="matrix(0.259808 0 0 0.25974 492.01 95)">vSphere</text><text font-family="Metropolis,Metropolis_MSFontService,sans-serif" font-weight="400" font-size="50" transform="matrix(0.259808 0 0 0.25974 547.231 95)">Zone </text><text font-family="Metropolis,Metropolis_MSFontService,sans-serif" font-weight="400" font-size="50" transform="matrix(0.259808 0 0 0.25974 582.163 95)">(</text><text font-family="Metropolis,Metropolis_MSFontService,sans-serif" font-weight="400" font-size="50" transform="matrix(0.259808 0 0 0.25974 586.423 95)">Workload</text><text font-family="Metropolis,Metropolis_MSFontService,sans-serif" font-weight="400" font-size="50" transform="matrix(0.259808 0 0 0.25974 647.309 95)">)</text><path d="M28.1818 76.4935 224.286 76.4935 224.286 413.377 28.1818 413.377Z" stroke="#61A60E" stroke-width="2.38095" stroke-miterlimit="8" stroke-dasharray="2.38095 2.38095" fill="none" transform="matrix(1.00026 0 0 1 239.593 2.45455)"/><text font-family="Metropolis,Metropolis_MSFontService,sans-serif" font-weight="400" font-size="50" transform="matrix(0.259808 0 0 0.25974 285.525 96)">vSphere</text><text font-family="Metropolis,Metropolis_MSFontService,sans-serif" font-weight="400" font-size="50" transform="matrix(0.259808 0 0 0.25974 340.748 96)">Zone </text><text font-family="Metropolis,Metropolis_MSFontService,sans-serif" font-weight="400" font-size="50" transform="matrix(0.259808 0 0 0.25974 375.679 96)">(</text><text font-family="Metropolis,Metropolis_MSFontService,sans-serif" font-weight="400" font-size="50" transform="matrix(0.259808 0 0 0.25974 379.94 96)">Workload</text><text font-family="Metropolis,Metropolis_MSFontService,sans-serif" font-weight="400" font-size="50" transform="matrix(0.259808 0 0 0.25974 440.826 96)">)</text><path d="M18.8013 105.824 644.777 105.824 644.777 389.2 18.8013 389.2Z" stroke="#0098C7" stroke-width="2.38095" stroke-miterlimit="8" fill="#FFFFFF" fill-rule="evenodd" transform="matrix(1.00026 0 0 1 239.593 2.45455)"/><text font-family="Metropolis,Metropolis_MSFontService,sans-serif" font-weight="400" font-size="50" transform="matrix(0.259808 0 0 0.25974 507.026 125)">vSphere Namespace</text><path d="M28.1665 131.544 350.244 131.544 350.244 335.179 28.1665 335.179Z" stroke="#0098C7" stroke-width="2.38095" stroke-miterlimit="8" fill="#FFFFFF" fill-rule="evenodd" transform="matrix(1.00026 0 0 1 239.593 2.45455)"/><text fill="#1B1D36" font-family="Metropolis,Metropolis_MSFontService,sans-serif" font-weight="400" font-size="50" transform="matrix(0.259808 0 0 0.25974 420.743 313)">VKS Cluster</text><path d="M359.343 131.544 508.694 131.544 508.694 335.179 359.343 335.179Z" stroke="#61A60E" stroke-width="2.38095" stroke-miterlimit="8" fill="none" fill-rule="evenodd" transform="matrix(1.00026 0 0 1 239.593 2.45455)"/><text fill="#1B1D36" font-family="Metropolis,Metropolis_MSFontService,sans-serif" font-weight="400" font-size="50" transform="matrix(0.259808 0 0 0.25974 660.775 308)">vSphere</text><text fill="#1B1D36" font-family="Metropolis,Metropolis_MSFontService,sans-serif" font-weight="400" font-size="50" transform="matrix(0.259808 0 0 0.25974 716 308)">Po</text><text fill="#1B1D36" font-family="Metropolis,Metropolis_MSFontService,sans-serif" font-weight="400" font-size="50" transform="matrix(0.259808 0 0 0.25974 732.968 308)">d</text><path d="M197.525 141.938 341.94 141.938 341.94 280.639 197.525 280.639Z" stroke="#0098C7" stroke-width="2.38095" stroke-miterlimit="8" stroke-dasharray="2.38095 2.38095" fill="none" fill-rule="evenodd" transform="matrix(1.00026 0 0 1 239.593 2.45455)"/><text font-family="Metropolis,Metropolis_MSFontService,sans-serif" font-weight="400" font-size="50" transform="matrix(0.259808 0 0 0.25974 472.47 275)">Namespace</text><path d="M204.932 149.347 265.192 149.347 265.192 200.776 204.932 200.776Z" fill="#0098C7" fill-rule="evenodd" transform="matrix(1.00026 0 0 1 239.593 2.45455)"/><text fill="#FFFFFF" font-family="Metropolis,Metropolis_MSFontService,sans-serif" font-weight="400" font-size="50" transform="matrix(0.259808 0 0 0.25974 462.071 182)">Po</text><text fill="#FFFFFF" font-family="Metropolis,Metropolis_MSFontService,sans-serif" font-weight="400" font-size="50" transform="matrix(0.259808 0 0 0.25974 479.04 182)">d</text><path d="M274.283 149.347 334.803 149.347 334.803 200.776 274.283 200.776Z" fill="#0098C7" fill-rule="evenodd" transform="matrix(1.00026 0 0 1 239.593 2.45455)"/><text fill="#FFFFFF" font-family="Metropolis,Metropolis_MSFontService,sans-serif" font-weight="400" font-size="50" transform="matrix(0.259808 0 0 0.25974 531.674 182)">Po</text><text fill="#FFFFFF" font-family="Metropolis,Metropolis_MSFontService,sans-serif" font-weight="400" font-size="50" transform="matrix(0.259808 0 0 0.25974 548.642 182)">d</text><path d="M204.932 208.048 265.192 208.048 265.192 259.217 204.932 259.217Z" fill="#0098C7" fill-rule="evenodd" transform="matrix(1.00026 0 0 1 239.593 2.45455)"/><text fill="#FFFFFF" font-family="Metropolis,Metropolis_MSFontService,sans-serif" font-weight="400" font-size="50" transform="matrix(0.259808 0 0 0.25974 462.071 241)">Po</text><text fill="#FFFFFF" font-family="Metropolis,Metropolis_MSFontService,sans-serif" font-weight="400" font-size="50" transform="matrix(0.259808 0 0 0.25974 479.04 241)">d</text><path d="M274.283 208.048 334.803 208.048 334.803 259.217 274.283 259.217Z" fill="#0098C7" fill-rule="evenodd" transform="matrix(1.00026 0 0 1 239.593 2.45455)"/><text fill="#FFFFFF" font-family="Metropolis,Metropolis_MSFontService,sans-serif" font-weight="400" font-size="50" transform="matrix(0.259808 0 0 0.25974 531.674 241)">Po</text><text fill="#FFFFFF" font-family="Metropolis,Metropolis_MSFontService,sans-serif" font-weight="400" font-size="50" transform="matrix(0.259808 0 0 0.25974 548.642 241)">d</text><path d="M38.3047 141.938 184.798 141.938 184.798 280.639 38.3047 280.639Z" stroke="#0098C7" stroke-width="2.38095" stroke-miterlimit="8" stroke-dasharray="2.38095 2.38095" fill="none" fill-rule="evenodd" transform="matrix(1.00026 0 0 1 239.593 2.45455)"/><text font-family="Metropolis,Metropolis_MSFontService,sans-serif" font-weight="400" font-size="50" transform="matrix(0.259808 0 0 0.25974 314.262 275)">Namespace</text><path d="M47.0101 149.347 107.53 149.347 107.53 200.776 47.0101 200.776Z" fill="#0098C7" fill-rule="evenodd" transform="matrix(1.00026 0 0 1 239.593 2.45455)"/><text fill="#FFFFFF" font-family="Metropolis,Metropolis_MSFontService,sans-serif" font-weight="400" font-size="50" transform="matrix(0.259808 0 0 0.25974 304.126 182)">Po</text><text fill="#FFFFFF" font-family="Metropolis,Metropolis_MSFontService,sans-serif" font-weight="400" font-size="50" transform="matrix(0.259808 0 0 0.25974 321.095 182)">d</text><path d="M115.841 149.347 176.361 149.347 176.361 200.776 115.841 200.776Z" fill="#0098C7" fill-rule="evenodd" transform="matrix(1.00026 0 0 1 239.593 2.45455)"/><text fill="#FFFFFF" font-family="Metropolis,Metropolis_MSFontService,sans-serif" font-weight="400" font-size="50" transform="matrix(0.259808 0 0 0.25974 373.134 182)">Po</text><text fill="#FFFFFF" font-family="Metropolis,Metropolis_MSFontService,sans-serif" font-weight="400" font-size="50" transform="matrix(0.259808 0 0 0.25974 390.103 182)">d</text><path d="M47.0101 208.048 107.53 208.048 107.53 259.217 47.0101 259.217Z" fill="#0098C7" fill-rule="evenodd" transform="matrix(1.00026 0 0 1 239.593 2.45455)"/><text fill="#FFFFFF" font-family="Metropolis,Metropolis_MSFontService,sans-serif" font-weight="400" font-size="50" transform="matrix(0.259808 0 0 0.25974 304.126 241)">Po</text><text fill="#FFFFFF" font-family="Metropolis,Metropolis_MSFontService,sans-serif" font-weight="400" font-size="50" transform="matrix(0.259808 0 0 0.25974 321.095 241)">d</text><path d="M115.841 208.048 176.361 208.048 176.361 259.217 115.841 259.217Z" fill="#0098C7" fill-rule="evenodd" transform="matrix(1.00026 0 0 1 239.593 2.45455)"/><text fill="#FFFFFF" font-family="Metropolis,Metropolis_MSFontService,sans-serif" font-weight="400" font-size="50" transform="matrix(0.259808 0 0 0.25974 373.134 241)">Po</text><text fill="#FFFFFF" font-family="Metropolis,Metropolis_MSFontService,sans-serif" font-weight="400" font-size="50" transform="matrix(0.259808 0 0 0.25974 390.103 241)">d</text><path d="M369.608 149.607 430.127 149.607 430.127 201.035 369.608 201.035Z" fill="#61A60E" fill-rule="evenodd" transform="matrix(1.00026 0 0 1 239.593 2.45455)"/><text fill="#FFFFFF" font-family="Metropolis,Metropolis_MSFontService,sans-serif" font-weight="400" font-size="50" transform="matrix(0.259808 0 0 0.25974 626.935 182)">Po</text><text fill="#FFFFFF" font-family="Metropolis,Metropolis_MSFontService,sans-serif" font-weight="400" font-size="50" transform="matrix(0.259808 0 0 0.25974 643.903 182)">d</text><path d="M439.218 149.607 499.738 149.607 499.738 201.035 439.218 201.035Z" fill="#61A60E" fill-rule="evenodd" transform="matrix(1.00026 0 0 1 239.593 2.45455)"/><text fill="#FFFFFF" font-family="Metropolis,Metropolis_MSFontService,sans-serif" font-weight="400" font-size="50" transform="matrix(0.259808 0 0 0.25974 696.54 182)">Po</text><text fill="#FFFFFF" font-family="Metropolis,Metropolis_MSFontService,sans-serif" font-weight="400" font-size="50" transform="matrix(0.259808 0 0 0.25974 713.508 182)">d</text><path d="M369.608 208.308 430.127 208.308 430.127 259.737 369.608 259.737Z" fill="#61A60E" fill-rule="evenodd" transform="matrix(1.00026 0 0 1 239.593 2.45455)"/><text fill="#FFFFFF" font-family="Metropolis,Metropolis_MSFontService,sans-serif" font-weight="400" font-size="50" transform="matrix(0.259808 0 0 0.25974 626.935 241)">Po</text><text fill="#FFFFFF" font-family="Metropolis,Metropolis_MSFontService,sans-serif" font-weight="400" font-size="50" transform="matrix(0.259808 0 0 0.25974 643.903 241)">d</text><path d="M439.218 208.308 499.738 208.308 499.738 259.737 439.218 259.737Z" fill="#61A60E" fill-rule="evenodd" transform="matrix(1.00026 0 0 1 239.593 2.45455)"/><text fill="#FFFFFF" font-family="Metropolis,Metropolis_MSFontService,sans-serif" font-weight="400" font-size="50" transform="matrix(0.259808 0 0 0.25974 696.54 241)">Po</text><text fill="#FFFFFF" font-family="Metropolis,Metropolis_MSFontService,sans-serif" font-weight="400" font-size="50" transform="matrix(0.259808 0 0 0.25974 713.508 241)">d</text><path d="M398.722 288.904C398.836 289.278 399 289.834 399.223 290.66L399.364 291.171 399.847 291.384C399.966 291.436 400.242 291.548 401.236 291.909 401.831 292.125 402.096 292.286 402.2 292.364L402.626 292.675 403.132 292.543C403.605 292.416 404.112 292.182 404.657 291.839 404.875 291.709 405.049 291.608 405.192 291.53 405.421 291.714 405.712 291.977 406.07 292.348 406.4 292.673 406.688 292.951 406.935 293.182 406.564 293.821 406.262 294.304 406.039 294.621L405.701 295.096 405.901 295.644C406.229 296.551 406.478 297.231 406.649 297.686 406.964 298.522 407.174 299.075 407.958 299.075L408.057 299.075C408.332 299.117 408.657 299.192 409.036 299.301 409.223 299.353 409.392 299.4 409.545 299.442L409.545 301.735C409.408 301.774 409.257 301.816 409.094 301.862 408.636 301.99 408.249 302.075 407.945 302.114L407.439 302.182 407.161 302.613C407.039 302.805 406.847 303.151 406.46 304.138 406.223 304.769 406.057 304.956 406.026 304.987L405.387 305.631 405.888 306.39C405.969 306.514 406.19 306.878 406.545 307.478 406.634 307.631 406.722 307.771 406.805 307.906 406.475 308.242 405.943 308.769 405.081 309.59 404.53 309.306 403.987 308.99 403.457 308.642L402.896 308.273 402.314 308.6C401.522 309.047 400.779 309.332 400.099 309.452L399.621 309.538 399.361 309.948C399.117 310.33 398.914 310.875 398.735 311.618 398.686 311.826 398.642 311.995 398.603 312.135L396.07 312.135C396.036 312.013 396 311.87 395.961 311.704 395.795 311.023 395.662 310.564 395.543 310.26L395.371 309.826 394.945 309.647C393.122 308.875 392.647 308.665 392.522 308.605L392.143 308.361 391.662 308.504C391.21 308.639 390.719 308.865 390.148 309.2 389.956 309.314 389.797 309.408 389.665 309.481 389.343 309.197 388.81 308.707 387.932 307.86 388.104 307.545 388.379 307.07 388.813 306.351L389.086 305.901 388.912 305.405C388.865 305.265 388.756 305.003 388.299 304.034 388.106 303.61 387.987 303.236 387.94 302.927L387.816 302.094 386.984 301.99C386.665 301.948 386.249 301.862 385.771 301.738 385.584 301.683 385.413 301.636 385.26 301.597L385.26 299.301C385.397 299.262 385.548 299.221 385.714 299.174 386.171 299.047 386.558 298.964 386.862 298.922L387.4 298.852 387.673 298.379C387.764 298.221 387.935 297.901 388.343 296.969 388.608 296.361 388.787 296.062 388.891 295.919L389.309 295.343 388.964 294.719C388.558 293.992 388.252 293.483 388.016 293.117 388.351 292.779 388.883 292.255 389.743 291.444 390.416 291.784 390.948 292.094 391.33 292.366L391.829 292.727 392.397 292.491C394.14 291.758 394.626 291.621 394.738 291.597L395.46 291.564 395.696 290.831C395.748 290.67 395.881 290.2 396.099 289.416 396.148 289.231 396.197 289.06 396.244 288.901L398.722 288.901M399.509 287.792 395.426 287.792C395.314 288.135 395.184 288.579 395.034 289.122 394.826 289.881 394.696 290.338 394.644 290.491 394.384 290.504 393.493 290.829 391.971 291.468 391.416 291.065 390.605 290.616 389.54 290.117 387.821 291.727 386.836 292.704 386.59 293.047 386.886 293.366 387.356 294.107 388 295.265 387.803 295.54 387.579 295.958 387.33 296.527 387.047 297.177 386.842 297.61 386.719 297.823 386.358 297.87 385.927 297.966 385.418 298.106 384.787 298.286 384.366 298.397 384.156 298.444L384.156 302.473C384.405 302.519 384.844 302.634 385.475 302.81 386.018 302.953 386.478 303.047 386.849 303.094 386.912 303.509 387.06 303.977 387.293 304.496 387.629 305.205 387.821 305.631 387.87 305.774 387.091 307.065 386.662 307.839 386.59 308.099 388.197 309.673 389.182 310.574 389.54 310.797 389.764 310.704 390.153 310.491 390.709 310.158 391.192 309.875 391.613 309.681 391.974 309.571 392.047 309.621 392.896 309.987 394.517 310.673 394.616 310.922 394.74 311.356 394.888 311.969 395.023 312.548 395.161 312.977 395.296 313.247L399.382 313.247C399.504 313.01 399.647 312.553 399.808 311.881 399.956 311.265 400.117 310.821 400.291 310.548 401.096 310.408 401.951 310.081 402.855 309.571 403.644 310.094 404.455 310.543 405.286 310.922 406.992 309.312 407.971 308.335 408.218 307.992 408.008 307.732 407.766 307.371 407.493 306.909 407.122 306.283 406.894 305.904 406.808 305.774 407.042 305.538 407.27 305.122 407.493 304.53 407.753 303.868 407.953 303.429 408.088 303.218 408.447 303.169 408.881 303.075 409.387 302.932 410.018 302.756 410.439 302.644 410.649 302.597L410.649 298.566C410.403 298.52 409.964 298.408 409.332 298.229 408.8 298.075 408.34 297.982 407.958 297.945 407.958 297.958 407.958 297.966 407.956 297.966 407.927 297.966 407.587 297.065 406.938 295.265 407.27 294.792 407.74 294.016 408.348 292.94 408.036 292.704 407.538 292.242 406.844 291.556 406.249 290.94 405.73 290.501 405.283 290.242 405.049 290.335 404.652 290.548 404.096 290.881 403.626 291.177 403.21 291.371 402.852 291.468 402.579 291.265 402.164 291.065 401.608 290.862 400.891 290.603 400.452 290.436 400.291 290.366 399.917 289.005 399.657 288.148 399.509 287.792L399.509 287.792Z" fill="#FFFFFF" fill-rule="evenodd" transform="matrix(1.00026 0 0 1 239.593 2.45455)"/><path d="M397.714 308.831 397.655 307.714C401.553 307.501 404.556 304.101 404.345 300.138 404.135 296.171 400.79 293.122 396.891 293.335 392.99 293.551 389.99 296.948 390.2 300.914L389.104 300.974C388.86 296.395 392.327 292.468 396.831 292.221 401.338 291.971 405.2 295.499 405.442 300.078 405.686 304.657 402.218 308.584 397.714 308.831Z" fill="#FFFFFF" fill-rule="evenodd" transform="matrix(1.00026 0 0 1 239.593 2.45455)"/><path d="M393.766 308.345 394.026 308.831 393.831 308.312C393.831 308.312 393.831 308.312 393.766 308.312Z" fill-rule="evenodd" transform="matrix(1.00026 0 0 1 239.593 2.45455)"/><path d="M388.657 295.79C388.657 295.79 388.868 295.886 388.958 295.823 389.049 295.79 389.109 295.696 389.109 295.569 389.169 294.517 389.231 293.434 389.291 292.384L389.351 291.429C387.842 291.748 386.571 292.416 385.455 293.403 385.938 293.753 386.421 294.135 386.904 294.486 387.478 294.93 388.083 295.345 388.657 295.79Z" fill-rule="evenodd" transform="matrix(1.00026 0 0 1 239.593 2.45455)"/><path d="M394.834 302.919C394.834 302.919 394.704 303.044 394.704 303.166L394.286 303.478 394.738 303.291 395.125 304.19C395.543 305.122 395.93 306.083 396.351 307.013 397.639 306.083 398.577 304.935 399.221 303.54L395.091 302.857C395.091 302.857 394.899 302.888 394.834 302.919Z" fill-rule="evenodd" transform="matrix(1.00026 0 0 1 239.593 2.45455)"/><path d="M387.003 302.857 385.977 303.044C385.013 303.2 384.081 303.39 383.117 303.545 383.719 304.951 384.623 306.107 385.797 307.013 386.127 306.2 386.429 305.418 386.73 304.639L387.182 303.483C387.182 303.483 387.242 303.294 387.273 303.231 387.273 303.169 387.273 303.075 387.213 303.013 387.153 302.951 387.091 302.919 387.003 302.888Z" fill-rule="evenodd" transform="matrix(1.00026 0 0 1 239.593 2.45455)"/><path d="M392.4 306.852C392.057 306.2 391.712 305.519 391.338 304.87 391.273 304.74 391.148 304.706 391.055 304.675 390.961 304.675 390.836 304.74 390.774 304.87L389.958 306.395C389.582 307.112 389.208 307.792 388.831 308.507 389.582 308.701 390.304 308.8 391.055 308.831 391.774 308.831 392.527 308.735 393.247 308.54 393.153 308.345 393.06 308.182 392.964 308.021L392.369 306.883Z" fill-rule="evenodd" transform="matrix(1.00026 0 0 1 239.593 2.45455)"/><path d="M399.221 303.117 399.74 303.377 399.221 303.117 399.221 303.117Z" fill-rule="evenodd" transform="matrix(1.00026 0 0 1 239.593 2.45455)"/><path d="M386.431 298.925C386.431 298.925 386.431 298.704 386.242 298.512 385.27 297.623 384.296 296.732 383.325 295.844 382.758 296.956 382.447 298.099 382.351 299.306 382.351 299.592 382.319 299.943 382.351 300.26L383.01 300.07C384.047 299.751 385.112 299.465 386.148 299.148 386.431 299.052 386.462 298.958 386.493 298.893Z" fill-rule="evenodd" transform="matrix(1.00026 0 0 1 239.593 2.45455)"/><path d="M393.119 295.571C393.119 295.571 393.317 295.634 393.545 295.481 394.657 294.756 395.771 294.031 396.883 293.304 395.608 292.335 394.234 291.701 392.727 291.429L392.956 295.21C392.956 295.481 393.055 295.512 393.119 295.543Z" fill-rule="evenodd" transform="matrix(1.00026 0 0 1 239.593 2.45455)"/><path d="M405.013 302.79C404.662 302.758 404.312 302.727 403.992 302.662 403.545 302.597 403.034 302.535 402.717 302.057 402.525 302.023 402.397 301.927 402.332 301.834 402.143 301.61 402.174 301.353 402.205 301.226 402.27 300.59 402.301 299.982 402.27 299.377 402.174 297.429 401.566 295.61 400.545 293.951 400.483 293.855 400.356 293.634 400.418 293.345 400.449 293.187 400.545 293.057 400.673 292.964 400.706 292.675 400.865 292.421 401.12 292.197 401.535 291.847 402.013 291.527 402.652 291.177 402.906 291.047 403.13 290.919 403.291 290.73 403.514 290.538 403.514 290.377 403.481 290.283 403.481 290.122 403.353 290.026 403.291 289.995 403.164 289.932 402.971 289.964 402.813 290.06 402.59 290.187 402.397 290.41 402.205 290.6 401.823 291.047 401.408 291.462 400.961 291.813 400.834 291.909 400.514 292.197 400.036 292.132 399.909 292.26 399.748 292.325 399.59 292.293 399.301 292.293 399.112 292.101 399.016 292.005 397.771 290.761 396.304 289.868 394.644 289.294 393.909 289.039 393.143 288.878 392.249 288.751 392.156 288.751 391.932 288.751 391.771 288.558L391.644 288.4 391.644 288.112C391.421 287.857 391.325 287.634 391.325 287.379L391.325 287.252C391.325 286.964 391.325 286.709 391.356 286.421 391.421 286.039 391.452 285.688 391.517 285.304L391.517 284.922C391.517 284.922 391.548 284.634 391.548 284.634 391.548 284.379 391.356 284.187 391.166 284.156 390.943 284.156 390.751 284.314 390.719 284.571 390.719 284.761 390.719 284.984 390.751 285.304 390.847 285.912 390.943 286.548 390.943 287.218 390.943 287.379 390.943 287.73 390.655 288.016 390.655 288.239 390.592 288.4 390.496 288.527 390.4 288.655 390.242 288.719 390.018 288.751L389.795 288.751C387.273 289.101 385.039 290.153 383.252 291.974 383.156 292.07 382.966 292.325 382.647 292.26 382.519 292.26 382.358 292.197 382.231 292.132 381.816 292.164 381.53 291.94 381.403 291.878 380.956 291.527 380.54 291.143 380.094 290.634 379.87 290.377 379.678 290.187 379.455 290.026 379.231 289.899 378.977 289.932 378.849 290.091 378.722 290.249 378.753 290.506 378.945 290.696 379.138 290.888 379.361 291.016 379.616 291.143 380.125 291.431 380.605 291.717 381.018 292.07 381.21 292.229 381.53 292.483 381.592 292.93 381.722 293.026 381.784 293.153 381.816 293.281 381.881 293.569 381.753 293.823 381.657 293.951 380.286 296.184 379.743 298.61 380.062 301.164 380.125 301.769 379.743 301.961 379.551 301.992 379.327 302.343 378.977 302.439 378.722 302.504 378.114 302.631 377.478 302.694 376.87 302.727 376.584 302.727 376.361 302.79 376.138 302.855 375.914 302.951 375.818 303.174 375.849 303.332 375.883 303.525 376.107 303.714 376.33 303.652 376.584 303.652 376.839 303.556 377.127 303.429 377.732 303.174 378.275 302.982 378.784 302.855 379.042 302.79 379.361 302.694 379.678 302.886 379.774 302.951 379.808 302.951 379.808 302.951L379.997 302.886 380.286 302.982C380.509 303.109 380.571 303.301 380.605 303.397 381.499 305.917 383.062 307.896 385.327 309.299 385.74 309.553 385.74 309.938 385.582 310.223 385.74 310.639 385.582 310.99 385.486 311.117 385.231 311.629 384.943 312.138 384.496 312.745 384.306 313 384.21 313.192 384.145 313.384 384.049 313.639 384.145 313.893 384.338 313.99 384.53 314.086 384.784 313.99 384.912 313.735 385.008 313.574 385.104 313.351 385.166 313.096 385.358 312.457 385.551 311.883 385.805 311.374 385.87 311.213 386.06 310.831 386.507 310.67 386.603 310.447 386.891 310.13 387.465 310.319 389.888 311.182 392.345 311.182 394.834 310.353 395.026 310.288 395.281 310.192 395.569 310.353 395.696 310.416 395.792 310.512 395.857 310.67 396.143 310.766 396.335 310.958 396.493 311.278 396.813 311.914 397.005 312.584 397.164 313.127 397.26 313.447 397.356 313.67 397.514 313.831 397.675 313.99 397.865 314.021 398.026 313.925 398.184 313.831 398.249 313.608 398.184 313.416 398.122 313.161 397.961 312.938 397.803 312.714 397.452 312.203 397.132 311.725 396.878 311.247 396.782 311.055 396.558 310.67 396.717 310.192 396.59 309.906 396.621 309.553 397.036 309.299 398.153 308.629 399.143 307.735 399.971 306.683 400.738 305.694 401.343 304.608 401.727 303.429 401.886 302.917 402.301 302.821 402.621 302.917 402.748 302.758 403.068 302.694 403.387 302.758 403.769 302.855 404.151 302.951 404.504 303.078 404.758 303.174 404.917 303.236 405.078 303.301 405.364 303.429 405.621 303.525 405.906 303.556 406.195 303.621 406.322 303.491 406.418 303.364 406.512 303.236 406.512 303.14 406.449 303.013 406.353 302.821 406.226 302.727 406.003 302.694 405.683 302.662 405.364 302.631 405.044 302.597ZM392.026 290.442C392.249 290.249 392.538 290.283 392.857 290.345L392.857 290.345C394.644 290.665 396.304 291.493 397.707 292.771 397.803 292.868 398.026 293.057 397.995 293.345 397.995 293.634 397.738 293.823 397.642 293.888 396.462 294.717 395.314 295.548 394.132 296.377 393.847 296.569 393.558 296.665 393.27 296.665 393.081 296.665 392.919 296.631 392.73 296.535 392.283 296.345 392.026 295.93 391.995 295.356L391.771 291.304C391.771 290.919 391.771 290.634 391.995 290.442ZM392.218 297.813 393.527 299.473 393.081 301.545 391.166 302.47 389.252 301.545 388.771 299.473 390.081 297.813 392.218 297.813ZM384.434 292.834 384.784 293.187 384.465 292.834C385.836 291.558 387.465 290.761 389.283 290.41 389.41 290.41 389.507 290.377 389.571 290.345 389.826 290.314 390.049 290.283 390.273 290.473 390.496 290.665 390.462 290.919 390.462 291.143L390.4 292.325C390.335 293.377 390.273 294.462 390.208 295.514 390.208 295.995 389.922 296.377 389.507 296.569 389.348 296.665 389.156 296.696 388.964 296.696 388.709 296.696 388.455 296.6 388.231 296.473 387.623 296.026 386.984 295.61 386.379 295.164 385.774 294.717 385.135 294.301 384.53 293.855 384.338 293.727 384.242 293.569 384.21 293.377 384.21 293.091 384.369 292.93 384.465 292.868ZM381.434 301.003C381.307 300.366 381.338 299.758 381.369 299.249 381.465 297.748 381.912 296.345 382.647 295.068 382.709 294.971 382.839 294.717 383.125 294.686 383.413 294.655 383.603 294.813 383.699 294.878 384.784 295.865 385.87 296.823 386.953 297.779 387.4 298.164 387.561 298.61 387.431 299.119 387.273 299.855 386.634 300.013 386.41 300.078 385.358 300.366 384.306 300.683 383.221 301.003L381.53 301.48 381.434 300.971ZM386.668 307.673C386.668 307.673 386.507 308.055 386.221 308.151 386.156 308.151 386.094 308.151 386.06 308.151 385.836 308.151 385.678 308.023 385.582 307.958 383.987 306.842 382.774 305.343 382.039 303.525 381.977 303.397 381.881 303.14 382.039 302.917 382.135 302.758 382.296 302.631 382.551 302.597 383.668 302.408 384.816 302.216 385.932 302.023L387.177 301.834C387.561 301.8 387.912 301.992 388.166 302.281 388.421 302.566 388.517 302.951 388.455 303.332L388.455 303.332C388.455 303.332 388.358 303.621 388.325 303.779L387.847 304.958C387.465 305.852 387.114 306.745 386.73 307.673ZM394.483 308.917C394.356 309.203 394.07 309.299 393.974 309.33 393.016 309.587 392.091 309.745 391.132 309.745 390.145 309.745 389.187 309.587 388.231 309.299 388.135 309.299 387.878 309.203 387.751 308.917 387.655 308.66 387.751 308.405 387.816 308.309 388.262 307.512 388.678 306.745 389.125 305.948L389.953 304.449C390.208 304.003 390.623 303.748 391.07 303.748L391.07 303.748C391.517 303.748 391.932 304.003 392.187 304.449 392.569 305.088 392.919 305.758 393.27 306.395L393.878 307.512C394.005 307.769 394.164 308.023 394.294 308.278 394.356 308.374 394.517 308.629 394.387 308.917ZM400.26 303.491C399.525 305.374 398.281 306.906 396.655 308.055 396.59 308.086 396.431 308.213 396.239 308.213 396.174 308.213 396.143 308.213 396.081 308.213 395.792 308.119 395.696 307.862 395.665 307.8 395.218 306.714 394.771 305.629 394.325 304.545L393.94 303.621C393.94 303.621 393.813 303.268 393.847 303.044 393.847 302.727 394.005 302.374 394.294 302.12 394.579 301.896 394.93 301.8 395.314 301.865L399.748 302.631C399.748 302.631 400.099 302.694 400.26 302.951 400.356 303.109 400.356 303.301 400.26 303.525L400.26 303.525ZM400.865 300.779C400.865 301.003 400.769 301.164 400.61 301.257 400.514 301.322 400.387 301.353 400.291 301.353 400.195 301.353 400.099 301.353 400.068 301.322L398.665 300.906C397.675 300.621 396.717 300.332 395.727 300.047 395.249 299.919 394.899 299.566 394.803 299.119 394.707 298.673 394.868 298.195 395.249 297.875L398.569 294.909C398.569 294.909 398.855 294.655 399.143 294.717 399.429 294.748 399.556 295.005 399.621 295.101 400.356 296.377 400.803 297.748 400.896 299.184 400.896 299.535 400.961 299.79 400.93 300.047 400.93 300.332 400.93 300.556 400.896 300.81Z" fill-rule="evenodd" transform="matrix(1.00026 0 0 1 239.593 2.45455)"/><path d="M409.029 286.047 391.023 277.403 373.018 286.047 368.571 305.473 381.044 321.039 401.034 321.039 413.507 305.473 409.06 286.047ZM407.047 304.166C406.694 304.579 406.216 304.771 405.639 304.706 405.255 304.644 404.904 304.517 404.584 304.387 404.423 304.325 404.296 304.26 404.135 304.197 403.719 304.07 403.4 303.943 403.049 303.878 402.792 304.005 402.6 304.036 402.473 304.036 402.026 305.249 401.418 306.397 400.618 307.418 399.753 308.535 398.73 309.46 397.579 310.161 397.61 310.353 397.579 310.512 397.548 310.608 397.548 310.673 397.514 310.735 397.644 310.958 397.868 311.405 398.156 311.852 398.475 312.33 398.668 312.618 398.891 312.938 398.987 313.351 399.145 313.99 398.891 314.629 398.348 314.945 397.803 315.265 397.132 315.138 396.652 314.66 396.332 314.309 396.205 313.925 396.075 313.543 395.917 313.034 395.725 312.395 395.436 311.821 395.371 311.694 395.34 311.694 395.309 311.694 395.086 311.629 394.956 311.532 394.893 311.439 392.27 312.299 389.647 312.299 387.057 311.439 386.93 311.629 386.738 311.694 386.642 311.725 386.61 311.725 386.577 311.725 386.48 311.948 386.257 312.426 386.065 312.969 385.906 313.543 385.81 313.862 385.683 314.148 385.553 314.405 385.265 314.883 384.787 315.138 384.306 315.138 384.114 315.138 383.922 315.107 383.73 315.01 383.091 314.691 382.803 313.925 383.06 313.223 383.187 312.873 383.379 312.587 383.54 312.364 383.922 311.821 384.21 311.343 384.434 310.896 384.499 310.769 384.499 310.735 384.468 310.704 384.371 310.512 384.371 310.322 384.434 310.161 382.132 308.662 380.501 306.621 379.54 304.07 379.317 304.07 379.125 303.974 378.966 303.878 378.966 303.878 378.87 303.878 378.805 303.909 378.262 304.036 377.782 304.197 377.208 304.452 376.855 304.61 376.47 304.74 376.023 304.74 375.319 304.74 374.743 304.294 374.616 303.655 374.488 303.016 374.873 302.348 375.481 302.091 375.8 301.964 376.12 301.901 376.535 301.868 377.112 301.868 377.686 301.771 378.231 301.644 378.421 301.613 378.455 301.582 378.455 301.551 378.517 301.421 378.613 301.294 378.805 301.197 378.517 298.488 379.094 295.935 380.532 293.574 380.436 293.447 380.374 293.288 380.374 293.127 380.374 293.065 380.374 293.034 380.148 292.873 379.766 292.587 379.317 292.299 378.839 292.044 378.551 291.883 378.231 291.694 377.943 291.405 377.431 290.896 377.335 290.099 377.782 289.556 378.197 288.982 378.997 288.855 379.636 289.236 379.99 289.429 380.244 289.714 380.501 290.003 380.917 290.481 381.301 290.831 381.683 291.12 381.683 291.12 381.779 291.216 381.813 291.182 382.005 291.12 382.164 291.182 382.325 291.247 384.338 289.301 386.673 288.184 389.392 287.865 389.392 287.865 389.392 287.865 389.392 287.865 389.423 287.707 389.551 287.514 389.681 287.387 389.681 287.387 389.681 287.387 389.681 287.291 389.681 286.686 389.584 286.078 389.488 285.538 389.423 285.153 389.423 284.834 389.457 284.548 389.551 283.782 390.127 283.239 390.896 283.273 391.535 283.273 392.078 283.813 392.174 284.452L392.335 284.452 392.143 285.442C392.109 285.823 392.047 286.205 391.982 286.59 391.982 286.813 391.982 287.036 391.982 287.26L391.982 287.418C391.982 287.418 392.205 287.642 392.27 287.896 393.197 288.023 393.966 288.184 394.67 288.439 396.429 289.044 397.995 290.003 399.338 291.278 399.499 291.182 399.657 291.151 399.849 291.182 399.849 291.182 399.914 291.182 400.073 291.055 400.457 290.735 400.842 290.353 401.226 289.938 401.449 289.683 401.704 289.397 402.057 289.205 402.473 288.951 402.984 288.917 403.431 289.109 403.816 289.301 404.104 289.652 404.2 290.099 404.265 290.449 404.2 290.927 403.719 291.439 403.465 291.694 403.145 291.883 402.857 292.013 402.281 292.33 401.834 292.618 401.48 292.938 401.384 293.034 401.384 293.065 401.384 293.096 401.384 293.288 401.322 293.447 401.192 293.574 402.281 295.361 402.888 297.275 403.016 299.317 403.049 299.922 403.016 300.53 402.953 301.166 403.145 301.231 403.208 301.39 403.273 301.455 403.335 301.582 403.431 301.613 403.784 301.644 404.231 301.709 404.551 301.74 404.904 301.771 405.223 301.805 405.543 301.836 405.893 301.901 406.439 301.964 406.855 302.283 407.078 302.761L407.078 302.761C407.301 303.239 407.239 303.719 406.917 304.132Z" fill-rule="evenodd" transform="matrix(1.00026 0 0 1 239.593 2.45455)"/><path d="M399.74 300.779 400.26 301.039 399.74 300.779 399.74 300.779Z" fill-rule="evenodd" transform="matrix(1.00026 0 0 1 239.593 2.45455)"/><path d="M391.039 301.039 391.779 300.662 391.948 299.873 391.444 299.221 390.634 299.221 390.13 299.873 390.299 300.662 391.039 301.039Z" fill-rule="evenodd" transform="matrix(1.00026 0 0 1 239.593 2.45455)"/><path d="M399.74 300.036C399.74 299.779 399.74 299.556 399.709 299.332 399.613 298.083 399.265 296.932 398.727 295.844L395.714 298.564C395.714 298.564 395.556 298.787 395.59 298.883 395.59 298.979 395.714 299.075 395.842 299.109 396.792 299.395 397.777 299.683 398.727 299.971L399.74 300.26C399.74 300.26 399.74 300.099 399.74 300.003Z" fill-rule="evenodd" transform="matrix(1.00026 0 0 1 239.593 2.45455)"/><path d="M152.112 296.956C152.228 297.33 152.391 297.886 152.619 298.712L152.76 299.223 153.247 299.436C153.368 299.488 153.645 299.6 154.65 299.961 155.25 300.177 155.518 300.338 155.624 300.416L156.053 300.727 156.566 300.595C157.043 300.468 157.555 300.234 158.104 299.891 158.324 299.761 158.502 299.66 158.645 299.582 158.876 299.766 159.169 300.029 159.532 300.4 159.865 300.725 160.155 301.003 160.406 301.234 160.029 301.873 159.725 302.356 159.499 302.673L159.16 303.148 159.36 303.696C159.691 304.603 159.943 305.283 160.116 305.738 160.435 306.574 160.646 307.127 161.438 307.127L161.537 307.127C161.815 307.169 162.145 307.244 162.526 307.353 162.716 307.405 162.888 307.452 163.042 307.493L163.042 309.787C162.903 309.826 162.751 309.868 162.585 309.914 162.123 310.042 161.732 310.127 161.424 310.166L160.913 310.234 160.633 310.665C160.509 310.857 160.317 311.203 159.926 312.19 159.687 312.821 159.519 313.008 159.487 313.039L158.842 313.683 159.347 314.442C159.431 314.566 159.651 314.93 160.011 315.53 160.101 315.683 160.189 315.826 160.275 315.958 159.941 316.294 159.402 316.821 158.532 317.642 157.976 317.358 157.427 317.042 156.893 316.694L156.328 316.325 155.739 316.652C154.94 317.099 154.188 317.384 153.503 317.504L153.021 317.59 152.756 318C152.512 318.382 152.305 318.927 152.124 319.67 152.075 319.878 152.03 320.047 151.991 320.187L149.433 320.187C149.399 320.065 149.363 319.922 149.323 319.756 149.157 319.075 149.022 318.616 148.901 318.312L148.727 317.878 148.297 317.699C146.458 316.927 145.977 316.717 145.851 316.657L145.469 316.413 144.982 316.556C144.528 316.691 144.029 316.917 143.455 317.252 143.26 317.366 143.1 317.46 142.967 317.532 142.641 317.249 142.102 316.761 141.215 315.912 141.389 315.597 141.667 315.122 142.105 314.403L142.38 313.953 142.205 313.457C142.157 313.317 142.047 313.055 141.586 312.086 141.393 311.662 141.271 311.288 141.224 310.979L141.098 310.145 140.26 310.042C139.936 310 139.517 309.914 139.034 309.79 138.844 309.735 138.673 309.688 138.518 309.649L138.518 307.353C138.656 307.314 138.808 307.273 138.976 307.226 139.438 307.099 139.829 307.016 140.136 306.974L140.678 306.904 140.954 306.431C141.047 306.273 141.218 305.953 141.631 305.021 141.897 304.413 142.079 304.114 142.184 303.971L142.606 303.395 142.257 302.771C141.849 302.044 141.539 301.535 141.301 301.169 141.638 300.831 142.177 300.307 143.044 299.496 143.725 299.836 144.262 300.145 144.646 300.418L145.152 300.779 145.725 300.543C147.485 299.81 147.976 299.673 148.088 299.649L148.817 299.616 149.056 298.883C149.108 298.722 149.243 298.252 149.463 297.468 149.514 297.283 149.563 297.112 149.609 296.953L152.112 296.953M152.906 295.844 148.782 295.844C148.67 296.187 148.538 296.631 148.389 297.174 148.176 297.932 148.045 298.39 147.995 298.543 147.733 298.556 146.833 298.88 145.296 299.52 144.734 299.117 143.915 298.668 142.84 298.169 141.103 299.779 140.109 300.756 139.859 301.099 140.16 301.418 140.634 302.158 141.284 303.319 141.084 303.592 140.858 304.01 140.609 304.579 140.321 305.229 140.115 305.662 139.991 305.875 139.627 305.922 139.19 306.018 138.678 306.158 138.041 306.338 137.616 306.449 137.403 306.496L137.403 310.525C137.654 310.574 138.097 310.686 138.735 310.862 139.284 311.005 139.747 311.099 140.122 311.145 140.184 311.561 140.335 312.029 140.572 312.548 140.909 313.257 141.103 313.683 141.154 313.826 140.366 315.117 139.934 315.891 139.859 316.151 141.484 317.725 142.477 318.626 142.84 318.849 143.065 318.756 143.459 318.543 144.021 318.21 144.509 317.927 144.933 317.732 145.297 317.623 145.372 317.673 146.227 318.039 147.865 318.725 147.965 318.974 148.09 319.408 148.241 320.021 148.378 320.6 148.515 321.029 148.654 321.299L152.777 321.299C152.902 321.062 153.046 320.605 153.209 319.932 153.358 319.317 153.521 318.873 153.696 318.6 154.508 318.46 155.371 318.132 156.284 317.623 157.083 318.145 157.902 318.595 158.739 318.974 160.464 317.364 161.451 316.387 161.701 316.044 161.489 315.784 161.245 315.423 160.969 314.961 160.594 314.335 160.363 313.956 160.276 313.826 160.512 313.59 160.745 313.174 160.969 312.582 161.232 311.919 161.432 311.48 161.57 311.27 161.931 311.221 162.369 311.127 162.881 310.984 163.519 310.808 163.944 310.696 164.156 310.649L164.156 306.618C163.906 306.571 163.462 306.46 162.825 306.281 162.288 306.127 161.825 306.034 161.438 305.997 161.439 306.01 161.439 306.018 161.437 306.018 161.407 306.018 161.064 305.117 160.407 303.317 160.744 302.844 161.218 302.068 161.831 300.992 161.519 300.756 161.012 300.294 160.313 299.608 159.712 298.992 159.188 298.553 158.738 298.294 158.501 298.387 158.101 298.6 157.538 298.932 157.063 299.229 156.644 299.423 156.283 299.52 156.007 299.317 155.588 299.117 155.026 298.914 154.302 298.655 153.858 298.488 153.696 298.418 153.319 297.057 153.057 296.2 152.906 295.844L152.906 295.844Z" fill="#FFFFFF" fill-rule="evenodd" transform="matrix(1.00026 0 0 1 239.593 2.45455)"/><path d="M151.098 316.883 151.038 315.784C154.999 315.574 158.047 312.226 157.833 308.325 157.619 304.421 154.223 301.418 150.261 301.629 146.299 301.842 143.25 305.187 143.464 309.088L142.35 309.148C142.102 304.642 145.625 300.774 150.202 300.532 154.778 300.288 158.702 303.758 158.949 308.265 159.196 312.774 155.674 316.639 151.098 316.883Z" fill="#FFFFFF" fill-rule="evenodd" transform="matrix(1.00026 0 0 1 239.593 2.45455)"/><path d="M147.013 316.642 147.273 316.883 147.078 316.623C147.078 316.623 147.078 316.623 147.013 316.623Z" fill-rule="evenodd" transform="matrix(1.00026 0 0 1 239.593 2.45455)"/><path d="M142.116 303.842C142.116 303.842 142.342 303.938 142.438 303.875 142.535 303.842 142.599 303.748 142.599 303.621 142.664 302.569 142.728 301.486 142.793 300.436L142.857 299.481C141.246 299.8 139.893 300.468 138.701 301.455 139.217 301.805 139.732 302.187 140.248 302.538 140.86 302.982 141.504 303.397 142.116 303.842Z" fill-rule="evenodd" transform="matrix(1.00026 0 0 1 239.593 2.45455)"/><path d="M148.081 310.974C148.081 310.974 147.952 311.107 147.952 311.239L147.532 311.569 147.984 311.371 148.371 312.327C148.79 313.314 149.177 314.335 149.597 315.325 150.887 314.335 151.822 313.117 152.468 311.634L148.339 310.909C148.339 310.909 148.145 310.943 148.081 310.974Z" fill-rule="evenodd" transform="matrix(1.00026 0 0 1 239.593 2.45455)"/><path d="M140.491 310.909 139.403 311.096C138.379 311.252 137.388 311.439 136.364 311.597 137.004 313.003 137.963 314.158 139.211 315.065 139.563 314.252 139.883 313.47 140.203 312.691L140.683 311.535C140.683 311.535 140.747 311.345 140.779 311.283 140.779 311.221 140.779 311.127 140.715 311.065 140.651 311.003 140.587 310.971 140.491 310.94Z" fill-rule="evenodd" transform="matrix(1.00026 0 0 1 239.593 2.45455)"/><path d="M145.648 315.026C145.303 314.418 144.959 313.779 144.583 313.169 144.521 313.047 144.395 313.018 144.301 312.987 144.208 312.987 144.082 313.047 144.019 313.169L143.205 314.6C142.829 315.27 142.454 315.909 142.078 316.579 142.829 316.761 143.55 316.852 144.301 316.883 145.022 316.883 145.773 316.792 146.494 316.61 146.399 316.426 146.306 316.275 146.212 316.122L145.617 315.057Z" fill-rule="evenodd" transform="matrix(1.00026 0 0 1 239.593 2.45455)"/><path d="M152.727 311.429 152.987 311.688 152.727 311.429 152.727 311.429Z" fill-rule="evenodd" transform="matrix(1.00026 0 0 1 239.593 2.45455)"/><path d="M139.678 306.977C139.678 306.977 139.678 306.756 139.489 306.564 138.517 305.675 137.544 304.784 136.571 303.896 136.006 305.008 135.692 306.151 135.598 307.358 135.598 307.644 135.567 307.995 135.598 308.312L136.257 308.122C137.293 307.803 138.36 307.517 139.395 307.2 139.678 307.104 139.709 307.01 139.74 306.945Z" fill-rule="evenodd" transform="matrix(1.00026 0 0 1 239.593 2.45455)"/><path d="M146.367 303.883C146.367 303.883 146.563 303.948 146.792 303.787 147.905 303.016 149.017 302.244 150.13 301.473 148.854 300.444 147.479 299.769 145.974 299.481L146.203 303.499C146.203 303.787 146.301 303.818 146.367 303.852Z" fill-rule="evenodd" transform="matrix(1.00026 0 0 1 239.593 2.45455)"/><path d="M158.26 310.842C157.909 310.81 157.558 310.779 157.239 310.714 156.792 310.649 156.282 310.587 155.963 310.109 155.771 310.075 155.644 309.979 155.58 309.886 155.388 309.662 155.42 309.405 155.452 309.278 155.516 308.642 155.548 308.034 155.516 307.429 155.42 305.481 154.814 303.662 153.793 302.003 153.729 301.906 153.602 301.686 153.665 301.397 153.697 301.239 153.793 301.109 153.921 301.016 153.952 300.727 154.112 300.473 154.367 300.249 154.782 299.899 155.261 299.579 155.899 299.229 156.154 299.099 156.377 298.971 156.537 298.782 156.76 298.59 156.76 298.429 156.728 298.335 156.728 298.174 156.601 298.078 156.537 298.047 156.409 297.984 156.218 298.016 156.058 298.112 155.835 298.239 155.644 298.462 155.452 298.652 155.069 299.099 154.655 299.514 154.208 299.865 154.08 299.961 153.761 300.249 153.283 300.184 153.155 300.312 152.995 300.377 152.836 300.345 152.549 300.345 152.357 300.153 152.262 300.057 151.017 298.813 149.549 297.919 147.89 297.345 147.156 297.091 146.391 296.93 145.497 296.803 145.401 296.803 145.178 296.803 145.018 296.61L144.891 296.452 144.891 296.164C144.668 295.909 144.572 295.686 144.572 295.431L144.572 295.304C144.572 295.016 144.572 294.761 144.604 294.473 144.668 294.091 144.699 293.74 144.763 293.356L144.763 292.974C144.763 292.974 144.795 292.686 144.795 292.686 144.795 292.431 144.604 292.239 144.412 292.208 144.189 292.208 143.997 292.366 143.966 292.623 143.966 292.813 143.966 293.036 143.997 293.356 144.093 293.964 144.189 294.6 144.189 295.27 144.189 295.431 144.189 295.782 143.902 296.068 143.902 296.291 143.838 296.452 143.742 296.579 143.646 296.706 143.487 296.771 143.264 296.803L143.04 296.803C140.52 297.153 138.286 298.205 136.499 300.026 136.404 300.122 136.212 300.377 135.893 300.312 135.765 300.312 135.606 300.249 135.478 300.184 135.064 300.216 134.776 299.992 134.649 299.93 134.202 299.579 133.787 299.195 133.341 298.686 133.117 298.429 132.926 298.239 132.702 298.078 132.479 297.951 132.224 297.984 132.096 298.143 131.969 298.301 132.001 298.558 132.192 298.748 132.383 298.94 132.607 299.068 132.862 299.195 133.372 299.483 133.851 299.769 134.266 300.122 134.457 300.281 134.776 300.535 134.84 300.982 134.968 301.078 135.032 301.205 135.064 301.332 135.127 301.621 135 301.875 134.904 302.003 133.532 304.236 132.99 306.662 133.309 309.216 133.372 309.821 132.99 310.013 132.798 310.044 132.575 310.395 132.224 310.491 131.969 310.556 131.362 310.683 130.724 310.745 130.118 310.779 129.831 310.779 129.607 310.842 129.384 310.906 129.161 311.003 129.065 311.226 129.097 311.384 129.129 311.577 129.352 311.766 129.576 311.704 129.831 311.704 130.086 311.608 130.373 311.48 130.979 311.226 131.522 311.034 132.032 310.906 132.288 310.842 132.607 310.745 132.926 310.938 133.022 311.003 133.053 311.003 133.053 311.003L133.245 310.938 133.532 311.034C133.755 311.161 133.819 311.353 133.851 311.449 134.744 313.969 136.308 315.948 138.573 317.351 138.988 317.605 138.988 317.99 138.829 318.275 138.988 318.691 138.829 319.042 138.733 319.169 138.478 319.681 138.19 320.19 137.744 320.797 137.552 321.052 137.457 321.244 137.393 321.436 137.297 321.691 137.393 321.945 137.584 322.042 137.776 322.138 138.031 322.042 138.158 321.787 138.254 321.626 138.35 321.403 138.414 321.148 138.605 320.509 138.797 319.935 139.052 319.426 139.116 319.265 139.307 318.883 139.754 318.722 139.85 318.499 140.137 318.182 140.711 318.371 143.136 319.234 145.593 319.234 148.082 318.405 148.273 318.34 148.528 318.244 148.816 318.405 148.943 318.468 149.039 318.564 149.103 318.722 149.39 318.818 149.581 319.01 149.741 319.33 150.06 319.966 150.251 320.636 150.411 321.179 150.507 321.499 150.602 321.722 150.762 321.883 150.921 322.042 151.113 322.073 151.272 321.977 151.432 321.883 151.496 321.66 151.432 321.468 151.368 321.213 151.209 320.99 151.049 320.766 150.698 320.255 150.379 319.777 150.124 319.299 150.028 319.107 149.805 318.722 149.964 318.244 149.836 317.958 149.868 317.605 150.283 317.351 151.4 316.681 152.389 315.787 153.219 314.735 153.984 313.745 154.591 312.66 154.974 311.48 155.133 310.969 155.548 310.873 155.867 310.969 155.995 310.81 156.314 310.745 156.633 310.81 157.016 310.906 157.398 311.003 157.749 311.13 158.005 311.226 158.164 311.288 158.324 311.353 158.611 311.48 158.866 311.577 159.154 311.608 159.441 311.673 159.568 311.543 159.664 311.416 159.76 311.288 159.76 311.192 159.696 311.065 159.6 310.873 159.472 310.779 159.249 310.745 158.93 310.714 158.611 310.683 158.292 310.649ZM145.274 298.493C145.497 298.301 145.784 298.335 146.103 298.397L146.103 298.397C147.89 298.717 149.549 299.545 150.953 300.823 151.049 300.919 151.272 301.109 151.241 301.397 151.241 301.686 150.985 301.875 150.889 301.94 149.709 302.769 148.56 303.6 147.38 304.429 147.092 304.621 146.805 304.717 146.518 304.717 146.327 304.717 146.167 304.683 145.976 304.587 145.529 304.397 145.274 303.982 145.242 303.408L145.018 299.356C145.018 298.971 145.018 298.686 145.242 298.493ZM145.465 305.865 146.774 307.525 146.327 309.597 144.412 310.522 142.498 309.597 142.019 307.525 143.328 305.865 145.465 305.865ZM137.68 300.886 138.031 301.239 137.712 300.886C139.084 299.61 140.711 298.813 142.53 298.462 142.657 298.462 142.753 298.429 142.817 298.397 143.072 298.366 143.296 298.335 143.519 298.525 143.742 298.717 143.71 298.971 143.71 299.195L143.646 300.377C143.583 301.429 143.519 302.514 143.455 303.566 143.455 304.047 143.168 304.429 142.753 304.621 142.594 304.717 142.402 304.748 142.211 304.748 141.956 304.748 141.7 304.652 141.477 304.525 140.871 304.078 140.232 303.662 139.626 303.216 139.02 302.769 138.382 302.353 137.776 301.906 137.584 301.779 137.489 301.621 137.457 301.429 137.457 301.143 137.616 300.982 137.712 300.919ZM134.681 309.055C134.553 308.418 134.585 307.81 134.617 307.301 134.712 305.8 135.159 304.397 135.893 303.119 135.957 303.023 136.084 302.769 136.372 302.738 136.659 302.707 136.85 302.865 136.946 302.93 138.031 303.917 139.116 304.875 140.201 305.831 140.647 306.216 140.807 306.662 140.679 307.171 140.52 307.906 139.882 308.065 139.658 308.13 138.605 308.418 137.552 308.735 136.468 309.055L134.776 309.532 134.681 309.023ZM139.914 315.725C139.914 315.725 139.754 316.107 139.467 316.203 139.403 316.203 139.339 316.203 139.307 316.203 139.084 316.203 138.924 316.075 138.829 316.01 137.233 314.893 136.021 313.395 135.287 311.577 135.223 311.449 135.127 311.192 135.287 310.969 135.383 310.81 135.542 310.683 135.797 310.649 136.914 310.46 138.063 310.268 139.179 310.075L140.424 309.886C140.807 309.852 141.158 310.044 141.413 310.332 141.668 310.618 141.764 311.003 141.7 311.384L141.7 311.384C141.7 311.384 141.604 311.673 141.572 311.831L141.094 313.01C140.711 313.904 140.36 314.797 139.977 315.725ZM147.731 316.969C147.603 317.255 147.316 317.351 147.22 317.382 146.263 317.639 145.338 317.797 144.381 317.797 143.391 317.797 142.434 317.639 141.477 317.351 141.381 317.351 141.126 317.255 140.998 316.969 140.903 316.712 140.998 316.457 141.062 316.361 141.509 315.564 141.924 314.797 142.37 314L143.2 312.501C143.455 312.055 143.87 311.8 144.317 311.8L144.317 311.8C144.763 311.8 145.178 312.055 145.433 312.501 145.816 313.14 146.167 313.81 146.518 314.447L147.124 315.564C147.252 315.821 147.412 316.075 147.539 316.33 147.603 316.426 147.763 316.681 147.635 316.969ZM153.506 311.543C152.772 313.426 151.528 314.958 149.9 316.107 149.836 316.138 149.677 316.265 149.485 316.265 149.422 316.265 149.39 316.265 149.326 316.265 149.039 316.171 148.943 315.914 148.911 315.852 148.464 314.766 148.018 313.681 147.571 312.597L147.188 311.673C147.188 311.673 147.061 311.319 147.092 311.096 147.092 310.779 147.252 310.426 147.539 310.171 147.827 309.948 148.177 309.852 148.56 309.917L152.995 310.683C152.995 310.683 153.346 310.745 153.506 311.003 153.602 311.161 153.602 311.353 153.506 311.577L153.506 311.577ZM154.112 308.831C154.112 309.055 154.016 309.216 153.857 309.309 153.761 309.374 153.634 309.405 153.538 309.405 153.442 309.405 153.346 309.405 153.314 309.374L151.91 308.958C150.921 308.673 149.964 308.384 148.975 308.099 148.496 307.971 148.145 307.618 148.05 307.171 147.954 306.725 148.114 306.247 148.496 305.927L151.815 302.961C151.815 302.961 152.102 302.707 152.389 302.769 152.676 302.8 152.804 303.057 152.868 303.153 153.602 304.429 154.048 305.8 154.144 307.236 154.144 307.587 154.208 307.842 154.176 308.099 154.176 308.384 154.176 308.608 154.144 308.862Z" fill-rule="evenodd" transform="matrix(1.00026 0 0 1 239.593 2.45455)"/><path d="M162.302 294.099 144.4 285.455 126.498 294.099 122.078 313.525 134.479 329.091 154.352 329.091 166.753 313.525 162.334 294.099ZM160.33 312.218C159.981 312.631 159.504 312.823 158.931 312.758 158.55 312.696 158.2 312.569 157.882 312.439 157.723 312.377 157.596 312.312 157.437 312.249 157.023 312.122 156.705 311.995 156.356 311.93 156.101 312.057 155.91 312.088 155.783 312.088 155.338 313.301 154.734 314.449 153.939 315.47 153.08 316.587 152.063 317.512 150.918 318.213 150.95 318.405 150.918 318.564 150.887 318.66 150.887 318.725 150.855 318.787 150.982 319.01 151.204 319.457 151.491 319.904 151.809 320.382 151.999 320.67 152.222 320.99 152.317 321.403 152.476 322.042 152.222 322.681 151.681 322.997 151.141 323.317 150.473 323.19 149.996 322.712 149.678 322.361 149.551 321.977 149.424 321.595 149.265 321.086 149.074 320.447 148.788 319.873 148.724 319.745 148.692 319.745 148.661 319.745 148.438 319.681 148.311 319.584 148.247 319.491 145.64 320.351 143.032 320.351 140.457 319.491 140.33 319.681 140.139 319.745 140.043 319.777 140.012 319.777 139.98 319.777 139.884 320 139.662 320.478 139.471 321.021 139.312 321.595 139.217 321.914 139.09 322.2 138.962 322.457 138.676 322.935 138.199 323.19 137.722 323.19 137.531 323.19 137.341 323.158 137.15 323.062 136.514 322.743 136.228 321.977 136.482 321.275 136.609 320.925 136.8 320.639 136.959 320.416 137.341 319.873 137.627 319.395 137.849 318.948 137.913 318.821 137.913 318.787 137.881 318.756 137.786 318.564 137.786 318.374 137.849 318.213 135.56 316.714 133.938 314.673 132.984 312.122 132.762 312.122 132.571 312.026 132.412 311.93 132.412 311.93 132.317 311.93 132.253 311.961 131.712 312.088 131.236 312.249 130.663 312.504 130.314 312.662 129.932 312.792 129.487 312.792 128.787 312.792 128.215 312.345 128.088 311.706 127.961 311.068 128.342 310.4 128.946 310.143 129.264 310.016 129.582 309.953 129.996 309.919 130.568 309.919 131.14 309.823 131.681 309.696 131.871 309.665 131.903 309.634 131.903 309.603 131.967 309.473 132.062 309.345 132.253 309.249 131.967 306.54 132.539 303.987 133.97 301.626 133.875 301.499 133.811 301.34 133.811 301.179 133.811 301.117 133.811 301.086 133.589 300.925 133.207 300.639 132.762 300.351 132.285 300.096 131.999 299.935 131.681 299.745 131.395 299.457 130.886 298.948 130.79 298.151 131.236 297.608 131.649 297.034 132.444 296.906 133.08 297.288 133.43 297.481 133.684 297.766 133.938 298.055 134.352 298.532 134.733 298.883 135.115 299.171 135.115 299.171 135.21 299.268 135.242 299.234 135.433 299.171 135.592 299.234 135.751 299.299 137.754 297.353 140.075 296.236 142.778 295.917 142.778 295.917 142.778 295.917 142.778 295.917 142.81 295.758 142.937 295.566 143.064 295.439 143.064 295.439 143.064 295.439 143.064 295.343 143.064 294.738 142.969 294.13 142.874 293.59 142.81 293.205 142.81 292.886 142.842 292.6 142.937 291.834 143.509 291.291 144.272 291.325 144.909 291.325 145.449 291.865 145.544 292.504L145.703 292.504 145.513 293.493C145.481 293.875 145.417 294.257 145.354 294.642 145.354 294.865 145.354 295.088 145.354 295.312L145.354 295.47C145.354 295.47 145.576 295.694 145.64 295.948 146.562 296.075 147.325 296.236 148.025 296.491 149.773 297.096 151.331 298.055 152.667 299.33 152.826 299.234 152.985 299.203 153.176 299.234 153.176 299.234 153.239 299.234 153.398 299.107 153.78 298.787 154.162 298.405 154.543 297.99 154.766 297.735 155.02 297.449 155.37 297.257 155.783 297.003 156.292 296.969 156.737 297.161 157.119 297.353 157.405 297.704 157.5 298.151 157.564 298.501 157.5 298.979 157.023 299.491 156.769 299.745 156.451 299.935 156.165 300.065 155.592 300.382 155.147 300.67 154.797 300.99 154.702 301.086 154.702 301.117 154.702 301.148 154.702 301.34 154.638 301.499 154.511 301.626 155.592 303.413 156.197 305.327 156.324 307.369 156.356 307.974 156.324 308.582 156.26 309.218 156.451 309.283 156.515 309.442 156.578 309.507 156.642 309.634 156.737 309.665 157.087 309.696 157.532 309.761 157.85 309.792 158.2 309.823 158.518 309.857 158.836 309.888 159.185 309.953 159.726 310.016 160.139 310.335 160.362 310.813L160.362 310.813C160.585 311.291 160.521 311.771 160.203 312.184Z" fill-rule="evenodd" transform="matrix(1.00026 0 0 1 239.593 2.45455)"/><path d="M153.247 308.831 153.507 309.091 153.247 308.831 153.247 308.831Z" fill-rule="evenodd" transform="matrix(1.00026 0 0 1 239.593 2.45455)"/><path d="M144.416 309.091 145.05 308.714 145.195 307.925 144.762 307.273 144.069 307.273 143.636 307.925 143.781 308.714 144.416 309.091Z" fill-rule="evenodd" transform="matrix(1.00026 0 0 1 239.593 2.45455)"/><path d="M153.247 308.088C153.247 307.831 153.247 307.608 153.215 307.384 153.12 306.135 152.771 304.984 152.233 303.896L149.222 306.616C149.222 306.616 149.063 306.839 149.095 306.935 149.095 307.031 149.222 307.127 149.349 307.161 150.299 307.447 151.282 307.735 152.233 308.023L153.247 308.312C153.247 308.312 153.247 308.151 153.247 308.055Z" fill-rule="evenodd" transform="matrix(1.00026 0 0 1 239.593 2.45455)"/><path d="M567.431 190.649 521.299 190.649 521.299 135.844 576.104 135.844 576.104 188.955 572.249 188.955 572.249 139.696 525.153 139.696 525.153 186.798 567.431 186.798 567.431 190.649Z" fill-rule="evenodd" transform="matrix(1.00026 0 0 1 239.593 2.45455)"/><path d="M537.662 160.26 539.462 160.26 541.579 165.339 543.655 160.26 545.455 160.26 542.4 167.273 540.795 167.273 537.662 160.26Z" fill-rule="evenodd" transform="matrix(1.00026 0 0 1 239.593 2.45455)"/><path d="M556.673 160.346C557.049 160.577 557.353 160.923 557.582 161.308 557.808 161.732 557.922 162.193 557.922 162.732L557.922 167.273 556.294 167.273 556.294 163.04C556.294 162.578 556.179 162.193 555.914 161.885 555.649 161.578 555.345 161.424 554.927 161.424 554.512 161.424 554.094 161.578 553.829 161.847 553.525 162.116 553.413 162.501 553.413 162.924L553.413 167.273 551.821 167.273 551.821 163.04C551.821 162.578 551.707 162.193 551.442 161.885 551.177 161.578 550.873 161.424 550.457 161.424 550.039 161.424 549.66 161.578 549.356 161.847 549.055 162.116 548.94 162.501 548.94 162.924L548.94 167.273 547.273 167.273 547.273 160.154 548.94 160.154 548.94 161.116C549.13 160.77 549.395 160.5 549.735 160.308 550.078 160.116 550.457 160 550.912 160 551.366 160 551.935 160.154 552.39 160.462 552.805 160.77 553.109 161.193 553.299 161.693 553.413 161.193 553.639 160.77 554.018 160.462 554.397 160.154 554.852 160 555.421 160 555.99 160 556.33 160.116 556.709 160.346Z" fill-rule="evenodd" transform="matrix(1.00026 0 0 1 239.593 2.45455)"/><path d="M628.21 190.649 582.078 190.649 582.078 135.844 636.883 135.844 636.883 188.955 633.029 188.955 633.029 139.696 585.932 139.696 585.932 186.798 628.21 186.798 628.21 190.649Z" fill-rule="evenodd" transform="matrix(1.00026 0 0 1 239.593 2.45455)"/><path d="M598.442 160.26 600.242 160.26 602.358 165.339 604.434 160.26 606.234 160.26 603.179 167.273 601.574 167.273 598.442 160.26Z" fill-rule="evenodd" transform="matrix(1.00026 0 0 1 239.593 2.45455)"/><path d="M617.452 160.346C617.829 160.577 618.133 160.923 618.361 161.308 618.587 161.732 618.701 162.193 618.701 162.732L618.701 167.273 617.073 167.273 617.073 163.04C617.073 162.578 616.958 162.193 616.694 161.885 616.429 161.578 616.125 161.424 615.706 161.424 615.291 161.424 614.873 161.578 614.608 161.847 614.304 162.116 614.192 162.501 614.192 162.924L614.192 167.273 612.6 167.273 612.6 163.04C612.6 162.578 612.486 162.193 612.221 161.885 611.956 161.578 611.652 161.424 611.236 161.424 610.818 161.424 610.439 161.578 610.135 161.847 609.834 162.116 609.719 162.501 609.719 162.924L609.719 167.273 608.052 167.273 608.052 160.154 609.719 160.154 609.719 161.116C609.909 160.77 610.174 160.5 610.514 160.308 610.857 160.116 611.236 160 611.691 160 612.145 160 612.714 160.154 613.169 160.462 613.584 160.77 613.888 161.193 614.078 161.693 614.192 161.193 614.418 160.77 614.797 160.462 615.177 160.154 615.631 160 616.2 160 616.769 160 617.109 160.116 617.488 160.346Z" fill-rule="evenodd" transform="matrix(1.00026 0 0 1 239.593 2.45455)"/><path d="M567.431 257.143 521.299 257.143 521.299 202.338 576.104 202.338 576.104 255.448 572.249 255.448 572.249 206.189 525.153 206.189 525.153 253.291 567.431 253.291 567.431 257.143Z" fill-rule="evenodd" transform="matrix(1.00026 0 0 1 239.593 2.45455)"/><path d="M537.662 226.753 539.462 226.753 541.579 231.833 543.655 226.753 545.455 226.753 542.4 233.766 540.795 233.766 537.662 226.753Z" fill-rule="evenodd" transform="matrix(1.00026 0 0 1 239.593 2.45455)"/><path d="M556.673 226.84C557.049 227.071 557.353 227.417 557.582 227.802 557.808 228.225 557.922 228.687 557.922 229.226L557.922 233.766 556.294 233.766 556.294 229.534C556.294 229.072 556.179 228.687 555.914 228.379 555.649 228.071 555.345 227.917 554.927 227.917 554.512 227.917 554.094 228.071 553.829 228.341 553.525 228.61 553.413 228.995 553.413 229.418L553.413 233.766 551.821 233.766 551.821 229.534C551.821 229.072 551.707 228.687 551.442 228.379 551.177 228.071 550.873 227.917 550.457 227.917 550.039 227.917 549.66 228.071 549.356 228.341 549.055 228.61 548.94 228.995 548.94 229.418L548.94 233.766 547.273 233.766 547.273 226.648 548.94 226.648 548.94 227.609C549.13 227.263 549.395 226.994 549.735 226.801 550.078 226.609 550.457 226.494 550.912 226.494 551.366 226.494 551.935 226.648 552.39 226.955 552.805 227.263 553.109 227.687 553.299 228.187 553.413 227.687 553.639 227.263 554.018 226.955 554.397 226.648 554.852 226.494 555.421 226.494 555.99 226.494 556.33 226.609 556.709 226.84Z" fill-rule="evenodd" transform="matrix(1.00026 0 0 1 239.593 2.45455)"/><path d="M628.21 257.143 582.078 257.143 582.078 202.338 636.883 202.338 636.883 255.448 633.029 255.448 633.029 206.189 585.932 206.189 585.932 253.291 628.21 253.291 628.21 257.143Z" fill-rule="evenodd" transform="matrix(1.00026 0 0 1 239.593 2.45455)"/><path d="M598.442 226.753 600.242 226.753 602.358 231.833 604.434 226.753 606.234 226.753 603.179 233.766 601.574 233.766 598.442 226.753Z" fill-rule="evenodd" transform="matrix(1.00026 0 0 1 239.593 2.45455)"/><path d="M617.452 226.84C617.829 227.071 618.133 227.417 618.361 227.802 618.587 228.225 618.701 228.687 618.701 229.226L618.701 233.766 617.073 233.766 617.073 229.534C617.073 229.072 616.958 228.687 616.694 228.379 616.429 228.071 616.125 227.917 615.706 227.917 615.291 227.917 614.873 228.071 614.608 228.341 614.304 228.61 614.192 228.995 614.192 229.418L614.192 233.766 612.6 233.766 612.6 229.534C612.6 229.072 612.486 228.687 612.221 228.379 611.956 228.071 611.652 227.917 611.236 227.917 610.818 227.917 610.439 228.071 610.135 228.341 609.834 228.61 609.719 228.995 609.719 229.418L609.719 233.766 608.052 233.766 608.052 226.648 609.719 226.648 609.719 227.609C609.909 227.263 610.174 226.994 610.514 226.801 610.857 226.609 611.236 226.494 611.691 226.494 612.145 226.494 612.714 226.648 613.169 226.955 613.584 227.263 613.888 227.687 614.078 228.187 614.192 227.687 614.418 227.263 614.797 226.955 615.177 226.648 615.631 226.494 616.2 226.494 616.769 226.494 617.109 226.609 617.488 226.84Z" fill-rule="evenodd" transform="matrix(1.00026 0 0 1 239.593 2.45455)"/><path d="M567.431 322.857 521.299 322.857 521.299 268.052 576.104 268.052 576.104 321.164 572.249 321.164 572.249 271.904 525.153 271.904 525.153 319.005 567.431 319.005 567.431 322.857Z" fill-rule="evenodd" transform="matrix(1.00026 0 0 1 239.593 2.45455)"/><path d="M537.662 292.468 539.462 292.468 541.579 297.548 543.655 292.468 545.455 292.468 542.4 299.481 540.795 299.481 537.662 292.468Z" fill-rule="evenodd" transform="matrix(1.00026 0 0 1 239.593 2.45455)"/><path d="M556.673 292.553C557.049 292.784 557.353 293.132 557.582 293.517 557.808 293.94 557.922 294.4 557.922 294.94L557.922 299.481 556.294 299.481 556.294 295.247C556.294 294.787 556.179 294.4 555.914 294.094 555.649 293.784 555.345 293.631 554.927 293.631 554.512 293.631 554.094 293.784 553.829 294.055 553.525 294.325 553.413 294.709 553.413 295.132L553.413 299.481 551.821 299.481 551.821 295.247C551.821 294.787 551.707 294.4 551.442 294.094 551.177 293.784 550.873 293.631 550.457 293.631 550.039 293.631 549.66 293.784 549.356 294.055 549.055 294.325 548.94 294.709 548.94 295.132L548.94 299.481 547.273 299.481 547.273 292.361 548.94 292.361 548.94 293.325C549.13 292.977 549.395 292.709 549.735 292.517 550.078 292.322 550.457 292.208 550.912 292.208 551.366 292.208 551.935 292.361 552.39 292.67 552.805 292.977 553.109 293.4 553.299 293.901 553.413 293.4 553.639 292.977 554.018 292.67 554.397 292.361 554.852 292.208 555.421 292.208 555.99 292.208 556.33 292.322 556.709 292.553Z" fill-rule="evenodd" transform="matrix(1.00026 0 0 1 239.593 2.45455)"/><path d="M628.21 322.857 582.078 322.857 582.078 268.052 636.883 268.052 636.883 321.164 633.029 321.164 633.029 271.904 585.932 271.904 585.932 319.005 628.21 319.005 628.21 322.857Z" fill-rule="evenodd" transform="matrix(1.00026 0 0 1 239.593 2.45455)"/><path d="M598.442 292.468 600.242 292.468 602.358 297.548 604.434 292.468 606.234 292.468 603.179 299.481 601.574 299.481 598.442 292.468Z" fill-rule="evenodd" transform="matrix(1.00026 0 0 1 239.593 2.45455)"/><path d="M617.452 292.553C617.829 292.784 618.133 293.132 618.361 293.517 618.587 293.94 618.701 294.4 618.701 294.94L618.701 299.481 617.073 299.481 617.073 295.247C617.073 294.787 616.958 294.4 616.694 294.094 616.429 293.784 616.125 293.631 615.706 293.631 615.291 293.631 614.873 293.784 614.608 294.055 614.304 294.325 614.192 294.709 614.192 295.132L614.192 299.481 612.6 299.481 612.6 295.247C612.6 294.787 612.486 294.4 612.221 294.094 611.956 293.784 611.652 293.631 611.236 293.631 610.818 293.631 610.439 293.784 610.135 294.055 609.834 294.325 609.719 294.709 609.719 295.132L609.719 299.481 608.052 299.481 608.052 292.361 609.719 292.361 609.719 293.325C609.909 292.977 610.174 292.709 610.514 292.517 610.857 292.322 611.236 292.208 611.691 292.208 612.145 292.208 612.714 292.361 613.169 292.67 613.584 292.977 613.888 293.4 614.078 293.901 614.192 293.4 614.418 292.977 614.797 292.67 615.177 292.361 615.631 292.208 616.2 292.208 616.769 292.208 617.109 292.322 617.488 292.553Z" fill-rule="evenodd" transform="matrix(1.00026 0 0 1 239.593 2.45455)"/><text fill="#1B1D36" font-family="Metropolis,Metropolis_MSFontService,sans-serif" font-weight="400" font-size="50" transform="matrix(0.259808 0 0 0.25974 586.34 370)">Memory</text><path d="M300.769 366.974 293.27 367.029 293.27 355.34 300.805 355.34 300.769 366.974Z" fill-rule="evenodd" transform="matrix(1.00026 0 0 1 239.593 2.45455)"/><path d="M301.325 355.6 302.883 355.6 302.883 356.899 301.325 356.899Z" fill-rule="evenodd" transform="matrix(1.00026 0 0 1 239.593 2.45455)"/><path d="M301.325 358.197 302.883 358.197 302.883 359.496 301.325 359.496Z" fill-rule="evenodd" transform="matrix(1.00026 0 0 1 239.593 2.45455)"/><path d="M301.325 360.535 302.883 360.535 302.883 361.834 301.325 361.834Z" fill-rule="evenodd" transform="matrix(1.00026 0 0 1 239.593 2.45455)"/><path d="M301.325 362.875 302.883 362.875 302.883 364.434 301.325 364.434Z" fill-rule="evenodd" transform="matrix(1.00026 0 0 1 239.593 2.45455)"/><path d="M301.325 365.47 302.883 365.47 302.883 366.769 301.325 366.769Z" fill-rule="evenodd" transform="matrix(1.00026 0 0 1 239.593 2.45455)"/><path d="M290.935 355.6 292.493 355.6 292.493 356.899 290.935 356.899Z" fill-rule="evenodd" transform="matrix(1.00026 0 0 1 239.593 2.45455)"/><path d="M290.935 358.197 292.493 358.197 292.493 359.496 290.935 359.496Z" fill-rule="evenodd" transform="matrix(1.00026 0 0 1 239.593 2.45455)"/><path d="M290.935 360.535 292.493 360.535 292.493 361.834 290.935 361.834Z" fill-rule="evenodd" transform="matrix(1.00026 0 0 1 239.593 2.45455)"/><path d="M290.935 362.875 292.493 362.875 292.493 364.434 290.935 364.434Z" fill-rule="evenodd" transform="matrix(1.00026 0 0 1 239.593 2.45455)"/><path d="M290.935 365.47 292.493 365.47 292.493 366.769 290.935 366.769Z" fill-rule="evenodd" transform="matrix(1.00026 0 0 1 239.593 2.45455)"/><path d="M331.678 366.974 323.922 367.029 323.922 355.34 331.714 355.34 331.678 366.974Z" fill-rule="evenodd" transform="matrix(1.00026 0 0 1 239.593 2.45455)"/><path d="M332.234 355.6 333.792 355.6 333.792 356.899 332.234 356.899Z" fill-rule="evenodd" transform="matrix(1.00026 0 0 1 239.593 2.45455)"/><path d="M332.234 358.197 333.792 358.197 333.792 359.496 332.234 359.496Z" fill-rule="evenodd" transform="matrix(1.00026 0 0 1 239.593 2.45455)"/><path d="M332.234 360.535 333.792 360.535 333.792 361.834 332.234 361.834Z" fill-rule="evenodd" transform="matrix(1.00026 0 0 1 239.593 2.45455)"/><path d="M332.234 362.875 333.792 362.875 333.792 364.434 332.234 364.434Z" fill-rule="evenodd" transform="matrix(1.00026 0 0 1 239.593 2.45455)"/><path d="M332.234 365.47 333.792 365.47 333.792 366.769 332.234 366.769Z" fill-rule="evenodd" transform="matrix(1.00026 0 0 1 239.593 2.45455)"/><path d="M321.844 355.6 323.403 355.6 323.403 356.899 321.844 356.899Z" fill-rule="evenodd" transform="matrix(1.00026 0 0 1 239.593 2.45455)"/><path d="M321.844 358.197 323.403 358.197 323.403 359.496 321.844 359.496Z" fill-rule="evenodd" transform="matrix(1.00026 0 0 1 239.593 2.45455)"/><path d="M321.844 360.535 323.403 360.535 323.403 361.834 321.844 361.834Z" fill-rule="evenodd" transform="matrix(1.00026 0 0 1 239.593 2.45455)"/><path d="M321.844 362.875 323.403 362.875 323.403 364.434 321.844 364.434Z" fill-rule="evenodd" transform="matrix(1.00026 0 0 1 239.593 2.45455)"/><path d="M321.844 365.47 323.403 365.47 323.403 366.769 321.844 366.769Z" fill-rule="evenodd" transform="matrix(1.00026 0 0 1 239.593 2.45455)"/><path d="M316.094 366.974 308.597 367.029 308.597 355.34 316.13 355.34 316.094 366.974Z" fill-rule="evenodd" transform="matrix(1.00026 0 0 1 239.593 2.45455)"/><path d="M316.649 355.6 318.208 355.6 318.208 356.899 316.649 356.899Z" fill-rule="evenodd" transform="matrix(1.00026 0 0 1 239.593 2.45455)"/><path d="M316.649 358.197 318.208 358.197 318.208 359.496 316.649 359.496Z" fill-rule="evenodd" transform="matrix(1.00026 0 0 1 239.593 2.45455)"/><path d="M316.649 360.535 318.208 360.535 318.208 361.834 316.649 361.834Z" fill-rule="evenodd" transform="matrix(1.00026 0 0 1 239.593 2.45455)"/><path d="M316.649 362.875 318.208 362.875 318.208 364.434 316.649 364.434Z" fill-rule="evenodd" transform="matrix(1.00026 0 0 1 239.593 2.45455)"/><path d="M316.649 365.47 318.208 365.47 318.208 366.769 316.649 366.769Z" fill-rule="evenodd" transform="matrix(1.00026 0 0 1 239.593 2.45455)"/><path d="M306.519 355.6 308.078 355.6 308.078 356.899 306.519 356.899Z" fill-rule="evenodd" transform="matrix(1.00026 0 0 1 239.593 2.45455)"/><path d="M306.519 358.197 308.078 358.197 308.078 359.496 306.519 359.496Z" fill-rule="evenodd" transform="matrix(1.00026 0 0 1 239.593 2.45455)"/><path d="M306.519 360.535 308.078 360.535 308.078 361.834 306.519 361.834Z" fill-rule="evenodd" transform="matrix(1.00026 0 0 1 239.593 2.45455)"/><path d="M306.519 362.875 308.078 362.875 308.078 364.434 306.519 364.434Z" fill-rule="evenodd" transform="matrix(1.00026 0 0 1 239.593 2.45455)"/><path d="M306.519 365.47 308.078 365.47 308.078 366.769 306.519 366.769Z" fill-rule="evenodd" transform="matrix(1.00026 0 0 1 239.593 2.45455)"/><path d="M338.951 351.221 285.74 351.184 285.74 371.875 290.384 371.875 290.384 374.821 322.34 374.821 322.34 372.003 326.984 372.003 326.984 374.748C326.984 374.748 336.961 374.712 338.86 374.712L338.987 374.712C338.987 374.712 338.951 351.818 338.951 351.203ZM328.792 372.961 328.792 370.231 320.514 370.231 320.514 373.049 292.192 373.049 292.192 370.104 287.545 370.104 287.545 352.992 337.143 353.029 337.143 372.925C334.847 372.925 331.034 372.925 328.792 372.943ZM301.535 372.418 302.891 372.418 302.891 370.268 301.535 370.268 301.535 372.418ZM304.301 372.418 305.657 372.418 305.657 370.268 304.301 370.268 304.301 372.418ZM307.068 372.418 308.423 372.418 308.423 370.268 307.068 370.268 307.068 372.418ZM309.831 372.418 311.187 372.418 311.187 370.268 309.831 370.268 309.831 372.418ZM312.597 372.418 313.953 372.418 313.953 370.268 312.597 370.268 312.597 372.418ZM315.364 372.418 316.719 372.418 316.719 370.268 315.364 370.268 315.364 372.418ZM329.823 372.418 331.177 372.418 331.177 370.268 329.823 370.268 329.823 372.418ZM334.738 372.418 336.094 372.418 336.094 370.268 334.738 370.268 334.738 372.418ZM332.281 372.418 333.636 372.418 333.636 370.268 332.281 370.268 332.281 372.418ZM318.145 372.418 319.501 372.418 319.501 370.268 318.145 370.268 318.145 372.418ZM298.753 372.418 300.109 372.418 300.109 370.268 298.753 370.268 298.753 372.418ZM295.987 372.418 297.343 372.418 297.343 370.268 295.987 370.268 295.987 372.418ZM293.221 372.418 294.577 372.418 294.577 370.268 293.221 370.268 293.221 372.418Z" fill-rule="evenodd" transform="matrix(1.00026 0 0 1 239.593 2.45455)"/><text fill="#1B1D36" font-family="Metropolis,Metropolis_MSFontService,sans-serif" font-weight="400" font-size="50" transform="matrix(0.259808 0 0 0.25974 331.759 370)">CPU</text><path d="M76.859 348.543 76.859 377.403 47.7683 377.403 47.7683 348.543 76.859 348.543M78.6766 346.74 45.9496 346.74 45.9496 379.208 78.6766 379.208 78.6766 346.74 78.6766 346.74Z" fill-rule="evenodd" transform="matrix(1.00026 0 0 1 239.593 2.45455)"/><path d="M40.4951 348.558 45.9496 348.558 45.9496 349.857 40.4951 349.857Z" fill-rule="evenodd" transform="matrix(1.00026 0 0 1 239.593 2.45455)"/><path d="M40.4951 354.013 45.9496 354.013 45.9496 355.312 40.4951 355.312Z" fill-rule="evenodd" transform="matrix(1.00026 0 0 1 239.593 2.45455)"/><path d="M40.4951 359.465 45.9496 359.465 45.9496 361.023 40.4951 361.023Z" fill-rule="evenodd" transform="matrix(1.00026 0 0 1 239.593 2.45455)"/><path d="M40.4951 364.919 45.9496 364.919 45.9496 366.478 40.4951 366.478Z" fill-rule="evenodd" transform="matrix(1.00026 0 0 1 239.593 2.45455)"/><path d="M40.4951 370.636 45.9496 370.636 45.9496 371.935 40.4951 371.935Z" fill-rule="evenodd" transform="matrix(1.00026 0 0 1 239.593 2.45455)"/><path d="M48.0286 341.286 49.3275 341.286 49.3275 346.74 48.0286 346.74Z" fill-rule="evenodd" transform="matrix(1.00026 0 0 1 239.593 2.45455)"/><path d="M53.4831 341.286 54.7818 341.286 54.7818 346.74 53.4831 346.74Z" fill-rule="evenodd" transform="matrix(1.00026 0 0 1 239.593 2.45455)"/><path d="M58.9377 341.286 60.2364 341.286 60.2364 346.74 58.9377 346.74Z" fill-rule="evenodd" transform="matrix(1.00026 0 0 1 239.593 2.45455)"/><path d="M64.3875 341.286 65.9462 341.286 65.9462 346.74 64.3875 346.74Z" fill-rule="evenodd" transform="matrix(1.00026 0 0 1 239.593 2.45455)"/><path d="M70.1065 341.286 71.4052 341.286 71.4052 346.74 70.1065 346.74Z" fill-rule="evenodd" transform="matrix(1.00026 0 0 1 239.593 2.45455)"/><path d="M78.6766 376.091 84.1314 376.091 84.1314 377.39 78.6766 377.39Z" fill-rule="evenodd" transform="matrix(1.00026 0 0 1 239.593 2.45455)"/><path d="M75.561 379.208 76.8597 379.208 76.8597 384.662 75.561 384.662Z" fill-rule="evenodd" transform="matrix(1.00026 0 0 1 239.593 2.45455)"/><path d="M70.1065 379.208 71.4052 379.208 71.4052 384.662 70.1065 384.662Z" fill-rule="evenodd" transform="matrix(1.00026 0 0 1 239.593 2.45455)"/><path d="M64.3875 379.208 65.9462 379.208 65.9462 384.662 64.3875 384.662Z" fill-rule="evenodd" transform="matrix(1.00026 0 0 1 239.593 2.45455)"/><path d="M58.9377 379.208 60.2364 379.208 60.2364 384.662 58.9377 384.662Z" fill-rule="evenodd" transform="matrix(1.00026 0 0 1 239.593 2.45455)"/><path d="M53.4831 379.208 54.7818 379.208 54.7818 384.662 53.4831 384.662Z" fill-rule="evenodd" transform="matrix(1.00026 0 0 1 239.593 2.45455)"/><path d="M75.561 341.286 76.8597 341.286 76.8597 346.74 75.561 346.74Z" fill-rule="evenodd" transform="matrix(1.00026 0 0 1 239.593 2.45455)"/><path d="M78.6766 348.558 84.1314 348.558 84.1314 349.857 78.6766 349.857Z" fill-rule="evenodd" transform="matrix(1.00026 0 0 1 239.593 2.45455)"/><path d="M78.6766 354.013 84.1314 354.013 84.1314 355.312 78.6766 355.312Z" fill-rule="evenodd" transform="matrix(1.00026 0 0 1 239.593 2.45455)"/><path d="M78.6766 359.465 84.1314 359.465 84.1314 361.023 78.6766 361.023Z" fill-rule="evenodd" transform="matrix(1.00026 0 0 1 239.593 2.45455)"/><path d="M78.6766 364.919 84.1314 364.919 84.1314 366.478 78.6766 366.478Z" fill-rule="evenodd" transform="matrix(1.00026 0 0 1 239.593 2.45455)"/><path d="M78.6766 370.636 84.1314 370.636 84.1314 371.935 78.6766 371.935Z" fill-rule="evenodd" transform="matrix(1.00026 0 0 1 239.593 2.45455)"/><path d="M48.0286 379.208 49.3275 379.208 49.3275 384.662 48.0286 384.662Z" fill-rule="evenodd" transform="matrix(1.00026 0 0 1 239.593 2.45455)"/><path d="M40.4951 376.091 45.9496 376.091 45.9496 377.39 40.4951 377.39Z" fill-rule="evenodd" transform="matrix(1.00026 0 0 1 239.593 2.45455)"/><path d="M49.8462 350.377 52.9629 350.377 52.9629 353.493 49.8462 353.493Z" fill-rule="evenodd" transform="matrix(1.00026 0 0 1 239.593 2.45455)"/><path d="M49.8462 361.283 52.9629 361.283 52.9629 364.66 49.8462 364.66Z" fill-rule="evenodd" transform="matrix(1.00026 0 0 1 239.593 2.45455)"/><path d="M49.8462 355.831 52.9629 355.831 52.9629 358.948 49.8462 358.948Z" fill-rule="evenodd" transform="matrix(1.00026 0 0 1 239.593 2.45455)"/><path d="M49.8462 367 52.9629 367 52.9629 370.117 49.8462 370.117Z" fill-rule="evenodd" transform="matrix(1.00026 0 0 1 239.593 2.45455)"/><path d="M71.9242 361.283 75.041 361.283 75.041 364.66 71.9242 364.66Z" fill-rule="evenodd" transform="matrix(1.00026 0 0 1 239.593 2.45455)"/><path d="M71.9242 355.831 75.041 355.831 75.041 358.948 71.9242 358.948Z" fill-rule="evenodd" transform="matrix(1.00026 0 0 1 239.593 2.45455)"/><path d="M71.9242 367 75.041 367 75.041 370.117 71.9242 370.117Z" fill-rule="evenodd" transform="matrix(1.00026 0 0 1 239.593 2.45455)"/><path d="M49.8462 372.455 52.9629 372.455 52.9629 375.571 49.8462 375.571Z" fill-rule="evenodd" transform="matrix(1.00026 0 0 1 239.593 2.45455)"/><path d="M55.3008 350.377 58.4177 350.377 58.4177 353.493 55.3008 353.493Z" fill-rule="evenodd" transform="matrix(1.00026 0 0 1 239.593 2.45455)"/><path d="M55.3008 372.455 58.4177 372.455 58.4177 375.571 55.3008 375.571Z" fill-rule="evenodd" transform="matrix(1.00026 0 0 1 239.593 2.45455)"/><path d="M60.7553 350.377 63.8722 350.377 63.8722 353.493 60.7553 353.493Z" fill-rule="evenodd" transform="matrix(1.00026 0 0 1 239.593 2.45455)"/><path d="M60.7553 372.455 63.8722 372.455 63.8722 375.571 60.7553 375.571Z" fill-rule="evenodd" transform="matrix(1.00026 0 0 1 239.593 2.45455)"/><path d="M66.2078 350.377 69.5844 350.377 69.5844 353.493 66.2078 353.493Z" fill-rule="evenodd" transform="matrix(1.00026 0 0 1 239.593 2.45455)"/><path d="M66.2078 372.455 69.5844 372.455 69.5844 375.571 66.2078 375.571Z" fill-rule="evenodd" transform="matrix(1.00026 0 0 1 239.593 2.45455)"/><path d="M71.9242 350.377 75.041 350.377 75.041 353.493 71.9242 353.493Z" fill-rule="evenodd" transform="matrix(1.00026 0 0 1 239.593 2.45455)"/><path d="M71.9242 372.455 75.041 372.455 75.041 375.571 71.9242 375.571Z" fill-rule="evenodd" transform="matrix(1.00026 0 0 1 239.593 2.45455)"/><text fill="#1B1D36" font-family="Metropolis,Metropolis_MSFontService,sans-serif" font-weight="400" font-size="50" transform="matrix(0.259808 0 0 0.25974 820.44 370)">Storage        </text><path d="M545.042 346.987C556.932 346.987 564.922 351.831 564.922 356.351 564.922 360.868 556.932 365.712 545.042 365.712 533.148 365.712 525.161 360.868 525.161 356.351 525.161 351.831 533.148 346.987 545.042 346.987M545.042 345.182C533.057 345.182 523.353 350.187 523.353 356.351 523.353 362.512 533.057 367.519 545.042 367.519 557.023 367.519 566.73 362.512 566.73 356.351 566.73 350.187 557.023 345.182 545.042 345.182L545.042 345.182Z" fill-rule="evenodd" transform="matrix(1.00026 0 0 1 239.593 2.45455)"/><path d="M544.704 380.766C532.735 380.766 523.353 375.473 523.353 368.696L523.353 365.047 525.164 365.047 525.164 368.696C525.164 374.351 533.93 378.958 544.704 378.958 555.483 378.958 564.847 374.26 564.847 368.696 564.847 362.517 564.919 356.61 564.919 356.61L566.73 356.61C566.73 356.61 566.657 362.535 566.657 368.696 566.657 375.473 557.021 380.766 544.704 380.766Z" fill-rule="evenodd" transform="matrix(1.00026 0 0 1 239.593 2.45455)"/></g></svg>