<svg width="3731" height="1948" xmlns="http://www.w3.org/2000/svg" xmlns:xlink="http://www.w3.org/1999/xlink" xml:space="preserve" overflow="hidden"><g transform="translate(-302 -297)"><g><rect x="0" y="0" width="3722" height="1941" stroke="#000000" stroke-width="4.58333" stroke-linecap="butt" stroke-linejoin="round" stroke-miterlimit="10" stroke-dasharray="18.3333 13.75" stroke-opacity="1" fill="#FFFFFF" fill-opacity="1" transform="matrix(-1 0 0 1 4027.5 301.5)"/><text fill="#221E20" fill-opacity="1" font-family="Metropolis,Metropolis_MSFontService,sans-serif" font-style="normal" font-variant="normal" font-weight="400" font-stretch="normal" font-size="41" text-anchor="start" direction="ltr" writing-mode="lr-tb" unicode-bidi="normal" text-decoration="none" transform="matrix(1 0 0 1 1987.76 357)">Workload Domain</text><rect x="0" y="0" width="573" height="1423" stroke="#007DA3" stroke-width="4.58333" stroke-linecap="butt" stroke-linejoin="round" stroke-miterlimit="10" stroke-opacity="1" fill="none" transform="matrix(-1 0 0 1 930.5 548.5)"/><text fill="#221E20" fill-opacity="1" font-family="Metropolis,Metropolis_MSFontService,sans-serif" font-style="normal" font-variant="normal" font-weight="400" font-stretch="normal" font-size="41" text-anchor="start" direction="ltr" writing-mode="lr-tb" unicode-bidi="normal" text-decoration="none" transform="matrix(1 0 0 1 474.402 603)">vSphere Cluster 1</text><rect x="401" y="657" width="486" height="1273" fill="#007DA3" fill-opacity="1"/><text fill="#FFFFFF" fill-opacity="1" font-family="Metropolis,Metropolis_MSFontService,sans-serif" font-style="normal" font-variant="normal" font-weight="400" font-stretch="normal" font-size="41" text-anchor="start" direction="ltr" writing-mode="lr-tb" unicode-bidi="normal" text-decoration="none" transform="matrix(1 0 0 1 493.882 713)">vSphere Zone 1</text><text fill="#FFFFFF" fill-opacity="1" font-family="Metropolis,Metropolis_MSFontService,sans-serif" font-style="normal" font-variant="normal" font-weight="400" font-stretch="normal" font-size="41" text-anchor="start" direction="ltr" writing-mode="lr-tb" unicode-bidi="normal" text-decoration="none" transform="matrix(1 0 0 1 501.33 763)">(Management)</text><rect x="0" y="0" width="573" height="1423" stroke="#007DA3" stroke-width="4.58333" stroke-linecap="butt" stroke-linejoin="round" stroke-miterlimit="10" stroke-opacity="1" fill="none" transform="matrix(-1 0 0 1 1537.5 548.5)"/><text fill="#221E20" fill-opacity="1" font-family="Metropolis,Metropolis_MSFontService,sans-serif" font-style="normal" font-variant="normal" font-weight="400" font-stretch="normal" font-size="41" text-anchor="start" direction="ltr" writing-mode="lr-tb" unicode-bidi="normal" text-decoration="none" transform="matrix(1 0 0 1 1076.48 603)">vSphere Cluster 2</text><rect x="1008" y="657" width="484" height="1273" fill="#007DA3" fill-opacity="1"/><text fill="#FFFFFF" fill-opacity="1" font-family="Metropolis,Metropolis_MSFontService,sans-serif" font-style="normal" font-variant="normal" font-weight="400" font-stretch="normal" font-size="41" text-anchor="start" direction="ltr" writing-mode="lr-tb" unicode-bidi="normal" text-decoration="none" transform="matrix(1 0 0 1 1095.96 713)">vSphere Zone 2</text><text fill="#FFFFFF" fill-opacity="1" font-family="Metropolis,Metropolis_MSFontService,sans-serif" font-style="normal" font-variant="normal" font-weight="400" font-stretch="normal" font-size="41" text-anchor="start" direction="ltr" writing-mode="lr-tb" unicode-bidi="normal" text-decoration="none" transform="matrix(1 0 0 1 1107.7 763)">(Management)</text><rect x="0" y="0" width="574" height="1423" stroke="#007DA3" stroke-width="4.58333" stroke-linecap="butt" stroke-linejoin="round" stroke-miterlimit="10" stroke-opacity="1" fill="none" transform="matrix(-1 0 0 1 2144.5 548.5)"/><text fill="#221E20" fill-opacity="1" font-family="Metropolis,Metropolis_MSFontService,sans-serif" font-style="normal" font-variant="normal" font-weight="400" font-stretch="normal" font-size="41" text-anchor="start" direction="ltr" writing-mode="lr-tb" unicode-bidi="normal" text-decoration="none" transform="matrix(1 0 0 1 1682.94 603)">vSphere Cluster 3</text><rect x="1616" y="657" width="483" height="1273" fill="#007DA3" fill-opacity="1"/><text fill="#FFFFFF" fill-opacity="1" font-family="Metropolis,Metropolis_MSFontService,sans-serif" font-style="normal" font-variant="normal" font-weight="400" font-stretch="normal" font-size="41" text-anchor="start" direction="ltr" writing-mode="lr-tb" unicode-bidi="normal" text-decoration="none" transform="matrix(1 0 0 1 1702.78 713)">vSphere Zone 3</text><text fill="#FFFFFF" fill-opacity="1" font-family="Metropolis,Metropolis_MSFontService,sans-serif" font-style="normal" font-variant="normal" font-weight="400" font-stretch="normal" font-size="41" text-anchor="start" direction="ltr" writing-mode="lr-tb" unicode-bidi="normal" text-decoration="none" transform="matrix(1 0 0 1 1714.81 763)">(Management)</text><rect x="0" y="0" width="573" height="1423" stroke="#007DA3" stroke-width="4.58333" stroke-linecap="butt" stroke-linejoin="round" stroke-miterlimit="10" stroke-opacity="1" fill="none" transform="matrix(-1 0 0 1 2755.5 548.5)"/><text fill="#221E20" fill-opacity="1" font-family="Metropolis,Metropolis_MSFontService,sans-serif" font-style="normal" font-variant="normal" font-weight="400" font-stretch="normal" font-size="41" text-anchor="start" direction="ltr" writing-mode="lr-tb" unicode-bidi="normal" text-decoration="none" transform="matrix(1 0 0 1 2294.45 603)">vSphere Cluster 4</text><rect x="2227" y="657" width="483" height="1273" fill="#E2E3E4" fill-opacity="1"/><text fill="#221E20" fill-opacity="1" font-family="Metropolis,Metropolis_MSFontService,sans-serif" font-style="normal" font-variant="normal" font-weight="400" font-stretch="normal" font-size="41" text-anchor="start" direction="ltr" writing-mode="lr-tb" unicode-bidi="normal" text-decoration="none" transform="matrix(1 0 0 1 2313.93 713)">vSphere Zone 4</text><text fill="#221E20" fill-opacity="1" font-family="Metropolis,Metropolis_MSFontService,sans-serif" font-style="normal" font-variant="normal" font-weight="400" font-stretch="normal" font-size="41" text-anchor="start" direction="ltr" writing-mode="lr-tb" unicode-bidi="normal" text-decoration="none" transform="matrix(1 0 0 1 2357.77 763)">(Workload)</text><rect x="0" y="0" width="573" height="1423" stroke="#007DA3" stroke-width="4.58333" stroke-linecap="butt" stroke-linejoin="round" stroke-miterlimit="10" stroke-opacity="1" fill="none" transform="matrix(-1 0 0 1 3362.5 548.5)"/><text fill="#221E20" fill-opacity="1" font-family="Metropolis,Metropolis_MSFontService,sans-serif" font-style="normal" font-variant="normal" font-weight="400" font-stretch="normal" font-size="41" text-anchor="start" direction="ltr" writing-mode="lr-tb" unicode-bidi="normal" text-decoration="none" transform="matrix(1 0 0 1 2900.98 603)">vSphere Cluster 5</text><rect x="2834" y="657" width="483" height="1273" fill="#E2E3E4" fill-opacity="1"/><text fill="#221E20" fill-opacity="1" font-family="Metropolis,Metropolis_MSFontService,sans-serif" font-style="normal" font-variant="normal" font-weight="400" font-stretch="normal" font-size="41" text-anchor="start" direction="ltr" writing-mode="lr-tb" unicode-bidi="normal" text-decoration="none" transform="matrix(1 0 0 1 2920.45 713)">vSphere Zone 5</text><text fill="#221E20" fill-opacity="1" font-family="Metropolis,Metropolis_MSFontService,sans-serif" font-style="normal" font-variant="normal" font-weight="400" font-stretch="normal" font-size="41" text-anchor="start" direction="ltr" writing-mode="lr-tb" unicode-bidi="normal" text-decoration="none" transform="matrix(1 0 0 1 2964.57 763)">(Workload)</text><rect x="0" y="0" width="573" height="1423" stroke="#007DA3" stroke-width="4.58333" stroke-linecap="butt" stroke-linejoin="round" stroke-miterlimit="10" stroke-opacity="1" fill="none" transform="matrix(-1 0 0 1 3968.5 548.5)"/><text fill="#221E20" fill-opacity="1" font-family="Metropolis,Metropolis_MSFontService,sans-serif" font-style="normal" font-variant="normal" font-weight="400" font-stretch="normal" font-size="41" text-anchor="start" direction="ltr" writing-mode="lr-tb" unicode-bidi="normal" text-decoration="none" transform="matrix(1 0 0 1 3507.36 603)">vSphere Cluster 6</text><rect x="3440" y="657" width="483" height="1273" fill="#E2E3E4" fill-opacity="1"/><text fill="#221E20" fill-opacity="1" font-family="Metropolis,Metropolis_MSFontService,sans-serif" font-style="normal" font-variant="normal" font-weight="400" font-stretch="normal" font-size="41" text-anchor="start" direction="ltr" writing-mode="lr-tb" unicode-bidi="normal" text-decoration="none" transform="matrix(1 0 0 1 3526.84 713)">vSphere Zone 6</text><text fill="#221E20" fill-opacity="1" font-family="Metropolis,Metropolis_MSFontService,sans-serif" font-style="normal" font-variant="normal" font-weight="400" font-stretch="normal" font-size="41" text-anchor="start" direction="ltr" writing-mode="lr-tb" unicode-bidi="normal" text-decoration="none" transform="matrix(1 0 0 1 3571.25 763)">(Workload)</text><rect x="0" y="0" width="3436" height="1016" stroke="#E68C28" stroke-width="4.58333" stroke-linecap="butt" stroke-linejoin="round" stroke-miterlimit="10" stroke-opacity="1" fill="#005C8A" fill-opacity="0" transform="matrix(-1 0 0 1 3879.5 861.5)"/><rect x="2263.5" y="985.5" width="1577" height="310" stroke="#E68C28" stroke-width="4.58333" stroke-linecap="butt" stroke-linejoin="round" stroke-miterlimit="10" stroke-opacity="1" fill="#FFFFFF" fill-opacity="1"/><text fill="#000000" fill-opacity="1" font-family="Metropolis,Metropolis_MSFontService,sans-serif" font-style="normal" font-variant="normal" font-weight="400" font-stretch="normal" font-size="41" text-anchor="start" direction="ltr" writing-mode="lr-tb" unicode-bidi="normal" text-decoration="none" transform="matrix(1 0 0 1 2827.99 1040)">vSphere Namespace A</text><rect x="2308.5" y="1072.5" width="1495" height="185" stroke="#000000" stroke-width="4.58333" stroke-linecap="butt" stroke-linejoin="round" stroke-miterlimit="10" stroke-opacity="1" fill="#FFFFFF" fill-opacity="1"/><text fill="#000000" fill-opacity="1" font-family="Metropolis,Metropolis_MSFontService,sans-serif" font-style="normal" font-variant="normal" font-weight="400" font-stretch="normal" font-size="41" text-anchor="start" direction="ltr" writing-mode="lr-tb" unicode-bidi="normal" text-decoration="none" transform="matrix(1 0 0 1 2938.82 1179)">VKS Cluster</text><rect x="2873.5" y="1353.5" width="967" height="463" stroke="#E68C28" stroke-width="4.58333" stroke-linecap="butt" stroke-linejoin="round" stroke-miterlimit="10" stroke-opacity="1" fill="#FFFFFF" fill-opacity="1"/><text fill="#000000" fill-opacity="1" font-family="Metropolis,Metropolis_MSFontService,sans-serif" font-style="normal" font-variant="normal" font-weight="400" font-stretch="normal" font-size="41" text-anchor="start" direction="ltr" writing-mode="lr-tb" unicode-bidi="normal" text-decoration="none" transform="matrix(1 0 0 1 3133.65 1409)">vSphere Namespace C</text><rect x="2908.5" y="1498.5" width="892" height="283" stroke="#000000" stroke-width="4.58333" stroke-linecap="butt" stroke-linejoin="round" stroke-miterlimit="10" stroke-opacity="1" fill="#FFFFFF" fill-opacity="1"/><text fill="#FFFFFF" fill-opacity="1" font-family="Metropolis,Metropolis_MSFontService,sans-serif" font-style="normal" font-variant="normal" font-weight="400" font-stretch="normal" font-size="41" text-anchor="start" direction="ltr" writing-mode="lr-tb" unicode-bidi="normal" text-decoration="none" transform="matrix(1 0 0 1 1677.3 1369)">Control Plane VM3</text><path d="M1917.21 1288 1780 1288 1780 1125 1943 1125 1943 1282.96 1931.54 1282.96 1931.54 1136.45 1791.46 1136.45 1791.46 1276.55 1917.21 1276.55 1917.21 1288Z" fill="#FFFFFF" fill-rule="evenodd" fill-opacity="1"/><path d="M1829 1197 1834.32 1197 1840.56 1212.21 1846.68 1197 1852 1197 1842.98 1218 1838.25 1218 1829 1197Z" fill="#FFFFFF" fill-rule="evenodd" fill-opacity="1"/><path d="M1886.12 1197.05C1887.3 1197.75 1888.24 1198.79 1888.94 1199.96 1889.65 1201.24 1890 1202.63 1890 1204.26L1890 1218 1884.95 1218 1884.95 1205.2C1884.95 1203.8 1884.6 1202.63 1883.78 1201.7 1882.95 1200.77 1882.01 1200.31 1880.72 1200.31 1879.43 1200.31 1878.14 1200.77 1877.32 1201.59 1876.38 1202.4 1876.02 1203.57 1876.02 1204.85L1876.02 1218 1871.09 1218 1871.09 1205.2C1871.09 1203.8 1870.74 1202.63 1869.92 1201.7 1869.1 1200.77 1868.16 1200.31 1866.86 1200.31 1865.57 1200.31 1864.4 1200.77 1863.46 1201.59 1862.52 1202.4 1862.17 1203.57 1862.17 1204.85L1862.17 1218 1857 1218 1857 1196.47 1862.17 1196.47 1862.17 1199.38C1862.75 1198.33 1863.58 1197.51 1864.63 1196.93 1865.69 1196.35 1866.86 1196 1868.27 1196 1869.68 1196 1871.44 1196.47 1872.85 1197.4 1874.15 1198.33 1875.09 1199.61 1875.67 1201.12 1876.02 1199.61 1876.73 1198.33 1877.9 1197.4 1879.08 1196.47 1880.49 1196 1882.25 1196 1884.01 1196 1885.07 1196.35 1886.24 1197.05Z" fill="#FFFFFF" fill-rule="evenodd" fill-opacity="1"/><path d="M2860 1190.07 2861 1191 2860.25 1190C2860.25 1190 2860.25 1190 2860 1190Z" fill="#000000" fill-rule="evenodd" fill-opacity="1"/><path d="M2847.04 1157.85C2847.04 1157.85 2847.64 1158.11 2847.89 1157.94 2848.15 1157.85 2848.32 1157.59 2848.32 1157.25 2848.49 1154.39 2848.66 1151.45 2848.83 1148.6L2849 1146C2844.74 1146.87 2841.16 1148.68 2838 1151.36 2839.36 1152.32 2840.73 1153.35 2842.09 1154.31 2843.71 1155.52 2845.42 1156.64 2847.04 1157.85Z" fill="#000000" fill-rule="evenodd" fill-opacity="1"/><path d="M2862.33 1175.16C2862.33 1175.16 2862.02 1175.49 2862.02 1175.82L2861 1176.64 2862.1 1176.15 2863.04 1178.53C2864.06 1180.99 2865 1183.54 2866.02 1186 2869.16 1183.54 2871.43 1180.5 2873 1176.81L2862.96 1175C2862.96 1175 2862.49 1175.08 2862.33 1175.16Z" fill="#000000" fill-rule="evenodd" fill-opacity="1"/><path d="M2843.28 1175 2840.57 1175.5C2838.02 1175.91 2835.55 1176.41 2833 1176.82 2834.59 1180.54 2836.99 1183.6 2840.09 1186 2840.97 1183.85 2841.77 1181.78 2842.56 1179.71L2843.76 1176.65C2843.76 1176.65 2843.92 1176.16 2844 1175.99 2844 1175.83 2844 1175.58 2843.84 1175.41 2843.68 1175.25 2843.52 1175.17 2843.28 1175.08Z" fill="#000000" fill-rule="evenodd" fill-opacity="1"/><path d="M2856.7 1185.76C2855.77 1184.04 2854.83 1182.23 2853.81 1180.52 2853.64 1180.17 2853.3 1180.09 2853.04 1180 2852.79 1180 2852.45 1180.17 2852.28 1180.52L2850.06 1184.55C2849.04 1186.45 2848.02 1188.25 2847 1190.14 2849.04 1190.66 2851 1190.91 2853.04 1191 2855 1191 2857.04 1190.74 2859 1190.23 2858.74 1189.71 2858.49 1189.28 2858.23 1188.85L2856.62 1185.84Z" fill="#000000" fill-rule="evenodd" fill-opacity="1"/><path d="M2874 1176 2875 1177 2874 1176Z" fill="#000000" fill-rule="evenodd" fill-opacity="1"/><path d="M2840.85 1165.68C2840.85 1165.68 2840.85 1165.12 2840.4 1164.65 2838.06 1162.43 2835.72 1160.22 2833.37 1158 2832.02 1160.77 2831.26 1163.62 2831.03 1166.63 2831.03 1167.34 2830.96 1168.21 2831.03 1169L2832.62 1168.53C2835.11 1167.73 2837.68 1167.02 2840.17 1166.23 2840.85 1165.99 2840.92 1165.76 2841 1165.6Z" fill="#000000" fill-rule="evenodd" fill-opacity="1"/><path d="M2857.94 1156.97C2857.94 1156.97 2858.42 1157.13 2858.97 1156.73 2861.65 1154.81 2864.32 1152.89 2867 1150.96 2863.93 1148.4 2860.62 1146.72 2857 1146L2857.55 1156.01C2857.55 1156.73 2857.79 1156.81 2857.94 1156.89Z" fill="#000000" fill-rule="evenodd" fill-opacity="1"/><path d="M2888.23 1175.41C2887.34 1175.33 2886.45 1175.25 2885.63 1175.09 2884.5 1174.92 2883.2 1174.76 2882.39 1173.54 2881.9 1173.46 2881.57 1173.22 2881.41 1172.98 2880.92 1172.41 2881.01 1171.76 2881.09 1171.43 2881.25 1169.81 2881.33 1168.27 2881.25 1166.72 2881.01 1161.77 2879.46 1157.15 2876.86 1152.92 2876.7 1152.68 2876.38 1152.11 2876.54 1151.38 2876.62 1150.98 2876.86 1150.65 2877.19 1150.41 2877.27 1149.68 2877.68 1149.03 2878.33 1148.46 2879.38 1147.57 2880.6 1146.75 2882.22 1145.86 2882.87 1145.54 2883.44 1145.21 2883.85 1144.72 2884.42 1144.24 2884.42 1143.83 2884.34 1143.59 2884.34 1143.18 2884.01 1142.94 2883.85 1142.86 2883.52 1142.69 2883.04 1142.78 2882.63 1143.02 2882.06 1143.34 2881.57 1143.91 2881.09 1144.4 2880.11 1145.54 2879.06 1146.59 2877.92 1147.48 2877.6 1147.73 2876.78 1148.46 2875.57 1148.3 2875.24 1148.62 2874.83 1148.78 2874.43 1148.7 2873.7 1148.7 2873.21 1148.21 2872.97 1147.97 2869.8 1144.81 2866.06 1142.53 2861.84 1141.07 2859.97 1140.42 2858.03 1140.02 2855.75 1139.69 2855.51 1139.69 2854.94 1139.69 2854.53 1139.2L2854.21 1138.8 2854.21 1138.07C2853.64 1137.42 2853.4 1136.85 2853.4 1136.2L2853.4 1135.87C2853.4 1135.14 2853.4 1134.49 2853.48 1133.76 2853.64 1132.79 2853.72 1131.9 2853.88 1130.92L2853.88 1129.95C2853.88 1129.95 2853.97 1129.22 2853.97 1129.22 2853.97 1128.57 2853.48 1128.08 2852.99 1128 2852.42 1128 2851.94 1128.41 2851.85 1129.06 2851.85 1129.54 2851.85 1130.11 2851.94 1130.92 2852.18 1132.47 2852.42 1134.09 2852.42 1135.79 2852.42 1136.2 2852.42 1137.09 2851.69 1137.82 2851.69 1138.39 2851.53 1138.8 2851.29 1139.12 2851.04 1139.45 2850.64 1139.61 2850.07 1139.69L2849.5 1139.69C2843.09 1140.58 2837.4 1143.26 2832.85 1147.89 2832.61 1148.13 2832.12 1148.78 2831.31 1148.62 2830.99 1148.62 2830.58 1148.46 2830.26 1148.3 2829.2 1148.38 2828.47 1147.81 2828.14 1147.65 2827.01 1146.75 2825.95 1145.78 2824.81 1144.48 2824.25 1143.83 2823.76 1143.34 2823.19 1142.94 2822.62 1142.61 2821.97 1142.69 2821.65 1143.1 2821.32 1143.51 2821.4 1144.16 2821.89 1144.64 2822.38 1145.13 2822.95 1145.45 2823.6 1145.78 2824.9 1146.51 2826.11 1147.24 2827.17 1148.13 2827.66 1148.54 2828.47 1149.19 2828.63 1150.33 2828.96 1150.57 2829.12 1150.89 2829.2 1151.22 2829.36 1151.95 2829.04 1152.6 2828.79 1152.92 2825.3 1158.61 2823.92 1164.78 2824.73 1171.27 2824.9 1172.81 2823.92 1173.3 2823.43 1173.38 2822.87 1174.28 2821.97 1174.52 2821.32 1174.68 2819.78 1175.01 2818.16 1175.17 2816.61 1175.25 2815.88 1175.25 2815.31 1175.41 2814.75 1175.57 2814.18 1175.82 2813.93 1176.39 2814.02 1176.79 2814.1 1177.28 2814.66 1177.77 2815.23 1177.6 2815.88 1177.6 2816.53 1177.36 2817.26 1177.04 2818.81 1176.39 2820.19 1175.9 2821.49 1175.57 2822.14 1175.41 2822.95 1175.17 2823.76 1175.66 2824 1175.82 2824.08 1175.82 2824.08 1175.82L2824.57 1175.66 2825.3 1175.9C2825.87 1176.22 2826.03 1176.71 2826.11 1176.95 2828.39 1183.37 2832.37 1188.4 2838.13 1191.97 2839.19 1192.62 2839.19 1193.6 2838.78 1194.33 2839.19 1195.38 2838.78 1196.28 2838.54 1196.6 2837.89 1197.9 2837.16 1199.2 2836.02 1200.74 2835.53 1201.39 2835.29 1201.88 2835.13 1202.37 2834.88 1203.01 2835.13 1203.66 2835.61 1203.91 2836.1 1204.15 2836.75 1203.91 2837.08 1203.26 2837.32 1202.85 2837.56 1202.28 2837.73 1201.63 2838.21 1200.01 2838.7 1198.55 2839.35 1197.25 2839.51 1196.84 2840 1195.87 2841.14 1195.46 2841.38 1194.9 2842.11 1194.08 2843.57 1194.57 2849.74 1196.76 2856 1196.76 2862.33 1194.65 2862.82 1194.49 2863.47 1194.25 2864.2 1194.65 2864.52 1194.81 2864.77 1195.06 2864.93 1195.46 2865.66 1195.71 2866.15 1196.19 2866.55 1197.01 2867.36 1198.63 2867.85 1200.34 2868.26 1201.72 2868.5 1202.53 2868.74 1203.1 2869.15 1203.5 2869.56 1203.91 2870.04 1203.99 2870.45 1203.75 2870.86 1203.5 2871.02 1202.93 2870.86 1202.45 2870.69 1201.8 2870.29 1201.23 2869.88 1200.66 2868.99 1199.36 2868.18 1198.14 2867.53 1196.93 2867.28 1196.44 2866.71 1195.46 2867.12 1194.25 2866.8 1193.52 2866.88 1192.62 2867.93 1191.97 2870.77 1190.27 2873.29 1188 2875.4 1185.32 2877.35 1182.8 2878.89 1180.04 2879.87 1177.04 2880.28 1175.74 2881.33 1175.49 2882.14 1175.74 2882.47 1175.33 2883.28 1175.17 2884.09 1175.33 2885.07 1175.57 2886.04 1175.82 2886.93 1176.14 2887.58 1176.39 2887.99 1176.55 2888.4 1176.71 2889.13 1177.04 2889.78 1177.28 2890.51 1177.36 2891.24 1177.52 2891.56 1177.2 2891.81 1176.87 2892.05 1176.55 2892.05 1176.3 2891.89 1175.98 2891.64 1175.49 2891.32 1175.25 2890.75 1175.17 2889.94 1175.09 2889.13 1175.01 2888.31 1174.92ZM2855.18 1143.99C2855.75 1143.51 2856.48 1143.59 2857.3 1143.75 2861.84 1144.56 2866.06 1146.67 2869.64 1149.92 2869.88 1150.16 2870.45 1150.65 2870.37 1151.38 2870.37 1152.11 2869.72 1152.6 2869.48 1152.76 2866.47 1154.87 2863.55 1156.98 2860.54 1159.09 2859.81 1159.58 2859.08 1159.82 2858.35 1159.82 2857.86 1159.82 2857.46 1159.74 2856.97 1159.5 2855.83 1159.01 2855.18 1157.96 2855.1 1156.5L2854.53 1146.19C2854.53 1145.21 2854.53 1144.48 2855.1 1143.99ZM2855.67 1162.75 2859 1166.97 2857.86 1172.25 2852.99 1174.6 2848.12 1172.25 2846.9 1166.97 2850.23 1162.75 2855.67 1162.75ZM2835.86 1150.08 2836.75 1150.98 2835.94 1150.08C2839.43 1146.83 2843.57 1144.81 2848.2 1143.91 2848.53 1143.91 2848.77 1143.83 2848.93 1143.75 2849.58 1143.67 2850.15 1143.59 2850.72 1144.07 2851.29 1144.56 2851.21 1145.21 2851.21 1145.78L2851.04 1148.78C2850.88 1151.46 2850.72 1154.22 2850.56 1156.9 2850.56 1158.12 2849.82 1159.09 2848.77 1159.58 2848.36 1159.82 2847.88 1159.91 2847.39 1159.91 2846.74 1159.91 2846.09 1159.66 2845.52 1159.34 2843.98 1158.2 2842.35 1157.15 2840.81 1156.01 2839.27 1154.87 2837.64 1153.82 2836.1 1152.68 2835.61 1152.36 2835.37 1151.95 2835.29 1151.46 2835.29 1150.73 2835.7 1150.33 2835.94 1150.16ZM2828.23 1170.87C2827.9 1169.24 2827.98 1167.7 2828.06 1166.4 2828.31 1162.58 2829.44 1159.01 2831.31 1155.77 2831.47 1155.52 2831.8 1154.87 2832.53 1154.79 2833.26 1154.71 2833.75 1155.12 2833.99 1155.28 2836.75 1157.79 2839.51 1160.23 2842.27 1162.67 2843.41 1163.64 2843.82 1164.78 2843.49 1166.08 2843.09 1167.94 2841.46 1168.35 2840.89 1168.51 2838.21 1169.24 2835.53 1170.05 2832.77 1170.87L2828.47 1172.08 2828.23 1170.78ZM2841.54 1187.83C2841.54 1187.83 2841.14 1188.81 2840.41 1189.05 2840.24 1189.05 2840.08 1189.05 2840 1189.05 2839.43 1189.05 2839.03 1188.73 2838.78 1188.56 2834.72 1185.72 2831.64 1181.91 2829.77 1177.28 2829.61 1176.95 2829.36 1176.3 2829.77 1175.74 2830.01 1175.33 2830.42 1175.01 2831.07 1174.92 2833.91 1174.44 2836.83 1173.95 2839.67 1173.46L2842.84 1172.98C2843.82 1172.9 2844.71 1173.38 2845.36 1174.11 2846.01 1174.84 2846.25 1175.82 2846.09 1176.79 2846.09 1176.79 2845.85 1177.52 2845.76 1177.93L2844.55 1180.93C2843.57 1183.21 2842.68 1185.48 2841.7 1187.83ZM2861.44 1191C2861.11 1191.73 2860.38 1191.97 2860.14 1192.05 2857.7 1192.7 2855.35 1193.11 2852.91 1193.11 2850.39 1193.11 2847.96 1192.7 2845.52 1191.97 2845.28 1191.97 2844.63 1191.73 2844.3 1191 2844.06 1190.35 2844.3 1189.7 2844.47 1189.46 2845.6 1187.43 2846.66 1185.48 2847.79 1183.45L2849.91 1179.63C2850.56 1178.5 2851.61 1177.85 2852.75 1177.85 2853.88 1177.85 2854.94 1178.5 2855.59 1179.63 2856.56 1181.26 2857.46 1182.96 2858.35 1184.59L2859.89 1187.43C2860.22 1188.08 2860.62 1188.73 2860.95 1189.38 2861.11 1189.62 2861.52 1190.27 2861.19 1191ZM2876.13 1177.2C2874.27 1181.99 2871.1 1185.88 2866.96 1188.81 2866.8 1188.89 2866.39 1189.21 2865.9 1189.21 2865.74 1189.21 2865.66 1189.21 2865.5 1189.21 2864.77 1188.97 2864.52 1188.32 2864.44 1188.16 2863.3 1185.4 2862.17 1182.64 2861.03 1179.88L2860.06 1177.52C2860.06 1177.52 2859.73 1176.63 2859.81 1176.06 2859.81 1175.25 2860.22 1174.36 2860.95 1173.71 2861.68 1173.14 2862.57 1172.9 2863.55 1173.06L2874.83 1175.01C2874.83 1175.01 2875.73 1175.17 2876.13 1175.82 2876.38 1176.22 2876.38 1176.71 2876.13 1177.28ZM2877.68 1170.3C2877.68 1170.87 2877.43 1171.27 2877.03 1171.51 2876.78 1171.68 2876.46 1171.76 2876.22 1171.76 2875.97 1171.76 2875.73 1171.76 2875.65 1171.68L2872.07 1170.62C2869.56 1169.89 2867.12 1169.16 2864.6 1168.43 2863.39 1168.11 2862.49 1167.21 2862.25 1166.08 2862 1164.94 2862.41 1163.72 2863.39 1162.91L2871.83 1155.36C2871.83 1155.36 2872.56 1154.71 2873.29 1154.87 2874.02 1154.95 2874.35 1155.6 2874.51 1155.85 2876.38 1159.09 2877.51 1162.58 2877.76 1166.24 2877.76 1167.13 2877.92 1167.78 2877.84 1168.43 2877.84 1169.16 2877.84 1169.73 2877.76 1170.38Z" fill="#000000" fill-rule="evenodd" fill-opacity="1"/><path d="M2898.64 1132.99 2852.96 1111 2807.28 1132.99 2796 1182.4 2827.64 1222 2878.36 1222 2910 1182.4 2898.72 1132.99ZM2893.61 1179.08C2892.72 1180.13 2891.5 1180.62 2890.04 1180.46 2889.07 1180.29 2888.17 1179.97 2887.36 1179.64 2886.96 1179.48 2886.63 1179.32 2886.23 1179.16 2885.17 1178.83 2884.36 1178.51 2883.47 1178.35 2882.82 1178.67 2882.33 1178.75 2882.01 1178.75 2880.87 1181.84 2879.33 1184.76 2877.3 1187.35 2875.11 1190.19 2872.51 1192.55 2869.59 1194.33 2869.67 1194.82 2869.59 1195.22 2869.51 1195.47 2869.51 1195.63 2869.43 1195.79 2869.76 1196.36 2870.32 1197.5 2871.05 1198.63 2871.86 1199.85 2872.35 1200.58 2872.92 1201.39 2873.16 1202.45 2873.57 1204.07 2872.92 1205.69 2871.54 1206.5 2870.16 1207.31 2868.46 1206.99 2867.24 1205.77 2866.43 1204.88 2866.1 1203.91 2865.78 1202.93 2865.37 1201.63 2864.89 1200.01 2864.16 1198.55 2863.99 1198.23 2863.91 1198.23 2863.83 1198.23 2863.26 1198.06 2862.94 1197.82 2862.78 1197.58 2856.12 1199.77 2849.47 1199.77 2842.9 1197.58 2842.57 1198.06 2842.09 1198.23 2841.84 1198.31 2841.76 1198.31 2841.68 1198.31 2841.44 1198.88 2840.87 1200.09 2840.38 1201.47 2839.98 1202.93 2839.73 1203.74 2839.41 1204.47 2839.08 1205.12 2838.35 1206.34 2837.14 1206.99 2835.92 1206.99 2835.43 1206.99 2834.95 1206.91 2834.46 1206.66 2832.84 1205.85 2832.11 1203.91 2832.76 1202.12 2833.08 1201.23 2833.57 1200.5 2833.97 1199.93 2834.95 1198.55 2835.68 1197.33 2836.24 1196.2 2836.41 1195.87 2836.41 1195.79 2836.33 1195.71 2836.08 1195.22 2836.08 1194.74 2836.24 1194.33 2830.4 1190.52 2826.26 1185.32 2823.83 1178.83 2823.26 1178.83 2822.78 1178.59 2822.37 1178.35 2822.37 1178.35 2822.13 1178.35 2821.96 1178.43 2820.58 1178.75 2819.37 1179.16 2817.91 1179.81 2817.01 1180.21 2816.04 1180.54 2814.91 1180.54 2813.12 1180.54 2811.66 1179.4 2811.34 1177.78 2811.01 1176.16 2811.98 1174.45 2813.53 1173.8 2814.34 1173.48 2815.15 1173.32 2816.2 1173.23 2817.66 1173.23 2819.12 1172.99 2820.5 1172.67 2820.99 1172.59 2821.07 1172.5 2821.07 1172.42 2821.23 1172.1 2821.48 1171.77 2821.96 1171.53 2821.23 1164.63 2822.69 1158.14 2826.35 1152.14 2826.1 1151.81 2825.94 1151.41 2825.94 1151 2825.94 1150.84 2825.94 1150.76 2825.37 1150.35 2824.4 1149.62 2823.26 1148.89 2822.05 1148.24 2821.32 1147.84 2820.5 1147.35 2819.77 1146.62 2818.48 1145.32 2818.23 1143.29 2819.37 1141.91 2820.42 1140.45 2822.45 1140.13 2824.07 1141.1 2824.97 1141.59 2825.62 1142.32 2826.26 1143.05 2827.32 1144.27 2828.29 1145.16 2829.27 1145.89 2829.27 1145.89 2829.51 1146.13 2829.59 1146.05 2830.08 1145.89 2830.48 1146.05 2830.89 1146.21 2836 1141.27 2841.92 1138.43 2848.82 1137.61 2848.82 1137.61 2848.82 1137.61 2848.82 1137.61 2848.9 1137.21 2849.23 1136.72 2849.55 1136.4 2849.55 1136.4 2849.55 1136.4 2849.55 1136.15 2849.55 1134.61 2849.31 1133.07 2849.06 1131.69 2848.9 1130.72 2848.9 1129.91 2848.98 1129.18 2849.23 1127.23 2850.69 1125.85 2852.63 1125.93 2854.26 1125.93 2855.64 1127.31 2855.88 1128.93L2856.29 1128.93 2855.8 1131.45C2855.72 1132.42 2855.56 1133.39 2855.39 1134.37 2855.39 1134.94 2855.39 1135.5 2855.39 1136.07L2855.39 1136.48C2855.39 1136.48 2855.96 1137.05 2856.12 1137.7 2858.48 1138.02 2860.42 1138.43 2862.21 1139.07 2866.67 1140.62 2870.65 1143.05 2874.06 1146.3 2874.46 1146.05 2874.87 1145.97 2875.35 1146.05 2875.35 1146.05 2875.52 1146.05 2875.92 1145.73 2876.9 1144.92 2877.87 1143.94 2878.84 1142.89 2879.41 1142.24 2880.06 1141.51 2880.95 1141.02 2882.01 1140.37 2883.31 1140.29 2884.44 1140.78 2885.41 1141.27 2886.15 1142.16 2886.39 1143.29 2886.55 1144.19 2886.39 1145.4 2885.17 1146.7 2884.52 1147.35 2883.71 1147.84 2882.98 1148.16 2881.52 1148.97 2880.38 1149.7 2879.49 1150.52 2879.25 1150.76 2879.25 1150.84 2879.25 1150.92 2879.25 1151.41 2879.09 1151.81 2878.76 1152.14 2881.52 1156.68 2883.06 1161.55 2883.39 1166.74 2883.47 1168.29 2883.39 1169.83 2883.22 1171.45 2883.71 1171.61 2883.87 1172.02 2884.04 1172.18 2884.2 1172.5 2884.44 1172.59 2885.33 1172.67 2886.47 1172.83 2887.28 1172.91 2888.17 1172.99 2888.99 1173.07 2889.8 1173.15 2890.69 1173.32 2892.07 1173.48 2893.12 1174.29 2893.69 1175.51 2894.26 1176.72 2894.1 1177.94 2893.29 1179Z" fill="#000000" fill-rule="evenodd" fill-opacity="1"/><path d="M2875 1170 2876 1171 2875 1170Z" fill="#000000" fill-rule="evenodd" fill-opacity="1"/><path d="M2853 1171 2854.63 1169.96 2855 1167.79 2853.89 1166 2852.11 1166 2851 1167.79 2851.37 1169.96 2853 1171Z" fill="#000000" fill-rule="evenodd" fill-opacity="1"/><path d="M2875 1168.44C2875 1167.8 2875 1167.25 2874.92 1166.69 2874.7 1163.58 2873.86 1160.71 2872.56 1158L2865.32 1164.78C2865.32 1164.78 2864.93 1165.33 2865.01 1165.57 2865.01 1165.81 2865.32 1166.05 2865.62 1166.13 2867.91 1166.85 2870.27 1167.57 2872.56 1168.28L2875 1169C2875 1169 2875 1168.6 2875 1168.36Z" fill="#000000" fill-rule="evenodd" fill-opacity="1"/><text fill="#000000" fill-opacity="1" font-family="Metropolis,Metropolis_MSFontService,sans-serif" font-style="normal" font-variant="normal" font-weight="400" font-stretch="normal" font-size="41" text-anchor="start" direction="ltr" writing-mode="lr-tb" unicode-bidi="normal" text-decoration="none" transform="matrix(1 0 0 1 3464.35 932)">vSphere Supervisor</text><text fill="#FFFFFF" fill-opacity="1" font-family="Metropolis,Metropolis_MSFontService,sans-serif" font-style="normal" font-variant="normal" font-weight="400" font-stretch="normal" font-size="41" text-anchor="start" direction="ltr" writing-mode="lr-tb" unicode-bidi="normal" text-decoration="none" transform="matrix(1 0 0 1 1072.13 1366)">Control Plane VM2</text><path d="M1312.21 1284 1175 1284 1175 1121 1338 1121 1338 1278.96 1326.54 1278.96 1326.54 1132.45 1186.46 1132.45 1186.46 1272.55 1312.21 1272.55 1312.21 1284Z" fill="#FFFFFF" fill-rule="evenodd" fill-opacity="1"/><path d="M1224 1194 1229.32 1194 1235.56 1209.21 1241.68 1194 1247 1194 1237.98 1215 1233.25 1215 1224 1194Z" fill="#FFFFFF" fill-rule="evenodd" fill-opacity="1"/><path d="M1280.24 1194.05C1281.38 1194.75 1282.29 1195.79 1282.97 1196.96 1283.66 1198.24 1284 1199.64 1284 1201.26L1284 1215 1279.1 1215 1279.1 1202.2C1279.1 1200.8 1278.76 1199.64 1277.96 1198.7 1277.17 1197.77 1276.26 1197.31 1275 1197.31 1273.75 1197.31 1272.5 1197.77 1271.7 1198.59 1270.79 1199.4 1270.45 1200.57 1270.45 1201.85L1270.45 1215 1265.67 1215 1265.67 1202.2C1265.67 1200.8 1265.32 1199.64 1264.53 1198.7 1263.73 1197.77 1262.82 1197.31 1261.57 1197.31 1260.31 1197.31 1259.17 1197.77 1258.26 1198.59 1257.35 1199.4 1257.01 1200.57 1257.01 1201.85L1257.01 1215 1252 1215 1252 1193.47 1257.01 1193.47 1257.01 1196.38C1257.58 1195.33 1258.38 1194.51 1259.4 1193.93 1260.43 1193.35 1261.57 1193 1262.93 1193 1264.3 1193 1266.01 1193.47 1267.37 1194.4 1268.63 1195.33 1269.54 1196.61 1270.11 1198.12 1270.45 1196.61 1271.13 1195.33 1272.27 1194.4 1273.41 1193.47 1274.78 1193 1276.48 1193 1278.19 1193 1279.22 1193.35 1280.36 1194.05Z" fill="#FFFFFF" fill-rule="evenodd" fill-opacity="1"/><text fill="#FFFFFF" fill-opacity="1" font-family="Metropolis,Metropolis_MSFontService,sans-serif" font-style="normal" font-variant="normal" font-weight="400" font-stretch="normal" font-size="41" text-anchor="start" direction="ltr" writing-mode="lr-tb" unicode-bidi="normal" text-decoration="none" transform="matrix(1 0 0 1 489.173 1362)">Control Plane VM1</text><path d="M725.209 1281 588 1281 588 1118 751 1118 751 1275.96 739.538 1275.96 739.538 1129.45 599.463 1129.45 599.463 1269.55 725.209 1269.55 725.209 1281Z" fill="#FFFFFF" fill-rule="evenodd" fill-opacity="1"/><path d="M637 1190 642.085 1190 648.055 1205.21 653.915 1190 659 1190 650.377 1211 645.844 1211 637 1190Z" fill="#FFFFFF" fill-rule="evenodd" fill-opacity="1"/><path d="M693.242 1191C694.381 1191.67 695.292 1192.67 695.975 1193.78 696.658 1195 697 1196.33 697 1197.89L697 1211 692.103 1211 692.103 1198.78C692.103 1197.44 691.762 1196.33 690.965 1195.44 690.167 1194.56 689.256 1194.11 688.004 1194.11 686.751 1194.11 685.498 1194.56 684.701 1195.33 683.79 1196.11 683.449 1197.22 683.449 1198.44L683.449 1211 678.666 1211 678.666 1198.78C678.666 1197.44 678.324 1196.33 677.527 1195.44 676.73 1194.56 675.819 1194.11 674.566 1194.11 673.313 1194.11 672.175 1194.56 671.263 1195.33 670.353 1196.11 670.011 1197.22 670.011 1198.44L670.011 1211 665 1211 665 1190.44 670.011 1190.44 670.011 1193.22C670.58 1192.22 671.378 1191.44 672.402 1190.89 673.427 1190.33 674.566 1190 675.933 1190 677.299 1190 679.007 1190.44 680.374 1191.33 681.627 1192.22 682.537 1193.44 683.107 1194.89 683.449 1193.44 684.132 1192.22 685.271 1191.33 686.409 1190.44 687.776 1190 689.484 1190 691.192 1190 692.217 1190.33 693.356 1191Z" fill="#FFFFFF" fill-rule="evenodd" fill-opacity="1"/><rect x="1569.5" y="398.5" width="573" height="119" stroke="#007DA3" stroke-width="4.58333" stroke-linecap="butt" stroke-linejoin="round" stroke-miterlimit="10" stroke-opacity="1" fill="#FFFFFF" fill-opacity="1"/><text fill="#000000" fill-opacity="1" font-family="Metropolis,Metropolis_MSFontService,sans-serif" font-style="normal" font-variant="normal" font-weight="400" font-stretch="normal" font-size="41" text-anchor="start" direction="ltr" writing-mode="lr-tb" unicode-bidi="normal" text-decoration="none" transform="matrix(1 0 0 1 1778.72 472)">vCenter</text><rect x="2178.5" y="398.5" width="572" height="119" stroke="#007DA3" stroke-width="4.58333" stroke-linecap="butt" stroke-linejoin="round" stroke-miterlimit="10" stroke-opacity="1" fill="#FFFFFF" fill-opacity="1"/><text fill="#000000" fill-opacity="1" font-family="Metropolis,Metropolis_MSFontService,sans-serif" font-style="normal" font-variant="normal" font-weight="400" font-stretch="normal" font-size="41" text-anchor="start" direction="ltr" writing-mode="lr-tb" unicode-bidi="normal" text-decoration="none" transform="matrix(1 0 0 1 2420.75 472)">NSX</text><text fill="#000000" fill-opacity="1" font-family="Metropolis,Metropolis_MSFontService,sans-serif" font-style="normal" font-variant="normal" font-weight="400" font-stretch="normal" font-size="41" text-anchor="start" direction="ltr" writing-mode="lr-tb" unicode-bidi="normal" text-decoration="none" transform="matrix(1 0 0 1 3260.29 1653)">Virtual Machines</text><path d="M3213.34 1688 3130 1688 3130 1589 3229 1589 3229 1684.94 3222.04 1684.94 3222.04 1595.96 3136.96 1595.96 3136.96 1681.04 3213.34 1681.04 3213.34 1688Z" fill="#000000" fill-rule="evenodd" fill-opacity="1"/><path d="M3159 1633 3162.24 1633 3166.04 1642.42 3169.76 1633 3173 1633 3167.51 1646 3164.63 1646 3159 1633Z" fill="#000000" fill-rule="evenodd" fill-opacity="1"/><path d="M3193.65 1633.62C3194.36 1634.03 3194.93 1634.65 3195.36 1635.34 3195.79 1636.1 3196 1636.92 3196 1637.88L3196 1646 3192.94 1646 3192.94 1638.43C3192.94 1637.61 3192.73 1636.92 3192.23 1636.37 3191.73 1635.82 3191.16 1635.55 3190.38 1635.55 3189.59 1635.55 3188.81 1635.82 3188.31 1636.3 3187.74 1636.78 3187.53 1637.47 3187.53 1638.23L3187.53 1646 3184.54 1646 3184.54 1638.43C3184.54 1637.61 3184.33 1636.92 3183.83 1636.37 3183.33 1635.82 3182.76 1635.55 3181.98 1635.55 3181.2 1635.55 3180.48 1635.82 3179.91 1636.3 3179.35 1636.78 3179.13 1637.47 3179.13 1638.23L3179.13 1646 3176 1646 3176 1633.28 3179.13 1633.28 3179.13 1634.99C3179.49 1634.38 3179.99 1633.89 3180.63 1633.55 3181.27 1633.21 3181.98 1633 3182.83 1633 3183.69 1633 3184.75 1633.28 3185.61 1633.83 3186.39 1634.38 3186.96 1635.13 3187.32 1636.03 3187.53 1635.13 3187.96 1634.38 3188.67 1633.83 3189.38 1633.28 3190.23 1633 3191.3 1633 3192.37 1633 3193.01 1633.21 3193.72 1633.62Z" fill="#000000" fill-rule="evenodd" fill-opacity="1"/><rect x="2264.5" y="1355.5" width="408" height="461" stroke="#E68C28" stroke-width="4.58333" stroke-linecap="butt" stroke-linejoin="round" stroke-miterlimit="10" stroke-opacity="1" fill="#FFFFFF" fill-opacity="1"/><text fill="#000000" fill-opacity="1" font-family="Metropolis,Metropolis_MSFontService,sans-serif" font-style="normal" font-variant="normal" font-weight="400" font-stretch="normal" font-size="41" text-anchor="start" direction="ltr" writing-mode="lr-tb" unicode-bidi="normal" text-decoration="none" transform="matrix(1 0 0 1 2386.96 1411)">vSphere </text><text fill="#000000" fill-opacity="1" font-family="Metropolis,Metropolis_MSFontService,sans-serif" font-style="normal" font-variant="normal" font-weight="400" font-stretch="normal" font-size="41" text-anchor="start" direction="ltr" writing-mode="lr-tb" unicode-bidi="normal" text-decoration="none" transform="matrix(1 0 0 1 2332.26 1461)">Namespace B</text><rect x="2297.5" y="1499.5" width="343" height="282" stroke="#000000" stroke-width="4.58333" stroke-linecap="butt" stroke-linejoin="round" stroke-miterlimit="10" stroke-opacity="1" fill="#FFFFFF" fill-opacity="1"/><path d="M2383 1663.07 2384 1664 2383.25 1663C2383.25 1663 2383.25 1663 2383 1663Z" fill="#000000" fill-rule="evenodd" fill-opacity="1"/><path d="M2371.04 1630.87C2371.04 1630.87 2371.64 1631.1 2371.89 1630.95 2372.15 1630.87 2372.32 1630.63 2372.32 1630.31 2372.49 1627.69 2372.66 1625 2372.83 1622.38L2373 1620C2368.74 1620.79 2365.16 1622.46 2362 1624.92 2363.36 1625.79 2364.73 1626.74 2366.09 1627.61 2367.71 1628.72 2369.42 1629.76 2371.04 1630.87Z" fill="#000000" fill-rule="evenodd" fill-opacity="1"/><path d="M2386.33 1649.16C2386.33 1649.16 2386.02 1649.49 2386.02 1649.82L2385 1650.64 2386.1 1650.15 2387.04 1652.53C2388.06 1654.99 2389 1657.54 2390.02 1660 2393.16 1657.54 2395.43 1654.5 2397 1650.81L2386.96 1649C2386.96 1649 2386.49 1649.08 2386.33 1649.16Z" fill="#000000" fill-rule="evenodd" fill-opacity="1"/><path d="M2366.28 1649 2363.57 1649.5C2361.02 1649.91 2358.55 1650.41 2356 1650.82 2357.59 1654.54 2359.99 1657.6 2363.09 1660 2363.97 1657.85 2364.77 1655.78 2365.57 1653.71L2366.76 1650.65C2366.76 1650.65 2366.92 1650.16 2367 1649.99 2367 1649.83 2367 1649.58 2366.84 1649.41 2366.68 1649.25 2366.52 1649.17 2366.28 1649.08Z" fill="#000000" fill-rule="evenodd" fill-opacity="1"/><path d="M2379.89 1659.23C2379.04 1657.67 2378.18 1656.03 2377.24 1654.47 2377.08 1654.16 2376.77 1654.08 2376.54 1654 2376.3 1654 2375.99 1654.16 2375.84 1654.47L2373.81 1658.14C2372.87 1659.86 2371.94 1661.5 2371 1663.22 2372.87 1663.69 2374.67 1663.92 2376.54 1664 2378.33 1664 2380.21 1663.77 2382 1663.3 2381.77 1662.83 2381.53 1662.44 2381.3 1662.05L2379.82 1659.31Z" fill="#000000" fill-rule="evenodd" fill-opacity="1"/><path d="M2398 1650 2399 1651 2398 1650Z" fill="#000000" fill-rule="evenodd" fill-opacity="1"/><path d="M2364.83 1639.37C2364.83 1639.37 2364.83 1638.77 2364.34 1638.25 2361.76 1635.83 2359.19 1633.42 2356.61 1631 2355.12 1634.02 2354.29 1637.13 2354.04 1640.41 2354.04 1641.19 2353.95 1642.14 2354.04 1643L2355.78 1642.48C2358.52 1641.62 2361.35 1640.84 2364.09 1639.98 2364.83 1639.72 2364.92 1639.46 2365 1639.29Z" fill="#000000" fill-rule="evenodd" fill-opacity="1"/><path d="M2381.95 1630.97C2381.95 1630.97 2382.42 1631.13 2382.97 1630.73 2385.65 1628.81 2388.32 1626.89 2391 1624.96 2387.93 1622.4 2384.62 1620.72 2381 1620L2381.55 1630.01C2381.55 1630.73 2381.79 1630.81 2381.95 1630.89Z" fill="#000000" fill-rule="evenodd" fill-opacity="1"/><path d="M2412.23 1648.79C2411.34 1648.71 2410.45 1648.63 2409.63 1648.47 2408.5 1648.31 2407.2 1648.15 2406.39 1646.95 2405.9 1646.87 2405.57 1646.62 2405.41 1646.38 2404.92 1645.82 2405.01 1645.18 2405.09 1644.86 2405.25 1643.26 2405.33 1641.74 2405.25 1640.22 2405.01 1635.33 2403.46 1630.76 2400.86 1626.6 2400.7 1626.36 2400.38 1625.79 2400.54 1625.07 2400.62 1624.67 2400.86 1624.35 2401.19 1624.11 2401.27 1623.39 2401.68 1622.75 2402.33 1622.19 2403.38 1621.31 2404.6 1620.51 2406.22 1619.63 2406.87 1619.31 2407.44 1618.98 2407.85 1618.5 2408.42 1618.02 2408.42 1617.62 2408.33 1617.38 2408.33 1616.98 2408.01 1616.74 2407.85 1616.66 2407.52 1616.5 2407.04 1616.58 2406.63 1616.82 2406.06 1617.14 2405.57 1617.7 2405.09 1618.18 2404.11 1619.31 2403.06 1620.35 2401.92 1621.23 2401.6 1621.47 2400.78 1622.19 2399.57 1622.03 2399.24 1622.35 2398.83 1622.51 2398.43 1622.43 2397.7 1622.43 2397.21 1621.95 2396.97 1621.71 2393.8 1618.58 2390.06 1616.34 2385.84 1614.9 2383.97 1614.26 2382.03 1613.86 2379.75 1613.54 2379.51 1613.54 2378.94 1613.54 2378.53 1613.06L2378.21 1612.66 2378.21 1611.93C2377.64 1611.29 2377.4 1610.73 2377.4 1610.09L2377.4 1609.77C2377.4 1609.05 2377.4 1608.41 2377.48 1607.69 2377.64 1606.73 2377.72 1605.85 2377.88 1604.88L2377.88 1603.92C2377.88 1603.92 2377.97 1603.2 2377.97 1603.2 2377.97 1602.56 2377.48 1602.08 2376.99 1602 2376.42 1602 2375.94 1602.4 2375.85 1603.04 2375.85 1603.52 2375.85 1604.08 2375.94 1604.88 2376.18 1606.41 2376.42 1608.01 2376.42 1609.69 2376.42 1610.09 2376.42 1610.97 2375.69 1611.69 2375.69 1612.25 2375.53 1612.66 2375.29 1612.98 2375.04 1613.3 2374.64 1613.46 2374.07 1613.54L2373.5 1613.54C2367.08 1614.42 2361.4 1617.06 2356.85 1621.63 2356.61 1621.87 2356.12 1622.51 2355.31 1622.35 2354.99 1622.35 2354.58 1622.19 2354.26 1622.03 2353.2 1622.11 2352.47 1621.55 2352.14 1621.39 2351.01 1620.51 2349.95 1619.55 2348.81 1618.26 2348.25 1617.62 2347.76 1617.14 2347.19 1616.74 2346.62 1616.42 2345.97 1616.5 2345.65 1616.9 2345.32 1617.3 2345.4 1617.94 2345.89 1618.42 2346.38 1618.9 2346.95 1619.22 2347.6 1619.55 2348.9 1620.27 2350.11 1620.99 2351.17 1621.87 2351.66 1622.27 2352.47 1622.91 2352.63 1624.03 2352.96 1624.27 2353.12 1624.59 2353.2 1624.91 2353.36 1625.63 2353.04 1626.28 2352.79 1626.6 2349.3 1632.2 2347.92 1638.29 2348.73 1644.7 2348.9 1646.22 2347.92 1646.7 2347.43 1646.79 2346.87 1647.67 2345.97 1647.91 2345.32 1648.07 2343.78 1648.39 2342.16 1648.55 2340.61 1648.63 2339.88 1648.63 2339.31 1648.79 2338.75 1648.95 2338.18 1649.19 2337.93 1649.75 2338.01 1650.15 2338.1 1650.63 2338.66 1651.11 2339.23 1650.95 2339.88 1650.95 2340.53 1650.71 2341.26 1650.39 2342.81 1649.75 2344.19 1649.27 2345.49 1648.95 2346.14 1648.79 2346.95 1648.55 2347.76 1649.03 2348 1649.19 2348.08 1649.19 2348.08 1649.19L2348.57 1649.03 2349.3 1649.27C2349.87 1649.59 2350.03 1650.07 2350.11 1650.31 2352.39 1656.64 2356.37 1661.61 2362.13 1665.13 2363.19 1665.77 2363.19 1666.73 2362.78 1667.46 2363.19 1668.5 2362.78 1669.38 2362.54 1669.7 2361.89 1670.98 2361.16 1672.26 2360.02 1673.78 2359.53 1674.43 2359.29 1674.91 2359.13 1675.39 2358.88 1676.03 2359.13 1676.67 2359.61 1676.91 2360.1 1677.15 2360.75 1676.91 2361.08 1676.27 2361.32 1675.87 2361.56 1675.31 2361.73 1674.67 2362.21 1673.06 2362.7 1671.62 2363.35 1670.34 2363.51 1669.94 2364 1668.98 2365.14 1668.58 2365.38 1668.02 2366.11 1667.21 2367.57 1667.7 2373.74 1669.86 2380 1669.86 2386.33 1667.78 2386.82 1667.62 2387.47 1667.37 2388.2 1667.78 2388.52 1667.94 2388.77 1668.18 2388.93 1668.58 2389.66 1668.82 2390.15 1669.3 2390.55 1670.1 2391.36 1671.7 2391.85 1673.38 2392.26 1674.75 2392.5 1675.55 2392.74 1676.11 2393.15 1676.51 2393.56 1676.91 2394.04 1676.99 2394.45 1676.75 2394.86 1676.51 2395.02 1675.95 2394.86 1675.47 2394.69 1674.83 2394.29 1674.26 2393.88 1673.7 2392.99 1672.42 2392.18 1671.22 2391.53 1670.02 2391.28 1669.54 2390.71 1668.58 2391.12 1667.37 2390.8 1666.65 2390.88 1665.77 2391.93 1665.13 2394.77 1663.45 2397.29 1661.21 2399.4 1658.56 2401.35 1656.08 2402.89 1653.35 2403.87 1650.39 2404.27 1649.11 2405.33 1648.87 2406.14 1649.11 2406.47 1648.71 2407.28 1648.55 2408.09 1648.71 2409.07 1648.95 2410.04 1649.19 2410.93 1649.51 2411.58 1649.75 2411.99 1649.91 2412.4 1650.07 2413.13 1650.39 2413.78 1650.63 2414.51 1650.71 2415.24 1650.87 2415.56 1650.55 2415.81 1650.23 2416.05 1649.91 2416.05 1649.67 2415.89 1649.35 2415.64 1648.87 2415.32 1648.63 2414.75 1648.55 2413.94 1648.47 2413.13 1648.39 2412.31 1648.31ZM2379.18 1617.78C2379.75 1617.3 2380.48 1617.38 2381.29 1617.54 2385.84 1618.34 2390.06 1620.43 2393.64 1623.63 2393.88 1623.87 2394.45 1624.35 2394.37 1625.07 2394.37 1625.79 2393.72 1626.28 2393.48 1626.44 2390.47 1628.52 2387.55 1630.6 2384.54 1632.68 2383.81 1633.17 2383.08 1633.41 2382.35 1633.41 2381.86 1633.41 2381.46 1633.33 2380.97 1633.09 2379.83 1632.6 2379.18 1631.56 2379.1 1630.12L2378.53 1619.95C2378.53 1618.98 2378.53 1618.26 2379.1 1617.78ZM2379.67 1636.29 2383 1640.46 2381.86 1645.66 2376.99 1647.99 2372.12 1645.66 2370.9 1640.46 2374.23 1636.29 2379.67 1636.29ZM2359.86 1623.79 2360.75 1624.67 2359.94 1623.79C2363.43 1620.59 2367.57 1618.58 2372.2 1617.7 2372.53 1617.7 2372.77 1617.62 2372.93 1617.54 2373.58 1617.46 2374.15 1617.38 2374.72 1617.86 2375.29 1618.34 2375.21 1618.98 2375.21 1619.55L2375.04 1622.51C2374.88 1625.15 2374.72 1627.88 2374.56 1630.52 2374.56 1631.72 2373.82 1632.68 2372.77 1633.17 2372.36 1633.41 2371.88 1633.49 2371.39 1633.49 2370.74 1633.49 2370.09 1633.25 2369.52 1632.92 2367.98 1631.8 2366.35 1630.76 2364.81 1629.64 2363.27 1628.52 2361.64 1627.48 2360.1 1626.36 2359.61 1626.03 2359.37 1625.63 2359.29 1625.15 2359.29 1624.43 2359.7 1624.03 2359.94 1623.87ZM2352.23 1644.3C2351.9 1642.7 2351.98 1641.18 2352.06 1639.9 2352.31 1636.13 2353.44 1632.6 2355.31 1629.4 2355.47 1629.16 2355.8 1628.52 2356.53 1628.44 2357.26 1628.36 2357.75 1628.76 2357.99 1628.92 2360.75 1631.4 2363.51 1633.81 2366.27 1636.21 2367.41 1637.17 2367.82 1638.29 2367.49 1639.57 2367.08 1641.42 2365.46 1641.82 2364.89 1641.98 2362.21 1642.7 2359.53 1643.5 2356.77 1644.3L2352.47 1645.5 2352.23 1644.22ZM2365.54 1661.05C2365.54 1661.05 2365.14 1662.01 2364.41 1662.25 2364.24 1662.25 2364.08 1662.25 2364 1662.25 2363.43 1662.25 2363.02 1661.93 2362.78 1661.77 2358.72 1658.96 2355.64 1655.2 2353.77 1650.63 2353.61 1650.31 2353.36 1649.67 2353.77 1649.11 2354.01 1648.71 2354.42 1648.39 2355.07 1648.31 2357.91 1647.83 2360.83 1647.35 2363.67 1646.87L2366.84 1646.38C2367.82 1646.3 2368.71 1646.79 2369.36 1647.51 2370.01 1648.23 2370.25 1649.19 2370.09 1650.15 2370.09 1650.15 2369.85 1650.87 2369.76 1651.27L2368.55 1654.24C2367.57 1656.48 2366.68 1658.72 2365.7 1661.05ZM2385.44 1664.17C2385.11 1664.89 2384.38 1665.13 2384.14 1665.21 2381.7 1665.85 2379.35 1666.25 2376.91 1666.25 2374.39 1666.25 2371.96 1665.85 2369.52 1665.13 2369.28 1665.13 2368.63 1664.89 2368.3 1664.17 2368.06 1663.53 2368.3 1662.89 2368.47 1662.65 2369.6 1660.65 2370.66 1658.72 2371.79 1656.72L2373.91 1652.95C2374.56 1651.83 2375.61 1651.19 2376.75 1651.19 2377.88 1651.19 2378.94 1651.83 2379.59 1652.95 2380.56 1654.56 2381.46 1656.24 2382.35 1657.84L2383.89 1660.65C2384.22 1661.29 2384.62 1661.93 2384.95 1662.57 2385.11 1662.81 2385.52 1663.45 2385.19 1664.17ZM2400.13 1650.55C2398.27 1655.28 2395.1 1659.12 2390.96 1662.01 2390.8 1662.09 2390.39 1662.41 2389.9 1662.41 2389.74 1662.41 2389.66 1662.41 2389.5 1662.41 2388.77 1662.17 2388.52 1661.53 2388.44 1661.37 2387.3 1658.64 2386.17 1655.92 2385.03 1653.19L2384.06 1650.87C2384.06 1650.87 2383.73 1649.99 2383.81 1649.43 2383.81 1648.63 2384.22 1647.75 2384.95 1647.11 2385.68 1646.54 2386.57 1646.3 2387.55 1646.46L2398.83 1648.39C2398.83 1648.39 2399.73 1648.55 2400.13 1649.19 2400.38 1649.59 2400.38 1650.07 2400.13 1650.63ZM2401.68 1643.74C2401.68 1644.3 2401.43 1644.7 2401.03 1644.94 2400.78 1645.1 2400.46 1645.18 2400.21 1645.18 2399.97 1645.18 2399.73 1645.18 2399.65 1645.1L2396.07 1644.06C2393.56 1643.34 2391.12 1642.62 2388.6 1641.9 2387.39 1641.58 2386.49 1640.7 2386.25 1639.57 2386 1638.45 2386.41 1637.25 2387.39 1636.45L2395.83 1629C2395.83 1629 2396.56 1628.36 2397.29 1628.52 2398.02 1628.6 2398.35 1629.24 2398.51 1629.48 2400.38 1632.68 2401.51 1636.13 2401.76 1639.73 2401.76 1640.62 2401.92 1641.26 2401.84 1641.9 2401.84 1642.62 2401.84 1643.18 2401.76 1643.82Z" fill="#000000" fill-rule="evenodd" fill-opacity="1"/><path d="M2422.64 1606.79 2376.96 1585 2331.28 1606.79 2320 1655.76 2351.64 1695 2402.36 1695 2434 1655.76 2422.72 1606.79ZM2417.61 1652.46C2416.72 1653.51 2415.5 1653.99 2414.04 1653.83 2413.07 1653.67 2412.17 1653.35 2411.36 1653.03 2410.96 1652.87 2410.63 1652.7 2410.23 1652.54 2409.17 1652.22 2408.36 1651.9 2407.47 1651.74 2406.82 1652.06 2406.33 1652.14 2406.01 1652.14 2404.87 1655.2 2403.33 1658.09 2401.3 1660.67 2399.11 1663.48 2396.51 1665.81 2393.59 1667.58 2393.67 1668.06 2393.59 1668.46 2393.51 1668.71 2393.51 1668.87 2393.43 1669.03 2393.76 1669.59 2394.32 1670.72 2395.05 1671.84 2395.86 1673.05 2396.35 1673.77 2396.92 1674.58 2397.16 1675.62 2397.57 1677.23 2396.92 1678.84 2395.54 1679.64 2394.16 1680.45 2392.46 1680.12 2391.24 1678.92 2390.43 1678.03 2390.1 1677.07 2389.78 1676.1 2389.37 1674.82 2388.89 1673.21 2388.16 1671.76 2387.99 1671.44 2387.91 1671.44 2387.83 1671.44 2387.26 1671.28 2386.94 1671.04 2386.78 1670.8 2380.12 1672.97 2373.47 1672.97 2366.9 1670.8 2366.57 1671.28 2366.09 1671.44 2365.84 1671.52 2365.76 1671.52 2365.68 1671.52 2365.44 1672.08 2364.87 1673.29 2364.38 1674.66 2363.98 1676.1 2363.73 1676.91 2363.41 1677.63 2363.08 1678.27 2362.35 1679.48 2361.14 1680.12 2359.92 1680.12 2359.43 1680.12 2358.95 1680.04 2358.46 1679.8 2356.84 1679 2356.11 1677.07 2356.76 1675.3 2357.08 1674.42 2357.57 1673.69 2357.97 1673.13 2358.95 1671.76 2359.68 1670.56 2360.24 1669.43 2360.41 1669.11 2360.41 1669.03 2360.33 1668.95 2360.08 1668.46 2360.08 1667.98 2360.24 1667.58 2354.4 1663.8 2350.26 1658.66 2347.83 1652.22 2347.26 1652.22 2346.78 1651.98 2346.37 1651.74 2346.37 1651.74 2346.13 1651.74 2345.96 1651.82 2344.59 1652.14 2343.37 1652.54 2341.91 1653.19 2341.01 1653.59 2340.04 1653.91 2338.91 1653.91 2337.12 1653.91 2335.66 1652.79 2335.34 1651.18 2335.01 1649.57 2335.98 1647.88 2337.53 1647.24 2338.34 1646.92 2339.15 1646.75 2340.2 1646.67 2341.66 1646.67 2343.12 1646.43 2344.5 1646.11 2344.99 1646.03 2345.07 1645.95 2345.07 1645.87 2345.23 1645.55 2345.48 1645.23 2345.96 1644.99 2345.23 1638.15 2346.69 1631.72 2350.35 1625.77 2350.1 1625.45 2349.94 1625.04 2349.94 1624.64 2349.94 1624.48 2349.94 1624.4 2349.37 1624 2348.4 1623.27 2347.26 1622.55 2346.05 1621.91 2345.32 1621.51 2344.5 1621.02 2343.77 1620.3 2342.48 1619.01 2342.23 1617 2343.37 1615.64 2344.42 1614.19 2346.45 1613.87 2348.07 1614.83 2348.97 1615.31 2349.62 1616.04 2350.26 1616.76 2351.32 1617.97 2352.29 1618.85 2353.27 1619.58 2353.27 1619.58 2353.51 1619.82 2353.59 1619.74 2354.08 1619.58 2354.48 1619.74 2354.89 1619.9 2360 1614.99 2365.92 1612.18 2372.82 1611.37 2372.82 1611.37 2372.82 1611.37 2372.82 1611.37 2372.9 1610.97 2373.23 1610.49 2373.55 1610.17 2373.55 1610.17 2373.55 1610.17 2373.55 1609.93 2373.55 1608.4 2373.31 1606.87 2373.06 1605.5 2372.9 1604.54 2372.9 1603.74 2372.98 1603.01 2373.23 1601.08 2374.69 1599.71 2376.64 1599.8 2378.26 1599.8 2379.64 1601.16 2379.88 1602.77L2380.29 1602.77 2379.8 1605.26C2379.72 1606.23 2379.56 1607.19 2379.39 1608.16 2379.39 1608.72 2379.39 1609.28 2379.39 1609.85L2379.39 1610.25C2379.39 1610.25 2379.96 1610.81 2380.12 1611.45 2382.48 1611.78 2384.42 1612.18 2386.21 1612.82 2390.67 1614.35 2394.65 1616.76 2398.06 1619.98 2398.46 1619.74 2398.87 1619.66 2399.35 1619.74 2399.35 1619.74 2399.52 1619.74 2399.92 1619.42 2400.9 1618.61 2401.87 1617.65 2402.84 1616.6 2403.41 1615.96 2404.06 1615.23 2404.95 1614.75 2406.01 1614.11 2407.31 1614.03 2408.44 1614.51 2409.42 1614.99 2410.15 1615.88 2410.39 1617 2410.55 1617.89 2410.39 1619.09 2409.17 1620.38 2408.52 1621.02 2407.71 1621.51 2406.98 1621.83 2405.52 1622.63 2404.38 1623.36 2403.49 1624.16 2403.25 1624.4 2403.25 1624.48 2403.25 1624.56 2403.25 1625.04 2403.09 1625.45 2402.76 1625.77 2405.52 1630.27 2407.06 1635.1 2407.39 1640.24 2407.47 1641.77 2407.39 1643.3 2407.22 1644.91 2407.71 1645.07 2407.87 1645.47 2408.04 1645.63 2408.2 1645.95 2408.44 1646.03 2409.33 1646.11 2410.47 1646.27 2411.28 1646.35 2412.17 1646.43 2412.99 1646.51 2413.8 1646.59 2414.69 1646.75 2416.07 1646.92 2417.12 1647.72 2417.69 1648.93 2418.26 1650.13 2418.1 1651.34 2417.29 1652.38Z" fill="#000000" fill-rule="evenodd" fill-opacity="1"/><path d="M2399 1644 2400 1645 2399 1644Z" fill="#000000" fill-rule="evenodd" fill-opacity="1"/><path d="M2377 1644 2378.63 1643.17 2379 1641.43 2377.89 1640 2376.11 1640 2375 1641.43 2375.37 1643.17 2377 1644Z" fill="#000000" fill-rule="evenodd" fill-opacity="1"/><path d="M2399 1642.39C2399 1641.7 2399 1641.09 2398.92 1640.48 2398.66 1637.09 2397.74 1633.96 2396.32 1631L2388.35 1638.39C2388.35 1638.39 2387.93 1639 2388.01 1639.26 2388.01 1639.52 2388.35 1639.78 2388.68 1639.87 2391.2 1640.65 2393.8 1641.43 2396.32 1642.22L2399 1643C2399 1643 2399 1642.57 2399 1642.3Z" fill="#000000" fill-rule="evenodd" fill-opacity="1"/><text fill="#000000" fill-opacity="1" font-family="Metropolis,Metropolis_MSFontService,sans-serif" font-style="normal" font-variant="normal" font-weight="400" font-stretch="normal" font-size="41" text-anchor="start" direction="ltr" writing-mode="lr-tb" unicode-bidi="normal" text-decoration="none" transform="matrix(1 0 0 1 2446.52 1627)">vSphere</text><text fill="#000000" fill-opacity="1" font-family="Metropolis,Metropolis_MSFontService,sans-serif" font-style="normal" font-variant="normal" font-weight="400" font-stretch="normal" font-size="41" text-anchor="start" direction="ltr" writing-mode="lr-tb" unicode-bidi="normal" text-decoration="none" transform="matrix(1 0 0 1 2478.33 1677)">Pods</text><rect x="433.5" y="2025.5" width="421" height="118" stroke="#007DA3" stroke-width="4.58333" stroke-linecap="butt" stroke-linejoin="round" stroke-miterlimit="10" stroke-opacity="1" fill="#FFFFFF" fill-opacity="1"/><text fill="#000000" fill-opacity="1" font-family="Metropolis,Metropolis_MSFontService,sans-serif" font-style="normal" font-variant="normal" font-weight="400" font-stretch="normal" font-size="41" text-anchor="start" direction="ltr" writing-mode="lr-tb" unicode-bidi="normal" text-decoration="none" transform="matrix(1 0 0 1 534.845 2098)">Datastore 1</text><rect x="1039.5" y="2025.5" width="421" height="118" stroke="#007DA3" stroke-width="4.58333" stroke-linecap="butt" stroke-linejoin="round" stroke-miterlimit="10" stroke-opacity="1" fill="#FFFFFF" fill-opacity="1"/><text fill="#000000" fill-opacity="1" font-family="Metropolis,Metropolis_MSFontService,sans-serif" font-style="normal" font-variant="normal" font-weight="400" font-stretch="normal" font-size="41" text-anchor="start" direction="ltr" writing-mode="lr-tb" unicode-bidi="normal" text-decoration="none" transform="matrix(1 0 0 1 1136.59 2098)">Datastore 2</text><rect x="1645.5" y="2025.5" width="421" height="118" stroke="#007DA3" stroke-width="4.58333" stroke-linecap="butt" stroke-linejoin="round" stroke-miterlimit="10" stroke-opacity="1" fill="#FFFFFF" fill-opacity="1"/><text fill="#000000" fill-opacity="1" font-family="Metropolis,Metropolis_MSFontService,sans-serif" font-style="normal" font-variant="normal" font-weight="400" font-stretch="normal" font-size="41" text-anchor="start" direction="ltr" writing-mode="lr-tb" unicode-bidi="normal" text-decoration="none" transform="matrix(1 0 0 1 1742.34 2098)">Datastore 3</text><rect x="2258.5" y="2025.5" width="421" height="118" stroke="#007DA3" stroke-width="4.58333" stroke-linecap="butt" stroke-linejoin="round" stroke-miterlimit="10" stroke-opacity="1" fill="#FFFFFF" fill-opacity="1"/><text fill="#000000" fill-opacity="1" font-family="Metropolis,Metropolis_MSFontService,sans-serif" font-style="normal" font-variant="normal" font-weight="400" font-stretch="normal" font-size="41" text-anchor="start" direction="ltr" writing-mode="lr-tb" unicode-bidi="normal" text-decoration="none" transform="matrix(1 0 0 1 2354.89 2098)">Datastore 4</text><path d="M644.5 1971.5 644.5 2025.21" stroke="#007A86" stroke-width="4.58333" stroke-linecap="butt" stroke-linejoin="round" stroke-miterlimit="10" stroke-opacity="1" fill="none" fill-rule="evenodd"/><path d="M0 0 0.337795 53.7113" stroke="#007A86" stroke-width="4.58333" stroke-linecap="butt" stroke-linejoin="round" stroke-miterlimit="10" stroke-opacity="1" fill="none" fill-rule="evenodd" transform="matrix(-1 0 0 1 1250.84 1971.5)"/><path d="M0 0 1.03793 53.7113" stroke="#007A86" stroke-width="4.58333" stroke-linecap="butt" stroke-linejoin="round" stroke-miterlimit="10" stroke-opacity="1" fill="none" fill-rule="evenodd" transform="matrix(-1 0 0 1 1857.54 1971.5)"/><path d="M2468.5 1971.5 2468.5 2025.22" stroke="#007A86" stroke-width="4.58333" stroke-linecap="butt" stroke-linejoin="round" stroke-miterlimit="10" stroke-opacity="1" fill="none" fill-rule="evenodd"/><rect x="2865.5" y="2022.5" width="421" height="119" stroke="#007DA3" stroke-width="4.58333" stroke-linecap="butt" stroke-linejoin="round" stroke-miterlimit="10" stroke-opacity="1" fill="#FFFFFF" fill-opacity="1"/><text fill="#000000" fill-opacity="1" font-family="Metropolis,Metropolis_MSFontService,sans-serif" font-style="normal" font-variant="normal" font-weight="400" font-stretch="normal" font-size="41" text-anchor="start" direction="ltr" writing-mode="lr-tb" unicode-bidi="normal" text-decoration="none" transform="matrix(1 0 0 1 2962.22 2096)">Datastore 5</text><path d="M3075.5 1971.5 3076.3 2022.97" stroke="#007A86" stroke-width="4.58333" stroke-linecap="butt" stroke-linejoin="round" stroke-miterlimit="10" stroke-opacity="1" fill="none" fill-rule="evenodd"/><rect x="3472.5" y="2025.5" width="421" height="118" stroke="#007DA3" stroke-width="4.58333" stroke-linecap="butt" stroke-linejoin="round" stroke-miterlimit="10" stroke-opacity="1" fill="#FFFFFF" fill-opacity="1"/><text fill="#000000" fill-opacity="1" font-family="Metropolis,Metropolis_MSFontService,sans-serif" font-style="normal" font-variant="normal" font-weight="400" font-stretch="normal" font-size="41" text-anchor="start" direction="ltr" writing-mode="lr-tb" unicode-bidi="normal" text-decoration="none" transform="matrix(1 0 0 1 3568.74 2098)">Datastore 6</text><path d="M3682.5 1971.5 3683.44 2025.21" stroke="#007A86" stroke-width="4.58333" stroke-linecap="butt" stroke-linejoin="round" stroke-miterlimit="10" stroke-opacity="1" fill="none" fill-rule="evenodd"/></g></g></svg>