<svg width="784" height="549" xmlns="http://www.w3.org/2000/svg" xmlns:xlink="http://www.w3.org/1999/xlink" xml:space="preserve" overflow="hidden"><g transform="translate(-50 -85)"><g><g><g><g><path d="M0 0 780.099 0 780.099 544.822 0 544.822Z" stroke="#000000" stroke-width="1.32966" stroke-linecap="butt" stroke-linejoin="round" stroke-miterlimit="10" stroke-dasharray="5.31863 3.98898" stroke-opacity="1" fill="none" fill-rule="nonzero" transform="matrix(-1 0 0 1.00051 832.985 87.8867)"/><text fill="#221E20" fill-opacity="1" font-family="Metropolis,Metropolis_MSFontService,sans-serif" font-style="normal" font-variant="normal" font-weight="400" font-stretch="normal" font-size="41" text-anchor="start" direction="ltr" writing-mode="lr-tb" unicode-bidi="normal" text-decoration="none" transform="matrix(0.290107 0 0 0.290254 391.076 104)">Workload Domain</text><path d="M0 0 238.178 0 238.178 400.348 0 400.348Z" stroke="#007DA3" stroke-width="1.32966" stroke-linecap="butt" stroke-linejoin="round" stroke-miterlimit="10" stroke-opacity="1" fill="#FFFFFF" fill-rule="nonzero" fill-opacity="1" transform="matrix(-1 0 0 1.00051 307.31 160.45)"/><text fill="#221E20" fill-opacity="1" font-family="Metropolis,Metropolis_MSFontService,sans-serif" font-style="normal" font-variant="normal" font-weight="400" font-stretch="normal" font-size="41" text-anchor="start" direction="ltr" writing-mode="lr-tb" unicode-bidi="normal" text-decoration="none" transform="matrix(0.290107 0 0 0.290254 138.971 176)">vSphere Cluster 1</text><path d="M199.884 190.02 417.175 190.02 417.175 552.075 199.884 552.075Z" fill="#007DA3" fill-rule="nonzero" fill-opacity="1" transform="matrix(1 0 0 1.00051 -120.453 -3.10805)"/><text fill="#FFFFFF" fill-opacity="1" font-family="Metropolis,Metropolis_MSFontService,sans-serif" font-style="normal" font-variant="normal" font-weight="400" font-stretch="normal" font-size="41" text-anchor="start" direction="ltr" writing-mode="lr-tb" unicode-bidi="normal" text-decoration="none" transform="matrix(0.290107 0 0 0.290254 144.622 203)">vSphere Zone 1</text><text fill="#FFFFFF" fill-opacity="1" font-family="Metropolis,Metropolis_MSFontService,sans-serif" font-style="normal" font-variant="normal" font-weight="400" font-stretch="normal" font-size="41" text-anchor="start" direction="ltr" writing-mode="lr-tb" unicode-bidi="normal" text-decoration="none" transform="matrix(0.290107 0 0 0.290254 148.778 218)">(Management </text><text fill="#FFFFFF" fill-opacity="1" font-family="Metropolis,Metropolis_MSFontService,sans-serif" font-style="normal" font-variant="normal" font-weight="400" font-stretch="normal" font-size="41" text-anchor="start" direction="ltr" writing-mode="lr-tb" unicode-bidi="normal" text-decoration="none" transform="matrix(0.290107 0 0 0.290254 145.62 232)">and Workload)</text><path d="M394.691 118.799 560.633 118.799 560.633 153.032 394.691 153.032Z" stroke="#007DA3" stroke-width="1.32966" stroke-linecap="butt" stroke-linejoin="round" stroke-miterlimit="10" stroke-opacity="1" fill="#FFFFFF" fill-rule="nonzero" fill-opacity="1" transform="matrix(1 0 0 1.00051 -120.453 -3.10805)"/><text fill="#000000" fill-opacity="1" font-family="Metropolis,Metropolis_MSFontService,sans-serif" font-style="normal" font-variant="normal" font-weight="400" font-stretch="normal" font-size="41" text-anchor="start" direction="ltr" writing-mode="lr-tb" unicode-bidi="normal" text-decoration="none" transform="matrix(0.290107 0 0 0.290254 334.711 137)">vCenter</text><path d="M570.786 118.799 737.018 118.799 737.018 153.032 570.786 153.032Z" stroke="#007DA3" stroke-width="1.32966" stroke-linecap="butt" stroke-linejoin="round" stroke-miterlimit="10" stroke-opacity="1" fill="#FFFFFF" fill-rule="nonzero" fill-opacity="1" transform="matrix(1 0 0 1.00051 -120.453 -3.10805)"/><text fill="#000000" fill-opacity="1" font-family="Metropolis,Metropolis_MSFontService,sans-serif" font-style="normal" font-variant="normal" font-weight="400" font-stretch="normal" font-size="41" text-anchor="start" direction="ltr" writing-mode="lr-tb" unicode-bidi="normal" text-decoration="none" transform="matrix(0.290107 0 0 0.290254 520.765 137)">NSX</text><text fill="#FFFFFF" fill-opacity="1" font-family="Metropolis,Metropolis_MSFontService,sans-serif" font-style="normal" font-variant="normal" font-weight="400" font-stretch="normal" font-size="41" text-anchor="start" direction="ltr" writing-mode="lr-tb" unicode-bidi="normal" text-decoration="none" transform="matrix(0.290107 0 0 0.290254 153.425 301)">Control Plane VM 1</text><path d="M258.337 317.668 229.765 317.668 229.765 283.725 263.708 283.725 263.708 316.617 261.321 316.617 261.321 286.11 232.152 286.11 232.152 315.283 258.337 315.283 258.337 317.668Z" fill="#FFFFFF" fill-rule="evenodd" fill-opacity="1" transform="matrix(1 0 0 1.00051 -120.453 -3.10805)"/><path d="M239.919 298.811 241.059 298.811 242.397 301.961 243.711 298.811 244.851 298.811 242.918 303.162 241.901 303.162 239.919 298.811Z" fill="#FFFFFF" fill-rule="evenodd" fill-opacity="1" transform="matrix(1 0 0 1.00051 -120.453 -3.10805)"/><path d="M251.9 299.017C252.137 299.156 252.327 299.362 252.47 299.594 252.612 299.846 252.684 300.122 252.684 300.444L252.684 303.162 251.662 303.162 251.662 300.63C251.662 300.354 251.591 300.122 251.425 299.939 251.259 299.754 251.069 299.664 250.808 299.664 250.547 299.664 250.285 299.754 250.119 299.916 249.929 300.076 249.858 300.308 249.858 300.56L249.858 303.162 248.861 303.162 248.861 300.63C248.861 300.354 248.789 300.122 248.623 299.939 248.457 299.754 248.267 299.664 248.006 299.664 247.745 299.664 247.507 299.754 247.317 299.916 247.127 300.076 247.056 300.308 247.056 300.56L247.056 303.162 246.011 303.162 246.011 298.904 247.056 298.904 247.056 299.478C247.175 299.272 247.341 299.109 247.555 298.993 247.768 298.88 248.006 298.811 248.291 298.811 248.576 298.811 248.932 298.904 249.217 299.086 249.478 299.272 249.668 299.524 249.787 299.823 249.858 299.524 250 299.272 250.238 299.086 250.475 298.904 250.76 298.811 251.116 298.811 251.473 298.811 251.686 298.88 251.924 299.017Z" fill="#FFFFFF" fill-rule="evenodd" fill-opacity="1" transform="matrix(1 0 0 1.00051 -120.453 -3.10805)"/><path d="M0 0 237.888 0 237.888 400.348 0 400.348Z" stroke="#007DA3" stroke-width="1.32966" stroke-linecap="butt" stroke-linejoin="round" stroke-miterlimit="10" stroke-opacity="1" fill="#FFFFFF" fill-rule="nonzero" fill-opacity="1" transform="matrix(-1 0 0 1.00051 562.895 160.45)"/><text fill="#221E20" fill-opacity="1" font-family="Metropolis,Metropolis_MSFontService,sans-serif" font-style="normal" font-variant="normal" font-weight="400" font-stretch="normal" font-size="41" text-anchor="start" direction="ltr" writing-mode="lr-tb" unicode-bidi="normal" text-decoration="none" transform="matrix(0.290107 0 0 0.290254 393.492 176)">vSphere Cluster 2</text><path d="M455.469 190.02 673.049 190.02 673.049 552.075 455.469 552.075Z" fill="#007DA3" fill-rule="nonzero" fill-opacity="1" transform="matrix(1 0 0 1.00051 -120.453 -3.10805)"/><text fill="#FFFFFF" fill-opacity="1" font-family="Metropolis,Metropolis_MSFontService,sans-serif" font-style="normal" font-variant="normal" font-weight="400" font-stretch="normal" font-size="41" text-anchor="start" direction="ltr" writing-mode="lr-tb" unicode-bidi="normal" text-decoration="none" transform="matrix(0.290107 0 0 0.290254 399.143 203)">vSphere Zone 2</text><text fill="#FFFFFF" fill-opacity="1" font-family="Metropolis,Metropolis_MSFontService,sans-serif" font-style="normal" font-variant="normal" font-weight="400" font-stretch="normal" font-size="41" text-anchor="start" direction="ltr" writing-mode="lr-tb" unicode-bidi="normal" text-decoration="none" transform="matrix(0.290107 0 0 0.290254 404.548 218)">(Management </text><text fill="#FFFFFF" fill-opacity="1" font-family="Metropolis,Metropolis_MSFontService,sans-serif" font-style="normal" font-variant="normal" font-weight="400" font-stretch="normal" font-size="41" text-anchor="start" direction="ltr" writing-mode="lr-tb" unicode-bidi="normal" text-decoration="none" transform="matrix(0.290107 0 0 0.290254 401.389 232)">and Workload)</text><path d="M0 0 238.178 0 238.178 400.348 0 400.348Z" stroke="#007DA3" stroke-width="1.32966" stroke-linecap="butt" stroke-linejoin="round" stroke-miterlimit="10" stroke-opacity="1" fill="#FFFFFF" fill-rule="nonzero" fill-opacity="1" transform="matrix(-1 0 0 1.00051 818.189 160.45)"/><text fill="#221E20" fill-opacity="1" font-family="Metropolis,Metropolis_MSFontService,sans-serif" font-style="normal" font-variant="normal" font-weight="400" font-stretch="normal" font-size="41" text-anchor="start" direction="ltr" writing-mode="lr-tb" unicode-bidi="normal" text-decoration="none" transform="matrix(0.290107 0 0 0.290254 648.508 176)">vSphere Cluster 3</text><path d="M710.763 190.02 928.054 190.02 928.054 552.075 710.763 552.075Z" fill="#007DA3" fill-rule="nonzero" fill-opacity="1" transform="matrix(1 0 0 1.00051 -120.453 -3.10805)"/><text fill="#FFFFFF" fill-opacity="1" font-family="Metropolis,Metropolis_MSFontService,sans-serif" font-style="normal" font-variant="normal" font-weight="400" font-stretch="normal" font-size="41" text-anchor="start" direction="ltr" writing-mode="lr-tb" unicode-bidi="normal" text-decoration="none" transform="matrix(0.290107 0 0 0.290254 654.157 203)">vSphere Zone 3</text><text fill="#FFFFFF" fill-opacity="1" font-family="Metropolis,Metropolis_MSFontService,sans-serif" font-style="normal" font-variant="normal" font-weight="400" font-stretch="normal" font-size="41" text-anchor="start" direction="ltr" writing-mode="lr-tb" unicode-bidi="normal" text-decoration="none" transform="matrix(0.290107 0 0 0.290254 659.643 218)">(Management </text><text fill="#FFFFFF" fill-opacity="1" font-family="Metropolis,Metropolis_MSFontService,sans-serif" font-style="normal" font-variant="normal" font-weight="400" font-stretch="normal" font-size="41" text-anchor="start" direction="ltr" writing-mode="lr-tb" unicode-bidi="normal" text-decoration="none" transform="matrix(0.290107 0 0 0.290254 656.486 232)">and Workload)</text><path d="M216.275 343.052 906.151 343.052 906.151 426.603 216.275 426.603Z" stroke="#E68C28" stroke-width="1.32966" stroke-linecap="butt" stroke-linejoin="round" stroke-miterlimit="10" stroke-opacity="1" fill="#FFFFFF" fill-rule="nonzero" fill-opacity="1" transform="matrix(1 0 0 1.00051 -120.453 -3.10805)"/><text fill="#000000" fill-opacity="1" font-family="Metropolis,Metropolis_MSFontService,sans-serif" font-style="normal" font-variant="normal" font-weight="400" font-stretch="normal" font-size="41" text-anchor="start" direction="ltr" writing-mode="lr-tb" unicode-bidi="normal" text-decoration="none" transform="matrix(0.290107 0 0 0.290254 375.735 356)">vSphere Namespace A</text><path d="M227.009 367.711 894.546 367.711 894.546 417.32 227.009 417.32Z" stroke="#000000" stroke-width="1.32966" stroke-linecap="butt" stroke-linejoin="round" stroke-miterlimit="10" stroke-opacity="1" fill="#FFFFFF" fill-rule="nonzero" fill-opacity="1" transform="matrix(1 0 0 1.00051 -120.453 -3.10805)"/><path d="M0 0 709.893 0 709.893 295.039 0 295.039Z" stroke="#E68C28" stroke-width="1.32966" stroke-linecap="butt" stroke-linejoin="round" stroke-miterlimit="10" stroke-opacity="1" fill="none" fill-rule="nonzero" transform="matrix(-1 0 0 1.00051 797.882 246.656)"/><text fill="#FFFFFF" fill-opacity="1" font-family="Metropolis,Metropolis_MSFontService,sans-serif" font-style="normal" font-variant="normal" font-weight="400" font-stretch="normal" font-size="41" text-anchor="start" direction="ltr" writing-mode="lr-tb" unicode-bidi="normal" text-decoration="none" transform="matrix(0.290107 0 0 0.290254 404.09 302)">Control Plane VM 2</text><path d="M510.395 317.958 481.578 317.958 481.578 284.015 515.811 284.015 515.811 316.908 513.403 316.908 513.403 286.4 483.986 286.4 483.986 315.573 510.395 315.573 510.395 317.958Z" fill="#FFFFFF" fill-rule="evenodd" fill-opacity="1" transform="matrix(1 0 0 1.00051 -120.453 -3.10805)"/><path d="M492.022 299.101 493.096 299.101 494.355 302.251 495.591 299.101 496.664 299.101 494.845 303.452 493.888 303.452 492.022 299.101Z" fill="#FFFFFF" fill-rule="evenodd" fill-opacity="1" transform="matrix(1 0 0 1.00051 -120.453 -3.10805)"/><path d="M503.714 299.307C503.951 299.446 504.14 299.652 504.282 299.884 504.424 300.136 504.497 300.412 504.497 300.734L504.497 303.452 503.476 303.452 503.476 300.92C503.476 300.644 503.403 300.412 503.238 300.229 503.072 300.044 502.881 299.954 502.62 299.954 502.359 299.954 502.098 300.044 501.932 300.206 501.744 300.366 501.671 300.598 501.671 300.85L501.671 303.452 500.673 303.452 500.673 300.92C500.673 300.644 500.604 300.412 500.435 300.229 500.27 300.044 500.081 299.954 499.82 299.954 499.559 299.954 499.321 300.044 499.13 300.206 498.941 300.366 498.869 300.598 498.869 300.85L498.869 303.452 497.824 303.452 497.824 299.194 498.869 299.194 498.869 299.768C498.988 299.562 499.153 299.4 499.368 299.284 499.582 299.17 499.82 299.101 500.105 299.101 500.389 299.101 500.746 299.194 501.03 299.376 501.291 299.562 501.48 299.814 501.599 300.113 501.671 299.814 501.813 299.562 502.051 299.376 502.289 299.194 502.573 299.101 502.93 299.101 503.287 299.101 503.499 299.17 503.737 299.307Z" fill="#FFFFFF" fill-rule="evenodd" fill-opacity="1" transform="matrix(1 0 0 1.00051 -120.453 -3.10805)"/><text fill="#FFFFFF" fill-opacity="1" font-family="Metropolis,Metropolis_MSFontService,sans-serif" font-style="normal" font-variant="normal" font-weight="400" font-stretch="normal" font-size="41" text-anchor="start" direction="ltr" writing-mode="lr-tb" unicode-bidi="normal" text-decoration="none" transform="matrix(0.290107 0 0 0.290254 659.184 302)">Control Plane VM 3</text><path d="M765.446 317.958 736.873 317.958 736.873 284.015 770.815 284.015 770.815 316.908 768.428 316.908 768.428 286.4 739.26 286.4 739.26 315.573 765.446 315.573 765.446 317.958Z" fill="#FFFFFF" fill-rule="evenodd" fill-opacity="1" transform="matrix(1 0 0 1.00051 -120.453 -3.10805)"/><path d="M747.027 299.101 748.167 299.101 749.504 302.251 750.818 299.101 751.959 299.101 750.026 303.452 749.008 303.452 747.027 299.101Z" fill="#FFFFFF" fill-rule="evenodd" fill-opacity="1" transform="matrix(1 0 0 1.00051 -120.453 -3.10805)"/><path d="M759.008 299.307C759.246 299.446 759.435 299.652 759.577 299.884 759.719 300.136 759.791 300.412 759.791 300.734L759.791 303.452 758.77 303.452 758.77 300.92C758.77 300.644 758.698 300.412 758.532 300.229 758.367 300.044 758.176 299.954 757.914 299.954 757.653 299.954 757.392 300.044 757.227 300.206 757.038 300.366 756.966 300.598 756.966 300.85L756.966 303.452 755.968 303.452 755.968 300.92C755.968 300.644 755.898 300.412 755.73 300.229 755.565 300.044 755.376 299.954 755.115 299.954 754.854 299.954 754.616 300.044 754.424 300.206 754.236 300.366 754.163 300.598 754.163 300.85L754.163 303.452 753.119 303.452 753.119 299.194 754.163 299.194 754.163 299.768C754.282 299.562 754.448 299.4 754.662 299.284 754.877 299.17 755.115 299.101 755.399 299.101 755.684 299.101 756.04 299.194 756.325 299.376 756.586 299.562 756.774 299.814 756.893 300.113 756.966 299.814 757.108 299.562 757.346 299.376 757.584 299.194 757.868 299.101 758.225 299.101 758.582 299.101 758.793 299.17 759.031 299.307Z" fill="#FFFFFF" fill-rule="evenodd" fill-opacity="1" transform="matrix(1 0 0 1.00051 -120.453 -3.10805)"/><text fill="#FFFFFF" fill-opacity="1" font-family="Metropolis,Metropolis_MSFontService,sans-serif" font-style="normal" font-variant="normal" font-weight="400" font-stretch="normal" font-size="41" text-anchor="start" direction="ltr" writing-mode="lr-tb" unicode-bidi="normal" text-decoration="none" transform="matrix(0.290107 0 0 0.290254 673.359 263)">vSphere Supervisor</text><path d="M517.552 402.399 517.842 402.669 517.624 402.379C517.624 402.379 517.624 402.379 517.552 402.379Z" fill="#000000" fill-rule="evenodd" fill-opacity="1" transform="matrix(1 0 0 1.00051 -120.453 -3.10805)"/><path d="M514.082 392.768C514.082 392.768 514.256 392.835 514.329 392.791 514.404 392.768 514.453 392.698 514.453 392.605 514.503 391.845 514.552 391.065 514.601 390.305L514.651 389.614C513.415 389.844 512.376 390.328 511.459 391.042 511.854 391.294 512.251 391.57 512.646 391.822 513.116 392.144 513.612 392.446 514.082 392.768Z" fill="#000000" fill-rule="evenodd" fill-opacity="1" transform="matrix(1 0 0 1.00051 -120.453 -3.10805)"/><path d="M518.518 398.074C518.518 398.074 518.428 398.17 518.428 398.265L518.132 398.503 518.451 398.361 518.724 399.052C519.02 399.765 519.292 400.505 519.588 401.219 520.499 400.505 521.158 399.623 521.613 398.553L518.701 398.027C518.701 398.027 518.564 398.051 518.518 398.074Z" fill="#000000" fill-rule="evenodd" fill-opacity="1" transform="matrix(1 0 0 1.00051 -120.453 -3.10805)"/><path d="M512.701 398.027 511.915 398.172C511.175 398.291 510.459 398.436 509.719 398.555 510.18 399.635 510.876 400.522 511.776 401.219 512.031 400.595 512.263 399.994 512.495 399.394L512.84 398.506C512.84 398.506 512.887 398.364 512.91 398.315 512.91 398.268 512.91 398.196 512.864 398.146 512.817 398.1 512.771 398.077 512.701 398.051Z" fill="#000000" fill-rule="evenodd" fill-opacity="1" transform="matrix(1 0 0 1.00051 -120.453 -3.10805)"/><path d="M516.649 401.149C516.403 400.65 516.153 400.125 515.881 399.629 515.837 399.527 515.744 399.504 515.678 399.478 515.608 399.478 515.518 399.527 515.475 399.629L514.886 400.798C514.613 401.349 514.343 401.871 514.07 402.42 514.613 402.571 515.135 402.643 515.678 402.669 516.197 402.669 516.742 402.594 517.262 402.446 517.195 402.295 517.125 402.17 517.059 402.045L516.629 401.172Z" fill="#000000" fill-rule="evenodd" fill-opacity="1" transform="matrix(1 0 0 1.00051 -120.453 -3.10805)"/><path d="M521.903 398.318 522.193 398.608 521.903 398.318Z" fill="#000000" fill-rule="evenodd" fill-opacity="1" transform="matrix(1 0 0 1.00051 -120.453 -3.10805)"/><path d="M512.28 395.324C512.28 395.324 512.28 395.161 512.138 395.025 511.39 394.381 510.644 393.74 509.896 393.096 509.464 393.899 509.223 394.726 509.15 395.599 509.15 395.805 509.124 396.058 509.15 396.287L509.655 396.15C510.45 395.918 511.271 395.712 512.066 395.483 512.28 395.414 512.307 395.347 512.33 395.3Z" fill="#000000" fill-rule="evenodd" fill-opacity="1" transform="matrix(1 0 0 1.00051 -120.453 -3.10805)"/><path d="M517.244 392.797C517.244 392.797 517.383 392.843 517.543 392.727 518.32 392.17 519.095 391.613 519.873 391.053 518.982 390.311 518.022 389.823 516.971 389.614L517.131 392.518C517.131 392.727 517.201 392.75 517.244 392.774Z" fill="#000000" fill-rule="evenodd" fill-opacity="1" transform="matrix(1 0 0 1.00051 -120.453 -3.10805)"/><path d="M526.032 398.146C525.773 398.123 525.515 398.1 525.277 398.054 524.949 398.004 524.572 397.958 524.337 397.604 524.195 397.581 524.099 397.511 524.053 397.441 523.911 397.276 523.937 397.087 523.96 396.992 524.007 396.522 524.03 396.075 524.007 395.625 523.937 394.189 523.487 392.849 522.733 391.622 522.687 391.552 522.594 391.387 522.64 391.175 522.663 391.059 522.733 390.963 522.829 390.894 522.852 390.682 522.971 390.493 523.159 390.328 523.464 390.07 523.818 389.832 524.288 389.574 524.477 389.481 524.642 389.385 524.761 389.243 524.926 389.104 524.926 388.985 524.903 388.915 524.903 388.796 524.807 388.727 524.761 388.703 524.665 388.654 524.526 388.68 524.407 388.75 524.242 388.843 524.099 389.008 523.96 389.15 523.676 389.481 523.371 389.785 523.041 390.044 522.948 390.116 522.71 390.328 522.359 390.282 522.263 390.374 522.144 390.421 522.028 390.398 521.816 390.398 521.674 390.258 521.604 390.186 520.685 389.269 519.603 388.608 518.376 388.184 517.833 387.996 517.27 387.879 516.609 387.784 516.539 387.784 516.374 387.784 516.255 387.642L516.162 387.526 516.162 387.314C515.997 387.125 515.927 386.96 515.927 386.771L515.927 386.678C515.927 386.464 515.927 386.275 515.95 386.063 515.997 385.782 516.02 385.524 516.066 385.24L516.066 384.958C516.066 384.958 516.092 384.746 516.092 384.746 516.092 384.558 515.95 384.416 515.808 384.392 515.643 384.392 515.504 384.511 515.477 384.7 515.477 384.839 515.477 385.005 515.504 385.24 515.573 385.689 515.643 386.159 515.643 386.652 515.643 386.771 515.643 387.029 515.431 387.241 515.431 387.407 515.385 387.526 515.315 387.618 515.242 387.714 515.126 387.761 514.961 387.784L514.796 387.784C512.936 388.042 511.285 388.819 509.965 390.163 509.896 390.232 509.754 390.421 509.519 390.374 509.426 390.374 509.307 390.328 509.214 390.282 508.906 390.305 508.695 390.139 508.599 390.093 508.271 389.832 507.964 389.551 507.633 389.173 507.47 388.985 507.328 388.843 507.163 388.727 506.998 388.631 506.809 388.654 506.716 388.773 506.62 388.892 506.644 389.081 506.786 389.22 506.928 389.362 507.093 389.455 507.282 389.551 507.659 389.762 508.01 389.974 508.318 390.232 508.46 390.351 508.695 390.54 508.741 390.87 508.837 390.94 508.883 391.033 508.906 391.129 508.953 391.34 508.86 391.529 508.788 391.622 507.775 393.273 507.375 395.063 507.61 396.945 507.659 397.392 507.375 397.534 507.233 397.557 507.07 397.819 506.809 397.888 506.62 397.935 506.174 398.03 505.704 398.077 505.254 398.1 505.042 398.1 504.877 398.146 504.714 398.193 504.549 398.265 504.477 398.431 504.503 398.547 504.526 398.689 504.688 398.831 504.854 398.782 505.042 398.782 505.231 398.712 505.443 398.619 505.892 398.431 506.293 398.289 506.67 398.193 506.858 398.146 507.093 398.077 507.328 398.219 507.398 398.265 507.421 398.265 507.421 398.265L507.563 398.219 507.775 398.289C507.94 398.381 507.987 398.523 508.01 398.593 508.672 400.456 509.826 401.915 511.497 402.951 511.805 403.139 511.805 403.423 511.686 403.635 511.805 403.94 511.686 404.201 511.616 404.294 511.428 404.671 511.216 405.048 510.885 405.495 510.743 405.683 510.673 405.826 510.627 405.965 510.554 406.153 510.627 406.342 510.766 406.414 510.908 406.484 511.097 406.414 511.193 406.226 511.262 406.107 511.332 405.942 511.381 405.753 511.52 405.283 511.663 404.859 511.851 404.482 511.898 404.363 512.04 404.082 512.37 403.963 512.44 403.801 512.652 403.563 513.075 403.705 514.865 404.34 516.681 404.34 518.518 403.728 518.66 403.682 518.848 403.612 519.06 403.728 519.153 403.774 519.226 403.847 519.272 403.963 519.484 404.036 519.626 404.175 519.742 404.413 519.977 404.883 520.119 405.379 520.238 405.779 520.308 406.014 520.377 406.179 520.496 406.296 520.615 406.414 520.755 406.438 520.873 406.368 520.992 406.296 521.039 406.13 520.992 405.991 520.943 405.802 520.827 405.637 520.708 405.472 520.45 405.094 520.215 404.741 520.026 404.389 519.954 404.247 519.788 403.963 519.907 403.612 519.815 403.4 519.838 403.139 520.142 402.951 520.966 402.457 521.697 401.799 522.309 401.021 522.875 400.29 523.322 399.49 523.606 398.619 523.725 398.242 524.03 398.17 524.265 398.242 524.361 398.123 524.596 398.077 524.831 398.123 525.115 398.193 525.396 398.265 525.654 398.358 525.843 398.431 525.962 398.477 526.081 398.523 526.293 398.619 526.481 398.689 526.693 398.712 526.905 398.759 526.998 398.666 527.07 398.57 527.14 398.477 527.14 398.405 527.093 398.312 527.021 398.17 526.928 398.1 526.763 398.077 526.528 398.054 526.293 398.03 526.055 398.004ZM516.443 389.031C516.609 388.892 516.821 388.915 517.059 388.962 518.376 389.197 519.603 389.809 520.638 390.752 520.708 390.821 520.873 390.963 520.85 391.175 520.85 391.387 520.662 391.529 520.592 391.575 519.719 392.188 518.872 392.8 517.998 393.412 517.787 393.554 517.575 393.624 517.363 393.624 517.221 393.624 517.105 393.6 516.963 393.531 516.632 393.389 516.443 393.084 516.42 392.66L516.255 389.669C516.255 389.385 516.255 389.173 516.42 389.031ZM516.586 394.474 517.552 395.698 517.221 397.23 515.808 397.911 514.395 397.23 514.041 395.698 515.007 394.474 516.586 394.474ZM510.839 390.798 511.097 391.059 510.862 390.798C511.874 389.855 513.075 389.269 514.419 389.008 514.514 389.008 514.584 388.985 514.63 388.962 514.819 388.938 514.984 388.915 515.15 389.054 515.315 389.197 515.292 389.385 515.292 389.551L515.242 390.421C515.196 391.198 515.15 391.999 515.103 392.776 515.103 393.13 514.888 393.412 514.584 393.554 514.465 393.624 514.326 393.65 514.184 393.65 513.995 393.65 513.806 393.577 513.641 393.484 513.194 393.154 512.721 392.849 512.275 392.518 511.828 392.188 511.355 391.883 510.908 391.552 510.766 391.459 510.696 391.34 510.673 391.198 510.673 390.987 510.792 390.87 510.862 390.821ZM508.625 396.829C508.529 396.356 508.553 395.91 508.576 395.533 508.648 394.424 508.976 393.389 509.519 392.449 509.565 392.376 509.661 392.188 509.873 392.164 510.084 392.141 510.227 392.26 510.296 392.307 511.097 393.035 511.898 393.743 512.698 394.45 513.029 394.732 513.148 395.063 513.052 395.44 512.936 395.979 512.463 396.098 512.298 396.145 511.52 396.356 510.743 396.591 509.942 396.829L508.695 397.18 508.625 396.803ZM512.486 401.75C512.486 401.75 512.37 402.034 512.159 402.103 512.109 402.103 512.063 402.103 512.04 402.103 511.874 402.103 511.758 402.011 511.686 401.961 510.508 401.137 509.614 400.032 509.072 398.689 509.025 398.593 508.953 398.405 509.072 398.242 509.141 398.123 509.26 398.03 509.449 398.004 510.273 397.865 511.12 397.723 511.944 397.581L512.864 397.441C513.148 397.418 513.406 397.557 513.595 397.769 513.783 397.981 513.853 398.265 513.806 398.547 513.806 398.547 513.737 398.759 513.711 398.877L513.36 399.748C513.075 400.409 512.817 401.068 512.533 401.75ZM518.26 402.669C518.164 402.881 517.952 402.951 517.882 402.974 517.175 403.162 516.493 403.281 515.785 403.281 515.054 403.281 514.349 403.162 513.641 402.951 513.571 402.951 513.383 402.881 513.287 402.669 513.218 402.481 513.287 402.292 513.336 402.222 513.664 401.633 513.972 401.068 514.3 400.479L514.915 399.371C515.103 399.043 515.408 398.854 515.739 398.854 516.066 398.854 516.374 399.043 516.562 399.371 516.844 399.844 517.105 400.337 517.363 400.81L517.81 401.633C517.906 401.822 518.022 402.011 518.117 402.199 518.164 402.269 518.283 402.457 518.187 402.669ZM522.521 398.666C521.982 400.055 521.062 401.184 519.861 402.034 519.815 402.057 519.696 402.15 519.553 402.15 519.507 402.15 519.484 402.15 519.437 402.15 519.226 402.08 519.153 401.892 519.13 401.845 518.799 401.045 518.471 400.244 518.141 399.443L517.859 398.759C517.859 398.759 517.763 398.5 517.787 398.335 517.787 398.1 517.906 397.842 518.117 397.653 518.329 397.488 518.587 397.418 518.872 397.465L522.144 398.03C522.144 398.03 522.405 398.077 522.521 398.265 522.594 398.381 522.594 398.523 522.521 398.689ZM522.971 396.664C522.971 396.829 522.898 396.945 522.782 397.018 522.71 397.064 522.617 397.087 522.547 397.087 522.475 397.087 522.405 397.087 522.382 397.064L521.343 396.757C520.615 396.545 519.907 396.333 519.176 396.121 518.825 396.029 518.564 395.767 518.495 395.44 518.425 395.109 518.541 394.755 518.825 394.52L521.274 392.33C521.274 392.33 521.486 392.141 521.697 392.188 521.909 392.211 522.005 392.399 522.051 392.472 522.594 393.412 522.922 394.424 522.994 395.486 522.994 395.744 523.041 395.933 523.017 396.121 523.017 396.333 523.017 396.499 522.994 396.687Z" fill="#000000" fill-rule="evenodd" fill-opacity="1" transform="matrix(1 0 0 1.00051 -120.453 -3.10805)"/><path d="M529.052 385.84 515.799 379.461 502.547 385.84 499.275 400.174 508.454 411.662 523.168 411.662 532.347 400.174 529.075 385.84ZM527.592 399.211C527.334 399.516 526.98 399.658 526.557 399.611 526.275 399.562 526.014 399.469 525.779 399.374 525.663 399.327 525.567 399.281 525.451 399.234 525.144 399.139 524.909 399.046 524.651 398.999 524.462 399.092 524.32 399.115 524.227 399.115 523.896 400.012 523.45 400.859 522.861 401.61 522.225 402.434 521.471 403.119 520.624 403.635 520.647 403.777 520.624 403.893 520.601 403.966 520.601 404.012 520.578 404.059 520.673 404.224 520.836 404.555 521.047 404.883 521.282 405.237 521.425 405.448 521.59 405.683 521.66 405.991 521.779 406.461 521.59 406.931 521.19 407.166 520.789 407.401 520.296 407.308 519.942 406.954 519.707 406.696 519.611 406.414 519.519 406.13 519.4 405.753 519.26 405.283 519.049 404.859 518.999 404.767 518.976 404.767 518.953 404.767 518.788 404.717 518.695 404.648 518.648 404.578 516.716 405.213 514.787 405.213 512.881 404.578 512.785 404.717 512.646 404.767 512.573 404.79 512.55 404.79 512.527 404.79 512.457 404.955 512.292 405.306 512.15 405.707 512.034 406.13 511.961 406.365 511.868 406.577 511.773 406.765 511.561 407.119 511.21 407.308 510.856 407.308 510.714 407.308 510.575 407.285 510.432 407.212 509.962 406.977 509.751 406.414 509.939 405.895 510.032 405.637 510.174 405.425 510.29 405.26 510.575 404.859 510.786 404.506 510.949 404.178 510.998 404.082 510.998 404.059 510.975 404.036 510.902 403.893 510.902 403.754 510.949 403.635 509.255 402.53 508.054 401.021 507.349 399.139 507.183 399.139 507.044 399.069 506.925 398.999 506.925 398.999 506.855 398.999 506.806 399.023 506.409 399.115 506.055 399.234 505.631 399.423 505.373 399.539 505.089 399.635 504.761 399.635 504.242 399.635 503.818 399.304 503.725 398.834 503.629 398.364 503.911 397.868 504.361 397.679 504.595 397.586 504.831 397.54 505.135 397.514 505.559 397.514 505.982 397.444 506.383 397.352 506.525 397.328 506.548 397.302 506.548 397.279 506.594 397.186 506.667 397.09 506.806 397.021 506.594 395.019 507.018 393.136 508.08 391.396 508.007 391.3 507.961 391.184 507.961 391.065 507.961 391.018 507.961 390.995 507.795 390.876 507.514 390.664 507.183 390.453 506.832 390.264 506.62 390.148 506.383 390.006 506.171 389.794 505.797 389.417 505.724 388.828 506.055 388.428 506.359 388.004 506.948 387.911 507.418 388.193 507.679 388.335 507.868 388.547 508.054 388.759 508.361 389.112 508.643 389.371 508.927 389.582 508.927 389.582 508.996 389.652 509.02 389.629 509.162 389.582 509.278 389.629 509.397 389.675 510.879 388.242 512.597 387.418 514.598 387.18 514.598 387.18 514.598 387.18 514.598 387.18 514.622 387.064 514.717 386.922 514.81 386.829 514.81 386.829 514.81 386.829 514.81 386.757 514.81 386.31 514.741 385.863 514.668 385.463 514.622 385.181 514.622 384.947 514.645 384.735 514.717 384.169 515.141 383.769 515.704 383.792 516.177 383.792 516.577 384.192 516.647 384.662L516.766 384.662 516.623 385.393C516.6 385.675 516.554 385.956 516.504 386.24 516.504 386.406 516.504 386.568 516.504 386.734L516.504 386.852C516.504 386.852 516.67 387.018 516.716 387.206 517.401 387.299 517.964 387.418 518.483 387.604 519.777 388.054 520.931 388.759 521.921 389.701 522.037 389.629 522.156 389.606 522.295 389.629 522.295 389.629 522.344 389.629 522.46 389.536 522.745 389.301 523.026 389.017 523.307 388.712 523.473 388.523 523.661 388.312 523.92 388.17 524.227 387.981 524.604 387.958 524.932 388.1 525.216 388.242 525.428 388.5 525.498 388.828 525.544 389.089 525.498 389.44 525.144 389.817 524.955 390.006 524.72 390.148 524.508 390.241 524.085 390.476 523.754 390.688 523.496 390.926 523.426 390.995 523.426 391.018 523.426 391.042 523.426 391.184 523.38 391.3 523.284 391.396 524.085 392.713 524.532 394.125 524.627 395.631 524.651 396.081 524.627 396.528 524.578 396.998 524.72 397.044 524.767 397.163 524.816 397.209 524.862 397.302 524.932 397.328 525.19 397.352 525.521 397.398 525.756 397.421 526.014 397.444 526.252 397.467 526.487 397.491 526.745 397.54 527.146 397.586 527.45 397.821 527.616 398.175 527.781 398.526 527.734 398.88 527.5 399.188Z" fill="#000000" fill-rule="evenodd" fill-opacity="1" transform="matrix(1 0 0 1.00051 -120.453 -3.10805)"/><path d="M522.193 396.577 522.484 396.867 522.193 396.577Z" fill="#000000" fill-rule="evenodd" fill-opacity="1" transform="matrix(1 0 0 1.00051 -120.453 -3.10805)"/><path d="M515.811 396.867 516.284 396.565 516.391 395.936 516.069 395.416 515.553 395.416 515.231 395.936 515.338 396.565 515.811 396.867Z" fill="#000000" fill-rule="evenodd" fill-opacity="1" transform="matrix(1 0 0 1.00051 -120.453 -3.10805)"/><path d="M522.193 396.124C522.193 395.939 522.193 395.779 522.17 395.617 522.095 394.714 521.828 393.882 521.416 393.096L519.104 395.063C519.104 395.063 518.982 395.222 519.005 395.292 519.005 395.361 519.104 395.431 519.2 395.454 519.931 395.663 520.685 395.872 521.416 396.078L522.193 396.287C522.193 396.287 522.193 396.171 522.193 396.101Z" fill="#000000" fill-rule="evenodd" fill-opacity="1" transform="matrix(1 0 0 1.00051 -120.453 -3.10805)"/><text fill="#000000" fill-opacity="1" font-family="Metropolis,Metropolis_MSFontService,sans-serif" font-style="normal" font-variant="normal" font-weight="400" font-stretch="normal" font-size="41" text-anchor="start" direction="ltr" writing-mode="lr-tb" unicode-bidi="normal" text-decoration="none" transform="matrix(0.290107 0 0 0.290254 420.565 396)">VKS Clusters</text><path d="M216.275 438.788 408.906 438.788 408.906 522.629 216.275 522.629Z" stroke="#E68C28" stroke-width="1.32966" stroke-linecap="butt" stroke-linejoin="round" stroke-miterlimit="10" stroke-opacity="1" fill="#FFFFFF" fill-rule="nonzero" fill-opacity="1" transform="matrix(1 0 0 1.00051 -120.453 -3.10805)"/><text fill="#000000" fill-opacity="1" font-family="Metropolis,Metropolis_MSFontService,sans-serif" font-style="normal" font-variant="normal" font-weight="400" font-stretch="normal" font-size="41" text-anchor="start" direction="ltr" writing-mode="lr-tb" unicode-bidi="normal" text-decoration="none" transform="matrix(0.290107 0 0 0.290254 127.324 452)">vSphere Namespace B</text><path d="M227.009 463.737 400.783 463.737 400.783 513.055 227.009 513.055Z" stroke="#000000" stroke-width="1.32966" stroke-linecap="butt" stroke-linejoin="round" stroke-miterlimit="10" stroke-opacity="1" fill="#FFFFFF" fill-rule="nonzero" fill-opacity="1" transform="matrix(1 0 0 1.00051 -120.453 -3.10805)"/><path d="M468.669 439.078 906.151 439.078 906.151 522.919 468.669 522.919Z" stroke="#E68C28" stroke-width="1.32966" stroke-linecap="butt" stroke-linejoin="round" stroke-miterlimit="10" stroke-opacity="1" fill="#FFFFFF" fill-rule="nonzero" fill-opacity="1" transform="matrix(1 0 0 1.00051 -120.453 -3.10805)"/><text fill="#000000" fill-opacity="1" font-family="Metropolis,Metropolis_MSFontService,sans-serif" font-style="normal" font-variant="normal" font-weight="400" font-stretch="normal" font-size="41" text-anchor="start" direction="ltr" writing-mode="lr-tb" unicode-bidi="normal" text-decoration="none" transform="matrix(0.290107 0 0 0.290254 502.175 452)">vSphere Namespace C</text><path d="M479.403 463.737 894.546 463.737 894.546 513.055 479.403 513.055Z" stroke="#000000" stroke-width="1.32966" stroke-linecap="butt" stroke-linejoin="round" stroke-miterlimit="10" stroke-opacity="1" fill="#FFFFFF" fill-rule="nonzero" fill-opacity="1" transform="matrix(1 0 0 1.00051 -120.453 -3.10805)"/><text fill="#000000" fill-opacity="1" font-family="Metropolis,Metropolis_MSFontService,sans-serif" font-style="normal" font-variant="normal" font-weight="400" font-stretch="normal" font-size="41" text-anchor="start" direction="ltr" writing-mode="lr-tb" unicode-bidi="normal" text-decoration="none" transform="matrix(0.290107 0 0 0.290254 536.782 491)">Virtual Machines</text><path d="M641.816 503.627 617.639 503.627 617.639 474.906 646.359 474.906 646.359 502.739 644.34 502.739 644.34 476.925 619.658 476.925 619.658 501.607 641.816 501.607 641.816 503.627Z" fill="#000000" fill-rule="evenodd" fill-opacity="1" transform="matrix(1 0 0 1.00051 -120.453 -3.10805)"/><path d="M626.342 487.671 627.282 487.671 628.384 490.403 629.464 487.671 630.404 487.671 628.811 491.442 627.975 491.442 626.342 487.671Z" fill="#000000" fill-rule="evenodd" fill-opacity="1" transform="matrix(1 0 0 1.00051 -120.453 -3.10805)"/><path d="M636.394 487.85C636.6 487.969 636.766 488.149 636.89 488.349 637.015 488.57 637.076 488.808 637.076 489.086L637.076 491.442 636.188 491.442 636.188 489.246C636.188 489.008 636.127 488.808 635.982 488.648 635.837 488.489 635.672 488.408 635.446 488.408 635.216 488.408 634.99 488.489 634.845 488.628 634.68 488.767 634.619 488.967 634.619 489.188L634.619 491.442 633.751 491.442 633.751 489.246C633.751 489.008 633.69 488.808 633.545 488.648 633.4 488.489 633.235 488.408 633.009 488.408 632.782 488.408 632.573 488.489 632.408 488.628 632.246 488.767 632.182 488.967 632.182 489.188L632.182 491.442 631.274 491.442 631.274 487.752 632.182 487.752 632.182 488.248C632.286 488.071 632.431 487.929 632.617 487.83 632.803 487.732 633.009 487.671 633.255 487.671 633.505 487.671 633.812 487.752 634.062 487.911 634.288 488.071 634.453 488.289 634.558 488.55 634.619 488.289 634.744 488.071 634.949 487.911 635.155 487.752 635.402 487.671 635.712 487.671 636.023 487.671 636.209 487.732 636.415 487.85Z" fill="#000000" fill-rule="evenodd" fill-opacity="1" transform="matrix(1 0 0 1.00051 -120.453 -3.10805)"/><path d="M276.472 495.831 276.763 496.374 276.545 495.794C276.545 495.794 276.545 495.794 276.472 495.794Z" fill="#000000" fill-rule="evenodd" fill-opacity="1" transform="matrix(1 0 0 1.00051 -120.453 -3.10805)"/><path d="M272.764 486.473C272.764 486.473 272.922 486.539 272.989 486.496 273.056 486.473 273.101 486.403 273.101 486.31 273.146 485.55 273.191 484.77 273.236 484.009L273.281 483.319C272.157 483.548 271.212 484.033 270.38 484.746 270.74 484.999 271.1 485.274 271.46 485.527 271.887 485.849 272.337 486.15 272.764 486.473Z" fill="#000000" fill-rule="evenodd" fill-opacity="1" transform="matrix(1 0 0 1.00051 -120.453 -3.10805)"/><path d="M277.181 491.779C277.181 491.779 277.083 491.874 277.083 491.97L276.763 492.208 277.107 492.066 277.403 492.756C277.724 493.47 278.02 494.21 278.34 494.923 279.326 494.21 280.041 493.328 280.534 492.257L277.379 491.732C277.379 491.732 277.231 491.755 277.181 491.779Z" fill="#000000" fill-rule="evenodd" fill-opacity="1" transform="matrix(1 0 0 1.00051 -120.453 -3.10805)"/><path d="M271.623 491.732 270.836 491.877C270.096 491.996 269.38 492.141 268.639 492.26 269.102 493.339 269.796 494.227 270.698 494.923 270.952 494.3 271.183 493.699 271.414 493.099L271.761 492.211C271.761 492.211 271.807 492.069 271.831 492.019 271.831 491.973 271.831 491.9 271.785 491.851 271.738 491.805 271.692 491.781 271.623 491.755Z" fill="#000000" fill-rule="evenodd" fill-opacity="1" transform="matrix(1 0 0 1.00051 -120.453 -3.10805)"/><path d="M275.571 494.7C275.322 494.247 275.073 493.772 274.802 493.319 274.756 493.229 274.666 493.206 274.598 493.183 274.53 493.183 274.44 493.229 274.394 493.319L273.806 494.384C273.534 494.883 273.263 495.358 272.991 495.857 273.534 495.994 274.055 496.061 274.598 496.084 275.118 496.084 275.662 496.017 276.182 495.881 276.114 495.744 276.047 495.631 275.979 495.518L275.548 494.723Z" fill="#000000" fill-rule="evenodd" fill-opacity="1" transform="matrix(1 0 0 1.00051 -120.453 -3.10805)"/><path d="M280.534 492.022 280.824 492.312 280.534 492.022Z" fill="#000000" fill-rule="evenodd" fill-opacity="1" transform="matrix(1 0 0 1.00051 -120.453 -3.10805)"/><path d="M271.202 489.028C271.202 489.028 271.202 488.866 271.058 488.73 270.311 488.086 269.564 487.444 268.817 486.8 268.383 487.604 268.142 488.431 268.07 489.304 268.07 489.51 268.046 489.762 268.07 489.991L268.576 489.855C269.371 489.623 270.19 489.417 270.985 489.188 271.202 489.118 271.226 489.052 271.25 489.005Z" fill="#000000" fill-rule="evenodd" fill-opacity="1" transform="matrix(1 0 0 1.00051 -120.453 -3.10805)"/><path d="M276.166 486.501C276.166 486.501 276.303 486.548 276.463 486.432 277.24 485.875 278.017 485.318 278.793 484.758 277.902 484.015 276.943 483.528 275.892 483.319L276.052 486.223C276.052 486.432 276.121 486.455 276.166 486.478Z" fill="#000000" fill-rule="evenodd" fill-opacity="1" transform="matrix(1 0 0 1.00051 -120.453 -3.10805)"/><path d="M284.677 491.851C284.421 491.828 284.165 491.805 283.933 491.758 283.607 491.709 283.235 491.663 283.002 491.309 282.863 491.285 282.77 491.216 282.723 491.146 282.584 490.981 282.607 490.792 282.631 490.696 282.677 490.227 282.7 489.78 282.677 489.33 282.607 487.894 282.165 486.554 281.421 485.327 281.375 485.257 281.282 485.092 281.328 484.88 281.351 484.764 281.421 484.668 281.514 484.598 281.537 484.387 281.654 484.198 281.84 484.033 282.142 483.774 282.491 483.537 282.956 483.278 283.142 483.186 283.305 483.09 283.421 482.948 283.584 482.808 283.584 482.689 283.561 482.62 283.561 482.501 283.468 482.431 283.421 482.408 283.328 482.359 283.189 482.385 283.072 482.454 282.91 482.547 282.77 482.713 282.631 482.855 282.351 483.186 282.049 483.49 281.724 483.748 281.631 483.821 281.398 484.033 281.049 483.986 280.956 484.079 280.84 484.126 280.724 484.102 280.514 484.102 280.375 483.96 280.305 483.891 279.398 482.971 278.328 482.312 277.119 481.889 276.584 481.7 276.026 481.584 275.375 481.488 275.305 481.488 275.142 481.488 275.026 481.346L274.933 481.23 274.933 481.018C274.77 480.83 274.7 480.665 274.7 480.476L274.7 480.38C274.7 480.168 274.7 479.98 274.724 479.768 274.77 479.487 274.794 479.229 274.84 478.944L274.84 478.663C274.84 478.663 274.863 478.451 274.863 478.451 274.863 478.262 274.724 478.12 274.584 478.097 274.421 478.097 274.282 478.216 274.259 478.405 274.259 478.544 274.259 478.709 274.282 478.944 274.352 479.391 274.421 479.864 274.421 480.357 274.421 480.476 274.421 480.734 274.212 480.946 274.212 481.111 274.166 481.23 274.096 481.323 274.026 481.419 273.91 481.465 273.747 481.488L273.584 481.488C271.747 481.747 270.119 482.524 268.817 483.867 268.747 483.937 268.608 484.126 268.375 484.079 268.282 484.079 268.166 484.033 268.073 483.986 267.771 484.009 267.561 483.844 267.468 483.798 267.143 483.537 266.84 483.255 266.515 482.878 266.352 482.689 266.212 482.547 266.05 482.431 265.887 482.336 265.701 482.359 265.608 482.478 265.515 482.597 265.538 482.785 265.677 482.924 265.817 483.067 265.98 483.159 266.166 483.255 266.538 483.467 266.887 483.679 267.189 483.937 267.329 484.056 267.561 484.244 267.608 484.575 267.701 484.645 267.747 484.738 267.771 484.833 267.817 485.045 267.724 485.234 267.654 485.327 266.654 486.977 266.259 488.767 266.492 490.65 266.538 491.097 266.259 491.239 266.119 491.262 265.957 491.52 265.701 491.593 265.515 491.639 265.073 491.735 264.608 491.781 264.166 491.805 263.957 491.805 263.794 491.851 263.631 491.897 263.468 491.97 263.399 492.135 263.422 492.251 263.445 492.394 263.608 492.536 263.771 492.486 263.957 492.486 264.143 492.417 264.352 492.324 264.794 492.135 265.189 491.993 265.561 491.897 265.747 491.851 265.98 491.781 266.212 491.924 266.282 491.97 266.306 491.97 266.306 491.97L266.445 491.924 266.654 491.993C266.817 492.086 266.863 492.228 266.887 492.298 267.538 494.16 268.678 495.62 270.329 496.655 270.631 496.844 270.631 497.128 270.515 497.34 270.631 497.645 270.515 497.906 270.445 497.998 270.259 498.376 270.049 498.753 269.724 499.199 269.584 499.388 269.515 499.53 269.468 499.669 269.398 499.858 269.468 500.047 269.608 500.119 269.747 500.189 269.933 500.119 270.026 499.931 270.096 499.812 270.166 499.646 270.212 499.458 270.352 498.988 270.491 498.564 270.678 498.187 270.724 498.068 270.863 497.787 271.189 497.668 271.259 497.505 271.468 497.267 271.887 497.41 273.654 498.045 275.445 498.045 277.259 497.433 277.398 497.386 277.584 497.317 277.794 497.433 277.886 497.479 277.956 497.552 278.003 497.668 278.212 497.74 278.352 497.88 278.468 498.117 278.7 498.587 278.84 499.083 278.956 499.484 279.026 499.719 279.096 499.884 279.212 500 279.328 500.119 279.468 500.142 279.584 500.07 279.7 500 279.747 499.835 279.7 499.696 279.654 499.507 279.538 499.342 279.421 499.176 279.165 498.799 278.933 498.445 278.747 498.094 278.677 497.952 278.514 497.668 278.631 497.317 278.538 497.105 278.561 496.844 278.863 496.655 279.677 496.162 280.398 495.504 281.003 494.726 281.561 493.995 282.003 493.194 282.282 492.324 282.398 491.947 282.7 491.874 282.933 491.947 283.026 491.828 283.258 491.781 283.491 491.828 283.77 491.897 284.049 491.97 284.305 492.063 284.491 492.135 284.607 492.182 284.723 492.228 284.933 492.324 285.119 492.394 285.328 492.417 285.537 492.463 285.631 492.37 285.7 492.275 285.77 492.182 285.77 492.109 285.723 492.016 285.654 491.874 285.561 491.805 285.398 491.781 285.165 491.758 284.933 491.735 284.7 491.709ZM275.212 482.736C275.375 482.597 275.584 482.62 275.817 482.666 277.119 482.901 278.328 483.513 279.351 484.456 279.421 484.526 279.584 484.668 279.561 484.88 279.561 485.092 279.375 485.234 279.305 485.28 278.445 485.892 277.607 486.504 276.747 487.117 276.538 487.259 276.329 487.328 276.119 487.328 275.98 487.328 275.863 487.305 275.724 487.235 275.398 487.093 275.212 486.789 275.189 486.365L275.026 483.374C275.026 483.09 275.026 482.878 275.189 482.736ZM275.352 488.178 276.305 489.403 275.98 490.934 274.584 491.616 273.189 490.934 272.84 489.403 273.794 488.178 275.352 488.178ZM269.678 484.503 269.933 484.764 269.701 484.503C270.701 483.56 271.887 482.971 273.212 482.713 273.305 482.713 273.375 482.689 273.422 482.666 273.608 482.643 273.77 482.62 273.933 482.759 274.096 482.901 274.073 483.09 274.073 483.255L274.026 484.126C273.98 484.903 273.933 485.704 273.887 486.481 273.887 486.835 273.677 487.117 273.375 487.259 273.259 487.328 273.119 487.354 272.98 487.354 272.794 487.354 272.608 487.282 272.445 487.189 272.003 486.858 271.538 486.554 271.096 486.223 270.654 485.892 270.189 485.588 269.747 485.257 269.608 485.164 269.538 485.045 269.515 484.903 269.515 484.691 269.631 484.575 269.701 484.526ZM267.492 490.534C267.398 490.061 267.422 489.614 267.445 489.237 267.515 488.129 267.84 487.093 268.375 486.15 268.422 486.081 268.515 485.892 268.724 485.869 268.933 485.846 269.073 485.965 269.143 486.011 269.933 486.739 270.724 487.447 271.514 488.155 271.84 488.437 271.956 488.767 271.863 489.144 271.747 489.684 271.282 489.803 271.119 489.849 270.352 490.061 269.584 490.296 268.794 490.534L267.561 490.885 267.492 490.508ZM271.305 495.454C271.305 495.454 271.189 495.739 270.98 495.808 270.933 495.808 270.887 495.808 270.863 495.808 270.701 495.808 270.584 495.715 270.515 495.666 269.352 494.842 268.468 493.737 267.933 492.394 267.887 492.298 267.817 492.109 267.933 491.947 268.003 491.828 268.119 491.735 268.305 491.709 269.119 491.57 269.957 491.428 270.77 491.285L271.678 491.146C271.956 491.12 272.212 491.262 272.398 491.474 272.584 491.686 272.654 491.97 272.608 492.251 272.608 492.251 272.538 492.463 272.514 492.582L272.166 493.452C271.887 494.114 271.631 494.772 271.352 495.454ZM277.003 496.374C276.91 496.586 276.7 496.655 276.631 496.678 275.933 496.867 275.259 496.986 274.561 496.986 273.84 496.986 273.143 496.867 272.445 496.655 272.375 496.655 272.189 496.586 272.096 496.374 272.026 496.185 272.096 495.997 272.143 495.927 272.468 495.338 272.77 494.772 273.096 494.184L273.7 493.075C273.887 492.748 274.189 492.559 274.514 492.559 274.84 492.559 275.142 492.748 275.329 493.075 275.608 493.548 275.863 494.041 276.119 494.514L276.561 495.338C276.654 495.527 276.77 495.715 276.863 495.904 276.91 495.974 277.026 496.162 276.933 496.374ZM281.212 492.37C280.677 493.76 279.77 494.889 278.584 495.739 278.538 495.762 278.421 495.855 278.282 495.855 278.235 495.855 278.212 495.855 278.165 495.855 277.956 495.785 277.886 495.596 277.863 495.55 277.538 494.749 277.212 493.949 276.886 493.148L276.608 492.463C276.608 492.463 276.514 492.205 276.538 492.04 276.538 491.805 276.654 491.546 276.863 491.358 277.073 491.193 277.328 491.12 277.607 491.169L280.84 491.735C280.84 491.735 281.096 491.781 281.212 491.97 281.282 492.086 281.282 492.228 281.212 492.394ZM281.654 490.369C281.654 490.534 281.584 490.65 281.468 490.72 281.398 490.769 281.305 490.792 281.235 490.792 281.165 490.792 281.096 490.792 281.072 490.769L280.049 490.461C279.328 490.25 278.631 490.038 277.91 489.826 277.561 489.73 277.305 489.472 277.235 489.144 277.165 488.814 277.282 488.46 277.561 488.225L279.98 486.034C279.98 486.034 280.189 485.846 280.398 485.892 280.607 485.915 280.7 486.104 280.747 486.177 281.282 487.117 281.607 488.129 281.677 489.191 281.677 489.449 281.724 489.638 281.7 489.826 281.7 490.038 281.7 490.203 281.677 490.392Z" fill="#000000" fill-rule="evenodd" fill-opacity="1" transform="matrix(1 0 0 1.00051 -120.453 -3.10805)"/><path d="M287.711 479.487 274.575 473.165 261.439 479.487 258.196 493.693 267.295 505.077 281.878 505.077 290.978 493.693 287.735 479.487ZM286.265 492.736C286.008 493.041 285.658 493.18 285.238 493.133 284.958 493.087 284.701 492.994 284.468 492.901 284.351 492.855 284.258 492.806 284.141 492.759 283.838 492.666 283.605 492.573 283.348 492.527 283.161 492.62 283.021 492.643 282.928 492.643 282.602 493.531 282.158 494.369 281.575 495.118 280.945 495.933 280.198 496.609 279.358 497.122 279.382 497.262 279.358 497.381 279.335 497.45 279.335 497.497 279.312 497.543 279.405 497.705 279.568 498.033 279.778 498.358 280.011 498.709 280.152 498.918 280.315 499.153 280.385 499.455 280.501 499.922 280.315 500.389 279.918 500.621 279.521 500.856 279.031 500.76 278.682 500.412 278.448 500.154 278.355 499.875 278.262 499.594 278.145 499.223 278.005 498.756 277.795 498.335 277.748 498.242 277.725 498.242 277.702 498.242 277.538 498.196 277.445 498.126 277.398 498.056 275.485 498.686 273.572 498.686 271.682 498.056 271.588 498.196 271.449 498.242 271.378 498.265 271.355 498.265 271.332 498.265 271.262 498.428 271.098 498.779 270.959 499.176 270.842 499.594 270.772 499.829 270.679 500.038 270.585 500.227 270.375 500.575 270.025 500.76 269.675 500.76 269.535 500.76 269.395 500.737 269.255 500.667 268.789 500.435 268.579 499.875 268.765 499.362 268.859 499.107 268.999 498.895 269.115 498.732 269.395 498.335 269.605 497.987 269.769 497.659 269.815 497.566 269.815 497.543 269.792 497.52 269.722 497.381 269.722 497.238 269.769 497.122 268.089 496.026 266.899 494.535 266.199 492.666 266.035 492.666 265.895 492.597 265.779 492.527 265.779 492.527 265.709 492.527 265.662 492.55 265.265 492.643 264.915 492.759 264.495 492.948 264.239 493.064 263.959 493.157 263.632 493.157 263.119 493.157 262.699 492.832 262.606 492.365 262.512 491.897 262.792 491.407 263.235 491.222 263.469 491.129 263.702 491.079 264.005 491.056 264.425 491.056 264.845 490.987 265.242 490.894 265.382 490.871 265.405 490.847 265.405 490.824 265.452 490.731 265.522 490.638 265.662 490.569 265.452 488.584 265.872 486.719 266.922 484.993 266.852 484.9 266.805 484.781 266.805 484.665 266.805 484.619 266.805 484.596 266.642 484.479 266.362 484.271 266.035 484.059 265.685 483.873 265.475 483.757 265.242 483.615 265.032 483.406 264.659 483.032 264.589 482.449 264.915 482.054 265.219 481.633 265.802 481.541 266.269 481.819 266.525 481.958 266.712 482.17 266.899 482.379 267.202 482.73 267.482 482.985 267.762 483.197 267.762 483.197 267.832 483.267 267.855 483.244 267.995 483.197 268.112 483.244 268.229 483.29 269.699 481.866 271.402 481.05 273.385 480.815 273.385 480.815 273.385 480.815 273.385 480.815 273.408 480.699 273.502 480.56 273.595 480.467 273.595 480.467 273.595 480.467 273.595 480.398 273.595 479.954 273.525 479.51 273.455 479.112 273.408 478.834 273.408 478.602 273.432 478.39 273.502 477.83 273.922 477.433 274.482 477.459 274.948 477.459 275.345 477.853 275.415 478.32L275.532 478.32 275.392 479.043C275.368 479.324 275.322 479.603 275.275 479.884 275.275 480.047 275.275 480.209 275.275 480.374L275.275 480.49C275.275 480.49 275.438 480.653 275.485 480.839 276.162 480.934 276.722 481.05 277.235 481.236 278.518 481.68 279.662 482.379 280.642 483.313 280.758 483.244 280.875 483.22 281.015 483.244 281.015 483.244 281.062 483.244 281.178 483.151 281.458 482.916 281.738 482.637 282.018 482.333 282.181 482.147 282.368 481.935 282.625 481.796 282.928 481.61 283.302 481.587 283.628 481.726 283.908 481.866 284.118 482.124 284.188 482.449 284.235 482.707 284.188 483.055 283.838 483.429 283.651 483.615 283.418 483.757 283.208 483.85 282.788 484.082 282.461 484.294 282.205 484.526 282.135 484.596 282.135 484.619 282.135 484.642 282.135 484.781 282.088 484.9 281.995 484.993 282.788 486.298 283.231 487.7 283.325 489.191 283.348 489.635 283.325 490.079 283.278 490.546 283.418 490.592 283.465 490.708 283.511 490.754 283.558 490.847 283.628 490.871 283.885 490.894 284.211 490.94 284.445 490.963 284.701 490.987 284.935 491.01 285.168 491.033 285.425 491.079 285.821 491.129 286.125 491.361 286.288 491.712 286.451 492.06 286.405 492.411 286.171 492.713Z" fill="#000000" fill-rule="evenodd" fill-opacity="1" transform="matrix(1 0 0 1.00051 -120.453 -3.10805)"/><path d="M281.114 490.282 281.404 490.572 281.114 490.282Z" fill="#000000" fill-rule="evenodd" fill-opacity="1" transform="matrix(1 0 0 1.00051 -120.453 -3.10805)"/><path d="M274.587 490.282 275.178 490.041 275.312 489.536 274.909 489.121 274.264 489.121 273.861 489.536 273.996 490.041 274.587 490.282Z" fill="#000000" fill-rule="evenodd" fill-opacity="1" transform="matrix(1 0 0 1.00051 -120.453 -3.10805)"/><path d="M281.114 489.829C281.114 489.643 281.114 489.484 281.09 489.321 281.017 488.419 280.749 487.586 280.335 486.8L278.024 488.767C278.024 488.767 277.902 488.927 277.926 488.996 277.926 489.066 278.024 489.136 278.121 489.159 278.851 489.368 279.605 489.577 280.335 489.783L281.114 489.991C281.114 489.991 281.114 489.875 281.114 489.806Z" fill="#000000" fill-rule="evenodd" fill-opacity="1" transform="matrix(1 0 0 1.00051 -120.453 -3.10805)"/><text fill="#000000" fill-opacity="1" font-family="Metropolis,Metropolis_MSFontService,sans-serif" font-style="normal" font-variant="normal" font-weight="400" font-stretch="normal" font-size="41" text-anchor="start" direction="ltr" writing-mode="lr-tb" unicode-bidi="normal" text-decoration="none" transform="matrix(0.290107 0 0 0.290254 180.202 489)">vSphere Pods</text><path d="M225.559 582.391 391.79 582.391 391.79 616.914 225.559 616.914Z" stroke="#007DA3" stroke-width="1.32966" stroke-linecap="butt" stroke-linejoin="round" stroke-miterlimit="10" stroke-opacity="1" fill="#FFFFFF" fill-rule="nonzero" fill-opacity="1" transform="matrix(1 0 0 1.00051 -120.453 -3.10805)"/><text fill="#000000" fill-opacity="1" font-family="Metropolis,Metropolis_MSFontService,sans-serif" font-style="normal" font-variant="normal" font-weight="400" font-stretch="normal" font-size="41" text-anchor="start" direction="ltr" writing-mode="lr-tb" unicode-bidi="normal" text-decoration="none" transform="matrix(0.290107 0 0 0.290254 156.506 601)">Datastore 1</text><path d="M308.819 563.824 308.819 582.463" stroke="#007A86" stroke-width="1.32966" stroke-linecap="butt" stroke-linejoin="round" stroke-miterlimit="10" stroke-opacity="1" fill="none" fill-rule="evenodd" transform="matrix(1 0 0 1.00051 -120.453 -3.10805)"/><path d="M481.143 582.391 647.085 582.391 647.085 616.623 481.143 616.623Z" stroke="#007DA3" stroke-width="1.32966" stroke-linecap="butt" stroke-linejoin="round" stroke-miterlimit="10" stroke-opacity="1" fill="#FFFFFF" fill-rule="nonzero" fill-opacity="1" transform="matrix(1 0 0 1.00051 -120.453 -3.10805)"/><text fill="#000000" fill-opacity="1" font-family="Metropolis,Metropolis_MSFontService,sans-serif" font-style="normal" font-variant="normal" font-weight="400" font-stretch="normal" font-size="41" text-anchor="start" direction="ltr" writing-mode="lr-tb" unicode-bidi="normal" text-decoration="none" transform="matrix(0.290107 0 0 0.290254 410.693 601)">Datastore 2</text><path d="M0 0 0.334195 18.5127" stroke="#007A86" stroke-width="1.32966" stroke-linecap="butt" stroke-linejoin="round" stroke-miterlimit="10" stroke-opacity="1" fill="none" fill-rule="evenodd" transform="matrix(-1 0 0 1.00051 443.994 561.001)"/><path d="M736.438 582.681 902.669 582.681 902.669 616.914 736.438 616.914Z" stroke="#007DA3" stroke-width="1.32966" stroke-linecap="butt" stroke-linejoin="round" stroke-miterlimit="10" stroke-opacity="1" fill="#FFFFFF" fill-rule="nonzero" fill-opacity="1" transform="matrix(1 0 0 1.00051 -120.453 -3.10805)"/><text fill="#000000" fill-opacity="1" font-family="Metropolis,Metropolis_MSFontService,sans-serif" font-style="normal" font-variant="normal" font-weight="400" font-stretch="normal" font-size="41" text-anchor="start" direction="ltr" writing-mode="lr-tb" unicode-bidi="normal" text-decoration="none" transform="matrix(0.290107 0 0 0.290254 666.042 601)">Datastore 3</text><path d="M0 0 0.000104697 18.6464" stroke="#007A86" stroke-width="1.32966" stroke-linecap="butt" stroke-linejoin="round" stroke-miterlimit="10" stroke-opacity="1" fill="none" fill-rule="evenodd" transform="matrix(-1 0 0 1.00051 698.955 561.001)"/></g></g></g></g></g></svg>